<svg width="116" height="30" viewBox="0 0 116 30" fill="none" xmlns="http://www.w3.org/2000/svg">
<rect width="116" height="30" fill="#FF5D1A"/>
<path d="M22.4823 20V10.939H28.4753V12.122H23.8083V14.774H28.0853V15.957H23.8083V18.817H28.4753V20H22.4823ZM29.4114 20L31.6734 16.776L29.4114 13.591H30.9454L32.5184 15.918L34.1044 13.591H35.6254L33.3374 16.776L35.6254 20H34.0784L32.5184 17.647L30.9194 20H29.4114ZM36.8259 22.652V13.591H38.0999V15.437L37.7359 15.32C37.8486 14.8953 38.0132 14.5487 38.2299 14.28C38.4552 14.0113 38.7239 13.812 39.0359 13.682C39.3479 13.5433 39.6946 13.474 40.0759 13.474C40.6479 13.474 41.1462 13.6213 41.5709 13.916C42.0042 14.202 42.3379 14.5963 42.5719 15.099C42.8059 15.6017 42.9229 16.1693 42.9229 16.802C42.9229 17.478 42.7972 18.0673 42.5459 18.57C42.2946 19.064 41.9522 19.4453 41.5189 19.714C41.0856 19.9827 40.6046 20.117 40.0759 20.117C39.6946 20.117 39.3436 20.0433 39.0229 19.896C38.7109 19.7487 38.4466 19.545 38.2299 19.285C38.0132 19.0163 37.8616 18.7 37.7749 18.336L38.0999 18.154V22.652H36.8259ZM39.8029 18.947C40.1756 18.947 40.4962 18.8603 40.7649 18.687C41.0422 18.505 41.2589 18.2537 41.4149 17.933C41.5709 17.6037 41.6489 17.2267 41.6489 16.802C41.6489 16.3773 41.5709 16.0047 41.4149 15.684C41.2589 15.3547 41.0422 15.099 40.7649 14.917C40.4962 14.735 40.1756 14.644 39.8029 14.644C39.4389 14.644 39.1182 14.735 38.8409 14.917C38.5722 15.099 38.3599 15.3547 38.2039 15.684C38.0566 16.0047 37.9829 16.3773 37.9829 16.802C37.9829 17.2267 38.0566 17.6037 38.2039 17.933C38.3599 18.2537 38.5722 18.505 38.8409 18.687C39.1182 18.8603 39.4389 18.947 39.8029 18.947ZM45.77 20.117C45.3627 20.117 45.029 19.9913 44.769 19.74C44.509 19.4887 44.379 19.09 44.379 18.544V10.939H45.64V18.297C45.64 18.5223 45.6877 18.687 45.783 18.791C45.887 18.8863 46.0213 18.934 46.186 18.934C46.2553 18.934 46.3333 18.9297 46.42 18.921C46.5153 18.9037 46.6107 18.8777 46.706 18.843V19.922C46.55 19.9913 46.3853 20.039 46.212 20.065C46.0473 20.0997 45.9 20.117 45.77 20.117ZM50.7562 20.117C50.1495 20.117 49.6079 19.974 49.1312 19.688C48.6545 19.402 48.2775 19.0077 48.0002 18.505C47.7315 18.0023 47.5972 17.4303 47.5972 16.789C47.5972 16.1477 47.7315 15.58 48.0002 15.086C48.2689 14.5833 48.6415 14.189 49.1182 13.903C49.6035 13.617 50.1495 13.474 50.7562 13.474C51.3715 13.474 51.9132 13.617 52.3812 13.903C52.8492 14.189 53.2175 14.5833 53.4862 15.086C53.7635 15.58 53.9022 16.1477 53.9022 16.789C53.9022 17.4303 53.7635 18.0023 53.4862 18.505C53.2175 18.999 52.8449 19.3933 52.3682 19.688C51.9002 19.974 51.3629 20.117 50.7562 20.117ZM50.7562 18.986C51.1375 18.986 51.4669 18.895 51.7442 18.713C52.0302 18.531 52.2469 18.2753 52.3942 17.946C52.5502 17.6167 52.6282 17.231 52.6282 16.789C52.6282 16.3383 52.5502 15.9483 52.3942 15.619C52.2469 15.2897 52.0302 15.0383 51.7442 14.865C51.4669 14.683 51.1375 14.592 50.7562 14.592C50.3662 14.592 50.0282 14.683 49.7422 14.865C49.4649 15.047 49.2482 15.3027 49.0922 15.632C48.9449 15.9527 48.8712 16.3383 48.8712 16.789C48.8712 17.231 48.9449 17.6167 49.0922 17.946C49.2482 18.2753 49.4649 18.531 49.7422 18.713C50.0282 18.895 50.3662 18.986 50.7562 18.986ZM55.3737 20V13.591H56.6607V15.32L56.3877 15.372C56.4311 14.9907 56.5611 14.6613 56.7777 14.384C57.0031 14.098 57.2674 13.877 57.5707 13.721C57.8741 13.5563 58.1731 13.474 58.4677 13.474C58.6757 13.474 58.8707 13.5 59.0527 13.552C59.2434 13.5953 59.4341 13.6733 59.6247 13.786L59.0007 14.93C58.9054 14.878 58.7841 14.8347 58.6367 14.8C58.4894 14.7653 58.3507 14.748 58.2207 14.748C58.0214 14.748 57.8264 14.7827 57.6357 14.852C57.4451 14.9213 57.2717 15.034 57.1157 15.19C56.9684 15.346 56.8557 15.5497 56.7777 15.801C56.7431 15.9223 56.7127 16.0827 56.6867 16.282C56.6694 16.4727 56.6607 16.737 56.6607 17.075V20H55.3737ZM63.1444 20.117C62.6244 20.117 62.1737 20.0303 61.7924 19.857C61.4111 19.6837 61.0947 19.4453 60.8434 19.142C60.5921 18.83 60.4014 18.479 60.2714 18.089C60.1501 17.6903 60.0894 17.2743 60.0894 16.841C60.0894 16.4077 60.1501 15.9917 60.2714 15.593C60.3927 15.1857 60.5747 14.826 60.8174 14.514C61.0601 14.1933 61.3634 13.942 61.7274 13.76C62.1001 13.5693 62.5377 13.474 63.0404 13.474C63.5431 13.474 63.9764 13.5607 64.3404 13.734C64.7044 13.8987 65.0034 14.1327 65.2374 14.436C65.4714 14.7307 65.6447 15.0643 65.7574 15.437C65.8787 15.8097 65.9394 16.204 65.9394 16.62C65.9394 16.6633 65.9351 16.7457 65.9264 16.867C65.9264 16.9797 65.9177 17.088 65.9004 17.192H61.3634C61.3894 17.764 61.5627 18.206 61.8834 18.518C62.2127 18.8213 62.6461 18.973 63.1834 18.973C63.5474 18.973 63.8724 18.9167 64.1584 18.804C64.4444 18.6827 64.7087 18.4963 64.9514 18.245L65.7314 19.051C65.4801 19.3023 65.2201 19.506 64.9514 19.662C64.6914 19.818 64.4141 19.9307 64.1194 20C63.8334 20.078 63.5084 20.117 63.1444 20.117ZM64.6784 16.555C64.6957 16.4857 64.7044 16.4163 64.7044 16.347C64.7131 16.2777 64.7174 16.2083 64.7174 16.139C64.7174 15.9397 64.6827 15.7447 64.6134 15.554C64.5441 15.3633 64.4401 15.1943 64.3014 15.047C64.1627 14.891 63.9894 14.7697 63.7814 14.683C63.5821 14.5877 63.3481 14.54 63.0794 14.54C62.7241 14.54 62.4207 14.6223 62.1694 14.787C61.9181 14.943 61.7231 15.151 61.5844 15.411C61.4544 15.671 61.3764 15.9527 61.3504 16.256H65.0944L64.6784 16.555ZM73.5419 20.117C73.0219 20.117 72.5712 20.0303 72.1899 19.857C71.8085 19.6837 71.4922 19.4453 71.2409 19.142C70.9895 18.83 70.7989 18.479 70.6689 18.089C70.5475 17.6903 70.4869 17.2743 70.4869 16.841C70.4869 16.4077 70.5475 15.9917 70.6689 15.593C70.7902 15.1857 70.9722 14.826 71.2149 14.514C71.4575 14.1933 71.7609 13.942 72.1249 13.76C72.4975 13.5693 72.9352 13.474 73.4379 13.474C73.9405 13.474 74.3739 13.5607 74.7379 13.734C75.1019 13.8987 75.4009 14.1327 75.6349 14.436C75.8689 14.7307 76.0422 15.0643 76.1549 15.437C76.2762 15.8097 76.3369 16.204 76.3369 16.62C76.3369 16.6633 76.3325 16.7457 76.3239 16.867C76.3239 16.9797 76.3152 17.088 76.2979 17.192H71.7609C71.7869 17.764 71.9602 18.206 72.2809 18.518C72.6102 18.8213 73.0435 18.973 73.5809 18.973C73.9449 18.973 74.2699 18.9167 74.5559 18.804C74.8419 18.6827 75.1062 18.4963 75.3489 18.245L76.1289 19.051C75.8775 19.3023 75.6175 19.506 75.3489 19.662C75.0889 19.818 74.8115 19.9307 74.5169 20C74.2309 20.078 73.9059 20.117 73.5419 20.117ZM75.0759 16.555C75.0932 16.4857 75.1019 16.4163 75.1019 16.347C75.1105 16.2777 75.1149 16.2083 75.1149 16.139C75.1149 15.9397 75.0802 15.7447 75.0109 15.554C74.9415 15.3633 74.8375 15.1943 74.6989 15.047C74.5602 14.891 74.3869 14.7697 74.1789 14.683C73.9795 14.5877 73.7455 14.54 73.4769 14.54C73.1215 14.54 72.8182 14.6223 72.5669 14.787C72.3155 14.943 72.1205 15.151 71.9819 15.411C71.8519 15.671 71.7739 15.9527 71.7479 16.256H75.4919L75.0759 16.555ZM77.5204 20V18.986C77.815 18.752 78.1574 18.492 78.5474 18.206C78.9374 17.92 79.3317 17.608 79.7304 17.27C80.1377 16.932 80.5147 16.5723 80.8614 16.191C81.208 15.8097 81.4854 15.411 81.6934 14.995C81.91 14.5703 82.0184 14.137 82.0184 13.695C82.0184 13.2183 81.8884 12.8327 81.6284 12.538C81.3684 12.2347 80.9784 12.083 80.4584 12.083C80.0684 12.083 79.7434 12.174 79.4834 12.356C79.232 12.538 79.0457 12.785 78.9244 13.097C78.803 13.409 78.738 13.7557 78.7294 14.137L77.4814 14.046C77.4814 13.6213 77.5464 13.2183 77.6764 12.837C77.8064 12.4557 77.997 12.1177 78.2484 11.823C78.5084 11.5197 78.8247 11.2813 79.1974 11.108C79.5787 10.9347 80.012 10.848 80.4974 10.848C81.052 10.848 81.533 10.965 81.9404 11.199C82.3564 11.433 82.6814 11.758 82.9154 12.174C83.1494 12.59 83.2664 13.0797 83.2664 13.643C83.2664 14.1197 83.1797 14.579 83.0064 15.021C82.8417 15.463 82.6077 15.8877 82.3044 16.295C82.001 16.6937 81.65 17.0707 81.2514 17.426C80.8527 17.7813 80.4237 18.1193 79.9644 18.44C79.505 18.752 79.0284 19.038 78.5344 19.298L78.8724 18.817H83.6304V20H77.5204ZM85.0678 20V13.591H86.3418V20H85.0678ZM84.9768 12.486V10.939H86.4198V12.486H84.9768ZM87.8163 20V18.986C88.1109 18.752 88.4533 18.492 88.8433 18.206C89.2333 17.92 89.6276 17.608 90.0263 17.27C90.4336 16.932 90.8106 16.5723 91.1573 16.191C91.5039 15.8097 91.7813 15.411 91.9893 14.995C92.2059 14.5703 92.3143 14.137 92.3143 13.695C92.3143 13.2183 92.1843 12.8327 91.9243 12.538C91.6643 12.2347 91.2743 12.083 90.7543 12.083C90.3643 12.083 90.0393 12.174 89.7793 12.356C89.5279 12.538 89.3416 12.785 89.2203 13.097C89.0989 13.409 89.0339 13.7557 89.0253 14.137L87.7773 14.046C87.7773 13.6213 87.8423 13.2183 87.9723 12.837C88.1023 12.4557 88.2929 12.1177 88.5443 11.823C88.8043 11.5197 89.1206 11.2813 89.4933 11.108C89.8746 10.9347 90.3079 10.848 90.7933 10.848C91.3479 10.848 91.8289 10.965 92.2363 11.199C92.6523 11.433 92.9773 11.758 93.2113 12.174C93.4453 12.59 93.5623 13.0797 93.5623 13.643C93.5623 14.1197 93.4756 14.579 93.3023 15.021C93.1376 15.463 92.9036 15.8877 92.6003 16.295C92.2969 16.6937 91.9459 17.0707 91.5473 17.426C91.1486 17.7813 90.7196 18.1193 90.2603 18.44C89.8009 18.752 89.3243 19.038 88.8303 19.298L89.1683 18.817H93.9263V20H87.8163Z" fill="white"/>
</svg>
