<svg width="114" height="31" viewBox="0 0 114 31" fill="none" xmlns="http://www.w3.org/2000/svg">
<rect width="114" height="31" rx="5" fill="#FFFEFE"/>
<path d="M18.1912 20.156C17.3992 20.156 16.7512 19.916 16.2472 19.436C15.7512 18.956 15.4752 18.296 15.4192 17.456L16.6192 17.324C16.6592 17.916 16.8152 18.348 17.0872 18.62C17.3592 18.892 17.7272 19.028 18.1912 19.028C18.7272 19.028 19.1112 18.852 19.3432 18.5C19.5832 18.14 19.7032 17.636 19.7032 16.988V12.728H16.4512V11.636H20.9272V17.06C20.9272 17.7 20.8152 18.252 20.5912 18.716C20.3752 19.18 20.0632 19.536 19.6552 19.784C19.2472 20.032 18.7592 20.156 18.1912 20.156ZM25.196 20.108C24.636 20.108 24.136 19.976 23.696 19.712C23.256 19.448 22.908 19.084 22.652 18.62C22.404 18.156 22.28 17.628 22.28 17.036C22.28 16.444 22.404 15.92 22.652 15.464C22.9 15 23.244 14.636 23.684 14.372C24.132 14.108 24.636 13.976 25.196 13.976C25.764 13.976 26.264 14.108 26.696 14.372C27.128 14.636 27.468 15 27.716 15.464C27.972 15.92 28.1 16.444 28.1 17.036C28.1 17.628 27.972 18.156 27.716 18.62C27.468 19.076 27.124 19.44 26.684 19.712C26.252 19.976 25.756 20.108 25.196 20.108ZM25.196 19.064C25.548 19.064 25.852 18.98 26.108 18.812C26.372 18.644 26.572 18.408 26.708 18.104C26.852 17.8 26.924 17.444 26.924 17.036C26.924 16.62 26.852 16.26 26.708 15.956C26.572 15.652 26.372 15.42 26.108 15.26C25.852 15.092 25.548 15.008 25.196 15.008C24.836 15.008 24.524 15.092 24.26 15.26C24.004 15.428 23.804 15.664 23.66 15.968C23.524 16.264 23.456 16.62 23.456 17.036C23.456 17.444 23.524 17.8 23.66 18.104C23.804 18.408 24.004 18.644 24.26 18.812C24.524 18.98 24.836 19.064 25.196 19.064ZM29.4464 20V14.084H30.6224V20H29.4464ZM29.3624 13.064V11.636H30.6944V13.064H29.3624ZM32.2474 20V14.084H33.4354V15.368L33.1954 15.44C33.2994 15.112 33.4474 14.844 33.6394 14.636C33.8394 14.42 34.0714 14.256 34.3354 14.144C34.6074 14.032 34.8994 13.976 35.2114 13.976C35.8674 13.976 36.3794 14.168 36.7474 14.552C37.1234 14.928 37.3114 15.48 37.3114 16.208V20H36.1354V16.64C36.1354 16.072 36.0314 15.656 35.8234 15.392C35.6234 15.128 35.3114 14.996 34.8874 14.996C34.5674 14.996 34.2994 15.068 34.0834 15.212C33.8754 15.356 33.7154 15.584 33.6034 15.896C33.4914 16.208 33.4354 16.604 33.4354 17.084V20H32.2474ZM45.6454 20.156C44.8694 20.156 44.1854 19.976 43.5934 19.616C43.0094 19.256 42.5534 18.748 42.2254 18.092C41.8974 17.436 41.7334 16.676 41.7334 15.812C41.7334 14.948 41.8974 14.192 42.2254 13.544C42.5534 12.888 43.0094 12.38 43.5934 12.02C44.1854 11.66 44.8694 11.48 45.6454 11.48C46.5014 11.48 47.2414 11.692 47.8654 12.116C48.4974 12.54 48.9494 13.128 49.2214 13.88L48.0814 14.3C47.8814 13.78 47.5734 13.376 47.1574 13.088C46.7414 12.792 46.2374 12.644 45.6454 12.644C45.1014 12.644 44.6254 12.776 44.2174 13.04C43.8174 13.296 43.5054 13.66 43.2814 14.132C43.0654 14.596 42.9574 15.156 42.9574 15.812C42.9574 16.468 43.0654 17.032 43.2814 17.504C43.5054 17.976 43.8174 18.344 44.2174 18.608C44.6254 18.864 45.1014 18.992 45.6454 18.992C46.2374 18.992 46.7414 18.848 47.1574 18.56C47.5734 18.264 47.8814 17.856 48.0814 17.336L49.2214 17.744C48.9494 18.488 48.4974 19.076 47.8654 19.508C47.2414 19.94 46.5014 20.156 45.6454 20.156ZM53.1101 20.108C52.5501 20.108 52.0501 19.976 51.6101 19.712C51.1701 19.448 50.8221 19.084 50.5661 18.62C50.3181 18.156 50.1941 17.628 50.1941 17.036C50.1941 16.444 50.3181 15.92 50.5661 15.464C50.8141 15 51.1581 14.636 51.5981 14.372C52.0461 14.108 52.5501 13.976 53.1101 13.976C53.6781 13.976 54.1781 14.108 54.6101 14.372C55.0421 14.636 55.3821 15 55.6301 15.464C55.8861 15.92 56.0141 16.444 56.0141 17.036C56.0141 17.628 55.8861 18.156 55.6301 18.62C55.3821 19.076 55.0381 19.44 54.5981 19.712C54.1661 19.976 53.6701 20.108 53.1101 20.108ZM53.1101 19.064C53.4621 19.064 53.7661 18.98 54.0221 18.812C54.2861 18.644 54.4861 18.408 54.6221 18.104C54.7661 17.8 54.8381 17.444 54.8381 17.036C54.8381 16.62 54.7661 16.26 54.6221 15.956C54.4861 15.652 54.2861 15.42 54.0221 15.26C53.7661 15.092 53.4621 15.008 53.1101 15.008C52.7501 15.008 52.4381 15.092 52.1741 15.26C51.9181 15.428 51.7181 15.664 51.5741 15.968C51.4381 16.264 51.3701 16.62 51.3701 17.036C51.3701 17.444 51.4381 17.8 51.5741 18.104C51.7181 18.408 51.9181 18.644 52.1741 18.812C52.4381 18.98 52.7501 19.064 53.1101 19.064ZM57.3724 20V11.636H58.5604V15.368L58.3084 15.452C58.4124 15.124 58.5644 14.852 58.7644 14.636C58.9724 14.42 59.2084 14.256 59.4724 14.144C59.7444 14.032 60.0324 13.976 60.3364 13.976C60.9924 13.976 61.5044 14.168 61.8724 14.552C62.2484 14.928 62.4364 15.48 62.4364 16.208V20H61.2604V16.64C61.2604 16.072 61.1564 15.656 60.9484 15.392C60.7484 15.128 60.4364 14.996 60.0124 14.996C59.5404 14.996 59.1804 15.164 58.9324 15.5C58.6844 15.828 58.5604 16.356 58.5604 17.084V20H57.3724ZM66.6452 20.108C66.0852 20.108 65.5852 19.976 65.1452 19.712C64.7052 19.448 64.3572 19.084 64.1012 18.62C63.8532 18.156 63.7292 17.628 63.7292 17.036C63.7292 16.444 63.8532 15.92 64.1012 15.464C64.3492 15 64.6932 14.636 65.1332 14.372C65.5812 14.108 66.0852 13.976 66.6452 13.976C67.2132 13.976 67.7132 14.108 68.1452 14.372C68.5772 14.636 68.9172 15 69.1652 15.464C69.4212 15.92 69.5492 16.444 69.5492 17.036C69.5492 17.628 69.4212 18.156 69.1652 18.62C68.9172 19.076 68.5732 19.44 68.1332 19.712C67.7012 19.976 67.2052 20.108 66.6452 20.108ZM66.6452 19.064C66.9972 19.064 67.3012 18.98 67.5572 18.812C67.8212 18.644 68.0212 18.408 68.1572 18.104C68.3012 17.8 68.3732 17.444 68.3732 17.036C68.3732 16.62 68.3012 16.26 68.1572 15.956C68.0212 15.652 67.8212 15.42 67.5572 15.26C67.3012 15.092 66.9972 15.008 66.6452 15.008C66.2852 15.008 65.9732 15.092 65.7092 15.26C65.4532 15.428 65.2532 15.664 65.1092 15.968C64.9732 16.264 64.9052 16.62 64.9052 17.036C64.9052 17.444 64.9732 17.8 65.1092 18.104C65.2532 18.408 65.4532 18.644 65.7092 18.812C65.9732 18.98 66.2852 19.064 66.6452 19.064ZM70.9076 20V14.084H72.0956V15.68L71.8436 15.728C71.8836 15.376 72.0036 15.072 72.2036 14.816C72.4116 14.552 72.6556 14.348 72.9356 14.204C73.2156 14.052 73.4916 13.976 73.7636 13.976C73.9556 13.976 74.1356 14 74.3036 14.048C74.4796 14.088 74.6556 14.16 74.8316 14.264L74.2556 15.32C74.1676 15.272 74.0556 15.232 73.9196 15.2C73.7836 15.168 73.6556 15.152 73.5356 15.152C73.3516 15.152 73.1716 15.184 72.9956 15.248C72.8196 15.312 72.6596 15.416 72.5156 15.56C72.3796 15.704 72.2756 15.892 72.2036 16.124C72.1716 16.236 72.1436 16.384 72.1196 16.568C72.1036 16.744 72.0956 16.988 72.0956 17.3V20H70.9076ZM77.9286 20.108C77.6406 20.108 77.3726 20.052 77.1246 19.94C76.8846 19.828 76.6926 19.648 76.5486 19.4C76.4126 19.144 76.3446 18.816 76.3446 18.416V12.572L77.5326 11.912V18.104C77.5326 18.432 77.5806 18.688 77.6766 18.872C77.7806 19.048 77.9686 19.136 78.2406 19.136C78.3206 19.136 78.4126 19.128 78.5166 19.112C78.6286 19.088 78.7486 19.06 78.8766 19.028V19.94C78.7166 19.996 78.5566 20.036 78.3966 20.06C78.2366 20.092 78.0806 20.108 77.9286 20.108ZM75.1686 14.996V14.084H78.8766V14.996H75.1686ZM82.9483 20V19.064C83.2203 18.848 83.5363 18.608 83.8963 18.344C84.2563 18.08 84.6203 17.792 84.9883 17.48C85.3643 17.168 85.7123 16.836 86.0323 16.484C86.3523 16.132 86.6083 15.764 86.8003 15.38C87.0003 14.988 87.1003 14.588 87.1003 14.18C87.1003 13.74 86.9803 13.384 86.7403 13.112C86.5003 12.832 86.1403 12.692 85.6603 12.692C85.3003 12.692 85.0003 12.776 84.7603 12.944C84.5283 13.112 84.3563 13.34 84.2443 13.628C84.1323 13.916 84.0723 14.236 84.0643 14.588L82.9123 14.504C82.9123 14.112 82.9723 13.74 83.0923 13.388C83.2123 13.036 83.3883 12.724 83.6203 12.452C83.8603 12.172 84.1523 11.952 84.4963 11.792C84.8483 11.632 85.2483 11.552 85.6963 11.552C86.2083 11.552 86.6523 11.66 87.0283 11.876C87.4123 12.092 87.7123 12.392 87.9283 12.776C88.1443 13.16 88.2523 13.612 88.2523 14.132C88.2523 14.572 88.1723 14.996 88.0123 15.404C87.8603 15.812 87.6443 16.204 87.3643 16.58C87.0843 16.948 86.7603 17.296 86.3923 17.624C86.0243 17.952 85.6283 18.264 85.2043 18.56C84.7803 18.848 84.3403 19.112 83.8843 19.352L84.1963 18.908H88.5883V20H82.9483ZM89.8911 20V18.548H91.2111V20H89.8911ZM95.3779 20.096C94.8899 20.096 94.4779 20.008 94.1419 19.832C93.8139 19.656 93.5419 19.42 93.3259 19.124C93.1179 18.82 92.9579 18.484 92.8459 18.116C92.7419 17.74 92.6699 17.352 92.6299 16.952C92.5899 16.544 92.5699 16.156 92.5699 15.788C92.5699 15.42 92.5859 15.04 92.6179 14.648C92.6579 14.248 92.7299 13.864 92.8339 13.496C92.9459 13.12 93.1059 12.784 93.3139 12.488C93.5219 12.192 93.7899 11.956 94.1179 11.78C94.4539 11.604 94.8619 11.516 95.3419 11.516C95.8139 11.516 96.2139 11.604 96.5419 11.78C96.8699 11.948 97.1379 12.176 97.3459 12.464C97.5619 12.752 97.7259 13.08 97.8379 13.448C97.9499 13.816 98.0259 14.204 98.0659 14.612C98.1139 15.012 98.1379 15.404 98.1379 15.788C98.1379 16.188 98.1139 16.592 98.0659 17C98.0259 17.408 97.9459 17.796 97.8259 18.164C97.7139 18.532 97.5539 18.864 97.3459 19.16C97.1379 19.448 96.8739 19.676 96.5539 19.844C96.2339 20.012 95.8419 20.096 95.3779 20.096ZM95.3779 18.968C95.7779 18.968 96.0899 18.828 96.3139 18.548C96.5459 18.268 96.7099 17.892 96.8059 17.42C96.9019 16.948 96.9499 16.42 96.9499 15.836C96.9499 15.22 96.8979 14.676 96.7939 14.204C96.6979 13.724 96.5339 13.344 96.3019 13.064C96.0699 12.784 95.7499 12.644 95.3419 12.644C95.0219 12.644 94.7579 12.728 94.5499 12.896C94.3499 13.064 94.1939 13.296 94.0819 13.592C93.9699 13.888 93.8899 14.228 93.8419 14.612C93.7939 14.988 93.7699 15.392 93.7699 15.824C93.7699 16.24 93.7939 16.636 93.8419 17.012C93.8899 17.388 93.9699 17.724 94.0819 18.02C94.2019 18.308 94.3659 18.54 94.5739 18.716C94.7819 18.884 95.0499 18.968 95.3779 18.968Z" fill="#FF5D1A"/>
</svg>
