<svg width="82" height="27" viewBox="0 0 82 27" fill="none" xmlns="http://www.w3.org/2000/svg">
<rect width="81.2429" height="27" fill="#FF5D1A"/>
<path d="M28.5343 17V9.333H33.5943V10.334H29.6563V12.578H33.0773V13.579H29.6563V17H28.5343ZM33.1485 17L36.1295 9.333H36.9985L39.9685 17H38.7475L36.5695 10.961L34.3805 17H33.1485ZM34.9085 15.295L35.2495 14.294H37.8675L38.2415 15.295H34.9085ZM43.8863 17.143C43.175 17.143 42.5516 16.978 42.0163 16.648C41.481 16.318 41.0593 15.856 40.7513 15.262C40.4506 14.6607 40.3003 13.964 40.3003 13.172C40.3003 12.3727 40.4506 11.676 40.7513 11.082C41.052 10.4807 41.47 10.015 42.0053 9.685C42.548 9.355 43.175 9.19 43.8863 9.19C44.6123 9.19 45.2466 9.355 45.7893 9.685C46.332 10.015 46.7536 10.4807 47.0543 11.082C47.355 11.676 47.5053 12.3727 47.5053 13.172C47.5053 13.964 47.3513 14.6607 47.0433 15.262C46.7426 15.856 46.321 16.318 45.7783 16.648C45.2356 16.978 44.605 17.143 43.8863 17.143ZM47.1533 17.539L44.1283 14.591L44.7883 13.898L47.8353 16.879L47.1533 17.539ZM43.8863 16.076C44.3996 16.076 44.8396 15.9587 45.2063 15.724C45.573 15.482 45.859 15.1447 46.0643 14.712C46.2696 14.272 46.3723 13.7587 46.3723 13.172C46.3723 12.578 46.2696 12.0647 46.0643 11.632C45.859 11.192 45.573 10.8547 45.2063 10.62C44.8396 10.378 44.3996 10.257 43.8863 10.257C43.3876 10.257 42.9513 10.3743 42.5773 10.609C42.2106 10.8437 41.9246 11.181 41.7193 11.621C41.5213 12.0537 41.4223 12.5707 41.4223 13.172C41.4223 13.766 41.5213 14.283 41.7193 14.723C41.9246 15.1557 42.2106 15.4893 42.5773 15.724C42.9513 15.9587 43.3876 16.076 43.8863 16.076ZM50.9298 17.099C50.5485 17.099 50.2111 17.044 49.9178 16.934C49.6245 16.8167 49.3715 16.67 49.1588 16.494C48.9535 16.3107 48.7885 16.1237 48.6638 15.933L49.4008 15.295C49.5401 15.5443 49.7381 15.7607 49.9948 15.944C50.2588 16.12 50.5741 16.208 50.9408 16.208C51.2635 16.208 51.5165 16.142 51.6998 16.01C51.8905 15.8707 51.9858 15.691 51.9858 15.471C51.9858 15.295 51.9271 15.1557 51.8098 15.053C51.6925 14.943 51.5385 14.855 51.3478 14.789C51.1571 14.7157 50.9481 14.6533 50.7208 14.602C50.5155 14.5433 50.3065 14.4773 50.0938 14.404C49.8811 14.3307 49.6868 14.239 49.5108 14.129C49.3421 14.0117 49.2028 13.865 49.0928 13.689C48.9901 13.5057 48.9388 13.282 48.9388 13.018C48.9388 12.556 49.1148 12.1857 49.4668 11.907C49.8261 11.621 50.2991 11.478 50.8858 11.478C51.3038 11.478 51.6851 11.566 52.0298 11.742C52.3745 11.9107 52.6421 12.1637 52.8328 12.501L52.1618 13.018C52.0151 12.776 51.8245 12.6 51.5898 12.49C51.3625 12.38 51.1131 12.325 50.8418 12.325C50.5851 12.325 50.3688 12.38 50.1928 12.49C50.0241 12.5927 49.9398 12.7357 49.9398 12.919C49.9398 13.051 49.9765 13.161 50.0498 13.249C50.1305 13.3297 50.2515 13.403 50.4128 13.469C50.5815 13.5277 50.7868 13.5863 51.0288 13.645C51.2561 13.6963 51.4871 13.7587 51.7218 13.832C51.9565 13.9053 52.1728 14.0007 52.3708 14.118C52.5688 14.2353 52.7301 14.393 52.8548 14.591C52.9795 14.789 53.0418 15.0457 53.0418 15.361C53.0418 15.7057 52.9538 16.01 52.7778 16.274C52.6018 16.5307 52.3561 16.7323 52.0408 16.879C51.7255 17.0257 51.3551 17.099 50.9298 17.099Z" fill="white"/>
</svg>
