<svg width="87" height="27" viewBox="0 0 87 27" fill="none" xmlns="http://www.w3.org/2000/svg">
<rect width="82.7133" height="27" fill="#FF5D1A"/>
<path d="M16.7523 17L19.7333 9.333H20.6023L23.5723 17H22.3513L20.1733 10.961L17.9843 17H16.7523ZM18.5123 15.295L18.8533 14.294H21.4713L21.8453 15.295H18.5123ZM24.4898 19.244V11.577H25.5678V13.139L25.2598 13.04C25.3552 12.6807 25.4945 12.3873 25.6778 12.16C25.8685 11.9327 26.0958 11.764 26.3598 11.654C26.6238 11.5367 26.9172 11.478 27.2398 11.478C27.7238 11.478 28.1455 11.6027 28.5048 11.852C28.8715 12.094 29.1538 12.4277 29.3518 12.853C29.5498 13.2783 29.6488 13.7587 29.6488 14.294C29.6488 14.866 29.5425 15.3647 29.3298 15.79C29.1172 16.208 28.8275 16.5307 28.4608 16.758C28.0942 16.9853 27.6872 17.099 27.2398 17.099C26.9172 17.099 26.6202 17.0367 26.3488 16.912C26.0848 16.7873 25.8612 16.615 25.6778 16.395C25.4945 16.1677 25.3662 15.9 25.2928 15.592L25.5678 15.438V19.244H24.4898ZM27.0088 16.109C27.3242 16.109 27.5955 16.0357 27.8228 15.889C28.0575 15.735 28.2408 15.5223 28.3728 15.251C28.5048 14.9723 28.5708 14.6533 28.5708 14.294C28.5708 13.9347 28.5048 13.6193 28.3728 13.348C28.2408 13.0693 28.0575 12.853 27.8228 12.699C27.5955 12.545 27.3242 12.468 27.0088 12.468C26.7008 12.468 26.4295 12.545 26.1948 12.699C25.9675 12.853 25.7878 13.0693 25.6558 13.348C25.5312 13.6193 25.4688 13.9347 25.4688 14.294C25.4688 14.6533 25.5312 14.9723 25.6558 15.251C25.7878 15.5223 25.9675 15.735 26.1948 15.889C26.4295 16.0357 26.7008 16.109 27.0088 16.109ZM30.9029 19.244V11.577H31.9809V13.139L31.6729 13.04C31.7683 12.6807 31.9076 12.3873 32.0909 12.16C32.2816 11.9327 32.5089 11.764 32.7729 11.654C33.0369 11.5367 33.3303 11.478 33.6529 11.478C34.1369 11.478 34.5586 11.6027 34.9179 11.852C35.2846 12.094 35.5669 12.4277 35.7649 12.853C35.9629 13.2783 36.0619 13.7587 36.0619 14.294C36.0619 14.866 35.9556 15.3647 35.7429 15.79C35.5303 16.208 35.2406 16.5307 34.8739 16.758C34.5073 16.9853 34.1003 17.099 33.6529 17.099C33.3303 17.099 33.0333 17.0367 32.7619 16.912C32.4979 16.7873 32.2743 16.615 32.0909 16.395C31.9076 16.1677 31.7793 15.9 31.7059 15.592L31.9809 15.438V19.244H30.9029ZM33.4219 16.109C33.7373 16.109 34.0086 16.0357 34.2359 15.889C34.4706 15.735 34.6539 15.5223 34.7859 15.251C34.9179 14.9723 34.9839 14.6533 34.9839 14.294C34.9839 13.9347 34.9179 13.6193 34.7859 13.348C34.6539 13.0693 34.4706 12.853 34.2359 12.699C34.0086 12.545 33.7373 12.468 33.4219 12.468C33.1139 12.468 32.8426 12.545 32.6079 12.699C32.3806 12.853 32.2009 13.0693 32.0689 13.348C31.9443 13.6193 31.8819 13.9347 31.8819 14.294C31.8819 14.6533 31.9443 14.9723 32.0689 15.251C32.2009 15.5223 32.3806 15.735 32.6079 15.889C32.8426 16.0357 33.1139 16.109 33.4219 16.109ZM38.471 17.099C38.1263 17.099 37.844 16.9927 37.624 16.78C37.404 16.5673 37.294 16.23 37.294 15.768V9.333H38.361V15.559C38.361 15.7497 38.4013 15.889 38.482 15.977C38.57 16.0577 38.6837 16.098 38.823 16.098C38.8817 16.098 38.9477 16.0943 39.021 16.087C39.1017 16.0723 39.1823 16.0503 39.263 16.021V16.934C39.131 16.9927 38.9917 17.033 38.845 17.055C38.7057 17.0843 38.581 17.099 38.471 17.099ZM40.7761 19.233L41.8321 16.681L39.7421 11.577H40.9301L42.4041 15.603L43.9001 11.577H45.0661L41.9531 19.233H40.7761ZM48.9946 17V9.333H50.1606L53.9776 15.548H53.7136V9.333H54.8246V17H53.6366L49.8526 10.774H50.1166V17H48.9946ZM58.8141 17.099C58.3008 17.099 57.8425 16.978 57.4391 16.736C57.0358 16.494 56.7168 16.1603 56.4821 15.735C56.2548 15.3097 56.1411 14.8257 56.1411 14.283C56.1411 13.7403 56.2548 13.26 56.4821 12.842C56.7095 12.4167 57.0248 12.083 57.4281 11.841C57.8388 11.599 58.3008 11.478 58.8141 11.478C59.3348 11.478 59.7931 11.599 60.1891 11.841C60.5851 12.083 60.8968 12.4167 61.1241 12.842C61.3588 13.26 61.4761 13.7403 61.4761 14.283C61.4761 14.8257 61.3588 15.3097 61.1241 15.735C60.8968 16.153 60.5815 16.4867 60.1781 16.736C59.7821 16.978 59.3275 17.099 58.8141 17.099ZM58.8141 16.142C59.1368 16.142 59.4155 16.065 59.6501 15.911C59.8921 15.757 60.0755 15.5407 60.2001 15.262C60.3321 14.9833 60.3981 14.657 60.3981 14.283C60.3981 13.9017 60.3321 13.5717 60.2001 13.293C60.0755 13.0143 59.8921 12.8017 59.6501 12.655C59.4155 12.501 59.1368 12.424 58.8141 12.424C58.4841 12.424 58.1981 12.501 57.9561 12.655C57.7215 12.809 57.5381 13.0253 57.4061 13.304C57.2815 13.5753 57.2191 13.9017 57.2191 14.283C57.2191 14.657 57.2815 14.9833 57.4061 15.262C57.5381 15.5407 57.7215 15.757 57.9561 15.911C58.1981 16.065 58.4841 16.142 58.8141 16.142ZM63.8118 17L62.1838 11.577H63.3278L64.3618 15.361L65.5608 11.577H66.4958L67.6948 15.339L68.7398 11.577H69.8838L68.2448 17H67.2658L66.0338 13.084L64.8018 17H63.8118Z" fill="white"/>
</svg>
