<svg width="116" height="30" viewBox="0 0 116 30" fill="none" xmlns="http://www.w3.org/2000/svg">
<rect width="116" height="30" fill="#FF5D1A"/>
<path d="M30.8215 20.169C29.9635 20.169 29.2615 19.909 28.7155 19.389C28.1781 18.869 27.8791 18.154 27.8185 17.244L29.1185 17.101C29.1618 17.7423 29.3308 18.2103 29.6255 18.505C29.9201 18.7997 30.3188 18.947 30.8215 18.947C31.4021 18.947 31.8181 18.7563 32.0695 18.375C32.3295 17.985 32.4595 17.439 32.4595 16.737V12.122H28.9365V10.939H33.7855V16.815C33.7855 17.5083 33.6641 18.1063 33.4215 18.609C33.1875 19.1117 32.8495 19.4973 32.4075 19.766C31.9655 20.0347 31.4368 20.169 30.8215 20.169ZM38.41 20.117C37.8033 20.117 37.2617 19.974 36.785 19.688C36.3083 19.402 35.9313 19.0077 35.654 18.505C35.3853 18.0023 35.251 17.4303 35.251 16.789C35.251 16.1477 35.3853 15.58 35.654 15.086C35.9227 14.5833 36.2953 14.189 36.772 13.903C37.2573 13.617 37.8033 13.474 38.41 13.474C39.0253 13.474 39.567 13.617 40.035 13.903C40.503 14.189 40.8713 14.5833 41.14 15.086C41.4173 15.58 41.556 16.1477 41.556 16.789C41.556 17.4303 41.4173 18.0023 41.14 18.505C40.8713 18.999 40.4987 19.3933 40.022 19.688C39.554 19.974 39.0167 20.117 38.41 20.117ZM38.41 18.986C38.7913 18.986 39.1207 18.895 39.398 18.713C39.684 18.531 39.9007 18.2753 40.048 17.946C40.204 17.6167 40.282 17.231 40.282 16.789C40.282 16.3383 40.204 15.9483 40.048 15.619C39.9007 15.2897 39.684 15.0383 39.398 14.865C39.1207 14.683 38.7913 14.592 38.41 14.592C38.02 14.592 37.682 14.683 37.396 14.865C37.1187 15.047 36.902 15.3027 36.746 15.632C36.5987 15.9527 36.525 16.3383 36.525 16.789C36.525 17.231 36.5987 17.6167 36.746 17.946C36.902 18.2753 37.1187 18.531 37.396 18.713C37.682 18.895 38.02 18.986 38.41 18.986ZM43.0146 20V13.591H44.2886V20H43.0146ZM42.9236 12.486V10.939H44.3666V12.486H42.9236ZM46.049 20V13.591H47.336V14.982L47.076 15.06C47.1887 14.7047 47.349 14.4143 47.557 14.189C47.7737 13.955 48.025 13.7773 48.311 13.656C48.6057 13.5347 48.922 13.474 49.26 13.474C49.9707 13.474 50.5254 13.682 50.924 14.098C51.3314 14.5053 51.535 15.1033 51.535 15.892V20H50.261V16.36C50.261 15.7447 50.1484 15.294 49.923 15.008C49.7064 14.722 49.3684 14.579 48.909 14.579C48.5624 14.579 48.272 14.657 48.038 14.813C47.8127 14.969 47.6394 15.216 47.518 15.554C47.3967 15.892 47.336 16.321 47.336 16.841V20H46.049ZM58.8475 20.117C58.5355 20.117 58.2452 20.0563 57.9765 19.935C57.7165 19.8137 57.5085 19.6187 57.3525 19.35C57.2052 19.0727 57.1315 18.7173 57.1315 18.284V11.953L58.4185 11.238V17.946C58.4185 18.3013 58.4705 18.5787 58.5745 18.778C58.6872 18.9687 58.8909 19.064 59.1855 19.064C59.2722 19.064 59.3719 19.0553 59.4845 19.038C59.6059 19.012 59.7359 18.9817 59.8745 18.947V19.935C59.7012 19.9957 59.5279 20.039 59.3545 20.065C59.1812 20.0997 59.0122 20.117 58.8475 20.117ZM55.8575 14.579V13.591H59.8745V14.579H55.8575ZM61.1945 20V10.939H62.4815V14.982L62.2085 15.073C62.3212 14.7177 62.4859 14.423 62.7025 14.189C62.9279 13.955 63.1835 13.7773 63.4695 13.656C63.7642 13.5347 64.0762 13.474 64.4055 13.474C65.1162 13.474 65.6709 13.682 66.0695 14.098C66.4769 14.5053 66.6805 15.1033 66.6805 15.892V20H65.4065V16.36C65.4065 15.7447 65.2939 15.294 65.0685 15.008C64.8519 14.722 64.5139 14.579 64.0545 14.579C63.5432 14.579 63.1532 14.761 62.8845 15.125C62.6159 15.4803 62.4815 16.0523 62.4815 16.841V20H61.1945ZM71.1361 20.117C70.6161 20.117 70.1654 20.0303 69.7841 19.857C69.4028 19.6837 69.0864 19.4453 68.8351 19.142C68.5838 18.83 68.3931 18.479 68.2631 18.089C68.1418 17.6903 68.0811 17.2743 68.0811 16.841C68.0811 16.4077 68.1418 15.9917 68.2631 15.593C68.3844 15.1857 68.5664 14.826 68.8091 14.514C69.0518 14.1933 69.3551 13.942 69.7191 13.76C70.0918 13.5693 70.5294 13.474 71.0321 13.474C71.5348 13.474 71.9681 13.5607 72.3321 13.734C72.6961 13.8987 72.9951 14.1327 73.2291 14.436C73.4631 14.7307 73.6364 15.0643 73.7491 15.437C73.8704 15.8097 73.9311 16.204 73.9311 16.62C73.9311 16.6633 73.9268 16.7457 73.9181 16.867C73.9181 16.9797 73.9094 17.088 73.8921 17.192H69.3551C69.3811 17.764 69.5544 18.206 69.8751 18.518C70.2044 18.8213 70.6378 18.973 71.1751 18.973C71.5391 18.973 71.8641 18.9167 72.1501 18.804C72.4361 18.6827 72.7004 18.4963 72.9431 18.245L73.7231 19.051C73.4718 19.3023 73.2118 19.506 72.9431 19.662C72.6831 19.818 72.4058 19.9307 72.1111 20C71.8251 20.078 71.5001 20.117 71.1361 20.117ZM72.6701 16.555C72.6874 16.4857 72.6961 16.4163 72.6961 16.347C72.7048 16.2777 72.7091 16.2083 72.7091 16.139C72.7091 15.9397 72.6744 15.7447 72.6051 15.554C72.5358 15.3633 72.4318 15.1943 72.2931 15.047C72.1544 14.891 71.9811 14.7697 71.7731 14.683C71.5738 14.5877 71.3398 14.54 71.0711 14.54C70.7158 14.54 70.4124 14.6223 70.1611 14.787C69.9098 14.943 69.7148 15.151 69.5761 15.411C69.4461 15.671 69.3681 15.9527 69.3421 16.256H73.0861L72.6701 16.555ZM75.4006 20V13.591H76.6876V15.242L76.4146 15.333C76.4926 14.995 76.6009 14.709 76.7396 14.475C76.8783 14.241 77.0386 14.0503 77.2206 13.903C77.4113 13.7557 77.6149 13.6473 77.8316 13.578C78.0483 13.5087 78.2693 13.474 78.4946 13.474C78.8673 13.474 79.2009 13.5477 79.4956 13.695C79.7989 13.8337 80.0503 14.0547 80.2496 14.358C80.4576 14.6527 80.5963 15.0427 80.6656 15.528L79.9376 15.671C80.0676 15.1683 80.2366 14.7567 80.4446 14.436C80.6613 14.1153 80.9213 13.877 81.2246 13.721C81.5366 13.5563 81.8919 13.474 82.2906 13.474C82.8279 13.474 83.2569 13.5953 83.5776 13.838C83.9069 14.0807 84.1453 14.397 84.2926 14.787C84.4486 15.1683 84.5266 15.5887 84.5266 16.048V20H83.2656V16.36C83.2656 15.9873 83.2223 15.671 83.1356 15.411C83.0489 15.1423 82.9146 14.9387 82.7326 14.8C82.5506 14.6527 82.3079 14.579 82.0046 14.579C81.7099 14.579 81.4586 14.657 81.2506 14.813C81.0426 14.9603 80.8823 15.1857 80.7696 15.489C80.6656 15.7923 80.6136 16.1693 80.6136 16.62V20H79.3396V16.282C79.3396 15.71 79.2313 15.2853 79.0146 15.008C78.8066 14.722 78.5033 14.579 78.1046 14.579C77.8099 14.579 77.5543 14.657 77.3376 14.813C77.1296 14.9603 76.9693 15.1857 76.8566 15.489C76.7439 15.7923 76.6876 16.1693 76.6876 16.62V20H75.4006ZM86.4507 17.335L86.3077 10.939H87.5687L87.4257 17.335H86.4507ZM86.2037 20V18.427H87.6597V20H86.2037Z" fill="white"/>
</svg>
