<svg width="102" height="31" viewBox="0 0 102 31" fill="none" xmlns="http://www.w3.org/2000/svg">
<rect width="102" height="31" fill="#FF5D1A"/>
<path d="M20.4076 20L23.6596 11.636H24.6076L27.8476 20H26.5156L24.1396 13.412L21.7516 20H20.4076ZM22.3276 18.14L22.6996 17.048H25.5556L25.9636 18.14H22.3276ZM28.8486 22.448V14.084H30.0246V15.788L29.6886 15.68C29.7926 15.288 29.9446 14.968 30.1446 14.72C30.3526 14.472 30.6006 14.288 30.8886 14.168C31.1766 14.04 31.4966 13.976 31.8486 13.976C32.3766 13.976 32.8366 14.112 33.2286 14.384C33.6286 14.648 33.9366 15.012 34.1526 15.476C34.3686 15.94 34.4766 16.464 34.4766 17.048C34.4766 17.672 34.3606 18.216 34.1286 18.68C33.8966 19.136 33.5806 19.488 33.1806 19.736C32.7806 19.984 32.3366 20.108 31.8486 20.108C31.4966 20.108 31.1726 20.04 30.8766 19.904C30.5886 19.768 30.3446 19.58 30.1446 19.34C29.9446 19.092 29.8046 18.8 29.7246 18.464L30.0246 18.296V22.448H28.8486ZM31.5966 19.028C31.9406 19.028 32.2366 18.948 32.4846 18.788C32.7406 18.62 32.9406 18.388 33.0846 18.092C33.2286 17.788 33.3006 17.44 33.3006 17.048C33.3006 16.656 33.2286 16.312 33.0846 16.016C32.9406 15.712 32.7406 15.476 32.4846 15.308C32.2366 15.14 31.9406 15.056 31.5966 15.056C31.2606 15.056 30.9646 15.14 30.7086 15.308C30.4606 15.476 30.2646 15.712 30.1206 16.016C29.9846 16.312 29.9166 16.656 29.9166 17.048C29.9166 17.44 29.9846 17.788 30.1206 18.092C30.2646 18.388 30.4606 18.62 30.7086 18.788C30.9646 18.948 31.2606 19.028 31.5966 19.028ZM35.8447 22.448V14.084H37.0207V15.788L36.6847 15.68C36.7887 15.288 36.9407 14.968 37.1407 14.72C37.3487 14.472 37.5967 14.288 37.8847 14.168C38.1727 14.04 38.4927 13.976 38.8447 13.976C39.3727 13.976 39.8327 14.112 40.2247 14.384C40.6247 14.648 40.9327 15.012 41.1487 15.476C41.3647 15.94 41.4727 16.464 41.4727 17.048C41.4727 17.672 41.3567 18.216 41.1247 18.68C40.8927 19.136 40.5767 19.488 40.1767 19.736C39.7767 19.984 39.3327 20.108 38.8447 20.108C38.4927 20.108 38.1687 20.04 37.8727 19.904C37.5847 19.768 37.3407 19.58 37.1407 19.34C36.9407 19.092 36.8007 18.8 36.7207 18.464L37.0207 18.296V22.448H35.8447ZM38.5927 19.028C38.9367 19.028 39.2327 18.948 39.4807 18.788C39.7367 18.62 39.9367 18.388 40.0807 18.092C40.2247 17.788 40.2967 17.44 40.2967 17.048C40.2967 16.656 40.2247 16.312 40.0807 16.016C39.9367 15.712 39.7367 15.476 39.4807 15.308C39.2327 15.14 38.9367 15.056 38.5927 15.056C38.2567 15.056 37.9607 15.14 37.7047 15.308C37.4567 15.476 37.2607 15.712 37.1167 16.016C36.9807 16.312 36.9127 16.656 36.9127 17.048C36.9127 17.44 36.9807 17.788 37.1167 18.092C37.2607 18.388 37.4567 18.62 37.7047 18.788C37.9607 18.948 38.2567 19.028 38.5927 19.028ZM44.1008 20.108C43.7248 20.108 43.4168 19.992 43.1768 19.76C42.9368 19.528 42.8168 19.16 42.8168 18.656V11.636H43.9808V18.428C43.9808 18.636 44.0248 18.788 44.1128 18.884C44.2088 18.972 44.3328 19.016 44.4848 19.016C44.5488 19.016 44.6208 19.012 44.7008 19.004C44.7888 18.988 44.8768 18.964 44.9648 18.932V19.928C44.8208 19.992 44.6688 20.036 44.5088 20.06C44.3568 20.092 44.2208 20.108 44.1008 20.108ZM46.6154 22.436L47.7674 19.652L45.4874 14.084H46.7834L48.3914 18.476L50.0234 14.084H51.2954L47.8994 22.436H46.6154ZM55.581 20V11.636H56.853L61.017 18.416H60.729V11.636H61.941V20H60.645L56.517 13.208H56.805V20H55.581ZM66.2933 20.108C65.7333 20.108 65.2333 19.976 64.7933 19.712C64.3533 19.448 64.0053 19.084 63.7493 18.62C63.5013 18.156 63.3773 17.628 63.3773 17.036C63.3773 16.444 63.5013 15.92 63.7493 15.464C63.9973 15 64.3413 14.636 64.7813 14.372C65.2293 14.108 65.7333 13.976 66.2933 13.976C66.8613 13.976 67.3613 14.108 67.7933 14.372C68.2253 14.636 68.5653 15 68.8133 15.464C69.0693 15.92 69.1973 16.444 69.1973 17.036C69.1973 17.628 69.0693 18.156 68.8133 18.62C68.5653 19.076 68.2213 19.44 67.7813 19.712C67.3493 19.976 66.8533 20.108 66.2933 20.108ZM66.2933 19.064C66.6453 19.064 66.9493 18.98 67.2053 18.812C67.4693 18.644 67.6693 18.408 67.8053 18.104C67.9493 17.8 68.0213 17.444 68.0213 17.036C68.0213 16.62 67.9493 16.26 67.8053 15.956C67.6693 15.652 67.4693 15.42 67.2053 15.26C66.9493 15.092 66.6453 15.008 66.2933 15.008C65.9333 15.008 65.6213 15.092 65.3573 15.26C65.1013 15.428 64.9013 15.664 64.7573 15.968C64.6213 16.264 64.5533 16.62 64.5533 17.036C64.5533 17.444 64.6213 17.8 64.7573 18.104C64.9013 18.408 65.1013 18.644 65.3573 18.812C65.6213 18.98 65.9333 19.064 66.2933 19.064ZM71.7453 20L69.9693 14.084H71.2173L72.3453 18.212L73.6533 14.084H74.6733L75.9813 18.188L77.1213 14.084H78.3693L76.5813 20H75.5133L74.1693 15.728L72.8253 20H71.7453ZM79.6893 17.54L79.5573 11.636H80.7213L80.5893 17.54H79.6893ZM79.4613 20V18.548H80.8053V20H79.4613Z" fill="white"/>
</svg>
