<svg width="469" height="420" viewBox="0 0 469 420" fill="none" xmlns="http://www.w3.org/2000/svg">
<path fill-rule="evenodd" clip-rule="evenodd" d="M135.231 131.624C127.497 150.57 123.22 170.948 122.821 191.798C121.976 235.989 138.612 278.727 169.112 310.719C199.612 342.71 241.51 361.369 285.694 362.637C329.878 363.904 372.777 347.679 405.061 317.488C407.738 314.984 410.323 312.398 412.816 309.74L436.174 324.729C408.191 356.13 370.805 377.644 329.594 386.06C288.382 394.475 245.554 389.342 207.499 371.425C169.444 353.508 138.203 323.769 118.436 286.644C98.6681 249.519 91.4347 206.998 97.8145 165.425C100.407 148.53 105.191 132.16 111.971 116.698L135.231 131.624ZM402.025 302.817C400.22 304.683 398.366 306.51 396.46 308.292C366.6 336.216 326.921 351.222 286.055 350.05C245.188 348.877 206.436 331.62 178.227 302.03C150.017 272.441 134.629 232.911 135.411 192.038C135.765 173.546 139.415 155.454 146.022 138.548L402.025 302.817ZM143.992 66.385C130.755 81.4683 119.973 98.4497 111.971 116.698L0 44.8508L143.992 66.385ZM264.225 1.78828C305.901 -3.89435 348.298 4.04939 385.09 24.4338C421.882 44.8182 451.096 76.551 468.375 114.898L435.019 109.908C428.02 98.0245 419.529 86.9527 409.661 76.9904C378.555 45.5878 336.308 27.7334 292.107 27.3107C249.552 26.9039 208.5 42.6883 177.212 71.3527L143.992 66.385C147.136 62.8023 150.418 59.3259 153.835 55.966C183.825 26.4756 222.548 7.47102 264.225 1.78828ZM291.987 39.9025C332.869 40.2936 371.943 56.8062 400.714 85.8508C407.342 92.5424 413.298 99.7761 418.543 107.445L193.686 73.8166C221.453 51.6347 256.144 39.5598 291.987 39.9025Z" fill="#2C3FED"/>
<path d="M58 391C58 383.309 54.9447 375.932 49.5061 370.494C44.0675 365.055 36.6913 362 29 362C21.3087 362 13.9325 365.055 8.49391 370.494C3.05535 375.932 1.16135e-06 383.309 0 391L29 391H58Z" fill="#FF5D1A"/>
</svg>
