<svg width="210" height="47" viewBox="0 0 210 47" fill="none" xmlns="http://www.w3.org/2000/svg">
<rect width="209.163" height="46.3033" rx="12" fill="#1B45F8"/>
<path d="M36.2446 31.299C34.7266 31.299 33.4846 30.839 32.5186 29.919C31.5679 28.999 31.0389 27.734 30.9316 26.124L33.2316 25.871C33.3082 27.0057 33.6072 27.8337 34.1286 28.355C34.6499 28.8763 35.3552 29.137 36.2446 29.137C37.2719 29.137 38.0079 28.7997 38.4526 28.125C38.9126 27.435 39.1426 26.469 39.1426 25.227V17.062H32.9096V14.969H41.4886V25.365C41.4886 26.5917 41.2739 27.6497 40.8446 28.539C40.4306 29.4283 39.8326 30.1107 39.0506 30.586C38.2686 31.0613 37.3332 31.299 36.2446 31.299ZM48.7504 31.207C47.6771 31.207 46.7188 30.954 45.8754 30.448C45.0321 29.942 44.3651 29.2443 43.8744 28.355C43.3991 27.4657 43.1614 26.4537 43.1614 25.319C43.1614 24.1843 43.3991 23.18 43.8744 22.306C44.3498 21.4167 45.0091 20.719 45.8524 20.213C46.7111 19.707 47.6771 19.454 48.7504 19.454C49.8391 19.454 50.7974 19.707 51.6254 20.213C52.4534 20.719 53.1051 21.4167 53.5804 22.306C54.0711 23.18 54.3164 24.1843 54.3164 25.319C54.3164 26.4537 54.0711 27.4657 53.5804 28.355C53.1051 29.229 52.4458 29.9267 51.6024 30.448C50.7744 30.954 49.8238 31.207 48.7504 31.207ZM48.7504 29.206C49.4251 29.206 50.0078 29.045 50.4984 28.723C51.0044 28.401 51.3878 27.9487 51.6484 27.366C51.9244 26.7833 52.0624 26.101 52.0624 25.319C52.0624 24.5217 51.9244 23.8317 51.6484 23.249C51.3878 22.6663 51.0044 22.2217 50.4984 21.915C50.0078 21.593 49.4251 21.432 48.7504 21.432C48.0604 21.432 47.4624 21.593 46.9564 21.915C46.4658 22.237 46.0824 22.6893 45.8064 23.272C45.5458 23.8393 45.4154 24.5217 45.4154 25.319C45.4154 26.101 45.5458 26.7833 45.8064 27.366C46.0824 27.9487 46.4658 28.401 46.9564 28.723C47.4624 29.045 48.0604 29.206 48.7504 29.206ZM55.9769 31V19.661H58.2309V31H55.9769ZM55.8159 17.706V14.969H58.3689V17.706H55.8159ZM60.4256 31V19.661H62.7026V22.122L62.2426 22.26C62.442 21.6313 62.7256 21.1177 63.0936 20.719C63.477 20.305 63.9216 19.9907 64.4276 19.776C64.949 19.5613 65.5086 19.454 66.1066 19.454C67.364 19.454 68.3453 19.822 69.0506 20.558C69.7713 21.2787 70.1316 22.3367 70.1316 23.732V31H67.8776V24.56C67.8776 23.4713 67.6783 22.674 67.2796 22.168C66.8963 21.662 66.2983 21.409 65.4856 21.409C64.8723 21.409 64.3586 21.547 63.9446 21.823C63.546 22.099 63.2393 22.536 63.0246 23.134C62.81 23.732 62.7026 24.491 62.7026 25.411V31H60.4256ZM81.2291 31.207C80.6771 31.207 80.1635 31.0997 79.6881 30.885C79.2281 30.6703 78.8601 30.3253 78.5841 29.85C78.3235 29.3593 78.1931 28.7307 78.1931 27.964V16.763L80.4701 15.498V27.366C80.4701 27.9947 80.5621 28.4853 80.7461 28.838C80.9455 29.1753 81.3058 29.344 81.8271 29.344C81.9805 29.344 82.1568 29.3287 82.3561 29.298C82.5708 29.252 82.8008 29.1983 83.0461 29.137V30.885C82.7395 30.9923 82.4328 31.069 82.1261 31.115C81.8195 31.1763 81.5205 31.207 81.2291 31.207ZM75.9391 21.409V19.661H83.0461V21.409H75.9391ZM84.4615 31V14.969H86.7385V22.122L86.2555 22.283C86.4549 21.6543 86.7462 21.133 87.1295 20.719C87.5282 20.305 87.9805 19.9907 88.4865 19.776C89.0079 19.5613 89.5599 19.454 90.1425 19.454C91.3999 19.454 92.3812 19.822 93.0865 20.558C93.8072 21.2787 94.1675 22.3367 94.1675 23.732V31H91.9135V24.56C91.9135 23.4713 91.7142 22.674 91.3155 22.168C90.9322 21.662 90.3342 21.409 89.5215 21.409C88.6169 21.409 87.9269 21.731 87.4515 22.375C86.9762 23.0037 86.7385 24.0157 86.7385 25.411V31H84.4615ZM101.13 31.207C100.21 31.207 99.4131 31.0537 98.7384 30.747C98.0638 30.4403 97.5041 30.0187 97.0594 29.482C96.6148 28.93 96.2774 28.309 96.0474 27.619C95.8328 26.9137 95.7254 26.1777 95.7254 25.411C95.7254 24.6443 95.8328 23.9083 96.0474 23.203C96.2621 22.4823 96.5841 21.846 97.0134 21.294C97.4428 20.7267 97.9794 20.282 98.6234 19.96C99.2828 19.6227 100.057 19.454 100.946 19.454C101.836 19.454 102.602 19.6073 103.246 19.914C103.89 20.2053 104.419 20.6193 104.833 21.156C105.247 21.6773 105.554 22.2677 105.753 22.927C105.968 23.5863 106.075 24.284 106.075 25.02C106.075 25.0967 106.068 25.2423 106.052 25.457C106.052 25.6563 106.037 25.848 106.006 26.032H97.9794C98.0254 27.044 98.3321 27.826 98.8994 28.378C99.4821 28.9147 100.249 29.183 101.199 29.183C101.843 29.183 102.418 29.0833 102.924 28.884C103.43 28.6693 103.898 28.3397 104.327 27.895L105.707 29.321C105.263 29.7657 104.803 30.126 104.327 30.402C103.867 30.678 103.377 30.8773 102.855 31C102.349 31.138 101.774 31.207 101.13 31.207ZM103.844 24.905C103.875 24.7823 103.89 24.6597 103.89 24.537C103.906 24.4143 103.913 24.2917 103.913 24.169C103.913 23.8163 103.852 23.4713 103.729 23.134C103.607 22.7967 103.423 22.4977 103.177 22.237C102.932 21.961 102.625 21.7463 102.257 21.593C101.905 21.4243 101.491 21.34 101.015 21.34C100.387 21.34 99.8501 21.4857 99.4054 21.777C98.9608 22.053 98.6158 22.421 98.3704 22.881C98.1404 23.341 98.0024 23.8393 97.9564 24.376H104.58L103.844 24.905ZM119.802 31.299C118.315 31.299 117.004 30.954 115.869 30.264C114.75 29.574 113.876 28.6003 113.247 27.343C112.618 26.0857 112.304 24.629 112.304 22.973C112.304 21.317 112.618 19.868 113.247 18.626C113.876 17.3687 114.75 16.395 115.869 15.705C117.004 15.015 118.315 14.67 119.802 14.67C121.443 14.67 122.861 15.0763 124.057 15.889C125.268 16.7017 126.135 17.8287 126.656 19.27L124.471 20.075C124.088 19.0783 123.497 18.304 122.7 17.752C121.903 17.1847 120.937 16.901 119.802 16.901C118.759 16.901 117.847 17.154 117.065 17.66C116.298 18.1507 115.7 18.8483 115.271 19.753C114.857 20.6423 114.65 21.7157 114.65 22.973C114.65 24.2303 114.857 25.3113 115.271 26.216C115.7 27.1207 116.298 27.826 117.065 28.332C117.847 28.8227 118.759 29.068 119.802 29.068C120.937 29.068 121.903 28.792 122.7 28.24C123.497 27.6727 124.088 26.8907 124.471 25.894L126.656 26.676C126.135 28.102 125.268 29.229 124.057 30.057C122.861 30.885 121.443 31.299 119.802 31.299ZM133.189 31.207C132.116 31.207 131.158 30.954 130.314 30.448C129.471 29.942 128.804 29.2443 128.313 28.355C127.838 27.4657 127.6 26.4537 127.6 25.319C127.6 24.1843 127.838 23.18 128.313 22.306C128.789 21.4167 129.448 20.719 130.291 20.213C131.15 19.707 132.116 19.454 133.189 19.454C134.278 19.454 135.236 19.707 136.064 20.213C136.892 20.719 137.544 21.4167 138.019 22.306C138.51 23.18 138.755 24.1843 138.755 25.319C138.755 26.4537 138.51 27.4657 138.019 28.355C137.544 29.229 136.885 29.9267 136.041 30.448C135.213 30.954 134.263 31.207 133.189 31.207ZM133.189 29.206C133.864 29.206 134.447 29.045 134.937 28.723C135.443 28.401 135.827 27.9487 136.087 27.366C136.363 26.7833 136.501 26.101 136.501 25.319C136.501 24.5217 136.363 23.8317 136.087 23.249C135.827 22.6663 135.443 22.2217 134.937 21.915C134.447 21.593 133.864 21.432 133.189 21.432C132.499 21.432 131.901 21.593 131.395 21.915C130.905 22.237 130.521 22.6893 130.245 23.272C129.985 23.8393 129.854 24.5217 129.854 25.319C129.854 26.101 129.985 26.7833 130.245 27.366C130.521 27.9487 130.905 28.401 131.395 28.723C131.901 29.045 132.499 29.206 133.189 29.206ZM140.439 31V14.969H142.716V22.122L142.233 22.283C142.432 21.6543 142.723 21.133 143.107 20.719C143.505 20.305 143.958 19.9907 144.464 19.776C144.985 19.5613 145.537 19.454 146.12 19.454C147.377 19.454 148.358 19.822 149.064 20.558C149.784 21.2787 150.145 22.3367 150.145 23.732V31H147.891V24.56C147.891 23.4713 147.691 22.674 147.293 22.168C146.909 21.662 146.311 21.409 145.499 21.409C144.594 21.409 143.904 21.731 143.429 22.375C142.953 23.0037 142.716 24.0157 142.716 25.411V31H140.439ZM157.292 31.207C156.218 31.207 155.26 30.954 154.417 30.448C153.573 29.942 152.906 29.2443 152.416 28.355C151.94 27.4657 151.703 26.4537 151.703 25.319C151.703 24.1843 151.94 23.18 152.416 22.306C152.891 21.4167 153.55 20.719 154.394 20.213C155.252 19.707 156.218 19.454 157.292 19.454C158.38 19.454 159.339 19.707 160.167 20.213C160.995 20.719 161.646 21.4167 162.122 22.306C162.612 23.18 162.858 24.1843 162.858 25.319C162.858 26.4537 162.612 27.4657 162.122 28.355C161.646 29.229 160.987 29.9267 160.144 30.448C159.316 30.954 158.365 31.207 157.292 31.207ZM157.292 29.206C157.966 29.206 158.549 29.045 159.04 28.723C159.546 28.401 159.929 27.9487 160.19 27.366C160.466 26.7833 160.604 26.101 160.604 25.319C160.604 24.5217 160.466 23.8317 160.19 23.249C159.929 22.6663 159.546 22.2217 159.04 21.915C158.549 21.593 157.966 21.432 157.292 21.432C156.602 21.432 156.004 21.593 155.498 21.915C155.007 22.237 154.624 22.6893 154.348 23.272C154.087 23.8393 153.957 24.5217 153.957 25.319C153.957 26.101 154.087 26.7833 154.348 27.366C154.624 27.9487 155.007 28.401 155.498 28.723C156.004 29.045 156.602 29.206 157.292 29.206ZM164.541 31V19.661H166.818V22.72L166.335 22.812C166.412 22.1373 166.642 21.5547 167.025 21.064C167.424 20.558 167.891 20.167 168.428 19.891C168.965 19.5997 169.494 19.454 170.015 19.454C170.383 19.454 170.728 19.5 171.05 19.592C171.387 19.6687 171.725 19.8067 172.062 20.006L170.958 22.03C170.789 21.938 170.575 21.8613 170.314 21.8C170.053 21.7387 169.808 21.708 169.578 21.708C169.225 21.708 168.88 21.7693 168.543 21.892C168.206 22.0147 167.899 22.214 167.623 22.49C167.362 22.766 167.163 23.1263 167.025 23.571C166.964 23.7857 166.91 24.0693 166.864 24.422C166.833 24.7593 166.818 25.227 166.818 25.825V31H164.541ZM177.078 31.207C176.526 31.207 176.012 31.0997 175.537 30.885C175.077 30.6703 174.709 30.3253 174.433 29.85C174.172 29.3593 174.042 28.7307 174.042 27.964V16.763L176.319 15.498V27.366C176.319 27.9947 176.411 28.4853 176.595 28.838C176.794 29.1753 177.155 29.344 177.676 29.344C177.829 29.344 178.006 29.3287 178.205 29.298C178.42 29.252 178.65 29.1983 178.895 29.137V30.885C178.588 30.9923 178.282 31.069 177.975 31.115C177.668 31.1763 177.369 31.207 177.078 31.207ZM171.788 21.409V19.661H178.895V21.409H171.788Z" fill="white"/>
</svg>
