<svg width="30" height="26" viewBox="0 0 30 26" fill="none" xmlns="http://www.w3.org/2000/svg">
<path d="M8.3877 8.16357C7.90877 9.33755 7.64198 10.5993 7.61719 11.8911C7.56479 14.6309 8.59643 17.2807 10.4873 19.2642C12.3782 21.2476 14.9755 22.4053 17.7148 22.4839C20.4541 22.5624 23.1137 21.5558 25.1152 19.6841C25.2809 19.5292 25.4385 19.367 25.5928 19.2026L27.042 20.1333C25.3071 22.0801 22.9895 23.4143 20.4346 23.936C17.8795 24.4578 15.2236 24.1396 12.8643 23.0288C10.505 21.918 8.5683 20.0737 7.34277 17.772C6.11722 15.4702 5.66891 12.8338 6.06445 10.2563C6.2252 9.20886 6.52302 8.19443 6.94336 7.23584L8.3877 8.16357ZM24.9258 18.7749C24.8142 18.8903 24.6998 19.0036 24.582 19.1138C22.7308 20.845 20.2709 21.7753 17.7373 21.7026C15.2036 21.6299 12.8007 20.5606 11.0518 18.7261C9.30294 16.8916 8.34909 14.4407 8.39746 11.9067C8.41942 10.7607 8.64724 9.64014 9.05664 8.59229L24.9258 18.7749ZM8.92871 4.11572C8.10773 5.05107 7.43961 6.10413 6.94336 7.23584L0 2.78076L8.92871 4.11572ZM16.3818 0.11084C18.9656 -0.241422 21.594 0.251354 23.875 1.51514C26.1561 2.77897 27.9678 4.74605 29.0391 7.12354L26.9717 6.81396C26.5378 6.07731 26.0121 5.39045 25.4004 4.77295C23.4719 2.82635 20.8524 1.71913 18.1123 1.69287C15.4748 1.66774 12.9318 2.64819 10.9922 4.42432L8.92871 4.11572C9.12344 3.89387 9.32649 3.67829 9.53809 3.47021C11.3974 1.64188 13.798 0.463161 16.3818 0.11084ZM18.1055 2.47412C20.6398 2.49849 23.0621 3.52227 24.8457 5.32275C25.2559 5.73689 25.6225 6.18615 25.9473 6.66064L12.0107 4.57666C13.7323 3.20176 15.8836 2.45288 18.1055 2.47412Z" fill="#FF5D1A" fill-opacity="0.8"/>
<path d="M3.62722 23.9942C3.62722 23.5132 3.43615 23.0519 3.09603 22.7118C2.75591 22.3717 2.29461 22.1807 1.81361 22.1807C1.33261 22.1807 0.871312 22.3717 0.531194 22.7118C0.191076 23.0519 7.26289e-08 23.5132 0 23.9942L1.81361 23.9942H3.62722Z" fill="#FF5D1A" fill-opacity="0.8"/>
</svg>
