<svg width="26" height="25" viewBox="0 0 26 25" fill="none" xmlns="http://www.w3.org/2000/svg">
<path d="M14.6031 8.10907C14.8681 8.31852 15.9546 9.90117 15.9618 10.2188C15.5442 12.5594 14.8373 14.21 12.3762 15.2064C10.6157 15.9194 9.14923 15.8863 8.42371 14.2665C7.0808 11.2684 12.328 6.31464 14.6043 8.1078L14.6031 8.10907ZM14.8227 11.7619C13.7987 10.1897 11.3442 10.7968 9.94418 12.4476C11.0726 14.0895 13.2667 13.3752 14.8227 11.7619Z" fill="#758EF9"/>
<path d="M8.5106 1.83298C10.3276 2.79238 9.96836 5.64941 8.42706 7.44461C6.58105 9.59741 2.70495 10.8884 1.60363 8.4386C0.189748 5.29377 5.84282 0.425661 8.5106 1.83298ZM3.46539 6.45455C3.49661 7.86767 5.69938 7.8068 6.83927 7.1602C9.83038 5.46481 8.42759 3.26797 5.8969 3.85936C5.06536 4.05344 4.99967 4.45882 4.3648 5.00576L4.2352 4.54114L3.58197 5.46189L3.89907 5.5132C3.70976 5.72839 3.46006 6.2158 3.46539 6.45455Z" fill="#758EF9"/>
<path d="M24.5661 17.5465C24.3845 18.4142 24.576 18.8091 23.8518 19.6721C22.9587 20.736 21.0517 21.5467 19.8537 21.5999C18.9538 21.6403 17.088 21.0597 16.487 20.5407C15.0692 19.3124 15.9898 15.4693 17.6138 13.9556C18.9435 12.7153 19.833 13.891 19.8626 15.1178C19.1081 15.6279 17.185 17.6588 17.9314 18.3341C19.6204 19.8641 23.1195 19.0845 24.7717 16.6445C24.9073 16.9206 24.6302 17.2379 24.5661 17.5465Z" fill="#758EF9"/>
</svg>
