<svg width="236" height="69" viewBox="0 0 236 69" fill="none" xmlns="http://www.w3.org/2000/svg">
<rect x="5" width="225" height="69" fill="#FF5D1A"/>
<path d="M50.224 44L57.812 24.484H60.024L67.584 44H64.476L58.932 28.628L53.36 44H50.224ZM54.704 39.66L55.572 37.112H62.236L63.188 39.66H54.704ZM69.9196 49.712V30.196H72.6636V34.172L71.8796 33.92C72.1223 33.0053 72.477 32.2587 72.9436 31.68C73.429 31.1013 74.0076 30.672 74.6796 30.392C75.3516 30.0933 76.0983 29.944 76.9196 29.944C78.1516 29.944 79.225 30.2613 80.1396 30.896C81.073 31.512 81.7916 32.3613 82.2956 33.444C82.7996 34.5267 83.0516 35.7493 83.0516 37.112C83.0516 38.568 82.781 39.8373 82.2396 40.92C81.6983 41.984 80.961 42.8053 80.0276 43.384C79.0943 43.9627 78.0583 44.252 76.9196 44.252C76.0983 44.252 75.3423 44.0933 74.6516 43.776C73.9796 43.4587 73.4103 43.02 72.9436 42.46C72.477 41.8813 72.1503 41.2 71.9636 40.416L72.6636 40.024V49.712H69.9196ZM76.3316 41.732C77.1343 41.732 77.825 41.5453 78.4036 41.172C79.001 40.78 79.4676 40.2387 79.8036 39.548C80.1396 38.8387 80.3076 38.0267 80.3076 37.112C80.3076 36.1973 80.1396 35.3947 79.8036 34.704C79.4676 33.9947 79.001 33.444 78.4036 33.052C77.825 32.66 77.1343 32.464 76.3316 32.464C75.5476 32.464 74.857 32.66 74.2596 33.052C73.681 33.444 73.2236 33.9947 72.8876 34.704C72.5703 35.3947 72.4116 36.1973 72.4116 37.112C72.4116 38.0267 72.5703 38.8387 72.8876 39.548C73.2236 40.2387 73.681 40.78 74.2596 41.172C74.857 41.5453 75.5476 41.732 76.3316 41.732ZM86.2438 49.712V30.196H88.9878V34.172L88.2038 33.92C88.4465 33.0053 88.8012 32.2587 89.2678 31.68C89.7532 31.1013 90.3318 30.672 91.0038 30.392C91.6758 30.0933 92.4225 29.944 93.2438 29.944C94.4758 29.944 95.5492 30.2613 96.4638 30.896C97.3972 31.512 98.1158 32.3613 98.6198 33.444C99.1238 34.5267 99.3758 35.7493 99.3758 37.112C99.3758 38.568 99.1052 39.8373 98.5638 40.92C98.0225 41.984 97.2852 42.8053 96.3518 43.384C95.4185 43.9627 94.3825 44.252 93.2438 44.252C92.4225 44.252 91.6665 44.0933 90.9758 43.776C90.3038 43.4587 89.7345 43.02 89.2678 42.46C88.8012 41.8813 88.4745 41.2 88.2878 40.416L88.9878 40.024V49.712H86.2438ZM92.6558 41.732C93.4585 41.732 94.1492 41.5453 94.7278 41.172C95.3252 40.78 95.7918 40.2387 96.1278 39.548C96.4638 38.8387 96.6318 38.0267 96.6318 37.112C96.6318 36.1973 96.4638 35.3947 96.1278 34.704C95.7918 33.9947 95.3252 33.444 94.7278 33.052C94.1492 32.66 93.4585 32.464 92.6558 32.464C91.8718 32.464 91.1812 32.66 90.5838 33.052C90.0052 33.444 89.5478 33.9947 89.2118 34.704C88.8945 35.3947 88.7358 36.1973 88.7358 37.112C88.7358 38.0267 88.8945 38.8387 89.2118 39.548C89.5478 40.2387 90.0052 40.78 90.5838 41.172C91.1812 41.5453 91.8718 41.732 92.6558 41.732ZM105.508 44.252C104.631 44.252 103.912 43.9813 103.352 43.44C102.792 42.8987 102.512 42.04 102.512 40.864V24.484H105.228V40.332C105.228 40.8173 105.331 41.172 105.536 41.396C105.76 41.6013 106.049 41.704 106.404 41.704C106.553 41.704 106.721 41.6947 106.908 41.676C107.113 41.6387 107.319 41.5827 107.524 41.508V43.832C107.188 43.9813 106.833 44.084 106.46 44.14C106.105 44.2147 105.788 44.252 105.508 44.252ZM111.376 49.684L114.064 43.188L108.744 30.196H111.768L115.52 40.444L119.328 30.196H122.296L114.372 49.684H111.376ZM132.295 44V24.484H135.263L144.979 40.304H144.307V24.484H147.135V44H144.111L134.479 28.152H135.151V44H132.295ZM157.291 44.252C155.984 44.252 154.817 43.944 153.791 43.328C152.764 42.712 151.952 41.8627 151.355 40.78C150.776 39.6973 150.487 38.4653 150.487 37.084C150.487 35.7027 150.776 34.48 151.355 33.416C151.933 32.3333 152.736 31.484 153.763 30.868C154.808 30.252 155.984 29.944 157.291 29.944C158.616 29.944 159.783 30.252 160.791 30.868C161.799 31.484 162.592 32.3333 163.171 33.416C163.768 34.48 164.067 35.7027 164.067 37.084C164.067 38.4653 163.768 39.6973 163.171 40.78C162.592 41.844 161.789 42.6933 160.763 43.328C159.755 43.944 158.597 44.252 157.291 44.252ZM157.291 41.816C158.112 41.816 158.821 41.62 159.419 41.228C160.035 40.836 160.501 40.2853 160.819 39.576C161.155 38.8667 161.323 38.036 161.323 37.084C161.323 36.1133 161.155 35.2733 160.819 34.564C160.501 33.8547 160.035 33.3133 159.419 32.94C158.821 32.548 158.112 32.352 157.291 32.352C156.451 32.352 155.723 32.548 155.107 32.94C154.509 33.332 154.043 33.8827 153.707 34.592C153.389 35.2827 153.231 36.1133 153.231 37.084C153.231 38.036 153.389 38.8667 153.707 39.576C154.043 40.2853 154.509 40.836 155.107 41.228C155.723 41.62 156.451 41.816 157.291 41.816ZM170.012 44L165.868 30.196H168.78L171.412 39.828L174.464 30.196H176.844L179.896 39.772L182.556 30.196H185.468L181.296 44H178.804L175.668 34.032L172.532 44H170.012Z" fill="white"/>
</svg>
