<svg width="304" height="65" viewBox="0 0 304 65" fill="none" xmlns="http://www.w3.org/2000/svg">
<rect width="304" height="65" fill="#FF5D1A"/>
<path d="M35.8837 41V24.969H46.4867V27.062H38.2297V31.754H45.7967V33.847H38.2297V38.907H46.4867V41H35.8837ZM48.1429 41L52.1449 35.296L48.1429 29.661H50.8569L53.6399 33.778L56.4459 29.661H59.1369L55.0889 35.296L59.1369 41H56.3999L53.6399 36.837L50.8109 41H48.1429ZM61.2608 45.692V29.661H63.5148V32.927L62.8708 32.72C63.0701 31.9687 63.3614 31.3553 63.7448 30.88C64.1434 30.4047 64.6188 30.052 65.1708 29.822C65.7228 29.5767 66.3361 29.454 67.0108 29.454C68.0228 29.454 68.9044 29.7147 69.6558 30.236C70.4224 30.742 71.0128 31.4397 71.4268 32.329C71.8408 33.2183 72.0478 34.2227 72.0478 35.342C72.0478 36.538 71.8254 37.5807 71.3808 38.47C70.9361 39.344 70.3304 40.0187 69.5638 40.494C68.7971 40.9693 67.9461 41.207 67.0108 41.207C66.3361 41.207 65.7151 41.0767 65.1478 40.816C64.5958 40.5553 64.1281 40.195 63.7448 39.735C63.3614 39.2597 63.0931 38.7 62.9398 38.056L63.5148 37.734V45.692H61.2608ZM66.5278 39.137C67.1871 39.137 67.7544 38.9837 68.2298 38.677C68.7204 38.355 69.1038 37.9103 69.3798 37.343C69.6558 36.7603 69.7938 36.0933 69.7938 35.342C69.7938 34.5907 69.6558 33.9313 69.3798 33.364C69.1038 32.7813 68.7204 32.329 68.2298 32.007C67.7544 31.685 67.1871 31.524 66.5278 31.524C65.8838 31.524 65.3164 31.685 64.8258 32.007C64.3504 32.329 63.9748 32.7813 63.6988 33.364C63.4381 33.9313 63.3078 34.5907 63.3078 35.342C63.3078 36.0933 63.4381 36.7603 63.6988 37.343C63.9748 37.9103 64.3504 38.355 64.8258 38.677C65.3164 38.9837 65.8838 39.137 66.5278 39.137ZM77.085 41.207C76.3643 41.207 75.774 40.9847 75.314 40.54C74.854 40.0953 74.624 39.39 74.624 38.424V24.969H76.855V37.987C76.855 38.3857 76.9393 38.677 77.108 38.861C77.292 39.0297 77.5296 39.114 77.821 39.114C77.9436 39.114 78.0816 39.1063 78.235 39.091C78.4036 39.0603 78.5723 39.0143 78.741 38.953V40.862C78.465 40.9847 78.1736 41.069 77.867 41.115C77.5756 41.1763 77.315 41.207 77.085 41.207ZM85.9067 41.207C84.8334 41.207 83.875 40.954 83.0317 40.448C82.1884 39.942 81.5214 39.2443 81.0307 38.355C80.5554 37.4657 80.3177 36.4537 80.3177 35.319C80.3177 34.1843 80.5554 33.18 81.0307 32.306C81.506 31.4167 82.1654 30.719 83.0087 30.213C83.8674 29.707 84.8334 29.454 85.9067 29.454C86.9954 29.454 87.9537 29.707 88.7817 30.213C89.6097 30.719 90.2614 31.4167 90.7367 32.306C91.2274 33.18 91.4727 34.1843 91.4727 35.319C91.4727 36.4537 91.2274 37.4657 90.7367 38.355C90.2614 39.229 89.602 39.9267 88.7587 40.448C87.9307 40.954 86.98 41.207 85.9067 41.207ZM85.9067 39.206C86.5814 39.206 87.164 39.045 87.6547 38.723C88.1607 38.401 88.544 37.9487 88.8047 37.366C89.0807 36.7833 89.2187 36.101 89.2187 35.319C89.2187 34.5217 89.0807 33.8317 88.8047 33.249C88.544 32.6663 88.1607 32.2217 87.6547 31.915C87.164 31.593 86.5814 31.432 85.9067 31.432C85.2167 31.432 84.6187 31.593 84.1127 31.915C83.622 32.237 83.2387 32.6893 82.9627 33.272C82.702 33.8393 82.5717 34.5217 82.5717 35.319C82.5717 36.101 82.702 36.7833 82.9627 37.366C83.2387 37.9487 83.622 38.401 84.1127 38.723C84.6187 39.045 85.2167 39.206 85.9067 39.206ZM94.0762 41V29.661H96.3532V32.72L95.8702 32.812C95.9469 32.1373 96.1769 31.5547 96.5602 31.064C96.9589 30.558 97.4265 30.167 97.9632 29.891C98.4999 29.5997 99.0289 29.454 99.5502 29.454C99.9182 29.454 100.263 29.5 100.585 29.592C100.923 29.6687 101.26 29.8067 101.597 30.006L100.493 32.03C100.325 31.938 100.11 31.8613 99.8492 31.8C99.5885 31.7387 99.3432 31.708 99.1132 31.708C98.7605 31.708 98.4155 31.7693 98.0782 31.892C97.7409 32.0147 97.4342 32.214 97.1582 32.49C96.8975 32.766 96.6982 33.1263 96.5602 33.571C96.4989 33.7857 96.4452 34.0693 96.3992 34.422C96.3685 34.7593 96.3532 35.227 96.3532 35.825V41H94.0762ZM107.824 41.207C106.904 41.207 106.107 41.0537 105.432 40.747C104.758 40.4403 104.198 40.0187 103.753 39.482C103.309 38.93 102.971 38.309 102.741 37.619C102.527 36.9137 102.419 36.1777 102.419 35.411C102.419 34.6443 102.527 33.9083 102.741 33.203C102.956 32.4823 103.278 31.846 103.707 31.294C104.137 30.7267 104.673 30.282 105.317 29.96C105.977 29.6227 106.751 29.454 107.64 29.454C108.53 29.454 109.296 29.6073 109.94 29.914C110.584 30.2053 111.113 30.6193 111.527 31.156C111.941 31.6773 112.248 32.2677 112.447 32.927C112.662 33.5863 112.769 34.284 112.769 35.02C112.769 35.0967 112.762 35.2423 112.746 35.457C112.746 35.6563 112.731 35.848 112.7 36.032H104.673C104.719 37.044 105.026 37.826 105.593 38.378C106.176 38.9147 106.943 39.183 107.893 39.183C108.537 39.183 109.112 39.0833 109.618 38.884C110.124 38.6693 110.592 38.3397 111.021 37.895L112.401 39.321C111.957 39.7657 111.497 40.126 111.021 40.402C110.561 40.678 110.071 40.8773 109.549 41C109.043 41.138 108.468 41.207 107.824 41.207ZM110.538 34.905C110.569 34.7823 110.584 34.6597 110.584 34.537C110.6 34.4143 110.607 34.2917 110.607 34.169C110.607 33.8163 110.546 33.4713 110.423 33.134C110.301 32.7967 110.117 32.4977 109.871 32.237C109.626 31.961 109.319 31.7463 108.951 31.593C108.599 31.4243 108.185 31.34 107.709 31.34C107.081 31.34 106.544 31.4857 106.099 31.777C105.655 32.053 105.31 32.421 105.064 32.881C104.834 33.341 104.696 33.8393 104.65 34.376H111.274L110.538 34.905ZM126.22 41.207C125.3 41.207 124.502 41.0537 123.828 40.747C123.153 40.4403 122.593 40.0187 122.149 39.482C121.704 38.93 121.367 38.309 121.137 37.619C120.922 36.9137 120.815 36.1777 120.815 35.411C120.815 34.6443 120.922 33.9083 121.137 33.203C121.351 32.4823 121.673 31.846 122.103 31.294C122.532 30.7267 123.069 30.282 123.713 29.96C124.372 29.6227 125.146 29.454 126.036 29.454C126.925 29.454 127.692 29.6073 128.336 29.914C128.98 30.2053 129.509 30.6193 129.923 31.156C130.337 31.6773 130.643 32.2677 130.843 32.927C131.057 33.5863 131.165 34.284 131.165 35.02C131.165 35.0967 131.157 35.2423 131.142 35.457C131.142 35.6563 131.126 35.848 131.096 36.032H123.069C123.115 37.044 123.421 37.826 123.989 38.378C124.571 38.9147 125.338 39.183 126.289 39.183C126.933 39.183 127.508 39.0833 128.014 38.884C128.52 38.6693 128.987 38.3397 129.417 37.895L130.797 39.321C130.352 39.7657 129.892 40.126 129.417 40.402C128.957 40.678 128.466 40.8773 127.945 41C127.439 41.138 126.864 41.207 126.22 41.207ZM128.934 34.905C128.964 34.7823 128.98 34.6597 128.98 34.537C128.995 34.4143 129.003 34.2917 129.003 34.169C129.003 33.8163 128.941 33.4713 128.819 33.134C128.696 32.7967 128.512 32.4977 128.267 32.237C128.021 31.961 127.715 31.7463 127.347 31.593C126.994 31.4243 126.58 31.34 126.105 31.34C125.476 31.34 124.939 31.4857 124.495 31.777C124.05 32.053 123.705 32.421 123.46 32.881C123.23 33.341 123.092 33.8393 123.046 34.376H129.67L128.934 34.905ZM133.259 41V39.206C133.78 38.792 134.386 38.332 135.076 37.826C135.766 37.32 136.463 36.768 137.169 36.17C137.889 35.572 138.556 34.9357 139.17 34.261C139.783 33.5863 140.274 32.881 140.642 32.145C141.025 31.3937 141.217 30.627 141.217 29.845C141.217 29.0017 140.987 28.3193 140.527 27.798C140.067 27.2613 139.377 26.993 138.457 26.993C137.767 26.993 137.192 27.154 136.732 27.476C136.287 27.798 135.957 28.235 135.743 28.787C135.528 29.339 135.413 29.9523 135.398 30.627L133.19 30.466C133.19 29.7147 133.305 29.0017 133.535 28.327C133.765 27.6523 134.102 27.0543 134.547 26.533C135.007 25.9963 135.566 25.5747 136.226 25.268C136.9 24.9613 137.667 24.808 138.526 24.808C139.507 24.808 140.358 25.015 141.079 25.429C141.815 25.843 142.39 26.418 142.804 27.154C143.218 27.89 143.425 28.7563 143.425 29.753C143.425 30.5963 143.271 31.409 142.965 32.191C142.673 32.973 142.259 33.7243 141.723 34.445C141.186 35.1503 140.565 35.8173 139.86 36.446C139.154 37.0747 138.395 37.6727 137.583 38.24C136.77 38.792 135.927 39.298 135.053 39.758L135.651 38.907H144.069V41H133.259ZM146.612 41V29.661H148.866V41H146.612ZM146.451 27.706V24.969H149.004V27.706H146.451ZM151.475 41V39.206C151.996 38.792 152.602 38.332 153.292 37.826C153.982 37.32 154.679 36.768 155.385 36.17C156.105 35.572 156.772 34.9357 157.386 34.261C157.999 33.5863 158.49 32.881 158.858 32.145C159.241 31.3937 159.433 30.627 159.433 29.845C159.433 29.0017 159.203 28.3193 158.743 27.798C158.283 27.2613 157.593 26.993 156.673 26.993C155.983 26.993 155.408 27.154 154.948 27.476C154.503 27.798 154.173 28.235 153.959 28.787C153.744 29.339 153.629 29.9523 153.614 30.627L151.406 30.466C151.406 29.7147 151.521 29.0017 151.751 28.327C151.981 27.6523 152.318 27.0543 152.763 26.533C153.223 25.9963 153.782 25.5747 154.442 25.268C155.116 24.9613 155.883 24.808 156.742 24.808C157.723 24.808 158.574 25.015 159.295 25.429C160.031 25.843 160.606 26.418 161.02 27.154C161.434 27.89 161.641 28.7563 161.641 29.753C161.641 30.5963 161.487 31.409 161.181 32.191C160.889 32.973 160.475 33.7243 159.939 34.445C159.402 35.1503 158.781 35.8173 158.076 36.446C157.37 37.0747 156.611 37.6727 155.799 38.24C154.986 38.792 154.143 39.298 153.269 39.758L153.867 38.907H162.285V41H151.475ZM170.825 45.692V29.661H173.079V32.927L172.435 32.72C172.635 31.9687 172.926 31.3553 173.309 30.88C173.708 30.4047 174.183 30.052 174.735 29.822C175.287 29.5767 175.901 29.454 176.575 29.454C177.587 29.454 178.469 29.7147 179.22 30.236C179.987 30.742 180.577 31.4397 180.991 32.329C181.405 33.2183 181.612 34.2227 181.612 35.342C181.612 36.538 181.39 37.5807 180.945 38.47C180.501 39.344 179.895 40.0187 179.128 40.494C178.362 40.9693 177.511 41.207 176.575 41.207C175.901 41.207 175.28 41.0767 174.712 40.816C174.16 40.5553 173.693 40.195 173.309 39.735C172.926 39.2597 172.658 38.7 172.504 38.056L173.079 37.734V45.692H170.825ZM176.092 39.137C176.752 39.137 177.319 38.9837 177.794 38.677C178.285 38.355 178.668 37.9103 178.944 37.343C179.22 36.7603 179.358 36.0933 179.358 35.342C179.358 34.5907 179.22 33.9313 178.944 33.364C178.668 32.7813 178.285 32.329 177.794 32.007C177.319 31.685 176.752 31.524 176.092 31.524C175.448 31.524 174.881 31.685 174.39 32.007C173.915 32.329 173.539 32.7813 173.263 33.364C173.003 33.9313 172.872 34.5907 172.872 35.342C172.872 36.0933 173.003 36.7603 173.263 37.343C173.539 37.9103 173.915 38.355 174.39 38.677C174.881 38.9837 175.448 39.137 176.092 39.137ZM189.11 41.207C188.19 41.207 187.393 41.0537 186.718 40.747C186.044 40.4403 185.484 40.0187 185.039 39.482C184.595 38.93 184.257 38.309 184.027 37.619C183.813 36.9137 183.705 36.1777 183.705 35.411C183.705 34.6443 183.813 33.9083 184.027 33.203C184.242 32.4823 184.564 31.846 184.993 31.294C185.423 30.7267 185.959 30.282 186.603 29.96C187.263 29.6227 188.037 29.454 188.926 29.454C189.816 29.454 190.582 29.6073 191.226 29.914C191.87 30.2053 192.399 30.6193 192.813 31.156C193.227 31.6773 193.534 32.2677 193.733 32.927C193.948 33.5863 194.055 34.284 194.055 35.02C194.055 35.0967 194.048 35.2423 194.032 35.457C194.032 35.6563 194.017 35.848 193.986 36.032H185.959C186.005 37.044 186.312 37.826 186.879 38.378C187.462 38.9147 188.229 39.183 189.179 39.183C189.823 39.183 190.398 39.0833 190.904 38.884C191.41 38.6693 191.878 38.3397 192.307 37.895L193.687 39.321C193.243 39.7657 192.783 40.126 192.307 40.402C191.847 40.678 191.357 40.8773 190.835 41C190.329 41.138 189.754 41.207 189.11 41.207ZM191.824 34.905C191.855 34.7823 191.87 34.6597 191.87 34.537C191.886 34.4143 191.893 34.2917 191.893 34.169C191.893 33.8163 191.832 33.4713 191.709 33.134C191.587 32.7967 191.403 32.4977 191.157 32.237C190.912 31.961 190.605 31.7463 190.237 31.593C189.885 31.4243 189.471 31.34 188.995 31.34C188.367 31.34 187.83 31.4857 187.385 31.777C186.941 32.053 186.596 32.421 186.35 32.881C186.12 33.341 185.982 33.8393 185.936 34.376H192.56L191.824 34.905ZM201.186 41.207C200.159 41.207 199.27 40.954 198.518 40.448C197.767 39.9267 197.177 39.2213 196.747 38.332C196.333 37.4273 196.126 36.423 196.126 35.319C196.126 34.1077 196.349 33.065 196.793 32.191C197.253 31.317 197.867 30.6423 198.633 30.167C199.4 29.6917 200.251 29.454 201.186 29.454C201.861 29.454 202.474 29.592 203.026 29.868C203.594 30.144 204.069 30.5273 204.452 31.018C204.836 31.5087 205.104 32.0837 205.257 32.743L204.682 32.927V24.969H206.913V41H204.682V37.734L205.349 37.757C205.15 38.493 204.851 39.1217 204.452 39.643C204.054 40.149 203.571 40.54 203.003 40.816C202.451 41.0767 201.846 41.207 201.186 41.207ZM201.646 39.137C202.306 39.137 202.873 38.976 203.348 38.654C203.839 38.332 204.215 37.8873 204.475 37.32C204.751 36.7373 204.889 36.0703 204.889 35.319C204.889 34.5677 204.751 33.9083 204.475 33.341C204.215 32.7583 203.839 32.3137 203.348 32.007C202.873 31.685 202.306 31.524 201.646 31.524C201.002 31.524 200.435 31.685 199.944 32.007C199.454 32.3137 199.07 32.7583 198.794 33.341C198.534 33.9083 198.403 34.5677 198.403 35.319C198.403 36.0703 198.534 36.7373 198.794 37.32C199.07 37.8873 199.454 38.332 199.944 38.654C200.435 38.976 201.002 39.137 201.646 39.137ZM217.47 41L217.286 38.907V33.87C217.286 33.0727 217.056 32.4593 216.596 32.03C216.136 31.6007 215.469 31.386 214.595 31.386C213.982 31.386 213.392 31.5087 212.824 31.754C212.272 31.9993 211.743 32.398 211.237 32.95L209.834 31.501C210.509 30.7957 211.253 30.282 212.065 29.96C212.893 29.6227 213.79 29.454 214.756 29.454C216.274 29.454 217.447 29.845 218.275 30.627C219.119 31.3937 219.54 32.4747 219.54 33.87V41H217.47ZM213.813 41.207C212.97 41.207 212.226 41.0537 211.582 40.747C210.938 40.4403 210.44 40.0187 210.087 39.482C209.735 38.93 209.558 38.2937 209.558 37.573C209.558 36.9443 209.689 36.4077 209.949 35.963C210.21 35.503 210.547 35.1503 210.961 34.905C211.345 34.6597 211.782 34.491 212.272 34.399C212.778 34.2917 213.315 34.238 213.882 34.238H217.493V35.94H214.204C213.898 35.94 213.576 35.9707 213.238 36.032C212.916 36.078 212.64 36.1853 212.41 36.354C212.226 36.492 212.081 36.6683 211.973 36.883C211.866 37.0823 211.812 37.32 211.812 37.596C211.812 38.1327 212.019 38.562 212.433 38.884C212.847 39.206 213.399 39.367 214.089 39.367C214.672 39.367 215.201 39.2367 215.676 38.976C216.167 38.7 216.558 38.332 216.849 37.872C217.141 37.3967 217.286 36.86 217.286 36.262L218.091 37.32C217.953 38.1173 217.685 38.815 217.286 39.413C216.888 39.9957 216.389 40.4403 215.791 40.747C215.209 41.0537 214.549 41.207 213.813 41.207ZM227.176 45.899C225.536 45.899 224.232 45.6 223.266 45.002C222.316 44.404 221.84 43.576 221.84 42.518C221.84 42.4413 221.84 42.3417 221.84 42.219C221.856 42.0963 221.879 41.9737 221.909 41.851L224.853 39.827L225.543 40.402L223.979 42.334C223.964 42.3953 223.956 42.4413 223.956 42.472C223.956 42.518 223.956 42.564 223.956 42.61C223.956 43.162 224.263 43.576 224.876 43.852C225.49 44.128 226.256 44.266 227.176 44.266C227.989 44.266 228.648 44.151 229.154 43.921C229.66 43.7063 229.913 43.3537 229.913 42.863C229.913 42.6023 229.837 42.3877 229.683 42.219C229.53 42.0503 229.3 41.9123 228.993 41.805C228.687 41.713 228.319 41.6287 227.889 41.552C227.475 41.4907 226.992 41.4217 226.44 41.345C225.735 41.2377 225.053 41.0843 224.393 40.885C223.734 40.6857 223.19 40.3943 222.76 40.011C222.331 39.6123 222.116 39.091 222.116 38.447C222.116 37.895 222.308 37.389 222.691 36.929C223.09 36.4537 223.604 36.0703 224.232 35.779L225.52 36.676C225.045 36.7833 224.7 36.9597 224.485 37.205C224.271 37.435 224.163 37.7187 224.163 38.056C224.163 38.332 224.263 38.5543 224.462 38.723C224.677 38.8917 224.976 39.022 225.359 39.114C225.743 39.206 226.203 39.2903 226.739 39.367C227.491 39.4743 228.188 39.5893 228.832 39.712C229.492 39.8347 230.067 40.011 230.557 40.241C231.063 40.4557 231.447 40.747 231.707 41.115C231.983 41.4983 232.121 41.989 232.121 42.587C232.121 43.6603 231.684 44.4807 230.81 45.048C229.952 45.6153 228.74 45.899 227.176 45.899ZM226.923 37.573C226.019 37.573 225.221 37.4043 224.531 37.067C223.857 36.7143 223.328 36.239 222.944 35.641C222.561 35.0277 222.369 34.33 222.369 33.548C222.369 32.7353 222.569 32.0223 222.967 31.409C223.366 30.7957 223.903 30.3203 224.577 29.983C225.267 29.6303 226.026 29.454 226.854 29.454C227.652 29.454 228.388 29.6303 229.062 29.983C229.752 30.3203 230.297 30.8033 230.695 31.432C231.109 32.0607 231.316 32.7967 231.316 33.64C231.316 34.4373 231.125 35.135 230.741 35.733C230.373 36.3157 229.86 36.768 229.2 37.09C228.541 37.412 227.782 37.573 226.923 37.573ZM226.877 35.779C227.583 35.779 228.127 35.5643 228.51 35.135C228.894 34.6903 229.085 34.1537 229.085 33.525C229.085 32.8503 228.878 32.3137 228.464 31.915C228.066 31.501 227.537 31.294 226.877 31.294C226.187 31.294 225.635 31.501 225.221 31.915C224.807 32.329 224.6 32.858 224.6 33.502C224.6 34.146 224.8 34.6903 225.198 35.135C225.597 35.5643 226.157 35.779 226.877 35.779ZM230.58 31.869L228.947 30.788L231.431 28.787L232.558 30.19L230.58 31.869ZM239.248 41.207C238.174 41.207 237.216 40.954 236.373 40.448C235.529 39.942 234.862 39.2443 234.372 38.355C233.896 37.4657 233.659 36.4537 233.659 35.319C233.659 34.1843 233.896 33.18 234.372 32.306C234.847 31.4167 235.506 30.719 236.35 30.213C237.208 29.707 238.174 29.454 239.248 29.454C240.336 29.454 241.295 29.707 242.123 30.213C242.951 30.719 243.602 31.4167 244.078 32.306C244.568 33.18 244.814 34.1843 244.814 35.319C244.814 36.4537 244.568 37.4657 244.078 38.355C243.602 39.229 242.943 39.9267 242.1 40.448C241.272 40.954 240.321 41.207 239.248 41.207ZM239.248 39.206C239.922 39.206 240.505 39.045 240.996 38.723C241.502 38.401 241.885 37.9487 242.146 37.366C242.422 36.7833 242.56 36.101 242.56 35.319C242.56 34.5217 242.422 33.8317 242.146 33.249C241.885 32.6663 241.502 32.2217 240.996 31.915C240.505 31.593 239.922 31.432 239.248 31.432C238.558 31.432 237.96 31.593 237.454 31.915C236.963 32.237 236.58 32.6893 236.304 33.272C236.043 33.8393 235.913 34.5217 235.913 35.319C235.913 36.101 236.043 36.7833 236.304 37.366C236.58 37.9487 236.963 38.401 237.454 38.723C237.96 39.045 238.558 39.206 239.248 39.206ZM252.063 45.899C250.422 45.899 249.119 45.6 248.153 45.002C247.202 44.404 246.727 43.576 246.727 42.518C246.727 42.4413 246.727 42.3417 246.727 42.219C246.742 42.0963 246.765 41.9737 246.796 41.851L249.74 39.827L250.43 40.402L248.866 42.334C248.851 42.3953 248.843 42.4413 248.843 42.472C248.843 42.518 248.843 42.564 248.843 42.61C248.843 43.162 249.15 43.576 249.763 43.852C250.376 44.128 251.143 44.266 252.063 44.266C252.876 44.266 253.535 44.151 254.041 43.921C254.547 43.7063 254.8 43.3537 254.8 42.863C254.8 42.6023 254.723 42.3877 254.57 42.219C254.417 42.0503 254.187 41.9123 253.88 41.805C253.573 41.713 253.205 41.6287 252.776 41.552C252.362 41.4907 251.879 41.4217 251.327 41.345C250.622 41.2377 249.939 41.0843 249.28 40.885C248.621 40.6857 248.076 40.3943 247.647 40.011C247.218 39.6123 247.003 39.091 247.003 38.447C247.003 37.895 247.195 37.389 247.578 36.929C247.977 36.4537 248.49 36.0703 249.119 35.779L250.407 36.676C249.932 36.7833 249.587 36.9597 249.372 37.205C249.157 37.435 249.05 37.7187 249.05 38.056C249.05 38.332 249.15 38.5543 249.349 38.723C249.564 38.8917 249.863 39.022 250.246 39.114C250.629 39.206 251.089 39.2903 251.626 39.367C252.377 39.4743 253.075 39.5893 253.719 39.712C254.378 39.8347 254.953 40.011 255.444 40.241C255.95 40.4557 256.333 40.747 256.594 41.115C256.87 41.4983 257.008 41.989 257.008 42.587C257.008 43.6603 256.571 44.4807 255.697 45.048C254.838 45.6153 253.627 45.899 252.063 45.899ZM251.81 37.573C250.905 37.573 250.108 37.4043 249.418 37.067C248.743 36.7143 248.214 36.239 247.831 35.641C247.448 35.0277 247.256 34.33 247.256 33.548C247.256 32.7353 247.455 32.0223 247.854 31.409C248.253 30.7957 248.789 30.3203 249.464 29.983C250.154 29.6303 250.913 29.454 251.741 29.454C252.538 29.454 253.274 29.6303 253.949 29.983C254.639 30.3203 255.183 30.8033 255.582 31.432C255.996 32.0607 256.203 32.7967 256.203 33.64C256.203 34.4373 256.011 35.135 255.628 35.733C255.26 36.3157 254.746 36.768 254.087 37.09C253.428 37.412 252.669 37.573 251.81 37.573ZM251.764 35.779C252.469 35.779 253.014 35.5643 253.397 35.135C253.78 34.6903 253.972 34.1537 253.972 33.525C253.972 32.8503 253.765 32.3137 253.351 31.915C252.952 31.501 252.423 31.294 251.764 31.294C251.074 31.294 250.522 31.501 250.108 31.915C249.694 32.329 249.487 32.858 249.487 33.502C249.487 34.146 249.686 34.6903 250.085 35.135C250.484 35.5643 251.043 35.779 251.764 35.779ZM255.467 31.869L253.834 30.788L256.318 28.787L257.445 30.19L255.467 31.869ZM260.357 45.669L262.565 40.333L258.195 29.661H260.679L263.761 38.079L266.889 29.661H269.327L262.818 45.669H260.357Z" fill="white"/>
</svg>
