<svg width="221" height="69" viewBox="0 0 221 69" fill="none" xmlns="http://www.w3.org/2000/svg">
<rect width="221" height="69" fill="#FF5D1A"/>
<path d="M79.7328 44V24.484H92.6128V27.032H82.5888V32.744H91.2968V35.292H82.5888V44H79.7328ZM91.4779 44L99.0659 24.484H101.278L108.838 44H105.73L100.186 28.628L94.6139 44H91.4779ZM95.9579 39.66L96.8259 37.112H103.49L104.442 39.66H95.9579ZM118.811 44.364C117 44.364 115.413 43.944 114.051 43.104C112.688 42.264 111.615 41.088 110.831 39.576C110.065 38.0453 109.683 36.272 109.683 34.256C109.683 32.2213 110.065 30.448 110.831 28.936C111.596 27.4053 112.66 26.22 114.023 25.38C115.404 24.54 117 24.12 118.811 24.12C120.659 24.12 122.273 24.54 123.655 25.38C125.036 26.22 126.109 27.4053 126.875 28.936C127.64 30.448 128.023 32.2213 128.023 34.256C128.023 36.272 127.631 38.0453 126.847 39.576C126.081 41.088 125.008 42.264 123.627 43.104C122.245 43.944 120.64 44.364 118.811 44.364ZM127.127 45.372L119.427 37.868L121.107 36.104L128.863 43.692L127.127 45.372ZM118.811 41.648C120.117 41.648 121.237 41.3493 122.171 40.752C123.104 40.136 123.832 39.2773 124.355 38.176C124.877 37.056 125.139 35.7493 125.139 34.256C125.139 32.744 124.877 31.4373 124.355 30.336C123.832 29.216 123.104 28.3573 122.171 27.76C121.237 27.144 120.117 26.836 118.811 26.836C117.541 26.836 116.431 27.1347 115.479 27.732C114.545 28.3293 113.817 29.188 113.295 30.308C112.791 31.4093 112.539 32.7253 112.539 34.256C112.539 35.768 112.791 37.084 113.295 38.204C113.817 39.3053 114.545 40.1547 115.479 40.752C116.431 41.3493 117.541 41.648 118.811 41.648ZM136.74 44.252C135.769 44.252 134.91 44.112 134.164 43.832C133.417 43.5333 132.773 43.16 132.232 42.712C131.709 42.2453 131.289 41.7693 130.972 41.284L132.848 39.66C133.202 40.2947 133.706 40.8453 134.36 41.312C135.032 41.76 135.834 41.984 136.768 41.984C137.589 41.984 138.233 41.816 138.7 41.48C139.185 41.1253 139.428 40.668 139.428 40.108C139.428 39.66 139.278 39.3053 138.98 39.044C138.681 38.764 138.289 38.54 137.804 38.372C137.318 38.1853 136.786 38.0267 136.208 37.896C135.685 37.7467 135.153 37.5787 134.612 37.392C134.07 37.2053 133.576 36.972 133.128 36.692C132.698 36.3933 132.344 36.02 132.064 35.572C131.802 35.1053 131.672 34.536 131.672 33.864C131.672 32.688 132.12 31.7453 133.016 31.036C133.93 30.308 135.134 29.944 136.628 29.944C137.692 29.944 138.662 30.168 139.54 30.616C140.417 31.0453 141.098 31.6893 141.584 32.548L139.876 33.864C139.502 33.248 139.017 32.8 138.419 32.52C137.841 32.24 137.206 32.1 136.516 32.1C135.862 32.1 135.312 32.24 134.864 32.52C134.434 32.7813 134.22 33.1453 134.22 33.612C134.22 33.948 134.313 34.228 134.5 34.452C134.705 34.6573 135.013 34.844 135.424 35.012C135.853 35.1613 136.376 35.3107 136.992 35.46C137.57 35.5907 138.158 35.7493 138.756 35.936C139.353 36.1227 139.904 36.3653 140.408 36.664C140.912 36.9627 141.322 37.364 141.64 37.868C141.957 38.372 142.116 39.0253 142.116 39.828C142.116 40.7053 141.892 41.48 141.444 42.152C140.996 42.8053 140.37 43.3187 139.568 43.692C138.765 44.0653 137.822 44.252 136.74 44.252Z" fill="white"/>
</svg>
