<svg width="128" height="76" viewBox="0 0 128 76" fill="none" xmlns="http://www.w3.org/2000/svg">
<path d="M4.82328 12.168C4.49528 12.168 4.15528 12.1 3.80328 11.964C3.45128 11.82 3.12328 11.616 2.81928 11.352C2.51528 11.08 2.26728 10.756 2.07528 10.38C1.89128 10.004 1.79928 9.584 1.79928 9.12C1.79928 8.4 1.92728 7.732 2.18328 7.116C2.44728 6.5 2.80728 5.96 3.26328 5.496C3.71928 5.032 4.23928 4.672 4.82328 4.416C5.41528 4.152 6.03528 4.02 6.68328 4.02C6.90728 4.02 7.12728 4.04 7.34328 4.08C7.56728 4.112 7.79128 4.168 8.01528 4.248C8.16728 4.296 8.29928 4.34 8.41128 4.38C8.52328 4.42 8.61928 4.44 8.69928 4.44C8.73928 4.44 8.77928 4.432 8.81928 4.416C8.85928 4.392 8.90328 4.368 8.95128 4.344C8.99928 4.328 9.04728 4.312 9.09528 4.296C9.14328 4.272 9.18728 4.26 9.22728 4.26C9.29928 4.26 9.33528 4.284 9.33528 4.332C9.34328 4.38 9.33528 4.42 9.31128 4.452C9.22328 4.572 9.12328 4.732 9.01128 4.932C8.89928 5.132 8.79528 5.34 8.69928 5.556C8.61128 5.772 8.54728 5.972 8.50728 6.156C8.49928 6.212 8.47128 6.268 8.42328 6.324C8.37528 6.372 8.33128 6.396 8.29128 6.396C8.21928 6.396 8.16728 6.364 8.13528 6.3C8.11128 6.228 8.10328 6.156 8.11128 6.084C8.15128 5.9 8.16328 5.716 8.14728 5.532C8.13928 5.34 8.06728 5.156 7.93128 4.98C7.79528 4.804 7.61528 4.664 7.39128 4.56C7.17528 4.448 6.92728 4.392 6.64728 4.392C6.30328 4.392 5.95128 4.472 5.59128 4.632C5.23128 4.792 4.88728 5.02 4.55928 5.316C4.23928 5.604 3.94728 5.948 3.68328 6.348C3.42728 6.748 3.22328 7.192 3.07128 7.68C2.92728 8.16 2.85528 8.672 2.85528 9.216C2.85528 9.704 2.92328 10.112 3.05928 10.44C3.20328 10.768 3.38728 11.032 3.61128 11.232C3.84328 11.432 4.09128 11.576 4.35528 11.664C4.62728 11.752 4.89128 11.796 5.14728 11.796C5.55528 11.796 5.88728 11.732 6.14328 11.604C6.39928 11.468 6.61528 11.292 6.79128 11.076C6.96728 10.852 7.13528 10.604 7.29528 10.332C7.33528 10.268 7.37528 10.216 7.41528 10.176C7.45528 10.128 7.50728 10.104 7.57128 10.104C7.61128 10.104 7.63528 10.124 7.64328 10.164C7.65128 10.204 7.65528 10.264 7.65528 10.344C7.65528 10.4 7.61928 10.524 7.54728 10.716C7.47528 10.9 7.38728 11.1 7.28328 11.316C7.17928 11.532 7.07928 11.72 6.98328 11.88C6.89528 12.032 6.83128 12.108 6.79128 12.108C6.75928 12.108 6.72328 12.092 6.68328 12.06C6.64328 12.036 6.60328 12.008 6.56328 11.976C6.53128 11.944 6.49128 11.92 6.44328 11.904C6.40328 11.88 6.35928 11.868 6.31128 11.868C6.25528 11.868 6.18728 11.88 6.10728 11.904C6.02728 11.928 5.93128 11.96 5.81928 12C5.69928 12.04 5.55528 12.076 5.38728 12.108C5.21928 12.148 5.03128 12.168 4.82328 12.168ZM9.48959 12.168C9.29759 12.168 9.11759 12.104 8.94959 11.976C8.78159 11.848 8.64559 11.68 8.54159 11.472C8.44559 11.264 8.39759 11.044 8.39759 10.812C8.39759 10.436 8.46959 10.032 8.61359 9.6C8.76559 9.16 8.97359 8.748 9.23759 8.364C9.50159 7.972 9.80559 7.652 10.1496 7.404C10.5016 7.156 10.8776 7.032 11.2776 7.032C11.6776 7.032 11.9856 7.168 12.2016 7.44C12.4256 7.712 12.5376 8.048 12.5376 8.448C12.5376 8.808 12.4656 9.204 12.3216 9.636C12.1776 10.06 11.9696 10.464 11.6976 10.848C11.4336 11.232 11.1136 11.548 10.7376 11.796C10.3696 12.044 9.95359 12.168 9.48959 12.168ZM9.68159 11.808C9.87359 11.808 10.0656 11.724 10.2576 11.556C10.4576 11.388 10.6456 11.168 10.8216 10.896C11.0056 10.624 11.1656 10.324 11.3016 9.996C11.4456 9.668 11.5576 9.34 11.6376 9.012C11.7256 8.684 11.7696 8.384 11.7696 8.112C11.7696 7.904 11.7336 7.732 11.6616 7.596C11.5976 7.46 11.4616 7.392 11.2536 7.392C11.0696 7.392 10.8776 7.468 10.6776 7.62C10.4856 7.772 10.2976 7.976 10.1136 8.232C9.93759 8.488 9.77759 8.776 9.63359 9.096C9.48959 9.408 9.37359 9.736 9.28559 10.08C9.20559 10.416 9.16559 10.744 9.16559 11.064C9.16559 11.328 9.20959 11.52 9.29759 11.64C9.39359 11.752 9.52159 11.808 9.68159 11.808ZM13.4122 12.204C13.3722 12.204 13.3362 12.184 13.3042 12.144C13.2722 12.104 13.2442 12.056 13.2202 12C13.2042 11.944 13.1962 11.892 13.1962 11.844C13.1962 11.804 13.2202 11.708 13.2682 11.556C13.3242 11.404 13.3922 11.216 13.4722 10.992L14.5762 8.1C14.6162 7.996 14.6162 7.908 14.5762 7.836C14.5362 7.764 14.4682 7.728 14.3722 7.728C14.2522 7.728 14.1242 7.756 13.9882 7.812C13.8602 7.868 13.7002 8.024 13.5082 8.28C13.4762 8.312 13.4402 8.328 13.4002 8.328C13.3682 8.32 13.3442 8.288 13.3282 8.232C13.3282 8.184 13.3362 8.124 13.3522 8.052C13.3682 7.972 13.3922 7.892 13.4242 7.812C13.4642 7.732 13.5002 7.672 13.5322 7.632C13.6682 7.464 13.8322 7.324 14.0242 7.212C14.2162 7.1 14.4482 7.04 14.7202 7.032C14.8322 7.032 14.9402 7.052 15.0442 7.092C15.1562 7.124 15.2362 7.188 15.2842 7.284C15.3402 7.38 15.3362 7.512 15.2722 7.68L14.5882 9.456C14.5642 9.512 14.5682 9.544 14.6002 9.552C14.6402 9.56 14.6722 9.544 14.6962 9.504C15.0402 8.976 15.3682 8.528 15.6802 8.16C16.0002 7.792 16.3042 7.512 16.5922 7.32C16.8882 7.128 17.1642 7.032 17.4202 7.032C17.5722 7.032 17.7082 7.076 17.8282 7.164C17.9562 7.252 18.0402 7.384 18.0802 7.56C18.1282 7.728 18.1082 7.94 18.0202 8.196L17.5882 9.456C17.5642 9.512 17.5682 9.544 17.6002 9.552C17.6402 9.56 17.6722 9.544 17.6962 9.504C18.0322 8.952 18.3602 8.496 18.6802 8.136C19.0082 7.768 19.3242 7.492 19.6282 7.308C19.9322 7.124 20.2122 7.032 20.4682 7.032C20.6202 7.032 20.7562 7.08 20.8762 7.176C20.9962 7.272 21.0722 7.416 21.1042 7.608C21.1442 7.792 21.1082 8.024 20.9962 8.304L19.9642 10.968C19.8442 11.256 19.8642 11.4 20.0242 11.4C20.1202 11.4 20.2362 11.356 20.3722 11.268C20.5082 11.18 20.6442 11.076 20.7802 10.956C20.9242 10.836 21.0482 10.728 21.1522 10.632C21.2562 10.528 21.3242 10.46 21.3562 10.428C21.3642 10.42 21.3682 10.416 21.3682 10.416C21.3762 10.416 21.3842 10.416 21.3922 10.416C21.4162 10.416 21.4362 10.428 21.4522 10.452C21.4762 10.468 21.4882 10.492 21.4882 10.524C21.4882 10.588 21.4722 10.656 21.4402 10.728C21.4162 10.792 21.3602 10.868 21.2722 10.956C21.0082 11.252 20.7122 11.528 20.3842 11.784C20.0562 12.04 19.7042 12.168 19.3282 12.168C19.2642 12.168 19.1962 12.14 19.1242 12.084C19.0602 12.036 19.0082 11.968 18.9682 11.88C18.9362 11.792 18.9362 11.704 18.9682 11.616L20.3602 8.028C20.4242 7.868 20.4202 7.748 20.3482 7.668C20.2842 7.588 20.2082 7.544 20.1202 7.536C19.9922 7.528 19.8202 7.596 19.6042 7.74C19.3882 7.876 19.1482 8.108 18.8842 8.436C18.7642 8.588 18.5962 8.816 18.3802 9.12C18.1722 9.424 17.9562 9.752 17.7322 10.104C17.5162 10.448 17.3282 10.768 17.1682 11.064C17.0322 11.32 16.9042 11.532 16.7842 11.7C16.6642 11.868 16.5562 11.992 16.4602 12.072C16.3642 12.16 16.2842 12.204 16.2202 12.204C16.1802 12.204 16.1442 12.184 16.1122 12.144C16.0802 12.112 16.0522 12.072 16.0282 12.024C16.0122 11.976 16.0042 11.928 16.0042 11.88C16.0042 11.84 16.0282 11.74 16.0762 11.58C16.1322 11.412 16.2002 11.216 16.2802 10.992L17.3962 7.992C17.4682 7.808 17.4602 7.684 17.3722 7.62C17.2842 7.548 17.2122 7.508 17.1562 7.5C17.0282 7.484 16.8562 7.552 16.6402 7.704C16.4242 7.848 16.1842 8.084 15.9202 8.412C15.8242 8.524 15.7042 8.684 15.5602 8.892C15.4162 9.1 15.2602 9.332 15.0922 9.588C14.9322 9.836 14.7722 10.092 14.6122 10.356C14.4602 10.612 14.3242 10.848 14.2042 11.064C13.9962 11.448 13.8362 11.736 13.7242 11.928C13.6122 12.112 13.5082 12.204 13.4122 12.204ZM23.0129 12.18C22.8449 12.18 22.6729 12.116 22.4969 11.988C22.3289 11.86 22.1889 11.7 22.0769 11.508C21.9649 11.308 21.9089 11.116 21.9089 10.932C21.9089 10.532 21.9889 10.108 22.1489 9.66C22.3169 9.204 22.5449 8.78 22.8329 8.388C23.1209 7.988 23.4529 7.664 23.8289 7.416C24.2129 7.16 24.6169 7.032 25.0409 7.032C25.3209 7.032 25.5369 7.092 25.6889 7.212C25.8489 7.324 25.9289 7.484 25.9289 7.692C25.9289 7.94 25.8489 8.156 25.6889 8.34C25.5369 8.524 25.3289 8.684 25.0649 8.82C24.8009 8.948 24.5049 9.056 24.1769 9.144C23.8569 9.232 23.5289 9.308 23.1929 9.372C23.1449 9.38 23.1049 9.392 23.0729 9.408C23.0489 9.416 23.0289 9.444 23.0129 9.492C22.9569 9.668 22.9009 9.86 22.8449 10.068C22.7889 10.276 22.7609 10.472 22.7609 10.656C22.7609 10.936 22.8129 11.152 22.9169 11.304C23.0289 11.456 23.1889 11.532 23.3969 11.532C23.6849 11.532 23.9289 11.46 24.1289 11.316C24.3289 11.172 24.4929 11.028 24.6209 10.884C24.7009 10.796 24.7729 10.752 24.8369 10.752C24.9169 10.752 24.9569 10.792 24.9569 10.872C24.9569 10.88 24.9569 10.896 24.9569 10.92C24.9569 10.936 24.9489 10.952 24.9329 10.968C24.7729 11.232 24.5929 11.456 24.3929 11.64C24.1929 11.816 23.9769 11.948 23.7449 12.036C23.5209 12.132 23.2769 12.18 23.0129 12.18ZM23.2769 9.096C23.3649 9.096 23.5129 9.072 23.7209 9.024C23.9369 8.968 24.1609 8.884 24.3929 8.772C24.6249 8.652 24.8209 8.508 24.9809 8.34C25.1489 8.164 25.2329 7.956 25.2329 7.716C25.2329 7.612 25.2049 7.524 25.1489 7.452C25.0929 7.372 25.0129 7.332 24.9089 7.332C24.7409 7.332 24.5569 7.404 24.3569 7.548C24.1649 7.684 23.9809 7.852 23.8049 8.052C23.6289 8.244 23.4809 8.432 23.3609 8.616C23.2489 8.8 23.1929 8.936 23.1929 9.024C23.1929 9.072 23.2209 9.096 23.2769 9.096ZM26.3588 12.168C26.2948 12.168 26.2228 12.14 26.1428 12.084C26.0628 12.036 25.9948 11.98 25.9388 11.916C25.8908 11.844 25.8668 11.78 25.8668 11.724C25.8668 11.588 25.8828 11.472 25.9148 11.376C25.9548 11.28 25.9948 11.172 26.0348 11.052L27.1748 7.848C27.1908 7.792 27.1828 7.756 27.1508 7.74C27.1268 7.716 27.0948 7.704 27.0548 7.704L26.5748 7.68C26.4708 7.672 26.4068 7.652 26.3828 7.62C26.3668 7.58 26.3588 7.544 26.3588 7.512C26.3588 7.496 26.3788 7.468 26.4188 7.428C26.4588 7.38 26.5068 7.336 26.5628 7.296C26.6268 7.248 26.6948 7.224 26.7668 7.224H27.1988C27.2868 7.224 27.3468 7.212 27.3788 7.188C27.4108 7.156 27.4468 7.096 27.4868 7.008L27.7748 6.42C27.8068 6.356 27.8668 6.284 27.9548 6.204C28.0428 6.116 28.1308 6.04 28.2188 5.976C28.3148 5.912 28.3828 5.88 28.4228 5.88C28.4868 5.88 28.5268 5.924 28.5428 6.012C28.5588 6.1 28.5508 6.184 28.5188 6.264L28.2068 7.068C28.1908 7.124 28.1948 7.16 28.2188 7.176C28.2508 7.192 28.2988 7.2 28.3628 7.2C28.5228 7.2 28.6868 7.212 28.8548 7.236C29.0228 7.26 29.1588 7.28 29.2628 7.296C29.3908 7.32 29.4668 7.348 29.4908 7.38C29.5228 7.404 29.5388 7.436 29.5388 7.476C29.5388 7.492 29.5228 7.52 29.4908 7.56C29.4588 7.592 29.3988 7.612 29.3108 7.62C29.1348 7.628 28.9668 7.64 28.8068 7.656C28.6468 7.664 28.4788 7.672 28.3028 7.68C28.1748 7.688 28.0828 7.708 28.0268 7.74C27.9788 7.772 27.9468 7.812 27.9308 7.86L26.8628 10.812C26.8308 10.908 26.8148 10.992 26.8148 11.064C26.8148 11.136 26.8348 11.192 26.8748 11.232C26.9228 11.272 26.9908 11.292 27.0788 11.292C27.1908 11.292 27.3108 11.252 27.4388 11.172C27.5668 11.092 27.6908 11 27.8108 10.896C27.9308 10.792 28.0308 10.7 28.1108 10.62C28.1988 10.532 28.2748 10.492 28.3388 10.5C28.4028 10.508 28.4348 10.536 28.4348 10.584C28.4348 10.64 28.4148 10.704 28.3748 10.776C28.3348 10.84 28.2828 10.908 28.2188 10.98C28.0908 11.116 27.9548 11.244 27.8108 11.364C27.6748 11.484 27.5308 11.596 27.3788 11.7C27.2348 11.796 27.0948 11.88 26.9588 11.952C26.8308 12.016 26.7148 12.068 26.6108 12.108C26.5068 12.148 26.4228 12.168 26.3588 12.168ZM29.1667 12.168C28.9907 12.168 28.8387 12.116 28.7107 12.012C28.5827 11.916 28.5187 11.792 28.5187 11.64C28.5187 11.456 28.5627 11.32 28.6507 11.232C28.7307 11.136 28.7987 11.088 28.8547 11.088C28.9107 11.088 28.9667 11.112 29.0227 11.16C29.0867 11.2 29.1547 11.252 29.2267 11.316C29.3147 11.38 29.4107 11.444 29.5147 11.508C29.6267 11.564 29.7707 11.592 29.9467 11.592C30.1627 11.592 30.3347 11.516 30.4627 11.364C30.5907 11.204 30.6587 11.036 30.6667 10.86C30.6667 10.684 30.6347 10.496 30.5707 10.296C30.5147 10.088 30.4307 9.884 30.3187 9.684C30.2147 9.492 30.1267 9.312 30.0547 9.144C29.9907 8.968 29.9587 8.82 29.9587 8.7C29.9587 8.468 30.0187 8.252 30.1387 8.052C30.2667 7.844 30.4187 7.664 30.5947 7.512C30.7787 7.36 30.9587 7.244 31.1347 7.164C31.3107 7.076 31.4507 7.032 31.5547 7.032C31.6587 7.032 31.7627 7.064 31.8667 7.128C31.9707 7.184 32.0547 7.252 32.1187 7.332C32.1907 7.404 32.2267 7.468 32.2267 7.524C32.2267 7.572 32.2027 7.632 32.1547 7.704C32.1067 7.768 32.0507 7.828 31.9867 7.884C31.9227 7.94 31.8667 7.968 31.8187 7.968C31.7787 7.968 31.7387 7.948 31.6987 7.908C31.6587 7.868 31.6147 7.824 31.5667 7.776C31.5187 7.728 31.4587 7.684 31.3867 7.644C31.3227 7.604 31.2347 7.584 31.1227 7.584C30.9947 7.584 30.8827 7.64 30.7867 7.752C30.6907 7.856 30.6427 7.996 30.6427 8.172C30.6427 8.236 30.6627 8.336 30.7027 8.472C30.7507 8.608 30.8027 8.748 30.8587 8.892C30.9227 9.036 30.9827 9.164 31.0387 9.276C31.1267 9.436 31.2067 9.64 31.2787 9.888C31.3587 10.128 31.3987 10.34 31.3987 10.524C31.3987 10.764 31.3267 10.984 31.1827 11.184C31.0467 11.384 30.8667 11.56 30.6427 11.712C30.4187 11.856 30.1747 11.968 29.9107 12.048C29.6547 12.128 29.4067 12.168 29.1667 12.168ZM34.8614 12.168C34.7974 12.168 34.7254 12.14 34.6454 12.084C34.5654 12.036 34.4974 11.98 34.4414 11.916C34.3934 11.844 34.3694 11.78 34.3694 11.724C34.3694 11.588 34.3854 11.472 34.4174 11.376C34.4574 11.28 34.4974 11.172 34.5374 11.052L35.6774 7.848C35.6934 7.792 35.6854 7.756 35.6534 7.74C35.6294 7.716 35.5974 7.704 35.5574 7.704L35.0774 7.68C34.9734 7.672 34.9094 7.652 34.8854 7.62C34.8694 7.58 34.8614 7.544 34.8614 7.512C34.8614 7.496 34.8814 7.468 34.9214 7.428C34.9614 7.38 35.0094 7.336 35.0654 7.296C35.1294 7.248 35.1974 7.224 35.2694 7.224H35.7014C35.7894 7.224 35.8494 7.212 35.8814 7.188C35.9134 7.156 35.9494 7.096 35.9894 7.008L36.2774 6.42C36.3094 6.356 36.3694 6.284 36.4574 6.204C36.5454 6.116 36.6334 6.04 36.7214 5.976C36.8174 5.912 36.8854 5.88 36.9254 5.88C36.9894 5.88 37.0294 5.924 37.0454 6.012C37.0614 6.1 37.0534 6.184 37.0214 6.264L36.7094 7.068C36.6934 7.124 36.6974 7.16 36.7214 7.176C36.7534 7.192 36.8014 7.2 36.8654 7.2C37.0254 7.2 37.1894 7.212 37.3574 7.236C37.5254 7.26 37.6614 7.28 37.7654 7.296C37.8934 7.32 37.9694 7.348 37.9934 7.38C38.0254 7.404 38.0414 7.436 38.0414 7.476C38.0414 7.492 38.0254 7.52 37.9934 7.56C37.9614 7.592 37.9014 7.612 37.8134 7.62C37.6374 7.628 37.4694 7.64 37.3094 7.656C37.1494 7.664 36.9814 7.672 36.8054 7.68C36.6774 7.688 36.5854 7.708 36.5294 7.74C36.4814 7.772 36.4494 7.812 36.4334 7.86L35.3654 10.812C35.3334 10.908 35.3174 10.992 35.3174 11.064C35.3174 11.136 35.3374 11.192 35.3774 11.232C35.4254 11.272 35.4934 11.292 35.5814 11.292C35.6934 11.292 35.8134 11.252 35.9414 11.172C36.0694 11.092 36.1934 11 36.3134 10.896C36.4334 10.792 36.5334 10.7 36.6134 10.62C36.7014 10.532 36.7774 10.492 36.8414 10.5C36.9054 10.508 36.9374 10.536 36.9374 10.584C36.9374 10.64 36.9174 10.704 36.8774 10.776C36.8374 10.84 36.7854 10.908 36.7214 10.98C36.5934 11.116 36.4574 11.244 36.3134 11.364C36.1774 11.484 36.0334 11.596 35.8814 11.7C35.7374 11.796 35.5974 11.88 35.4614 11.952C35.3334 12.016 35.2174 12.068 35.1134 12.108C35.0094 12.148 34.9254 12.168 34.8614 12.168ZM37.795 12.216C37.755 12.216 37.719 12.2 37.687 12.168C37.655 12.136 37.631 12.096 37.615 12.048C37.599 12 37.591 11.952 37.591 11.904C37.591 11.784 37.603 11.664 37.627 11.544C37.659 11.424 37.699 11.276 37.747 11.1L39.439 5.304C39.479 5.168 39.519 5.02 39.559 4.86C39.599 4.692 39.619 4.568 39.619 4.488C39.619 4.408 39.567 4.348 39.463 4.308C39.367 4.268 39.271 4.232 39.175 4.2C39.119 4.184 39.067 4.168 39.019 4.152C38.979 4.128 38.959 4.1 38.959 4.068C38.959 4.036 38.971 4.008 38.995 3.984C39.019 3.952 39.075 3.92 39.163 3.888C39.227 3.864 39.315 3.832 39.427 3.792C39.547 3.752 39.671 3.712 39.799 3.672C39.935 3.624 40.055 3.588 40.159 3.564C40.271 3.532 40.347 3.516 40.387 3.516C40.427 3.516 40.471 3.52 40.519 3.528C40.567 3.536 40.591 3.572 40.591 3.636C40.591 3.7 40.583 3.756 40.567 3.804C40.559 3.852 40.547 3.904 40.531 3.96L38.899 9.6C38.883 9.656 38.883 9.684 38.899 9.684C38.923 9.684 38.947 9.668 38.971 9.636C39.323 9.116 39.687 8.656 40.063 8.256C40.439 7.848 40.795 7.528 41.131 7.296C41.467 7.064 41.755 6.948 41.995 6.948C42.259 6.948 42.459 7.036 42.595 7.212C42.739 7.388 42.811 7.592 42.811 7.824C42.811 8.232 42.735 8.664 42.583 9.12C42.439 9.576 42.247 10.012 42.007 10.428C41.767 10.844 41.507 11.2 41.227 11.496C41.179 11.544 41.107 11.608 41.011 11.688C40.915 11.76 40.803 11.832 40.675 11.904C40.547 11.976 40.415 12.036 40.279 12.084C40.151 12.14 40.031 12.168 39.919 12.168C39.863 12.168 39.795 12.144 39.715 12.096C39.643 12.048 39.579 11.988 39.523 11.916C39.475 11.844 39.451 11.78 39.451 11.724C39.451 11.684 39.467 11.636 39.499 11.58C39.531 11.524 39.571 11.476 39.619 11.436C39.667 11.396 39.715 11.376 39.763 11.376C39.835 11.376 39.895 11.392 39.943 11.424C39.999 11.448 40.047 11.48 40.087 11.52C40.135 11.56 40.183 11.596 40.231 11.628C40.279 11.66 40.335 11.676 40.399 11.676C40.535 11.676 40.679 11.596 40.831 11.436C40.983 11.276 41.127 11.064 41.263 10.8C41.407 10.536 41.535 10.248 41.647 9.936C41.759 9.616 41.847 9.296 41.911 8.976C41.983 8.656 42.019 8.36 42.019 8.088C42.019 7.904 41.979 7.764 41.899 7.668C41.827 7.564 41.715 7.512 41.563 7.512C41.387 7.512 41.187 7.6 40.963 7.776C40.747 7.944 40.519 8.168 40.279 8.448C40.047 8.728 39.819 9.028 39.595 9.348C39.371 9.668 39.167 9.98 38.983 10.284C38.799 10.588 38.651 10.848 38.539 11.064C38.339 11.448 38.187 11.736 38.083 11.928C37.987 12.12 37.891 12.216 37.795 12.216ZM43.2823 12.168C43.1863 12.168 43.0903 12.14 42.9943 12.084C42.8983 12.036 42.8183 11.972 42.7543 11.892C42.6983 11.812 42.6703 11.728 42.6703 11.64C42.6703 11.352 42.7663 11.02 42.9583 10.644C43.1503 10.26 43.4183 9.86 43.7623 9.444C44.1063 9.02 44.5023 8.612 44.9503 8.22C45.3823 7.844 45.7343 7.564 46.0063 7.38C46.2783 7.188 46.4783 7.092 46.6063 7.092C46.7343 7.092 46.8463 7.148 46.9423 7.26C47.0543 7.404 47.1023 7.472 47.0863 7.464C47.0783 7.448 47.0783 7.44 47.0863 7.44C47.1023 7.44 47.1143 7.436 47.1223 7.428C47.1383 7.412 47.1503 7.392 47.1583 7.368C47.2703 7.176 47.3383 7.06 47.3623 7.02C47.3863 6.98 47.3863 6.976 47.3623 7.008C47.4103 6.928 47.4583 6.888 47.5063 6.888C47.5783 6.888 47.6503 6.9 47.7223 6.924C47.7943 6.948 47.8503 6.98 47.8903 7.02C47.9383 7.06 47.9623 7.1 47.9623 7.14C47.9623 7.18 47.9343 7.28 47.8783 7.44L46.5343 11.004C46.4303 11.276 46.4823 11.412 46.6903 11.412C46.8343 11.412 47.0063 11.344 47.2063 11.208C47.4143 11.064 47.5943 10.892 47.7463 10.692C47.7623 10.676 47.7783 10.664 47.7943 10.656C47.8183 10.64 47.8383 10.632 47.8543 10.632C47.8863 10.632 47.9063 10.644 47.9143 10.668C47.9303 10.684 47.9383 10.716 47.9383 10.764C47.9383 10.82 47.8823 10.932 47.7703 11.1C47.6583 11.26 47.5423 11.4 47.4223 11.52C47.1983 11.728 46.9703 11.888 46.7383 12C46.5143 12.112 46.3063 12.168 46.1143 12.168C46.0343 12.168 45.9543 12.144 45.8743 12.096C45.7943 12.048 45.7263 11.988 45.6703 11.916C45.6223 11.844 45.5983 11.772 45.5983 11.7C45.5983 11.612 45.6223 11.52 45.6703 11.424C45.6383 11.496 45.6343 11.496 45.6583 11.424C45.6903 11.352 45.7383 11.24 45.8023 11.088C45.8743 10.936 45.9503 10.776 46.0303 10.608C46.1103 10.44 46.1783 10.292 46.2343 10.164C46.2743 10.076 46.2903 10.012 46.2823 9.972C46.2823 9.924 46.2583 9.928 46.2103 9.984C45.7223 10.528 45.3023 10.96 44.9503 11.28C44.6063 11.6 44.3023 11.828 44.0383 11.964C43.7743 12.1 43.5223 12.168 43.2823 12.168ZM43.9543 11.412C44.1303 11.412 44.3903 11.268 44.7343 10.98C45.0863 10.684 45.4823 10.276 45.9223 9.756C46.2263 9.404 46.4663 9.08 46.6423 8.784C46.8183 8.488 46.9063 8.268 46.9063 8.124C46.9063 8.06 46.8543 7.984 46.7503 7.896C46.7023 7.856 46.6503 7.824 46.5943 7.8C46.5383 7.776 46.4903 7.764 46.4503 7.764C46.3063 7.764 46.1063 7.836 45.8503 7.98C45.6023 8.124 45.3743 8.296 45.1663 8.496C44.9023 8.752 44.6503 9.04 44.4103 9.36C44.1703 9.68 43.9743 9.988 43.8223 10.284C43.6783 10.58 43.6063 10.82 43.6063 11.004C43.6063 11.124 43.6383 11.224 43.7023 11.304C43.7663 11.376 43.8503 11.412 43.9543 11.412ZM49.1649 12.168C49.1009 12.168 49.0289 12.14 48.9489 12.084C48.8689 12.036 48.8009 11.98 48.7449 11.916C48.6969 11.844 48.6729 11.78 48.6729 11.724C48.6729 11.588 48.6889 11.472 48.7209 11.376C48.7609 11.28 48.8009 11.172 48.8409 11.052L49.9809 7.848C49.9969 7.792 49.9889 7.756 49.9569 7.74C49.9329 7.716 49.9009 7.704 49.8609 7.704L49.3809 7.68C49.2769 7.672 49.2129 7.652 49.1889 7.62C49.1729 7.58 49.1649 7.544 49.1649 7.512C49.1649 7.496 49.1849 7.468 49.2249 7.428C49.2649 7.38 49.3129 7.336 49.3689 7.296C49.4329 7.248 49.5009 7.224 49.5729 7.224H50.0049C50.0929 7.224 50.1529 7.212 50.1849 7.188C50.2169 7.156 50.2529 7.096 50.2929 7.008L50.5809 6.42C50.6129 6.356 50.6729 6.284 50.7609 6.204C50.8489 6.116 50.9369 6.04 51.0249 5.976C51.1209 5.912 51.1889 5.88 51.2289 5.88C51.2929 5.88 51.3329 5.924 51.3489 6.012C51.3649 6.1 51.3569 6.184 51.3249 6.264L51.0129 7.068C50.9969 7.124 51.0009 7.16 51.0249 7.176C51.0569 7.192 51.1049 7.2 51.1689 7.2C51.3289 7.2 51.4929 7.212 51.6609 7.236C51.8289 7.26 51.9649 7.28 52.0689 7.296C52.1969 7.32 52.2729 7.348 52.2969 7.38C52.3289 7.404 52.3449 7.436 52.3449 7.476C52.3449 7.492 52.3289 7.52 52.2969 7.56C52.2649 7.592 52.2049 7.612 52.1169 7.62C51.9409 7.628 51.7729 7.64 51.6129 7.656C51.4529 7.664 51.2849 7.672 51.1089 7.68C50.9809 7.688 50.8889 7.708 50.8329 7.74C50.7849 7.772 50.7529 7.812 50.7369 7.86L49.6689 10.812C49.6369 10.908 49.6209 10.992 49.6209 11.064C49.6209 11.136 49.6409 11.192 49.6809 11.232C49.7289 11.272 49.7969 11.292 49.8849 11.292C49.9969 11.292 50.1169 11.252 50.2449 11.172C50.3729 11.092 50.4969 11 50.6169 10.896C50.7369 10.792 50.8369 10.7 50.9169 10.62C51.0049 10.532 51.0809 10.492 51.1449 10.5C51.2089 10.508 51.2409 10.536 51.2409 10.584C51.2409 10.64 51.2209 10.704 51.1809 10.776C51.1409 10.84 51.0889 10.908 51.0249 10.98C50.8969 11.116 50.7609 11.244 50.6169 11.364C50.4809 11.484 50.3369 11.596 50.1849 11.7C50.0409 11.796 49.9009 11.88 49.7649 11.952C49.6369 12.016 49.5209 12.068 49.4169 12.108C49.3129 12.148 49.2289 12.168 49.1649 12.168ZM55.0111 12.18C54.8671 12.18 54.7151 12.124 54.5551 12.012C54.4031 11.908 54.2711 11.764 54.1591 11.58C54.0551 11.388 54.0031 11.168 54.0031 10.92C54.0111 10.632 54.0591 10.316 54.1471 9.972C54.2351 9.62 54.3631 9.272 54.5311 8.928C54.6991 8.584 54.9071 8.268 55.1551 7.98C55.4111 7.692 55.7031 7.464 56.0311 7.296C56.3591 7.12 56.7271 7.032 57.1351 7.032C57.3511 7.032 57.5151 7.072 57.6271 7.152C57.7391 7.224 57.7951 7.312 57.7951 7.416C57.7951 7.544 57.7551 7.676 57.6751 7.812C57.6031 7.94 57.5231 8.004 57.4351 8.004C57.3711 8.004 57.3151 7.976 57.2671 7.92C57.2271 7.864 57.1871 7.796 57.1471 7.716C57.0991 7.628 57.0391 7.548 56.9671 7.476C56.8951 7.396 56.7911 7.356 56.6551 7.356C56.4631 7.356 56.2631 7.472 56.0551 7.704C55.8471 7.936 55.6511 8.232 55.4671 8.592C55.2911 8.952 55.1471 9.332 55.0351 9.732C54.9231 10.132 54.8671 10.496 54.8671 10.824C54.8671 11.088 54.9191 11.268 55.0231 11.364C55.1271 11.46 55.2671 11.508 55.4431 11.508C55.6991 11.508 55.9031 11.46 56.0551 11.364C56.2071 11.26 56.3591 11.136 56.5111 10.992C56.5671 10.936 56.6071 10.896 56.6311 10.872C56.6631 10.848 56.7031 10.836 56.7511 10.836C56.8151 10.836 56.8471 10.888 56.8471 10.992C56.8471 11.056 56.7951 11.152 56.6911 11.28C56.5951 11.408 56.4591 11.544 56.2831 11.688C56.1151 11.824 55.9191 11.94 55.6951 12.036C55.4791 12.132 55.2511 12.18 55.0111 12.18ZM57.7825 12.216C57.7425 12.216 57.7065 12.2 57.6745 12.168C57.6425 12.136 57.6185 12.096 57.6025 12.048C57.5865 12 57.5785 11.952 57.5785 11.904C57.5785 11.784 57.5905 11.664 57.6145 11.544C57.6465 11.424 57.6865 11.276 57.7345 11.1L59.4265 5.304C59.4665 5.168 59.5065 5.02 59.5465 4.86C59.5865 4.692 59.6065 4.568 59.6065 4.488C59.6065 4.408 59.5545 4.348 59.4505 4.308C59.3545 4.268 59.2585 4.232 59.1625 4.2C59.1065 4.184 59.0545 4.168 59.0065 4.152C58.9665 4.128 58.9465 4.1 58.9465 4.068C58.9465 4.036 58.9585 4.008 58.9825 3.984C59.0065 3.952 59.0625 3.92 59.1505 3.888C59.2145 3.864 59.3025 3.832 59.4145 3.792C59.5345 3.752 59.6585 3.712 59.7865 3.672C59.9225 3.624 60.0425 3.588 60.1465 3.564C60.2585 3.532 60.3345 3.516 60.3745 3.516C60.4145 3.516 60.4585 3.52 60.5065 3.528C60.5545 3.536 60.5785 3.572 60.5785 3.636C60.5785 3.7 60.5705 3.756 60.5545 3.804C60.5465 3.852 60.5345 3.904 60.5185 3.96L58.8865 9.6C58.8705 9.656 58.8705 9.684 58.8865 9.684C58.9105 9.684 58.9345 9.668 58.9585 9.636C59.3105 9.116 59.6745 8.656 60.0505 8.256C60.4265 7.848 60.7825 7.528 61.1185 7.296C61.4545 7.064 61.7425 6.948 61.9825 6.948C62.2465 6.948 62.4465 7.036 62.5825 7.212C62.7265 7.388 62.7985 7.592 62.7985 7.824C62.7985 8.232 62.7225 8.664 62.5705 9.12C62.4265 9.576 62.2345 10.012 61.9945 10.428C61.7545 10.844 61.4945 11.2 61.2145 11.496C61.1665 11.544 61.0945 11.608 60.9985 11.688C60.9025 11.76 60.7905 11.832 60.6625 11.904C60.5345 11.976 60.4025 12.036 60.2665 12.084C60.1385 12.14 60.0185 12.168 59.9065 12.168C59.8505 12.168 59.7825 12.144 59.7025 12.096C59.6305 12.048 59.5665 11.988 59.5105 11.916C59.4625 11.844 59.4385 11.78 59.4385 11.724C59.4385 11.684 59.4545 11.636 59.4865 11.58C59.5185 11.524 59.5585 11.476 59.6065 11.436C59.6545 11.396 59.7025 11.376 59.7505 11.376C59.8225 11.376 59.8825 11.392 59.9305 11.424C59.9865 11.448 60.0345 11.48 60.0745 11.52C60.1225 11.56 60.1705 11.596 60.2185 11.628C60.2665 11.66 60.3225 11.676 60.3865 11.676C60.5225 11.676 60.6665 11.596 60.8185 11.436C60.9705 11.276 61.1145 11.064 61.2505 10.8C61.3945 10.536 61.5225 10.248 61.6345 9.936C61.7465 9.616 61.8345 9.296 61.8985 8.976C61.9705 8.656 62.0065 8.36 62.0065 8.088C62.0065 7.904 61.9665 7.764 61.8865 7.668C61.8145 7.564 61.7025 7.512 61.5505 7.512C61.3745 7.512 61.1745 7.6 60.9505 7.776C60.7345 7.944 60.5065 8.168 60.2665 8.448C60.0345 8.728 59.8065 9.028 59.5825 9.348C59.3585 9.668 59.1545 9.98 58.9705 10.284C58.7865 10.588 58.6385 10.848 58.5265 11.064C58.3265 11.448 58.1745 11.736 58.0705 11.928C57.9745 12.12 57.8785 12.216 57.7825 12.216ZM63.2698 12.168C63.1738 12.168 63.0778 12.14 62.9818 12.084C62.8858 12.036 62.8058 11.972 62.7418 11.892C62.6858 11.812 62.6578 11.728 62.6578 11.64C62.6578 11.352 62.7538 11.02 62.9458 10.644C63.1378 10.26 63.4058 9.86 63.7498 9.444C64.0938 9.02 64.4898 8.612 64.9378 8.22C65.3698 7.844 65.7218 7.564 65.9938 7.38C66.2658 7.188 66.4658 7.092 66.5938 7.092C66.7218 7.092 66.8338 7.148 66.9298 7.26C67.0418 7.404 67.0898 7.472 67.0738 7.464C67.0658 7.448 67.0658 7.44 67.0738 7.44C67.0898 7.44 67.1018 7.436 67.1098 7.428C67.1258 7.412 67.1378 7.392 67.1458 7.368C67.2578 7.176 67.3258 7.06 67.3498 7.02C67.3738 6.98 67.3738 6.976 67.3498 7.008C67.3978 6.928 67.4458 6.888 67.4938 6.888C67.5658 6.888 67.6378 6.9 67.7098 6.924C67.7818 6.948 67.8378 6.98 67.8778 7.02C67.9258 7.06 67.9498 7.1 67.9498 7.14C67.9498 7.18 67.9218 7.28 67.8658 7.44L66.5218 11.004C66.4178 11.276 66.4698 11.412 66.6778 11.412C66.8218 11.412 66.9938 11.344 67.1938 11.208C67.4018 11.064 67.5818 10.892 67.7338 10.692C67.7498 10.676 67.7658 10.664 67.7818 10.656C67.8058 10.64 67.8258 10.632 67.8418 10.632C67.8738 10.632 67.8938 10.644 67.9018 10.668C67.9178 10.684 67.9258 10.716 67.9258 10.764C67.9258 10.82 67.8698 10.932 67.7578 11.1C67.6458 11.26 67.5298 11.4 67.4098 11.52C67.1858 11.728 66.9578 11.888 66.7258 12C66.5018 12.112 66.2938 12.168 66.1018 12.168C66.0218 12.168 65.9418 12.144 65.8618 12.096C65.7818 12.048 65.7138 11.988 65.6578 11.916C65.6098 11.844 65.5858 11.772 65.5858 11.7C65.5858 11.612 65.6098 11.52 65.6578 11.424C65.6258 11.496 65.6218 11.496 65.6458 11.424C65.6778 11.352 65.7258 11.24 65.7898 11.088C65.8618 10.936 65.9378 10.776 66.0178 10.608C66.0978 10.44 66.1658 10.292 66.2218 10.164C66.2618 10.076 66.2778 10.012 66.2698 9.972C66.2698 9.924 66.2458 9.928 66.1978 9.984C65.7098 10.528 65.2898 10.96 64.9378 11.28C64.5938 11.6 64.2898 11.828 64.0258 11.964C63.7618 12.1 63.5098 12.168 63.2698 12.168ZM63.9418 11.412C64.1178 11.412 64.3778 11.268 64.7218 10.98C65.0738 10.684 65.4698 10.276 65.9098 9.756C66.2138 9.404 66.4538 9.08 66.6298 8.784C66.8058 8.488 66.8938 8.268 66.8938 8.124C66.8938 8.06 66.8418 7.984 66.7378 7.896C66.6898 7.856 66.6378 7.824 66.5818 7.8C66.5258 7.776 66.4778 7.764 66.4378 7.764C66.2938 7.764 66.0938 7.836 65.8378 7.98C65.5898 8.124 65.3618 8.296 65.1538 8.496C64.8898 8.752 64.6378 9.04 64.3978 9.36C64.1578 9.68 63.9618 9.988 63.8098 10.284C63.6658 10.58 63.5938 10.82 63.5938 11.004C63.5938 11.124 63.6258 11.224 63.6898 11.304C63.7538 11.376 63.8378 11.412 63.9418 11.412ZM68.906 12.192C68.858 12.192 68.81 12.172 68.762 12.132C68.722 12.1 68.686 12.056 68.654 12C68.622 11.952 68.598 11.896 68.582 11.832C68.574 11.768 68.582 11.712 68.606 11.664L69.998 8.256C70.142 7.904 70.15 7.728 70.022 7.728C69.942 7.728 69.858 7.74 69.77 7.764C69.682 7.78 69.586 7.828 69.482 7.908C69.378 7.988 69.262 8.112 69.134 8.28C69.102 8.312 69.066 8.328 69.026 8.328C68.994 8.32 68.97 8.288 68.954 8.232C68.954 8.184 68.966 8.124 68.99 8.052C69.022 7.972 69.058 7.896 69.098 7.824C69.138 7.744 69.174 7.68 69.206 7.632C69.326 7.448 69.486 7.304 69.686 7.2C69.894 7.096 70.134 7.04 70.406 7.032C70.494 7.032 70.574 7.056 70.646 7.104C70.718 7.144 70.77 7.204 70.802 7.284C70.842 7.364 70.842 7.452 70.802 7.548L70.01 9.588C69.986 9.644 69.99 9.676 70.022 9.684C70.062 9.692 70.094 9.676 70.118 9.636C70.446 9.076 70.778 8.604 71.114 8.22C71.458 7.828 71.786 7.532 72.098 7.332C72.41 7.132 72.686 7.032 72.926 7.032C73.094 7.032 73.238 7.092 73.358 7.212C73.486 7.324 73.566 7.48 73.598 7.68C73.638 7.872 73.602 8.096 73.49 8.352L72.386 10.968C72.266 11.256 72.286 11.4 72.446 11.4C72.542 11.4 72.658 11.364 72.794 11.292C72.938 11.22 73.082 11.136 73.226 11.04C73.37 10.936 73.494 10.844 73.598 10.764C73.71 10.676 73.782 10.616 73.814 10.584C73.822 10.576 73.826 10.572 73.826 10.572C73.834 10.572 73.842 10.572 73.85 10.572C73.874 10.572 73.894 10.584 73.91 10.608C73.934 10.624 73.946 10.648 73.946 10.68C73.946 10.744 73.93 10.8 73.898 10.848C73.69 11.096 73.466 11.32 73.226 11.52C72.994 11.72 72.75 11.88 72.494 12C72.246 12.112 71.994 12.168 71.738 12.168C71.666 12.168 71.594 12.14 71.522 12.084C71.45 12.036 71.394 11.972 71.354 11.892C71.322 11.812 71.326 11.728 71.366 11.64C71.598 11.104 71.83 10.572 72.062 10.044C72.302 9.508 72.526 8.972 72.734 8.436C72.862 8.108 72.906 7.88 72.866 7.752C72.826 7.616 72.75 7.544 72.638 7.536C72.55 7.528 72.446 7.56 72.326 7.632C72.206 7.696 72.07 7.8 71.918 7.944C71.766 8.08 71.602 8.256 71.426 8.472C71.33 8.584 71.202 8.76 71.042 9C70.882 9.232 70.702 9.504 70.502 9.816C70.302 10.12 70.094 10.448 69.878 10.8C69.67 11.144 69.47 11.484 69.278 11.82C69.206 11.948 69.142 12.04 69.086 12.096C69.03 12.16 68.97 12.192 68.906 12.192ZM75.5941 15.48C75.1301 15.48 74.7061 15.424 74.3221 15.312C73.9461 15.208 73.6461 15.056 73.4221 14.856C73.1981 14.664 73.0861 14.432 73.0861 14.16C73.0861 13.976 73.2101 13.8 73.4581 13.632C73.7061 13.472 74.0141 13.32 74.3821 13.176C74.7501 13.032 75.1141 12.9 75.4741 12.78C75.5381 12.756 75.5461 12.72 75.4981 12.672C75.3221 12.52 75.1821 12.388 75.0781 12.276C74.9741 12.172 74.9221 12.056 74.9221 11.928C74.9221 11.816 74.9781 11.7 75.0901 11.58C75.2101 11.452 75.3541 11.324 75.5221 11.196C75.5621 11.156 75.5861 11.124 75.5941 11.1C75.6101 11.076 75.6181 11.06 75.6181 11.052C75.6181 11.028 75.5861 11.004 75.5221 10.98C75.3621 10.9 75.2341 10.808 75.1381 10.704C75.0501 10.6 74.9861 10.48 74.9461 10.344C74.9141 10.2 74.8981 10.04 74.8981 9.864C74.8981 9.592 74.9581 9.296 75.0781 8.976C75.1981 8.648 75.3621 8.336 75.5701 8.04C75.7781 7.744 76.0221 7.504 76.3021 7.32C76.5821 7.128 76.8821 7.032 77.2021 7.032C77.3701 7.032 77.4901 7.052 77.5621 7.092C77.6421 7.124 77.7061 7.152 77.7541 7.176C77.8101 7.208 77.8661 7.24 77.9221 7.272C77.9781 7.296 78.0341 7.308 78.0901 7.308C78.1781 7.308 78.2941 7.296 78.4381 7.272C78.5821 7.24 78.7301 7.212 78.8821 7.188C79.0341 7.164 79.1621 7.152 79.2661 7.152C79.3141 7.152 79.3701 7.176 79.4341 7.224C79.4981 7.264 79.5301 7.332 79.5301 7.428C79.5301 7.58 79.5061 7.688 79.4581 7.752C79.4101 7.816 79.3621 7.848 79.3141 7.848C79.2421 7.848 79.1421 7.836 79.0141 7.812C78.8861 7.788 78.7621 7.764 78.6421 7.74C78.5301 7.716 78.4421 7.704 78.3781 7.704C78.3381 7.704 78.2981 7.716 78.2581 7.74C78.2261 7.764 78.2181 7.808 78.2341 7.872C78.2501 7.936 78.2621 8.004 78.2701 8.076C78.2781 8.148 78.2821 8.224 78.2821 8.304C78.2821 8.616 78.2181 8.936 78.0901 9.264C77.9701 9.584 77.8061 9.884 77.5981 10.164C77.3901 10.436 77.1541 10.656 76.8901 10.824C76.6341 10.992 76.3741 11.076 76.1101 11.076C76.0541 11.076 76.0021 11.092 75.9541 11.124C75.9141 11.148 75.8781 11.18 75.8461 11.22C75.7581 11.332 75.7141 11.448 75.7141 11.568C75.7141 11.712 75.7501 11.832 75.8221 11.928C75.9021 12.024 76.0421 12.14 76.2421 12.276C76.3781 12.364 76.5381 12.468 76.7221 12.588C76.9141 12.716 77.1021 12.836 77.2861 12.948C77.4701 13.068 77.6181 13.172 77.7301 13.26C77.9061 13.388 78.0261 13.504 78.0901 13.608C78.1621 13.72 78.1981 13.836 78.1981 13.956C78.1981 14.164 78.1141 14.36 77.9461 14.544C77.7861 14.728 77.5741 14.888 77.3101 15.024C77.0461 15.168 76.7621 15.28 76.4581 15.36C76.1621 15.44 75.8741 15.48 75.5941 15.48ZM75.9541 15.12C76.2741 15.12 76.5341 15.08 76.7341 15C76.9341 14.92 77.0821 14.816 77.1781 14.688C77.2741 14.568 77.3221 14.436 77.3221 14.292C77.3221 14.172 77.2861 14.044 77.2141 13.908C77.1421 13.78 77.0141 13.664 76.8301 13.56C76.7661 13.512 76.6541 13.436 76.4941 13.332C76.3421 13.228 76.2221 13.156 76.1341 13.116C75.9901 13.036 75.8781 12.996 75.7981 12.996C75.7501 12.996 75.6981 13 75.6421 13.008C75.5941 13.016 75.5461 13.028 75.4981 13.044C75.0181 13.196 74.6341 13.36 74.3461 13.536C74.0581 13.72 73.9141 13.936 73.9141 14.184C73.9141 14.36 74.0181 14.516 74.2261 14.652C74.4261 14.796 74.6821 14.908 74.9941 14.988C75.3061 15.076 75.6261 15.12 75.9541 15.12ZM76.0741 10.788C76.2181 10.788 76.3621 10.716 76.5061 10.572C76.6581 10.428 76.8021 10.24 76.9381 10.008C77.0741 9.776 77.1941 9.532 77.2981 9.276C77.4101 9.012 77.4981 8.76 77.5621 8.52C77.6261 8.28 77.6581 8.084 77.6581 7.932C77.6581 7.812 77.6181 7.688 77.5381 7.56C77.4581 7.432 77.3581 7.368 77.2381 7.368C77.0861 7.368 76.9341 7.432 76.7821 7.56C76.6301 7.688 76.4821 7.86 76.3381 8.076C76.2021 8.284 76.0781 8.516 75.9661 8.772C75.8541 9.02 75.7621 9.272 75.6901 9.528C75.6261 9.776 75.5901 10.004 75.5821 10.212C75.5821 10.364 75.6301 10.5 75.7261 10.62C75.8301 10.732 75.9461 10.788 76.0741 10.788ZM80.2506 12.18C80.0826 12.18 79.9106 12.116 79.7346 11.988C79.5666 11.86 79.4266 11.7 79.3146 11.508C79.2026 11.308 79.1466 11.116 79.1466 10.932C79.1466 10.532 79.2266 10.108 79.3866 9.66C79.5546 9.204 79.7826 8.78 80.0706 8.388C80.3586 7.988 80.6906 7.664 81.0666 7.416C81.4506 7.16 81.8546 7.032 82.2786 7.032C82.5586 7.032 82.7746 7.092 82.9266 7.212C83.0866 7.324 83.1666 7.484 83.1666 7.692C83.1666 7.94 83.0866 8.156 82.9266 8.34C82.7746 8.524 82.5666 8.684 82.3026 8.82C82.0386 8.948 81.7426 9.056 81.4146 9.144C81.0946 9.232 80.7666 9.308 80.4306 9.372C80.3826 9.38 80.3426 9.392 80.3106 9.408C80.2866 9.416 80.2666 9.444 80.2506 9.492C80.1946 9.668 80.1386 9.86 80.0826 10.068C80.0266 10.276 79.9986 10.472 79.9986 10.656C79.9986 10.936 80.0506 11.152 80.1546 11.304C80.2666 11.456 80.4266 11.532 80.6346 11.532C80.9226 11.532 81.1666 11.46 81.3666 11.316C81.5666 11.172 81.7306 11.028 81.8586 10.884C81.9386 10.796 82.0106 10.752 82.0746 10.752C82.1546 10.752 82.1946 10.792 82.1946 10.872C82.1946 10.88 82.1946 10.896 82.1946 10.92C82.1946 10.936 82.1866 10.952 82.1706 10.968C82.0106 11.232 81.8306 11.456 81.6306 11.64C81.4306 11.816 81.2146 11.948 80.9826 12.036C80.7586 12.132 80.5146 12.18 80.2506 12.18ZM80.5146 9.096C80.6026 9.096 80.7506 9.072 80.9586 9.024C81.1746 8.968 81.3986 8.884 81.6306 8.772C81.8626 8.652 82.0586 8.508 82.2186 8.34C82.3866 8.164 82.4706 7.956 82.4706 7.716C82.4706 7.612 82.4426 7.524 82.3866 7.452C82.3306 7.372 82.2506 7.332 82.1466 7.332C81.9786 7.332 81.7946 7.404 81.5946 7.548C81.4026 7.684 81.2186 7.852 81.0426 8.052C80.8666 8.244 80.7186 8.432 80.5986 8.616C80.4866 8.8 80.4306 8.936 80.4306 9.024C80.4306 9.072 80.4586 9.096 80.5146 9.096ZM85.7588 12.168C85.6948 12.168 85.6228 12.14 85.5428 12.084C85.4628 12.036 85.3948 11.98 85.3388 11.916C85.2908 11.844 85.2668 11.78 85.2668 11.724C85.2668 11.588 85.2828 11.472 85.3148 11.376C85.3548 11.28 85.3948 11.172 85.4348 11.052L86.5748 7.848C86.5908 7.792 86.5828 7.756 86.5508 7.74C86.5268 7.716 86.4948 7.704 86.4548 7.704L85.9748 7.68C85.8708 7.672 85.8068 7.652 85.7828 7.62C85.7668 7.58 85.7588 7.544 85.7588 7.512C85.7588 7.496 85.7788 7.468 85.8188 7.428C85.8588 7.38 85.9068 7.336 85.9628 7.296C86.0268 7.248 86.0948 7.224 86.1668 7.224H86.5988C86.6868 7.224 86.7468 7.212 86.7788 7.188C86.8108 7.156 86.8468 7.096 86.8868 7.008L87.1748 6.42C87.2068 6.356 87.2668 6.284 87.3548 6.204C87.4428 6.116 87.5308 6.04 87.6188 5.976C87.7148 5.912 87.7828 5.88 87.8228 5.88C87.8868 5.88 87.9268 5.924 87.9428 6.012C87.9588 6.1 87.9508 6.184 87.9188 6.264L87.6068 7.068C87.5908 7.124 87.5948 7.16 87.6188 7.176C87.6508 7.192 87.6988 7.2 87.7628 7.2C87.9228 7.2 88.0868 7.212 88.2548 7.236C88.4228 7.26 88.5588 7.28 88.6628 7.296C88.7908 7.32 88.8668 7.348 88.8908 7.38C88.9228 7.404 88.9388 7.436 88.9388 7.476C88.9388 7.492 88.9228 7.52 88.8908 7.56C88.8588 7.592 88.7988 7.612 88.7108 7.62C88.5348 7.628 88.3668 7.64 88.2068 7.656C88.0468 7.664 87.8788 7.672 87.7028 7.68C87.5748 7.688 87.4828 7.708 87.4268 7.74C87.3788 7.772 87.3468 7.812 87.3308 7.86L86.2628 10.812C86.2308 10.908 86.2148 10.992 86.2148 11.064C86.2148 11.136 86.2348 11.192 86.2748 11.232C86.3228 11.272 86.3908 11.292 86.4788 11.292C86.5908 11.292 86.7108 11.252 86.8388 11.172C86.9668 11.092 87.0908 11 87.2108 10.896C87.3308 10.792 87.4308 10.7 87.5108 10.62C87.5988 10.532 87.6748 10.492 87.7388 10.5C87.8028 10.508 87.8348 10.536 87.8348 10.584C87.8348 10.64 87.8148 10.704 87.7748 10.776C87.7348 10.84 87.6828 10.908 87.6188 10.98C87.4908 11.116 87.3548 11.244 87.2108 11.364C87.0748 11.484 86.9308 11.596 86.7788 11.7C86.6348 11.796 86.4948 11.88 86.3588 11.952C86.2308 12.016 86.1148 12.068 86.0108 12.108C85.9068 12.148 85.8228 12.168 85.7588 12.168ZM88.6923 12.216C88.6523 12.216 88.6163 12.2 88.5843 12.168C88.5523 12.136 88.5283 12.096 88.5123 12.048C88.4963 12 88.4883 11.952 88.4883 11.904C88.4883 11.784 88.5003 11.664 88.5243 11.544C88.5563 11.424 88.5963 11.276 88.6443 11.1L90.3363 5.304C90.3763 5.168 90.4163 5.02 90.4563 4.86C90.4963 4.692 90.5163 4.568 90.5163 4.488C90.5163 4.408 90.4643 4.348 90.3603 4.308C90.2643 4.268 90.1683 4.232 90.0723 4.2C90.0163 4.184 89.9643 4.168 89.9163 4.152C89.8763 4.128 89.8563 4.1 89.8563 4.068C89.8563 4.036 89.8683 4.008 89.8923 3.984C89.9163 3.952 89.9723 3.92 90.0603 3.888C90.1243 3.864 90.2123 3.832 90.3243 3.792C90.4443 3.752 90.5683 3.712 90.6963 3.672C90.8323 3.624 90.9523 3.588 91.0563 3.564C91.1683 3.532 91.2443 3.516 91.2843 3.516C91.3243 3.516 91.3683 3.52 91.4163 3.528C91.4643 3.536 91.4883 3.572 91.4883 3.636C91.4883 3.7 91.4803 3.756 91.4643 3.804C91.4563 3.852 91.4443 3.904 91.4283 3.96L89.7963 9.6C89.7803 9.656 89.7803 9.684 89.7963 9.684C89.8203 9.684 89.8443 9.668 89.8683 9.636C90.2203 9.116 90.5843 8.656 90.9603 8.256C91.3363 7.848 91.6923 7.528 92.0283 7.296C92.3643 7.064 92.6523 6.948 92.8923 6.948C93.1563 6.948 93.3563 7.036 93.4923 7.212C93.6363 7.388 93.7083 7.592 93.7083 7.824C93.7083 8.232 93.6323 8.664 93.4803 9.12C93.3363 9.576 93.1443 10.012 92.9043 10.428C92.6643 10.844 92.4043 11.2 92.1243 11.496C92.0763 11.544 92.0043 11.608 91.9083 11.688C91.8123 11.76 91.7003 11.832 91.5723 11.904C91.4443 11.976 91.3123 12.036 91.1763 12.084C91.0483 12.14 90.9283 12.168 90.8163 12.168C90.7603 12.168 90.6923 12.144 90.6123 12.096C90.5403 12.048 90.4763 11.988 90.4203 11.916C90.3723 11.844 90.3483 11.78 90.3483 11.724C90.3483 11.684 90.3643 11.636 90.3963 11.58C90.4283 11.524 90.4683 11.476 90.5163 11.436C90.5643 11.396 90.6123 11.376 90.6603 11.376C90.7323 11.376 90.7923 11.392 90.8403 11.424C90.8963 11.448 90.9443 11.48 90.9843 11.52C91.0323 11.56 91.0803 11.596 91.1283 11.628C91.1763 11.66 91.2323 11.676 91.2963 11.676C91.4323 11.676 91.5763 11.596 91.7283 11.436C91.8803 11.276 92.0243 11.064 92.1603 10.8C92.3043 10.536 92.4323 10.248 92.5443 9.936C92.6563 9.616 92.7443 9.296 92.8083 8.976C92.8803 8.656 92.9163 8.36 92.9163 8.088C92.9163 7.904 92.8763 7.764 92.7963 7.668C92.7243 7.564 92.6123 7.512 92.4603 7.512C92.2843 7.512 92.0843 7.6 91.8603 7.776C91.6443 7.944 91.4163 8.168 91.1763 8.448C90.9443 8.728 90.7163 9.028 90.4923 9.348C90.2683 9.668 90.0643 9.98 89.8803 10.284C89.6963 10.588 89.5483 10.848 89.4363 11.064C89.2363 11.448 89.0843 11.736 88.9803 11.928C88.8843 12.12 88.7883 12.216 88.6923 12.216ZM94.9117 12.18C94.7437 12.18 94.5717 12.116 94.3957 11.988C94.2277 11.86 94.0877 11.7 93.9757 11.508C93.8637 11.308 93.8077 11.116 93.8077 10.932C93.8077 10.532 93.8877 10.108 94.0477 9.66C94.2157 9.204 94.4437 8.78 94.7317 8.388C95.0197 7.988 95.3517 7.664 95.7277 7.416C96.1117 7.16 96.5157 7.032 96.9397 7.032C97.2197 7.032 97.4357 7.092 97.5877 7.212C97.7477 7.324 97.8277 7.484 97.8277 7.692C97.8277 7.94 97.7477 8.156 97.5877 8.34C97.4357 8.524 97.2277 8.684 96.9637 8.82C96.6997 8.948 96.4037 9.056 96.0757 9.144C95.7557 9.232 95.4277 9.308 95.0917 9.372C95.0437 9.38 95.0037 9.392 94.9717 9.408C94.9477 9.416 94.9277 9.444 94.9117 9.492C94.8557 9.668 94.7997 9.86 94.7437 10.068C94.6877 10.276 94.6597 10.472 94.6597 10.656C94.6597 10.936 94.7117 11.152 94.8157 11.304C94.9277 11.456 95.0877 11.532 95.2957 11.532C95.5837 11.532 95.8277 11.46 96.0277 11.316C96.2277 11.172 96.3917 11.028 96.5197 10.884C96.5997 10.796 96.6717 10.752 96.7357 10.752C96.8157 10.752 96.8557 10.792 96.8557 10.872C96.8557 10.88 96.8557 10.896 96.8557 10.92C96.8557 10.936 96.8477 10.952 96.8317 10.968C96.6717 11.232 96.4917 11.456 96.2917 11.64C96.0917 11.816 95.8757 11.948 95.6437 12.036C95.4197 12.132 95.1757 12.18 94.9117 12.18ZM95.1757 9.096C95.2637 9.096 95.4117 9.072 95.6197 9.024C95.8357 8.968 96.0597 8.884 96.2917 8.772C96.5237 8.652 96.7197 8.508 96.8797 8.34C97.0477 8.164 97.1317 7.956 97.1317 7.716C97.1317 7.612 97.1037 7.524 97.0477 7.452C96.9917 7.372 96.9117 7.332 96.8077 7.332C96.6397 7.332 96.4557 7.404 96.2557 7.548C96.0637 7.684 95.8797 7.852 95.7037 8.052C95.5277 8.244 95.3797 8.432 95.2597 8.616C95.1477 8.8 95.0917 8.936 95.0917 9.024C95.0917 9.072 95.1197 9.096 95.1757 9.096ZM101.176 12.168C100.976 12.168 100.804 12.1 100.66 11.964C100.524 11.82 100.444 11.608 100.42 11.328C100.404 11.048 100.468 10.708 100.612 10.308L101.332 8.352C101.372 8.24 101.384 8.156 101.368 8.1C101.352 8.044 101.312 8.016 101.248 8.016C101.208 8.016 101.112 8.056 100.96 8.136C100.816 8.208 100.68 8.316 100.552 8.46C100.52 8.5 100.484 8.528 100.444 8.544C100.404 8.56 100.376 8.568 100.36 8.568C100.288 8.568 100.252 8.54 100.252 8.484C100.252 8.452 100.256 8.416 100.264 8.376C100.28 8.328 100.324 8.26 100.396 8.172C100.548 7.988 100.704 7.824 100.864 7.68C101.032 7.536 101.192 7.412 101.344 7.308C101.504 7.204 101.648 7.124 101.776 7.068C101.912 7.012 102.024 6.984 102.112 6.984C102.16 6.984 102.204 7.004 102.244 7.044C102.292 7.076 102.328 7.124 102.352 7.188C102.376 7.252 102.372 7.332 102.34 7.428L101.248 10.56C101.152 10.832 101.136 11.056 101.2 11.232C101.264 11.4 101.396 11.484 101.596 11.484C101.748 11.484 101.916 11.416 102.1 11.28C102.292 11.136 102.476 10.964 102.652 10.764C102.828 10.556 102.976 10.36 103.096 10.176C103.216 9.992 103.284 9.856 103.3 9.768C103.316 9.688 103.34 9.568 103.372 9.408C103.412 9.24 103.452 9.06 103.492 8.868C103.532 8.676 103.568 8.5 103.6 8.34C103.64 8.172 103.668 8.052 103.684 7.98C103.708 7.868 103.744 7.768 103.792 7.68C103.84 7.592 103.896 7.528 103.96 7.488C104.056 7.424 104.152 7.368 104.248 7.32C104.352 7.264 104.484 7.236 104.644 7.236C104.7 7.236 104.732 7.292 104.74 7.404C104.756 7.508 104.752 7.632 104.728 7.776C104.712 7.912 104.684 8.032 104.644 8.136C104.54 8.416 104.448 8.664 104.368 8.88C104.288 9.096 104.216 9.28 104.152 9.432C104.096 9.568 104.044 9.724 103.996 9.9C103.948 10.068 103.916 10.196 103.9 10.284C103.844 10.652 103.84 10.948 103.888 11.172C103.936 11.396 104.06 11.508 104.26 11.508C104.484 11.508 104.716 11.416 104.956 11.232C105.196 11.048 105.416 10.808 105.616 10.512C105.824 10.216 105.992 9.896 106.12 9.552C106.248 9.208 106.312 8.872 106.312 8.544C106.312 8.448 106.296 8.36 106.264 8.28C106.232 8.2 106.196 8.124 106.156 8.052C106.1 7.964 106.044 7.884 105.988 7.812C105.94 7.74 105.916 7.676 105.916 7.62C105.916 7.532 105.96 7.44 106.048 7.344C106.144 7.24 106.252 7.152 106.372 7.08C106.492 7 106.592 6.96 106.672 6.96C106.76 6.96 106.84 7.032 106.912 7.176C106.984 7.32 107.02 7.532 107.02 7.812C107.02 8.164 106.968 8.52 106.864 8.88C106.768 9.232 106.62 9.588 106.42 9.948C106.22 10.308 105.964 10.672 105.652 11.04C105.332 11.416 105.016 11.7 104.704 11.892C104.392 12.076 104.096 12.168 103.816 12.168C103.616 12.168 103.456 12.08 103.336 11.904C103.224 11.728 103.156 11.508 103.132 11.244C103.116 10.98 103.136 10.716 103.192 10.452L103.3 10.404C103.108 10.708 102.872 10.996 102.592 11.268C102.32 11.532 102.052 11.748 101.788 11.916C101.532 12.084 101.328 12.168 101.176 12.168ZM108.184 12.168C107.992 12.168 107.812 12.104 107.644 11.976C107.476 11.848 107.34 11.68 107.236 11.472C107.14 11.264 107.092 11.044 107.092 10.812C107.092 10.436 107.164 10.032 107.308 9.6C107.46 9.16 107.668 8.748 107.932 8.364C108.196 7.972 108.5 7.652 108.844 7.404C109.196 7.156 109.572 7.032 109.972 7.032C110.372 7.032 110.68 7.168 110.896 7.44C111.12 7.712 111.232 8.048 111.232 8.448C111.232 8.808 111.16 9.204 111.016 9.636C110.872 10.06 110.664 10.464 110.392 10.848C110.128 11.232 109.808 11.548 109.432 11.796C109.064 12.044 108.648 12.168 108.184 12.168ZM108.376 11.808C108.568 11.808 108.76 11.724 108.952 11.556C109.152 11.388 109.34 11.168 109.516 10.896C109.7 10.624 109.86 10.324 109.996 9.996C110.14 9.668 110.252 9.34 110.332 9.012C110.42 8.684 110.464 8.384 110.464 8.112C110.464 7.904 110.428 7.732 110.356 7.596C110.292 7.46 110.156 7.392 109.948 7.392C109.764 7.392 109.572 7.468 109.372 7.62C109.18 7.772 108.992 7.976 108.808 8.232C108.632 8.488 108.472 8.776 108.328 9.096C108.184 9.408 108.068 9.736 107.98 10.08C107.9 10.416 107.86 10.744 107.86 11.064C107.86 11.328 107.904 11.52 107.992 11.64C108.088 11.752 108.216 11.808 108.376 11.808ZM111.927 12.204C111.887 12.204 111.843 12.188 111.795 12.156C111.747 12.132 111.707 12.096 111.675 12.048C111.643 12.008 111.627 11.964 111.627 11.916C111.627 11.82 111.651 11.7 111.699 11.556C111.755 11.404 111.823 11.216 111.903 10.992L113.007 8.112C113.047 8.008 113.063 7.912 113.055 7.824C113.055 7.736 113.015 7.692 112.935 7.692C112.823 7.692 112.711 7.708 112.599 7.74C112.495 7.764 112.415 7.792 112.359 7.824C112.311 7.856 112.263 7.864 112.215 7.848C112.175 7.824 112.155 7.784 112.155 7.728C112.155 7.664 112.183 7.592 112.239 7.512C112.303 7.432 112.387 7.356 112.491 7.284C112.587 7.212 112.699 7.152 112.827 7.104C112.963 7.056 113.103 7.032 113.247 7.032C113.471 7.032 113.611 7.088 113.667 7.2C113.731 7.312 113.739 7.464 113.691 7.656C113.651 7.84 113.583 8.052 113.487 8.292L112.947 9.648C112.915 9.704 112.923 9.74 112.971 9.756C113.027 9.772 113.067 9.76 113.091 9.72C113.411 9.168 113.731 8.688 114.051 8.28C114.379 7.864 114.683 7.544 114.963 7.32C115.243 7.088 115.475 6.972 115.659 6.972C115.867 6.972 116.011 7.032 116.091 7.152C116.179 7.272 116.223 7.412 116.223 7.572C116.223 7.716 116.195 7.864 116.139 8.016C116.091 8.168 116.019 8.296 115.923 8.4C115.835 8.496 115.735 8.544 115.623 8.544C115.559 8.544 115.511 8.508 115.479 8.436C115.447 8.356 115.431 8.252 115.431 8.124C115.431 8.004 115.415 7.912 115.383 7.848C115.351 7.776 115.291 7.74 115.203 7.74C115.123 7.74 115.015 7.792 114.879 7.896C114.751 8 114.587 8.18 114.387 8.436C114.299 8.556 114.183 8.72 114.039 8.928C113.895 9.136 113.739 9.368 113.571 9.624C113.411 9.872 113.251 10.128 113.091 10.392C112.931 10.648 112.791 10.884 112.671 11.1C112.455 11.484 112.299 11.764 112.203 11.94C112.115 12.116 112.023 12.204 111.927 12.204ZM116.186 12.168C116.082 12.168 115.966 12.112 115.838 12C115.71 11.888 115.646 11.768 115.646 11.64C115.646 11.592 115.654 11.544 115.67 11.496L117.95 5.004C117.99 4.892 118.018 4.784 118.034 4.68C118.058 4.576 118.07 4.472 118.07 4.368C118.07 4.296 118.03 4.228 117.95 4.164C117.878 4.1 117.786 4.056 117.674 4.032C117.594 4.016 117.53 3.996 117.482 3.972C117.434 3.94 117.41 3.908 117.41 3.876C117.41 3.852 117.41 3.832 117.41 3.816C117.418 3.8 117.426 3.784 117.434 3.768C117.45 3.752 117.466 3.744 117.482 3.744C117.634 3.704 117.818 3.668 118.034 3.636C118.25 3.596 118.45 3.564 118.634 3.54C118.826 3.508 118.954 3.492 119.018 3.492C119.058 3.492 119.09 3.508 119.114 3.54C119.146 3.564 119.162 3.608 119.162 3.672C119.162 3.72 119.154 3.776 119.138 3.84C119.122 3.896 119.106 3.952 119.09 4.008L116.666 10.92C116.642 10.984 116.626 11.048 116.618 11.112C116.61 11.168 116.606 11.22 116.606 11.268C116.606 11.396 116.646 11.46 116.726 11.46C116.838 11.46 116.974 11.4 117.134 11.28C117.302 11.152 117.466 11 117.626 10.824C117.786 10.648 117.914 10.492 118.01 10.356C118.058 10.292 118.114 10.232 118.178 10.176C118.242 10.112 118.29 10.08 118.322 10.08C118.354 10.08 118.37 10.096 118.37 10.128C118.378 10.152 118.382 10.188 118.382 10.236C118.382 10.396 118.326 10.564 118.214 10.74C118.11 10.916 117.97 11.092 117.794 11.268C117.618 11.436 117.43 11.588 117.23 11.724C117.03 11.86 116.838 11.968 116.654 12.048C116.47 12.128 116.314 12.168 116.186 12.168ZM119.547 12.168C119.315 12.168 119.127 12.088 118.983 11.928C118.839 11.768 118.767 11.56 118.767 11.304C118.767 11 118.831 10.66 118.959 10.284C119.095 9.908 119.275 9.528 119.499 9.144C119.731 8.76 119.991 8.404 120.279 8.076C120.591 7.724 120.907 7.452 121.227 7.26C121.547 7.06 121.835 6.96 122.091 6.96C122.195 6.96 122.279 6.976 122.343 7.008C122.407 7.032 122.551 7.116 122.775 7.26C122.943 7.364 123.035 7.424 123.051 7.44C123.075 7.448 123.079 7.452 123.063 7.452C123.087 7.452 123.107 7.424 123.123 7.368L123.927 4.668C123.943 4.62 123.951 4.584 123.951 4.56C123.959 4.528 123.963 4.508 123.963 4.5C123.971 4.484 123.975 4.472 123.975 4.464C123.975 4.448 123.975 4.436 123.975 4.428C123.975 4.34 123.951 4.272 123.903 4.224C123.855 4.168 123.767 4.116 123.639 4.068C123.463 4.004 123.359 3.968 123.327 3.96C123.295 3.944 123.279 3.924 123.279 3.9C123.279 3.844 123.311 3.8 123.375 3.768C123.439 3.736 123.543 3.708 123.687 3.684C123.807 3.668 123.927 3.652 124.047 3.636C124.175 3.612 124.291 3.596 124.395 3.588C124.499 3.572 124.587 3.56 124.659 3.552C124.731 3.544 124.779 3.54 124.803 3.54C124.899 3.54 124.947 3.596 124.947 3.708C124.947 3.748 124.943 3.792 124.935 3.84C124.927 3.88 124.915 3.928 124.899 3.984L122.955 10.716C122.939 10.78 122.923 10.844 122.907 10.908C122.899 10.964 122.895 11.024 122.895 11.088C122.895 11.264 122.951 11.352 123.063 11.352C123.167 11.352 123.291 11.316 123.435 11.244C123.579 11.164 123.723 11.06 123.867 10.932C124.011 10.804 124.135 10.668 124.239 10.524C124.255 10.5 124.271 10.484 124.287 10.476C124.303 10.468 124.319 10.464 124.335 10.464C124.399 10.464 124.423 10.496 124.407 10.56C124.407 10.648 124.363 10.76 124.275 10.896C124.187 11.032 124.071 11.176 123.927 11.328C123.783 11.472 123.627 11.608 123.459 11.736C123.299 11.864 123.143 11.968 122.991 12.048C122.839 12.128 122.711 12.168 122.607 12.168C122.519 12.168 122.435 12.14 122.355 12.084C122.275 12.036 122.207 11.972 122.151 11.892C122.103 11.804 122.079 11.716 122.079 11.628C122.079 11.588 122.095 11.484 122.127 11.316C122.143 11.228 122.167 11.12 122.199 10.992C122.231 10.856 122.259 10.728 122.283 10.608C122.315 10.48 122.335 10.388 122.343 10.332C122.359 10.276 122.359 10.284 122.343 10.356C122.359 10.292 122.355 10.248 122.331 10.224C122.315 10.192 122.295 10.196 122.271 10.236C121.719 10.932 121.235 11.428 120.819 11.724C120.403 12.02 119.979 12.168 119.547 12.168ZM119.991 11.604C120.207 11.604 120.443 11.528 120.699 11.376C120.955 11.216 121.207 11.008 121.455 10.752C121.711 10.488 121.943 10.2 122.151 9.888C122.367 9.576 122.539 9.264 122.667 8.952C122.795 8.64 122.859 8.352 122.859 8.088C122.859 7.856 122.807 7.676 122.703 7.548C122.599 7.412 122.451 7.344 122.259 7.344C122.075 7.344 121.867 7.432 121.635 7.608C121.403 7.784 121.167 8.016 120.927 8.304C120.687 8.592 120.463 8.908 120.255 9.252C120.055 9.588 119.891 9.924 119.763 10.26C119.643 10.596 119.583 10.892 119.583 11.148C119.583 11.324 119.611 11.444 119.667 11.508C119.731 11.572 119.839 11.604 119.991 11.604Z" fill="#FF5D1A" fill-opacity="0.8"/>
<path d="M45.2295 55.483C51.639 55.0508 57.7936 55.5151 57.7409 56.4562C57.6557 58.0784 55.3223 58.7258 49.6165 58.5727C46.4502 58.5591 43.0817 58.5007 42.0505 58.5368C41.0193 58.5729 40.0448 58.4099 39.8629 58.1049C39.0988 56.8239 41.3433 55.7333 45.2295 55.483Z" fill="#FED0BD"/>
<path d="M52.8064 63.6685C58.5486 60.7882 64.4028 58.833 64.7187 59.7212C65.2682 61.2498 63.3676 62.7502 58.0477 64.8185C55.1231 66.032 51.9948 67.2825 51.058 67.7151C50.1213 68.1477 49.1596 68.3747 48.8738 68.164C47.6733 67.2788 49.3204 65.4041 52.8064 63.6685Z" fill="#FED0BD"/>
<path d="M66.0393 27.698C66.5655 27.8838 68.1437 30.9228 69.6565 34.5359C71.9965 40.1608 72.2191 41.1867 71.5357 41.8825C69.8697 43.745 68.8852 42.6147 66.3225 35.9638C63.6202 28.7179 63.4981 26.6462 66.0393 27.698Z" fill="#FED0BD"/>
<path d="M55.5227 32.4019C62.72 37.5811 64.4619 39.4828 62.7207 40.4316C62.0134 40.817 59.2543 39.2502 54.3891 35.7608C50.3194 32.8248 46.9071 30.1885 46.6767 29.7658C46.4924 29.4276 46.9067 28.7633 47.6141 28.3779C48.5935 27.8442 50.557 28.8576 55.5227 32.4019Z" fill="#FED0BD"/>
<g filter="url(#filter0_dg_378_54)">
<path d="M3.99986 27.8452C8.33703 31.9945 60.9852 57.5162 66.708 58.082C69.7137 58.6323 74.2616 55.2765 74.8598 52.3101C75.4579 49.3437 72.6826 43.9215 69.6769 43.3712C66.6711 42.8208 6.45103 27.2794 3.99986 27.8452Z" fill="#FF8E60"/>
</g>
<defs>
<filter id="filter0_dg_378_54" x="0" y="25.8302" width="78.9414" height="40.3115" filterUnits="userSpaceOnUse" color-interpolation-filters="sRGB">
<feFlood flood-opacity="0" result="BackgroundImageFix"/>
<feColorMatrix in="SourceAlpha" type="matrix" values="0 0 0 0 0 0 0 0 0 0 0 0 0 0 0 0 0 0 127 0" result="hardAlpha"/>
<feOffset dy="4"/>
<feGaussianBlur stdDeviation="2"/>
<feComposite in2="hardAlpha" operator="out"/>
<feColorMatrix type="matrix" values="0 0 0 0 0 0 0 0 0 0 0 0 0 0 0 0 0 0 0.25 0"/>
<feBlend mode="normal" in2="BackgroundImageFix" result="effect1_dropShadow_378_54"/>
<feBlend mode="normal" in="SourceGraphic" in2="effect1_dropShadow_378_54" result="shape"/>
<feTurbulence type="fractalNoise" baseFrequency="0.99900001287460327 0.99900001287460327" numOctaves="3" seed="8029" />
<feDisplacementMap in="shape" scale="4" xChannelSelector="R" yChannelSelector="G" result="displacedImage" width="100%" height="100%" />
<feMerge result="effect2_texture_378_54">
<feMergeNode in="displacedImage"/>
</feMerge>
</filter>
</defs>
</svg>
