<svg width="606" height="279" viewBox="0 0 606 279" fill="none" xmlns="http://www.w3.org/2000/svg">
<rect x="0.25" width="330" height="62.6406" rx="31" fill="#FFEBD9"/>
<path d="M28.7465 40L23.7065 23.272H26.9705L30.4265 35.248L33.6185 24.232H36.6905L39.8585 35.248L43.3385 23.272H46.5785L41.5385 40H38.5385L34.8905 27.952H35.3945L31.7705 40H28.7465ZM48.3663 40V23.272H51.3663V30.856L50.8623 30.928C51.0703 30.208 51.3743 29.632 51.7743 29.2C52.1903 28.752 52.6623 28.432 53.1903 28.24C53.7343 28.032 54.2783 27.928 54.8223 27.928C56.1663 27.928 57.2143 28.312 57.9663 29.08C58.7343 29.832 59.1183 30.896 59.1183 32.272V40H56.1183V33.376C56.1183 32.384 55.9423 31.664 55.5903 31.216C55.2383 30.752 54.6863 30.52 53.9343 30.52C53.0863 30.52 52.4463 30.824 52.0143 31.432C51.5823 32.04 51.3663 33.008 51.3663 34.336V40H48.3663ZM69.4972 40L69.2572 38.224V32.536C69.2572 31.832 69.0332 31.312 68.5852 30.976C68.1532 30.624 67.5612 30.448 66.8092 30.448C66.1852 30.448 65.5452 30.576 64.8892 30.832C64.2492 31.072 63.6812 31.416 63.1852 31.864L61.6732 29.824C62.5052 29.152 63.3532 28.672 64.2172 28.384C65.0972 28.08 66.0412 27.928 67.0492 27.928C68.6812 27.928 69.9532 28.336 70.8652 29.152C71.7772 29.968 72.2332 31.096 72.2332 32.536V40H69.4972ZM65.9212 40.24C65.0572 40.24 64.2812 40.08 63.5932 39.76C62.9212 39.44 62.3852 38.984 61.9852 38.392C61.6012 37.8 61.4092 37.12 61.4092 36.352C61.4092 35.664 61.5452 35.08 61.8172 34.6C62.1052 34.104 62.4812 33.728 62.9452 33.472C63.3452 33.232 63.7852 33.064 64.2652 32.968C64.7612 32.872 65.2892 32.824 65.8492 32.824H69.5212V35.032H66.2812C66.0252 35.032 65.7692 35.056 65.5132 35.104C65.2732 35.136 65.0652 35.224 64.8892 35.368C64.7292 35.48 64.6092 35.624 64.5292 35.8C64.4492 35.96 64.4092 36.144 64.4092 36.352C64.4092 36.8 64.5852 37.16 64.9372 37.432C65.2892 37.704 65.7612 37.84 66.3532 37.84C66.8812 37.84 67.3612 37.728 67.7932 37.504C68.2412 37.264 68.5932 36.944 68.8492 36.544C69.1212 36.128 69.2572 35.656 69.2572 35.128L70.0492 36.712C69.8412 37.544 69.5212 38.224 69.0892 38.752C68.6732 39.264 68.1932 39.64 67.6492 39.88C67.1052 40.12 66.5292 40.24 65.9212 40.24ZM79.5268 40.24C78.8868 40.24 78.2948 40.12 77.7508 39.88C77.2068 39.64 76.7668 39.248 76.4308 38.704C76.1108 38.16 75.9508 37.432 75.9508 36.52V25.408L78.9748 23.8V35.704C78.9748 36.392 79.0628 36.912 79.2388 37.264C79.4308 37.616 79.7988 37.792 80.3428 37.792C80.5028 37.792 80.6788 37.776 80.8708 37.744C81.0788 37.712 81.3028 37.664 81.5428 37.6V39.88C81.2068 40.008 80.8708 40.096 80.5348 40.144C80.1988 40.208 79.8628 40.24 79.5268 40.24ZM73.7908 30.496V28.168H81.5428V30.496H73.7908ZM91.0217 44.896L93.4217 39.088L88.9577 28.168H92.2217L95.0057 36.112L97.8377 28.168H101.054L94.2617 44.896H91.0217ZM107.908 40.24C106.756 40.24 105.732 39.976 104.836 39.448C103.94 38.92 103.228 38.192 102.7 37.264C102.188 36.32 101.932 35.256 101.932 34.072C101.932 32.872 102.188 31.816 102.7 30.904C103.212 29.976 103.916 29.248 104.812 28.72C105.724 28.192 106.756 27.928 107.908 27.928C109.044 27.928 110.06 28.192 110.956 28.72C111.852 29.248 112.556 29.976 113.068 30.904C113.58 31.816 113.836 32.872 113.836 34.072C113.836 35.256 113.58 36.312 113.068 37.24C112.556 38.168 111.852 38.904 110.956 39.448C110.06 39.976 109.044 40.24 107.908 40.24ZM107.908 37.624C108.516 37.624 109.036 37.48 109.468 37.192C109.916 36.904 110.252 36.496 110.476 35.968C110.716 35.44 110.836 34.808 110.836 34.072C110.836 33.32 110.716 32.688 110.476 32.176C110.252 31.648 109.916 31.248 109.468 30.976C109.036 30.688 108.516 30.544 107.908 30.544C107.284 30.544 106.748 30.688 106.3 30.976C105.852 31.248 105.508 31.648 105.268 32.176C105.028 32.688 104.908 33.32 104.908 34.072C104.908 34.808 105.028 35.44 105.268 35.968C105.508 36.496 105.852 36.904 106.3 37.192C106.748 37.48 107.284 37.624 107.908 37.624ZM120.394 40.24C119.434 40.24 118.626 40.048 117.97 39.664C117.33 39.28 116.85 38.736 116.53 38.032C116.226 37.328 116.074 36.504 116.074 35.56V28.168H119.05V34.816C119.05 35.36 119.114 35.848 119.242 36.28C119.37 36.696 119.594 37.032 119.914 37.288C120.25 37.528 120.706 37.648 121.282 37.648C121.986 37.648 122.514 37.448 122.866 37.048C123.234 36.648 123.482 36.096 123.61 35.392C123.754 34.672 123.826 33.832 123.826 32.872V28.168H126.802V40H123.826V37.432L124.234 37.672C123.882 38.584 123.362 39.24 122.674 39.64C121.986 40.04 121.226 40.24 120.394 40.24ZM138.639 40L134.991 28.168H138.159L140.151 35.44L142.287 28.168H144.855L146.991 35.392L149.007 28.168H152.199L148.527 40H145.863L143.583 32.392L141.351 40H138.639ZM161.7 40L161.46 38.224V32.536C161.46 31.832 161.236 31.312 160.788 30.976C160.356 30.624 159.764 30.448 159.012 30.448C158.388 30.448 157.748 30.576 157.092 30.832C156.452 31.072 155.884 31.416 155.388 31.864L153.876 29.824C154.708 29.152 155.556 28.672 156.42 28.384C157.3 28.08 158.244 27.928 159.252 27.928C160.884 27.928 162.156 28.336 163.068 29.152C163.98 29.968 164.436 31.096 164.436 32.536V40H161.7ZM158.124 40.24C157.26 40.24 156.484 40.08 155.796 39.76C155.124 39.44 154.588 38.984 154.188 38.392C153.804 37.8 153.612 37.12 153.612 36.352C153.612 35.664 153.748 35.08 154.02 34.6C154.308 34.104 154.684 33.728 155.148 33.472C155.548 33.232 155.988 33.064 156.468 32.968C156.964 32.872 157.492 32.824 158.052 32.824H161.724V35.032H158.484C158.228 35.032 157.972 35.056 157.716 35.104C157.476 35.136 157.268 35.224 157.092 35.368C156.932 35.48 156.812 35.624 156.732 35.8C156.652 35.96 156.612 36.144 156.612 36.352C156.612 36.8 156.788 37.16 157.14 37.432C157.492 37.704 157.964 37.84 158.556 37.84C159.084 37.84 159.564 37.728 159.996 37.504C160.444 37.264 160.796 36.944 161.052 36.544C161.324 36.128 161.46 35.656 161.46 35.128L162.252 36.712C162.044 37.544 161.724 38.224 161.292 38.752C160.876 39.264 160.396 39.64 159.852 39.88C159.308 40.12 158.732 40.24 158.124 40.24ZM169.978 40.24C169.162 40.24 168.49 39.992 167.962 39.496C167.434 39 167.17 38.216 167.17 37.144V23.272H170.122V36.568C170.122 36.904 170.202 37.144 170.362 37.288C170.522 37.416 170.73 37.48 170.986 37.48C171.114 37.48 171.25 37.472 171.394 37.456C171.538 37.424 171.69 37.384 171.85 37.336V39.88C171.514 40.008 171.178 40.096 170.842 40.144C170.522 40.208 170.234 40.24 169.978 40.24ZM181.914 40L178.482 34.6L176.634 36.664V32.944L181.17 28.168H184.962L180.666 32.584L185.466 40H181.914ZM173.898 40V23.272H176.898V40H173.898ZM201.146 40L200.906 38.224V32.536C200.906 31.832 200.682 31.312 200.234 30.976C199.802 30.624 199.21 30.448 198.458 30.448C197.834 30.448 197.194 30.576 196.538 30.832C195.898 31.072 195.33 31.416 194.834 31.864L193.322 29.824C194.154 29.152 195.002 28.672 195.866 28.384C196.746 28.08 197.69 27.928 198.698 27.928C200.33 27.928 201.602 28.336 202.514 29.152C203.426 29.968 203.882 31.096 203.882 32.536V40H201.146ZM197.57 40.24C196.706 40.24 195.93 40.08 195.242 39.76C194.57 39.44 194.034 38.984 193.634 38.392C193.25 37.8 193.058 37.12 193.058 36.352C193.058 35.664 193.194 35.08 193.466 34.6C193.754 34.104 194.13 33.728 194.594 33.472C194.994 33.232 195.434 33.064 195.914 32.968C196.41 32.872 196.938 32.824 197.498 32.824H201.17V35.032H197.93C197.674 35.032 197.418 35.056 197.162 35.104C196.922 35.136 196.714 35.224 196.538 35.368C196.378 35.48 196.258 35.624 196.178 35.8C196.098 35.96 196.058 36.144 196.058 36.352C196.058 36.8 196.234 37.16 196.586 37.432C196.938 37.704 197.41 37.84 198.002 37.84C198.53 37.84 199.01 37.728 199.442 37.504C199.89 37.264 200.242 36.944 200.498 36.544C200.77 36.128 200.906 35.656 200.906 35.128L201.698 36.712C201.49 37.544 201.17 38.224 200.738 38.752C200.322 39.264 199.842 39.64 199.298 39.88C198.754 40.12 198.178 40.24 197.57 40.24ZM209.116 40L205.468 28.168H208.636L210.628 35.44L212.764 28.168H215.332L217.468 35.392L219.484 28.168H222.676L219.004 40H216.34L214.06 32.392L211.828 40H209.116ZM232.177 40L231.937 38.224V32.536C231.937 31.832 231.713 31.312 231.265 30.976C230.833 30.624 230.241 30.448 229.489 30.448C228.865 30.448 228.225 30.576 227.569 30.832C226.929 31.072 226.361 31.416 225.865 31.864L224.353 29.824C225.185 29.152 226.033 28.672 226.897 28.384C227.777 28.08 228.721 27.928 229.729 27.928C231.361 27.928 232.633 28.336 233.545 29.152C234.457 29.968 234.913 31.096 234.913 32.536V40H232.177ZM228.601 40.24C227.737 40.24 226.961 40.08 226.273 39.76C225.601 39.44 225.065 38.984 224.665 38.392C224.281 37.8 224.089 37.12 224.089 36.352C224.089 35.664 224.225 35.08 224.497 34.6C224.785 34.104 225.161 33.728 225.625 33.472C226.025 33.232 226.465 33.064 226.945 32.968C227.441 32.872 227.969 32.824 228.529 32.824H232.201V35.032H228.961C228.705 35.032 228.449 35.056 228.193 35.104C227.953 35.136 227.745 35.224 227.569 35.368C227.409 35.48 227.289 35.624 227.209 35.8C227.129 35.96 227.089 36.144 227.089 36.352C227.089 36.8 227.265 37.16 227.617 37.432C227.969 37.704 228.441 37.84 229.033 37.84C229.561 37.84 230.041 37.728 230.473 37.504C230.921 37.264 231.273 36.944 231.529 36.544C231.801 36.128 231.937 35.656 231.937 35.128L232.729 36.712C232.521 37.544 232.201 38.224 231.769 38.752C231.353 39.264 230.873 39.64 230.329 39.88C229.785 40.12 229.209 40.24 228.601 40.24ZM238.326 44.896L240.726 39.088L236.262 28.168H239.526L242.31 36.112L245.142 28.168H248.358L241.566 44.896H238.326ZM259.084 40L255.436 28.168H258.604L260.596 35.44L262.732 28.168H265.3L267.436 35.392L269.452 28.168H272.644L268.972 40H266.308L264.028 32.392L261.796 40H259.084ZM274.538 40V28.168H277.514V40H274.538ZM274.442 26.344V23.272H277.634V26.344H274.442ZM284.956 40.24C284.316 40.24 283.724 40.12 283.18 39.88C282.636 39.64 282.196 39.248 281.86 38.704C281.54 38.16 281.38 37.432 281.38 36.52V25.408L284.404 23.8V35.704C284.404 36.392 284.492 36.912 284.668 37.264C284.86 37.616 285.228 37.792 285.772 37.792C285.932 37.792 286.108 37.776 286.3 37.744C286.508 37.712 286.732 37.664 286.972 37.6V39.88C286.636 40.008 286.3 40.096 285.964 40.144C285.628 40.208 285.292 40.24 284.956 40.24ZM279.22 30.496V28.168H286.972V30.496H279.22ZM289.257 40V23.272H292.257V30.856L291.753 30.928C291.961 30.208 292.265 29.632 292.665 29.2C293.081 28.752 293.553 28.432 294.081 28.24C294.625 28.032 295.169 27.928 295.713 27.928C297.057 27.928 298.105 28.312 298.857 29.08C299.625 29.832 300.009 30.896 300.009 32.272V40H297.009V33.376C297.009 32.384 296.833 31.664 296.481 31.216C296.129 30.752 295.577 30.52 294.825 30.52C293.977 30.52 293.337 30.824 292.905 31.432C292.473 32.04 292.257 33.008 292.257 34.336V40H289.257ZM302.612 31.888V28.696H305.828V31.888H302.612ZM302.612 40V36.832H305.828V40H302.612Z" fill="#FF5D1A"/>
<path d="M14.193 153.479V137.918L0.228 113.75H8.664L17.67 130.622L27.018 113.75H35.397L21.546 137.918V153.479H14.193ZM44.9726 154.049C42.2366 154.049 39.8046 153.422 37.6766 152.168C35.5486 150.914 33.8576 149.185 32.6036 146.981C31.3876 144.739 30.7796 142.212 30.7796 139.4C30.7796 136.55 31.3876 134.042 32.6036 131.876C33.8196 129.672 35.4916 127.943 37.6196 126.689C39.7856 125.435 42.2366 124.808 44.9726 124.808C47.6706 124.808 50.0836 125.435 52.2116 126.689C54.3396 127.943 56.0116 129.672 57.2276 131.876C58.4436 134.042 59.0516 136.55 59.0516 139.4C59.0516 142.212 58.4436 144.72 57.2276 146.924C56.0116 149.128 54.3396 150.876 52.2116 152.168C50.0836 153.422 47.6706 154.049 44.9726 154.049ZM44.9726 147.836C46.4166 147.836 47.6516 147.494 48.6776 146.81C49.7416 146.126 50.5396 145.157 51.0716 143.903C51.6416 142.649 51.9266 141.148 51.9266 139.4C51.9266 137.614 51.6416 136.113 51.0716 134.897C50.5396 133.643 49.7416 132.693 48.6776 132.047C47.6516 131.363 46.4166 131.021 44.9726 131.021C43.4906 131.021 42.2176 131.363 41.1536 132.047C40.0896 132.693 39.2726 133.643 38.7026 134.897C38.1326 136.113 37.8476 137.614 37.8476 139.4C37.8476 141.148 38.1326 142.649 38.7026 143.903C39.2726 145.157 40.0896 146.126 41.1536 146.81C42.2176 147.494 43.4906 147.836 44.9726 147.836ZM72.3477 154.049C70.0677 154.049 68.1487 153.593 66.5907 152.681C65.0707 151.769 63.9307 150.477 63.1707 148.805C62.4487 147.133 62.0877 145.176 62.0877 142.934V125.378H69.1557V141.167C69.1557 142.459 69.3077 143.618 69.6117 144.644C69.9157 145.632 70.4477 146.43 71.2077 147.038C72.0057 147.608 73.0887 147.893 74.4567 147.893C76.1287 147.893 77.3827 147.418 78.2187 146.468C79.0927 145.518 79.6817 144.207 79.9857 142.535C80.3277 140.825 80.4987 138.83 80.4987 136.55V125.378H87.5667V153.479H80.4987V147.38L81.4677 147.95C80.6317 150.116 79.3967 151.674 77.7627 152.624C76.1287 153.574 74.3237 154.049 72.3477 154.049ZM92.3235 153.479V125.378H99.4485V133.016L98.3655 133.13C98.4795 131.496 98.9735 130.052 99.8475 128.798C100.722 127.544 101.786 126.575 103.04 125.891C104.332 125.169 105.643 124.808 106.973 124.808C107.923 124.808 108.816 124.941 109.652 125.207C110.526 125.435 111.419 125.834 112.331 126.404L108.911 132.788C108.493 132.56 107.961 132.351 107.315 132.161C106.669 131.971 106.023 131.876 105.377 131.876C104.617 131.876 103.876 132.009 103.154 132.275C102.47 132.541 101.843 132.959 101.273 133.529C100.741 134.099 100.304 134.859 99.9615 135.809C99.8095 136.341 99.6765 137.025 99.5625 137.861C99.4865 138.659 99.4485 139.837 99.4485 141.395V153.479H92.3235ZM138.981 153.992C136.017 153.992 133.433 153.46 131.229 152.396C129.025 151.294 127.296 149.755 126.042 147.779C124.826 145.803 124.218 143.504 124.218 140.882L131.229 140.483C131.229 142.535 131.951 144.169 133.395 145.385C134.877 146.601 136.834 147.209 139.266 147.209C140.824 147.209 142.154 146.981 143.256 146.525C144.358 146.031 145.213 145.347 145.821 144.473C146.429 143.561 146.733 142.497 146.733 141.281C146.733 140.217 146.505 139.324 146.049 138.602C145.631 137.842 144.985 137.234 144.111 136.778C143.275 136.322 142.249 135.999 141.033 135.809C139.855 135.581 138.506 135.467 136.986 135.467V129.938C138.088 129.938 139.095 129.843 140.007 129.653C140.919 129.463 141.698 129.178 142.344 128.798C143.028 128.38 143.541 127.848 143.883 127.202C144.225 126.518 144.396 125.72 144.396 124.808C144.396 123.782 144.168 122.927 143.712 122.243C143.294 121.521 142.667 120.97 141.831 120.59C141.033 120.21 140.064 120.02 138.924 120.02C137.1 120.02 135.656 120.514 134.592 121.502C133.528 122.49 132.977 123.82 132.939 125.492L125.928 125.036C125.928 122.756 126.498 120.723 127.638 118.937C128.778 117.151 130.336 115.764 132.312 114.776C134.326 113.75 136.625 113.237 139.209 113.237C141.641 113.237 143.769 113.712 145.593 114.662C147.455 115.574 148.899 116.847 149.925 118.481C150.989 120.077 151.521 121.939 151.521 124.067C151.521 125.017 151.388 125.891 151.122 126.689C150.894 127.449 150.552 128.171 150.096 128.855C149.678 129.501 149.165 130.071 148.557 130.565C147.949 131.059 147.284 131.496 146.562 131.876C147.588 132.218 148.538 132.693 149.412 133.301C150.324 133.871 151.103 134.555 151.749 135.353C152.395 136.113 152.889 137.006 153.231 138.032C153.611 139.02 153.801 140.122 153.801 141.338C153.801 143.846 153.174 146.05 151.92 147.95C150.666 149.85 148.937 151.332 146.733 152.396C144.529 153.46 141.945 153.992 138.981 153.992ZM168.982 153.479V125.378H176.107V132.674L174.568 133.871C174.834 132.085 175.29 130.603 175.936 129.425C176.582 128.247 177.342 127.335 178.216 126.689C179.128 126.005 180.059 125.53 181.009 125.264C181.997 124.96 182.966 124.808 183.916 124.808C185.398 124.808 186.804 125.093 188.134 125.663C189.464 126.195 190.623 127.126 191.611 128.456C192.599 129.786 193.283 131.61 193.663 133.928L189.445 135.467C190.015 132.807 190.832 130.698 191.896 129.14C192.998 127.582 194.252 126.48 195.658 125.834C197.102 125.15 198.622 124.808 200.218 124.808C202.612 124.808 204.55 125.34 206.032 126.404C207.514 127.468 208.597 128.836 209.281 130.508C210.003 132.142 210.364 133.89 210.364 135.752V153.479H203.296V137.462C203.296 136.056 203.106 134.878 202.726 133.928C202.384 132.94 201.871 132.199 201.187 131.705C200.503 131.211 199.61 130.964 198.508 130.964C197.368 130.964 196.399 131.268 195.601 131.876C194.803 132.484 194.195 133.396 193.777 134.612C193.397 135.828 193.207 137.386 193.207 139.286V153.479H186.139V137.348C186.139 135.22 185.74 133.624 184.942 132.56C184.182 131.496 183.061 130.964 181.579 130.964C180.401 130.964 179.394 131.268 178.558 131.876C177.76 132.484 177.152 133.396 176.734 134.612C176.316 135.828 176.107 137.386 176.107 139.286V153.479H168.982ZM227.622 154.049C224.886 154.049 222.454 153.422 220.326 152.168C218.198 150.914 216.507 149.185 215.253 146.981C214.037 144.739 213.429 142.212 213.429 139.4C213.429 136.55 214.037 134.042 215.253 131.876C216.469 129.672 218.141 127.943 220.269 126.689C222.435 125.435 224.886 124.808 227.622 124.808C230.32 124.808 232.733 125.435 234.861 126.689C236.989 127.943 238.661 129.672 239.877 131.876C241.093 134.042 241.701 136.55 241.701 139.4C241.701 142.212 241.093 144.72 239.877 146.924C238.661 149.128 236.989 150.876 234.861 152.168C232.733 153.422 230.32 154.049 227.622 154.049ZM227.622 147.836C229.066 147.836 230.301 147.494 231.327 146.81C232.391 146.126 233.189 145.157 233.721 143.903C234.291 142.649 234.576 141.148 234.576 139.4C234.576 137.614 234.291 136.113 233.721 134.897C233.189 133.643 232.391 132.693 231.327 132.047C230.301 131.363 229.066 131.021 227.622 131.021C226.14 131.021 224.867 131.363 223.803 132.047C222.739 132.693 221.922 133.643 221.352 134.897C220.782 136.113 220.497 137.614 220.497 139.4C220.497 141.148 220.782 142.649 221.352 143.903C221.922 145.157 222.739 146.126 223.803 146.81C224.867 147.494 226.14 147.836 227.622 147.836ZM245.079 153.479V125.378H252.204V131.762L251.064 131.876C251.558 130.166 252.28 128.798 253.23 127.772C254.18 126.746 255.282 126.005 256.536 125.549C257.79 125.055 259.082 124.808 260.412 124.808C263.604 124.808 266.093 125.72 267.879 127.544C269.703 129.33 270.615 131.857 270.615 135.125V153.479H263.49V137.747C263.49 135.391 263.072 133.681 262.236 132.617C261.4 131.515 260.089 130.964 258.303 130.964C256.935 130.964 255.795 131.287 254.883 131.933C254.009 132.541 253.344 133.51 252.888 134.84C252.432 136.17 252.204 137.899 252.204 140.027V153.479H245.079ZM285.689 154.049C284.169 154.049 282.763 153.764 281.471 153.194C280.179 152.624 279.134 151.693 278.336 150.401C277.576 149.109 277.196 147.38 277.196 145.214V118.823L284.378 115.004V143.276C284.378 144.91 284.587 146.145 285.005 146.981C285.461 147.817 286.335 148.235 287.627 148.235C288.007 148.235 288.425 148.197 288.881 148.121C289.375 148.045 289.907 147.931 290.477 147.779V153.194C289.679 153.498 288.881 153.707 288.083 153.821C287.285 153.973 286.487 154.049 285.689 154.049ZM272.066 130.907V125.378H290.477V130.907H272.066ZM293.623 153.479V113.75H300.748V131.762L299.551 131.933C300.045 130.223 300.767 128.855 301.717 127.829C302.705 126.765 303.826 126.005 305.08 125.549C306.372 125.055 307.664 124.808 308.956 124.808C312.148 124.808 314.637 125.72 316.423 127.544C318.247 129.33 319.159 131.857 319.159 135.125V153.479H312.034V137.747C312.034 135.391 311.616 133.681 310.78 132.617C309.944 131.515 308.633 130.964 306.847 130.964C304.833 130.964 303.313 131.686 302.287 133.13C301.261 134.574 300.748 136.873 300.748 140.027V153.479H293.623ZM329.488 152.909C332.452 152.567 333.877 151.883 334.561 149.66L344.935 115.745C345.562 113.636 344.593 112.895 341.8 112.553L341.971 111.983H353.77L353.599 112.553C350.635 112.838 349.039 113.579 348.355 115.745L337.981 149.66C337.297 151.94 338.494 152.738 341.344 152.738H343.453C351.661 152.738 355.024 151.028 358.501 142.991H359.128L354.796 153.479H329.317L329.488 152.909ZM364.835 154.049C362.441 154.049 360.788 151.94 360.788 148.064C360.788 137.234 369.737 124.409 379.484 124.409C381.08 124.409 383.132 124.694 385.298 125.549L378.743 147.152C376.805 153.707 379.199 152.738 383.816 146.582L384.443 146.981C381.08 151.883 378.116 154.049 376.235 154.049C374.525 154.049 374.012 152.681 375.323 148.178L377.375 141.509C373.157 150.515 368.141 154.049 364.835 154.049ZM364.151 147.266C364.151 150.515 365.234 151.883 366.773 151.883C370.022 151.883 375.893 146.069 380.168 132.332L380.396 131.534L381.992 126.347C381.137 125.549 380.111 125.093 378.857 125.093C372.53 125.093 364.151 137.633 364.151 147.266ZM390.733 154.049C388.852 154.049 387.541 152.909 389.365 147.323L394.666 131.306C396.832 124.694 393.982 125.834 389.593 131.876L388.966 131.477C392.272 126.575 395.293 124.409 397.174 124.409C398.998 124.409 399.511 125.891 398.086 130.28L393.184 145.271C391.531 150.344 392.101 151.37 393.355 151.37C396.49 151.37 402.418 144.302 410.341 124.979H413.476L406.522 147.665C404.869 152.966 406.807 153.251 411.766 146.582L412.336 146.981C409.03 151.883 406.009 154.049 404.185 154.049C402.475 154.049 401.848 152.795 403.102 148.691L408.175 132.047C400.48 148.52 394.894 154.049 390.733 154.049ZM422.781 130.793C424.548 125.093 422.097 125.606 417.537 131.876L416.91 131.477C420.216 126.575 423.237 124.409 425.061 124.409C426.942 124.409 427.398 125.834 426.201 129.767L421.071 146.582C429.45 128.969 436.119 124.409 439.653 124.409C441.477 124.409 442.56 125.606 440.565 131.135L434.865 147.152C432.642 153.365 435.093 153.023 439.881 146.582L440.508 146.981C437.202 151.883 434.181 154.049 432.243 154.049C430.59 154.049 429.735 152.738 431.388 148.178L436.746 133.187C438.57 128.057 438.171 127.088 437.031 127.088C433.611 127.088 426.657 134.612 418.962 153.479H415.827L422.781 130.793ZM449.218 154.049C443.746 154.049 441.865 148.121 444.601 139.457C447.451 130.451 452.866 124.409 458.737 124.409C462.727 124.409 465.235 127.259 464.437 129.596C464.038 130.736 463.24 131.477 462.214 131.477C459.364 131.477 462.67 125.093 458.224 125.093C454.804 125.093 450.871 129.938 448.078 138.488C444.943 148.235 447.337 152.054 450.814 152.054C453.208 152.054 456.799 150.515 460.561 145.214L461.188 145.613C456.913 152.111 452.239 154.049 449.218 154.049ZM475.511 113.807C475.967 112.211 475.397 111.584 472.661 111.641L472.775 111.071L479.501 109.019L479.957 109.361L468.557 146.639C476.993 128.969 483.605 124.409 487.139 124.409C489.02 124.409 490.046 125.606 488.336 130.451L482.351 147.152C480.128 153.308 482.579 153.08 487.367 146.582L487.994 146.981C484.688 151.883 481.61 154.049 479.786 154.049C478.076 154.049 477.278 152.738 478.931 148.178L484.517 132.503C486.056 128.057 485.714 127.088 484.517 127.088C481.154 127.088 474.2 134.612 466.448 153.479H463.37L475.511 113.807ZM484.466 164.48C486.917 164.138 488.57 162.827 489.14 160.889L498.089 131.306C500.198 124.466 497.348 126.005 493.073 131.876L492.446 131.477C495.752 126.575 498.773 124.409 500.597 124.409C502.478 124.409 502.82 125.834 501.509 130.28L499.571 136.607C503.732 127.886 508.634 124.409 511.94 124.409C514.619 124.409 516.101 126.233 516.101 130.166C516.101 141.623 507.209 154.049 497.291 154.049C496.379 154.049 495.353 153.935 494.327 153.764L492.104 160.946C491.477 162.941 492.503 164.195 494.726 164.48L494.555 165.164H484.295L484.466 164.48ZM494.84 152.111C495.638 152.966 496.664 153.365 497.861 153.365C504.188 153.365 512.795 141.452 512.795 130.907C512.795 127.715 511.826 126.632 510.287 126.632C506.981 126.632 501.566 131.762 497.405 143.675L494.84 152.111ZM520.193 154.049C517.799 154.049 516.146 151.94 516.146 148.064C516.146 137.234 525.095 124.409 534.842 124.409C536.438 124.409 538.49 124.694 540.656 125.549L534.101 147.152C532.163 153.707 534.557 152.738 539.174 146.582L539.801 146.981C536.438 151.883 533.474 154.049 531.593 154.049C529.883 154.049 529.37 152.681 530.681 148.178L532.733 141.509C528.515 150.515 523.499 154.049 520.193 154.049ZM519.509 147.266C519.509 150.515 520.592 151.883 522.131 151.883C525.38 151.883 531.251 146.069 535.526 132.332L535.754 131.534L537.35 126.347C536.495 125.549 535.469 125.093 534.215 125.093C527.888 125.093 519.509 137.633 519.509 147.266ZM546.243 154.049C543.564 154.049 542.196 152.225 542.196 148.463C542.196 137.234 551.145 124.409 560.892 124.409C561.747 124.409 562.773 124.523 563.913 124.694L567.219 113.807C567.732 112.211 567.105 111.584 564.369 111.641L564.54 111.071L571.266 109.019L571.665 109.361L560.151 147.152C558.156 153.65 560.55 152.795 565.167 146.582L565.794 146.981C562.488 151.883 559.467 154.049 557.643 154.049C555.933 154.049 555.363 152.795 556.731 148.178L558.726 141.566C554.508 150.515 549.549 154.049 546.243 154.049ZM545.559 147.665C545.559 150.743 546.471 151.769 548.01 151.769C551.259 151.769 556.959 146.468 561.234 133.472L563.4 126.29C562.545 125.492 561.462 125.093 560.265 125.093C553.881 125.093 545.559 137.633 545.559 147.665ZM14.193 216.049C12.673 216.049 11.267 215.764 9.975 215.194C8.683 214.624 7.638 213.693 6.84 212.401C6.08 211.109 5.7 209.38 5.7 207.214V180.823L12.882 177.004V205.276C12.882 206.91 13.091 208.145 13.509 208.981C13.965 209.817 14.839 210.235 16.131 210.235C16.511 210.235 16.929 210.197 17.385 210.121C17.879 210.045 18.411 209.931 18.981 209.779V215.194C18.183 215.498 17.385 215.707 16.587 215.821C15.789 215.973 14.991 216.049 14.193 216.049ZM0.57 192.907V187.378H18.981V192.907H0.57ZM34.452 216.049C31.716 216.049 29.284 215.422 27.156 214.168C25.028 212.914 23.337 211.185 22.083 208.981C20.867 206.739 20.259 204.212 20.259 201.4C20.259 198.55 20.867 196.042 22.083 193.876C23.299 191.672 24.971 189.943 27.099 188.689C29.265 187.435 31.716 186.808 34.452 186.808C37.15 186.808 39.563 187.435 41.691 188.689C43.819 189.943 45.491 191.672 46.707 193.876C47.923 196.042 48.531 198.55 48.531 201.4C48.531 204.212 47.923 206.72 46.707 208.924C45.491 211.128 43.819 212.876 41.691 214.168C39.563 215.422 37.15 216.049 34.452 216.049ZM34.452 209.836C35.896 209.836 37.131 209.494 38.157 208.81C39.221 208.126 40.019 207.157 40.551 205.903C41.121 204.649 41.406 203.148 41.406 201.4C41.406 199.614 41.121 198.113 40.551 196.897C40.019 195.643 39.221 194.693 38.157 194.047C37.131 193.363 35.896 193.021 34.452 193.021C32.97 193.021 31.697 193.363 30.633 194.047C29.569 194.693 28.752 195.643 28.182 196.897C27.612 198.113 27.327 199.614 27.327 201.4C27.327 203.148 27.612 204.649 28.182 205.903C28.752 207.157 29.569 208.126 30.633 208.81C31.697 209.494 32.97 209.836 34.452 209.836ZM75.0948 216.049C72.6248 216.049 70.4968 215.422 68.7108 214.168C66.9248 212.876 65.5378 211.128 64.5498 208.924C63.5998 206.682 63.1248 204.174 63.1248 201.4C63.1248 198.322 63.6568 195.7 64.7208 193.534C65.8228 191.368 67.2858 189.715 69.1098 188.575C70.9338 187.397 72.9288 186.808 75.0948 186.808C76.6148 186.808 78.0208 187.131 79.3128 187.777C80.6428 188.385 81.7828 189.316 82.7328 190.57C83.6828 191.824 84.3098 193.42 84.6138 195.358L83.1888 194.959V175.75H90.1998V215.479H83.1888V207.955L84.8418 207.157C84.3858 209.361 83.6448 211.128 82.6188 212.458C81.6308 213.75 80.4718 214.681 79.1418 215.251C77.8498 215.783 76.5008 216.049 75.0948 216.049ZM77.0328 209.551C78.4388 209.551 79.6358 209.209 80.6238 208.525C81.6498 207.841 82.4288 206.891 82.9608 205.675C83.5308 204.459 83.8158 203.034 83.8158 201.4C83.8158 199.766 83.5308 198.341 82.9608 197.125C82.4288 195.909 81.6498 194.978 80.6238 194.332C79.6358 193.648 78.4388 193.306 77.0328 193.306C75.6648 193.306 74.4678 193.648 73.4418 194.332C72.4158 194.978 71.6178 195.909 71.0478 197.125C70.5158 198.303 70.2498 199.728 70.2498 201.4C70.2498 203.072 70.5158 204.516 71.0478 205.732C71.6178 206.948 72.4158 207.898 73.4418 208.582C74.4678 209.228 75.6648 209.551 77.0328 209.551ZM107.426 216.049C104.994 216.049 102.904 215.65 101.156 214.852C99.4083 214.054 97.9643 212.99 96.8243 211.66C95.7223 210.292 94.9053 208.753 94.3733 207.043C93.8413 205.295 93.5753 203.471 93.5753 201.571C93.5753 199.747 93.8413 197.961 94.3733 196.213C94.9053 194.465 95.7033 192.888 96.7673 191.482C97.8313 190.076 99.1993 188.955 100.871 188.119C102.581 187.245 104.614 186.808 106.97 186.808C109.174 186.808 111.093 187.188 112.727 187.948C114.361 188.67 115.71 189.696 116.774 191.026C117.838 192.318 118.636 193.838 119.168 195.586C119.738 197.334 120.023 199.196 120.023 201.172C120.023 201.438 120.004 201.818 119.966 202.312C119.966 202.768 119.928 203.262 119.852 203.794H100.643C100.833 205.808 101.574 207.328 102.866 208.354C104.196 209.38 105.849 209.893 107.825 209.893C109.269 209.893 110.675 209.646 112.043 209.152C113.411 208.62 114.627 207.879 115.691 206.929L119.225 211.717C117.895 212.743 116.641 213.579 115.463 214.225C114.285 214.871 113.05 215.327 111.758 215.593C110.504 215.897 109.06 216.049 107.426 216.049ZM113.012 200.26C113.088 199.956 113.145 199.652 113.183 199.348C113.259 199.044 113.297 198.759 113.297 198.493C113.297 197.695 113.145 196.954 112.841 196.27C112.537 195.548 112.119 194.921 111.587 194.389C111.055 193.857 110.409 193.458 109.649 193.192C108.927 192.888 108.091 192.736 107.141 192.736C105.735 192.736 104.557 193.021 103.607 193.591C102.657 194.161 101.935 194.902 101.441 195.814C100.985 196.688 100.7 197.6 100.586 198.55H115.406L113.012 200.26ZM129.999 216.049C128.061 216.049 126.465 215.46 125.211 214.282C123.957 213.104 123.33 211.242 123.33 208.696V175.75H130.341V207.328C130.341 208.126 130.531 208.696 130.911 209.038C131.291 209.342 131.785 209.494 132.393 209.494C132.697 209.494 133.02 209.475 133.362 209.437C133.704 209.361 134.065 209.266 134.445 209.152V215.194C133.647 215.498 132.849 215.707 132.051 215.821C131.291 215.973 130.607 216.049 129.999 216.049ZM136.971 215.479V187.378H144.039V215.479H136.971ZM136.743 183.046V175.75H144.324V183.046H136.743ZM157.612 215.479L146.098 187.378H153.85L160.462 206.245L167.188 187.378H174.826L163.426 215.479H157.612ZM188.482 216.049C186.05 216.049 183.96 215.65 182.212 214.852C180.464 214.054 179.02 212.99 177.88 211.66C176.778 210.292 175.961 208.753 175.429 207.043C174.897 205.295 174.631 203.471 174.631 201.571C174.631 199.747 174.897 197.961 175.429 196.213C175.961 194.465 176.759 192.888 177.823 191.482C178.887 190.076 180.255 188.955 181.927 188.119C183.637 187.245 185.67 186.808 188.026 186.808C190.23 186.808 192.149 187.188 193.783 187.948C195.417 188.67 196.766 189.696 197.83 191.026C198.894 192.318 199.692 193.838 200.224 195.586C200.794 197.334 201.079 199.196 201.079 201.172C201.079 201.438 201.06 201.818 201.022 202.312C201.022 202.768 200.984 203.262 200.908 203.794H181.699C181.889 205.808 182.63 207.328 183.922 208.354C185.252 209.38 186.905 209.893 188.881 209.893C190.325 209.893 191.731 209.646 193.099 209.152C194.467 208.62 195.683 207.879 196.747 206.929L200.281 211.717C198.951 212.743 197.697 213.579 196.519 214.225C195.341 214.871 194.106 215.327 192.814 215.593C191.56 215.897 190.116 216.049 188.482 216.049ZM194.068 200.26C194.144 199.956 194.201 199.652 194.239 199.348C194.315 199.044 194.353 198.759 194.353 198.493C194.353 197.695 194.201 196.954 193.897 196.27C193.593 195.548 193.175 194.921 192.643 194.389C192.111 193.857 191.465 193.458 190.705 193.192C189.983 192.888 189.147 192.736 188.197 192.736C186.791 192.736 185.613 193.021 184.663 193.591C183.713 194.161 182.991 194.902 182.497 195.814C182.041 196.688 181.756 197.6 181.642 198.55H196.462L194.068 200.26ZM204.5 215.479V187.378H211.625V195.016L210.542 195.13C210.656 193.496 211.15 192.052 212.024 190.798C212.898 189.544 213.962 188.575 215.216 187.891C216.508 187.169 217.819 186.808 219.149 186.808C220.099 186.808 220.992 186.941 221.828 187.207C222.702 187.435 223.595 187.834 224.507 188.404L221.087 194.788C220.669 194.56 220.137 194.351 219.491 194.161C218.845 193.971 218.199 193.876 217.553 193.876C216.793 193.876 216.052 194.009 215.33 194.275C214.646 194.541 214.019 194.959 213.449 195.529C212.917 196.099 212.48 196.859 212.138 197.809C211.986 198.341 211.853 199.025 211.739 199.861C211.663 200.659 211.625 201.837 211.625 203.395V215.479H204.5ZM251.556 216.049C249.124 216.049 247.034 215.65 245.286 214.852C243.538 214.054 242.094 212.99 240.954 211.66C239.852 210.292 239.035 208.753 238.503 207.043C237.971 205.295 237.705 203.471 237.705 201.571C237.705 199.747 237.971 197.961 238.503 196.213C239.035 194.465 239.833 192.888 240.897 191.482C241.961 190.076 243.329 188.955 245.001 188.119C246.711 187.245 248.744 186.808 251.1 186.808C253.304 186.808 255.223 187.188 256.857 187.948C258.491 188.67 259.84 189.696 260.904 191.026C261.968 192.318 262.766 193.838 263.298 195.586C263.868 197.334 264.153 199.196 264.153 201.172C264.153 201.438 264.134 201.818 264.096 202.312C264.096 202.768 264.058 203.262 263.982 203.794H244.773C244.963 205.808 245.704 207.328 246.996 208.354C248.326 209.38 249.979 209.893 251.955 209.893C253.399 209.893 254.805 209.646 256.173 209.152C257.541 208.62 258.757 207.879 259.821 206.929L263.355 211.717C262.025 212.743 260.771 213.579 259.593 214.225C258.415 214.871 257.18 215.327 255.888 215.593C254.634 215.897 253.19 216.049 251.556 216.049ZM257.142 200.26C257.218 199.956 257.275 199.652 257.313 199.348C257.389 199.044 257.427 198.759 257.427 198.493C257.427 197.695 257.275 196.954 256.971 196.27C256.667 195.548 256.249 194.921 255.717 194.389C255.185 193.857 254.539 193.458 253.779 193.192C253.057 192.888 252.221 192.736 251.271 192.736C249.865 192.736 248.687 193.021 247.737 193.591C246.787 194.161 246.065 194.902 245.571 195.814C245.115 196.688 244.83 197.6 244.716 198.55H259.536L257.142 200.26ZM264.402 215.479L273.978 201.286L264.402 187.378H272.781L278.709 196.669L284.637 187.378H293.016L283.326 201.286L293.016 215.479H284.637L278.709 206.017L272.724 215.479H264.402ZM306.069 216.049C304.549 216.049 303.143 215.764 301.851 215.194C300.559 214.624 299.514 213.693 298.716 212.401C297.956 211.109 297.576 209.38 297.576 207.214V180.823L304.758 177.004V205.276C304.758 206.91 304.967 208.145 305.385 208.981C305.841 209.817 306.715 210.235 308.007 210.235C308.387 210.235 308.805 210.197 309.261 210.121C309.755 210.045 310.287 209.931 310.857 209.779V215.194C310.059 215.498 309.261 215.707 308.463 215.821C307.665 215.973 306.867 216.049 306.069 216.049ZM292.446 192.907V187.378H310.857V192.907H292.446ZM314.002 215.479V187.378H321.127V195.016L320.044 195.13C320.158 193.496 320.652 192.052 321.526 190.798C322.4 189.544 323.464 188.575 324.718 187.891C326.01 187.169 327.321 186.808 328.651 186.808C329.601 186.808 330.494 186.941 331.33 187.207C332.204 187.435 333.097 187.834 334.009 188.404L330.589 194.788C330.171 194.56 329.639 194.351 328.993 194.161C328.347 193.971 327.701 193.876 327.055 193.876C326.295 193.876 325.554 194.009 324.832 194.275C324.148 194.541 323.521 194.959 322.951 195.529C322.419 196.099 321.982 196.859 321.64 197.809C321.488 198.341 321.355 199.025 321.241 199.861C321.165 200.659 321.127 201.837 321.127 203.395V215.479H314.002ZM353.447 215.479L352.877 211.261V197.752C352.877 196.08 352.345 194.845 351.281 194.047C350.255 193.211 348.849 192.793 347.063 192.793C345.581 192.793 344.061 193.097 342.503 193.705C340.983 194.275 339.634 195.092 338.456 196.156L334.865 191.311C336.841 189.715 338.855 188.575 340.907 187.891C342.997 187.169 345.239 186.808 347.633 186.808C351.509 186.808 354.53 187.777 356.696 189.715C358.862 191.653 359.945 194.332 359.945 197.752V215.479H353.447ZM344.954 216.049C342.902 216.049 341.059 215.669 339.425 214.909C337.829 214.149 336.556 213.066 335.606 211.66C334.694 210.254 334.238 208.639 334.238 206.815C334.238 205.181 334.561 203.794 335.207 202.654C335.891 201.476 336.784 200.583 337.886 199.975C338.836 199.405 339.881 199.006 341.021 198.778C342.199 198.55 343.453 198.436 344.783 198.436H353.504V203.68H345.809C345.201 203.68 344.593 203.737 343.985 203.851C343.415 203.927 342.921 204.136 342.503 204.478C342.123 204.744 341.838 205.086 341.648 205.504C341.458 205.884 341.363 206.321 341.363 206.815C341.363 207.879 341.781 208.734 342.617 209.38C343.453 210.026 344.574 210.349 345.98 210.349C347.234 210.349 348.374 210.083 349.4 209.551C350.464 208.981 351.3 208.221 351.908 207.271C352.554 206.283 352.877 205.162 352.877 203.908L354.758 207.67C354.264 209.646 353.504 211.261 352.478 212.515C351.49 213.731 350.35 214.624 349.058 215.194C347.766 215.764 346.398 216.049 344.954 216.049ZM377.153 216.049C374.417 216.049 371.985 215.422 369.857 214.168C367.729 212.914 366.038 211.185 364.784 208.981C363.568 206.739 362.96 204.212 362.96 201.4C362.96 198.55 363.568 196.042 364.784 193.876C366 191.672 367.672 189.943 369.8 188.689C371.966 187.435 374.417 186.808 377.153 186.808C379.851 186.808 382.264 187.435 384.392 188.689C386.52 189.943 388.192 191.672 389.408 193.876C390.624 196.042 391.232 198.55 391.232 201.4C391.232 204.212 390.624 206.72 389.408 208.924C388.192 211.128 386.52 212.876 384.392 214.168C382.264 215.422 379.851 216.049 377.153 216.049ZM377.153 209.836C378.597 209.836 379.832 209.494 380.858 208.81C381.922 208.126 382.72 207.157 383.252 205.903C383.822 204.649 384.107 203.148 384.107 201.4C384.107 199.614 383.822 198.113 383.252 196.897C382.72 195.643 381.922 194.693 380.858 194.047C379.832 193.363 378.597 193.021 377.153 193.021C375.671 193.021 374.398 193.363 373.334 194.047C372.27 194.693 371.453 195.643 370.883 196.897C370.313 198.113 370.028 199.614 370.028 201.4C370.028 203.148 370.313 204.649 370.883 205.903C371.453 207.157 372.27 208.126 373.334 208.81C374.398 209.494 375.671 209.836 377.153 209.836ZM394.611 215.479V187.378H401.736V195.016L400.653 195.13C400.767 193.496 401.261 192.052 402.135 190.798C403.009 189.544 404.073 188.575 405.327 187.891C406.619 187.169 407.93 186.808 409.26 186.808C410.21 186.808 411.103 186.941 411.939 187.207C412.813 187.435 413.706 187.834 414.618 188.404L411.198 194.788C410.78 194.56 410.248 194.351 409.602 194.161C408.956 193.971 408.31 193.876 407.664 193.876C406.904 193.876 406.163 194.009 405.441 194.275C404.757 194.541 404.13 194.959 403.56 195.529C403.028 196.099 402.591 196.859 402.249 197.809C402.097 198.341 401.964 199.025 401.85 199.861C401.774 200.659 401.736 201.837 401.736 203.395V215.479H394.611ZM425.756 216.049C423.286 216.049 421.158 215.422 419.372 214.168C417.586 212.876 416.199 211.128 415.211 208.924C414.261 206.682 413.786 204.174 413.786 201.4C413.786 198.322 414.318 195.7 415.382 193.534C416.484 191.368 417.947 189.715 419.771 188.575C421.595 187.397 423.59 186.808 425.756 186.808C427.276 186.808 428.682 187.131 429.974 187.777C431.304 188.385 432.444 189.316 433.394 190.57C434.344 191.824 434.971 193.42 435.275 195.358L433.85 194.959V175.75H440.861V215.479H433.85V207.955L435.503 207.157C435.047 209.361 434.306 211.128 433.28 212.458C432.292 213.75 431.133 214.681 429.803 215.251C428.511 215.783 427.162 216.049 425.756 216.049ZM427.694 209.551C429.1 209.551 430.297 209.209 431.285 208.525C432.311 207.841 433.09 206.891 433.622 205.675C434.192 204.459 434.477 203.034 434.477 201.4C434.477 199.766 434.192 198.341 433.622 197.125C433.09 195.909 432.311 194.978 431.285 194.332C430.297 193.648 429.1 193.306 427.694 193.306C426.326 193.306 425.129 193.648 424.103 194.332C423.077 194.978 422.279 195.909 421.709 197.125C421.177 198.303 420.911 199.728 420.911 201.4C420.911 203.072 421.177 204.516 421.709 205.732C422.279 206.948 423.077 207.898 424.103 208.582C425.129 209.228 426.326 209.551 427.694 209.551ZM445.491 215.479V187.378H452.559V215.479H445.491ZM445.263 183.046V175.75H452.844V183.046H445.263ZM457.239 215.479V187.378H464.364V193.762L463.224 193.876C463.718 192.166 464.44 190.798 465.39 189.772C466.34 188.746 467.442 188.005 468.696 187.549C469.95 187.055 471.242 186.808 472.572 186.808C475.764 186.808 478.253 187.72 480.039 189.544C481.863 191.33 482.775 193.857 482.775 197.125V215.479H475.65V199.747C475.65 197.391 475.232 195.681 474.396 194.617C473.56 193.515 472.249 192.964 470.463 192.964C469.095 192.964 467.955 193.287 467.043 193.933C466.169 194.541 465.504 195.51 465.048 196.84C464.592 198.17 464.364 199.899 464.364 202.027V215.479H457.239ZM505.145 215.479L504.575 211.261V197.752C504.575 196.08 504.043 194.845 502.979 194.047C501.953 193.211 500.547 192.793 498.761 192.793C497.279 192.793 495.759 193.097 494.201 193.705C492.681 194.275 491.332 195.092 490.154 196.156L486.563 191.311C488.539 189.715 490.553 188.575 492.605 187.891C494.695 187.169 496.937 186.808 499.331 186.808C503.207 186.808 506.228 187.777 508.394 189.715C510.56 191.653 511.643 194.332 511.643 197.752V215.479H505.145ZM496.652 216.049C494.6 216.049 492.757 215.669 491.123 214.909C489.527 214.149 488.254 213.066 487.304 211.66C486.392 210.254 485.936 208.639 485.936 206.815C485.936 205.181 486.259 203.794 486.905 202.654C487.589 201.476 488.482 200.583 489.584 199.975C490.534 199.405 491.579 199.006 492.719 198.778C493.897 198.55 495.151 198.436 496.481 198.436H505.202V203.68H497.507C496.899 203.68 496.291 203.737 495.683 203.851C495.113 203.927 494.619 204.136 494.201 204.478C493.821 204.744 493.536 205.086 493.346 205.504C493.156 205.884 493.061 206.321 493.061 206.815C493.061 207.879 493.479 208.734 494.315 209.38C495.151 210.026 496.272 210.349 497.678 210.349C498.932 210.349 500.072 210.083 501.098 209.551C502.162 208.981 502.998 208.221 503.606 207.271C504.252 206.283 504.575 205.162 504.575 203.908L506.456 207.67C505.962 209.646 505.202 211.261 504.176 212.515C503.188 213.731 502.048 214.624 500.756 215.194C499.464 215.764 498.096 216.049 496.652 216.049ZM515.969 215.479V187.378H523.094V195.016L522.011 195.13C522.125 193.496 522.619 192.052 523.493 190.798C524.367 189.544 525.431 188.575 526.685 187.891C527.977 187.169 529.288 186.808 530.618 186.808C531.568 186.808 532.461 186.941 533.297 187.207C534.171 187.435 535.064 187.834 535.976 188.404L532.556 194.788C532.138 194.56 531.606 194.351 530.96 194.161C530.314 193.971 529.668 193.876 529.022 193.876C528.262 193.876 527.521 194.009 526.799 194.275C526.115 194.541 525.488 194.959 524.918 195.529C524.386 196.099 523.949 196.859 523.607 197.809C523.455 198.341 523.322 199.025 523.208 199.861C523.132 200.659 523.094 201.837 523.094 203.395V215.479H515.969ZM540.239 227.107L545.939 213.313L535.337 187.378H543.089L549.701 206.245L556.427 187.378H564.065L547.934 227.107H540.239ZM16.359 278.049C13.623 278.049 11.191 277.422 9.063 276.168C6.935 274.914 5.244 273.185 3.99 270.981C2.774 268.739 2.166 266.212 2.166 263.4C2.166 260.55 2.774 258.042 3.99 255.876C5.206 253.672 6.878 251.943 9.006 250.689C11.172 249.435 13.623 248.808 16.359 248.808C19.057 248.808 21.47 249.435 23.598 250.689C25.726 251.943 27.398 253.672 28.614 255.876C29.83 258.042 30.438 260.55 30.438 263.4C30.438 266.212 29.83 268.72 28.614 270.924C27.398 273.128 25.726 274.876 23.598 276.168C21.47 277.422 19.057 278.049 16.359 278.049ZM16.359 271.836C17.803 271.836 19.038 271.494 20.064 270.81C21.128 270.126 21.926 269.157 22.458 267.903C23.028 266.649 23.313 265.148 23.313 263.4C23.313 261.614 23.028 260.113 22.458 258.897C21.926 257.643 21.128 256.693 20.064 256.047C19.038 255.363 17.803 255.021 16.359 255.021C14.877 255.021 13.604 255.363 12.54 256.047C11.476 256.693 10.659 257.643 10.089 258.897C9.519 260.113 9.234 261.614 9.234 263.4C9.234 265.148 9.519 266.649 10.089 267.903C10.659 269.157 11.476 270.126 12.54 270.81C13.604 271.494 14.877 271.836 16.359 271.836ZM43.7341 278.049C41.4541 278.049 39.5351 277.593 37.9771 276.681C36.4571 275.769 35.3171 274.477 34.5571 272.805C33.8351 271.133 33.4741 269.176 33.4741 266.934V249.378H40.5421V265.167C40.5421 266.459 40.6941 267.618 40.9981 268.644C41.3021 269.632 41.8341 270.43 42.5941 271.038C43.3921 271.608 44.4751 271.893 45.8431 271.893C47.5151 271.893 48.7691 271.418 49.6051 270.468C50.4791 269.518 51.0681 268.207 51.3721 266.535C51.7141 264.825 51.8851 262.83 51.8851 260.55V249.378H58.9531V277.479H51.8851V271.38L52.8541 271.95C52.0181 274.116 50.7831 275.674 49.1491 276.624C47.5151 277.574 45.7101 278.049 43.7341 278.049ZM74.426 278.049C72.906 278.049 71.5 277.764 70.208 277.194C68.916 276.624 67.871 275.693 67.073 274.401C66.313 273.109 65.933 271.38 65.933 269.214V242.823L73.115 239.004V267.276C73.115 268.91 73.324 270.145 73.742 270.981C74.198 271.817 75.072 272.235 76.364 272.235C76.744 272.235 77.162 272.197 77.618 272.121C78.112 272.045 78.644 271.931 79.214 271.779V277.194C78.416 277.498 77.618 277.707 76.82 277.821C76.022 277.973 75.224 278.049 74.426 278.049ZM60.803 254.907V249.378H79.214V254.907H60.803ZM94.172 278.049C91.892 278.049 89.897 277.65 88.187 276.852C86.515 276.016 85.09 274.914 83.912 273.546C82.772 272.178 81.917 270.62 81.347 268.872C80.777 267.124 80.492 265.3 80.492 263.4C80.492 261.538 80.777 259.733 81.347 257.985C81.917 256.237 82.772 254.679 83.912 253.311C85.09 251.943 86.515 250.86 88.187 250.062C89.897 249.226 91.892 248.808 94.172 248.808C97.022 248.808 99.492 249.492 101.582 250.86C103.672 252.228 105.23 254.299 106.256 257.073L100.1 259.524C99.644 258.194 98.941 257.111 97.991 256.275C97.079 255.401 95.806 254.964 94.172 254.964C92.652 254.964 91.398 255.382 90.41 256.218C89.422 257.016 88.7 258.061 88.244 259.353C87.788 260.645 87.56 261.994 87.56 263.4C87.56 264.806 87.788 266.174 88.244 267.504C88.7 268.796 89.422 269.86 90.41 270.696C91.398 271.494 92.652 271.893 94.172 271.893C95.806 271.893 97.079 271.475 97.991 270.639C98.941 269.765 99.644 268.644 100.1 267.276L106.256 269.727C105.23 272.539 103.672 274.629 101.582 275.997C99.492 277.365 97.022 278.049 94.172 278.049ZM122.185 278.049C119.449 278.049 117.017 277.422 114.889 276.168C112.761 274.914 111.07 273.185 109.816 270.981C108.6 268.739 107.992 266.212 107.992 263.4C107.992 260.55 108.6 258.042 109.816 255.876C111.032 253.672 112.704 251.943 114.832 250.689C116.998 249.435 119.449 248.808 122.185 248.808C124.883 248.808 127.296 249.435 129.424 250.689C131.552 251.943 133.224 253.672 134.44 255.876C135.656 258.042 136.264 260.55 136.264 263.4C136.264 266.212 135.656 268.72 134.44 270.924C133.224 273.128 131.552 274.876 129.424 276.168C127.296 277.422 124.883 278.049 122.185 278.049ZM122.185 271.836C123.629 271.836 124.864 271.494 125.89 270.81C126.954 270.126 127.752 269.157 128.284 267.903C128.854 266.649 129.139 265.148 129.139 263.4C129.139 261.614 128.854 260.113 128.284 258.897C127.752 257.643 126.954 256.693 125.89 256.047C124.864 255.363 123.629 255.021 122.185 255.021C120.703 255.021 119.43 255.363 118.366 256.047C117.302 256.693 116.485 257.643 115.915 258.897C115.345 260.113 115.06 261.614 115.06 263.4C115.06 265.148 115.345 266.649 115.915 267.903C116.485 269.157 117.302 270.126 118.366 270.81C119.43 271.494 120.703 271.836 122.185 271.836ZM139.642 277.479V249.378H146.767V256.674L145.228 257.871C145.494 256.085 145.95 254.603 146.596 253.425C147.242 252.247 148.002 251.335 148.876 250.689C149.788 250.005 150.719 249.53 151.669 249.264C152.657 248.96 153.626 248.808 154.576 248.808C156.058 248.808 157.464 249.093 158.794 249.663C160.124 250.195 161.283 251.126 162.271 252.456C163.259 253.786 163.943 255.61 164.323 257.928L160.105 259.467C160.675 256.807 161.492 254.698 162.556 253.14C163.658 251.582 164.912 250.48 166.318 249.834C167.762 249.15 169.282 248.808 170.878 248.808C173.272 248.808 175.21 249.34 176.692 250.404C178.174 251.468 179.257 252.836 179.941 254.508C180.663 256.142 181.024 257.89 181.024 259.752V277.479H173.956V261.462C173.956 260.056 173.766 258.878 173.386 257.928C173.044 256.94 172.531 256.199 171.847 255.705C171.163 255.211 170.27 254.964 169.168 254.964C168.028 254.964 167.059 255.268 166.261 255.876C165.463 256.484 164.855 257.396 164.437 258.612C164.057 259.828 163.867 261.386 163.867 263.286V277.479H156.799V261.348C156.799 259.22 156.4 257.624 155.602 256.56C154.842 255.496 153.721 254.964 152.239 254.964C151.061 254.964 150.054 255.268 149.218 255.876C148.42 256.484 147.812 257.396 147.394 258.612C146.976 259.828 146.767 261.386 146.767 263.286V277.479H139.642ZM197.941 278.049C195.509 278.049 193.419 277.65 191.671 276.852C189.923 276.054 188.479 274.99 187.339 273.66C186.237 272.292 185.42 270.753 184.888 269.043C184.356 267.295 184.09 265.471 184.09 263.571C184.09 261.747 184.356 259.961 184.888 258.213C185.42 256.465 186.218 254.888 187.282 253.482C188.346 252.076 189.714 250.955 191.386 250.119C193.096 249.245 195.129 248.808 197.485 248.808C199.689 248.808 201.608 249.188 203.242 249.948C204.876 250.67 206.225 251.696 207.289 253.026C208.353 254.318 209.151 255.838 209.683 257.586C210.253 259.334 210.538 261.196 210.538 263.172C210.538 263.438 210.519 263.818 210.481 264.312C210.481 264.768 210.443 265.262 210.367 265.794H191.158C191.348 267.808 192.089 269.328 193.381 270.354C194.711 271.38 196.364 271.893 198.34 271.893C199.784 271.893 201.19 271.646 202.558 271.152C203.926 270.62 205.142 269.879 206.206 268.929L209.74 273.717C208.41 274.743 207.156 275.579 205.978 276.225C204.8 276.871 203.565 277.327 202.273 277.593C201.019 277.897 199.575 278.049 197.941 278.049ZM203.527 262.26C203.603 261.956 203.66 261.652 203.698 261.348C203.774 261.044 203.812 260.759 203.812 260.493C203.812 259.695 203.66 258.954 203.356 258.27C203.052 257.548 202.634 256.921 202.102 256.389C201.57 255.857 200.924 255.458 200.164 255.192C199.442 254.888 198.606 254.736 197.656 254.736C196.25 254.736 195.072 255.021 194.122 255.591C193.172 256.161 192.45 256.902 191.956 257.814C191.5 258.688 191.215 259.6 191.101 260.55H205.921L203.527 262.26ZM223.705 278.049C221.615 278.049 219.791 277.745 218.233 277.137C216.675 276.529 215.345 275.769 214.243 274.857C213.179 273.945 212.324 273.071 211.678 272.235L216.523 268.017C217.169 269.081 218.081 270.069 219.259 270.981C220.475 271.855 221.976 272.292 223.762 272.292C225.168 272.292 226.251 272.026 227.011 271.494C227.809 270.924 228.208 270.221 228.208 269.385C228.208 268.701 227.961 268.15 227.467 267.732C226.973 267.276 226.308 266.915 225.472 266.649C224.636 266.345 223.705 266.06 222.679 265.794C221.615 265.49 220.513 265.148 219.373 264.768C218.233 264.388 217.188 263.894 216.238 263.286C215.288 262.64 214.509 261.823 213.901 260.835C213.331 259.847 213.046 258.612 213.046 257.13C213.046 254.66 214.015 252.665 215.953 251.145C217.891 249.587 220.456 248.808 223.648 248.808C225.89 248.808 227.923 249.264 229.747 250.176C231.571 251.05 233.015 252.323 234.079 253.995L229.69 257.472C229.006 256.37 228.094 255.553 226.954 255.021C225.852 254.451 224.674 254.166 223.42 254.166C222.318 254.166 221.406 254.375 220.684 254.793C220 255.211 219.658 255.781 219.658 256.503C219.658 256.997 219.81 257.415 220.114 257.757C220.456 258.099 220.988 258.403 221.71 258.669C222.47 258.897 223.458 259.163 224.674 259.467C225.814 259.733 226.992 260.056 228.208 260.436C229.424 260.816 230.564 261.329 231.628 261.975C232.692 262.621 233.547 263.476 234.193 264.54C234.839 265.604 235.162 266.953 235.162 268.587C235.162 270.449 234.687 272.102 233.737 273.546C232.787 274.952 231.457 276.054 229.747 276.852C228.037 277.65 226.023 278.049 223.705 278.049Z" fill="#FF5D1A"/>
</svg>
