<svg width="837" height="304" viewBox="0 0 837 304" fill="none" xmlns="http://www.w3.org/2000/svg">
<rect x="321" y="246" width="193.84" height="58" fill="#FF5D1A"/>
<path d="M367.067 282L372.487 268.06H374.067L379.467 282H377.247L373.287 271.02L369.307 282H367.067ZM370.267 278.9L370.887 277.08H375.647L376.327 278.9H370.267ZM381.135 286.08V272.14H383.095V274.98L382.535 274.8C382.709 274.147 382.962 273.613 383.295 273.2C383.642 272.787 384.055 272.48 384.535 272.28C385.015 272.067 385.549 271.96 386.135 271.96C387.015 271.96 387.782 272.187 388.435 272.64C389.102 273.08 389.615 273.687 389.975 274.46C390.335 275.233 390.515 276.107 390.515 277.08C390.515 278.12 390.322 279.027 389.935 279.8C389.549 280.56 389.022 281.147 388.355 281.56C387.689 281.973 386.949 282.18 386.135 282.18C385.549 282.18 385.009 282.067 384.515 281.84C384.035 281.613 383.629 281.3 383.295 280.9C382.962 280.487 382.729 280 382.595 279.44L383.095 279.16V286.08H381.135ZM385.715 280.38C386.289 280.38 386.782 280.247 387.195 279.98C387.622 279.7 387.955 279.313 388.195 278.82C388.435 278.313 388.555 277.733 388.555 277.08C388.555 276.427 388.435 275.853 388.195 275.36C387.955 274.853 387.622 274.46 387.195 274.18C386.782 273.9 386.289 273.76 385.715 273.76C385.155 273.76 384.662 273.9 384.235 274.18C383.822 274.46 383.495 274.853 383.255 275.36C383.029 275.853 382.915 276.427 382.915 277.08C382.915 277.733 383.029 278.313 383.255 278.82C383.495 279.313 383.822 279.7 384.235 279.98C384.662 280.247 385.155 280.38 385.715 280.38ZM392.796 286.08V272.14H394.756V274.98L394.196 274.8C394.369 274.147 394.622 273.613 394.956 273.2C395.302 272.787 395.716 272.48 396.196 272.28C396.676 272.067 397.209 271.96 397.796 271.96C398.676 271.96 399.442 272.187 400.096 272.64C400.762 273.08 401.276 273.687 401.636 274.46C401.996 275.233 402.176 276.107 402.176 277.08C402.176 278.12 401.982 279.027 401.596 279.8C401.209 280.56 400.682 281.147 400.016 281.56C399.349 281.973 398.609 282.18 397.796 282.18C397.209 282.18 396.669 282.067 396.176 281.84C395.696 281.613 395.289 281.3 394.956 280.9C394.622 280.487 394.389 280 394.256 279.44L394.756 279.16V286.08H392.796ZM397.376 280.38C397.949 280.38 398.442 280.247 398.856 279.98C399.282 279.7 399.616 279.313 399.856 278.82C400.096 278.313 400.216 277.733 400.216 277.08C400.216 276.427 400.096 275.853 399.856 275.36C399.616 274.853 399.282 274.46 398.856 274.18C398.442 273.9 397.949 273.76 397.376 273.76C396.816 273.76 396.322 273.9 395.896 274.18C395.482 274.46 395.156 274.853 394.916 275.36C394.689 275.853 394.576 276.427 394.576 277.08C394.576 277.733 394.689 278.313 394.916 278.82C395.156 279.313 395.482 279.7 395.896 279.98C396.322 280.247 396.816 280.38 397.376 280.38ZM406.556 282.18C405.929 282.18 405.416 281.987 405.016 281.6C404.616 281.213 404.416 280.6 404.416 279.76V268.06H406.356V279.38C406.356 279.727 406.429 279.98 406.576 280.14C406.736 280.287 406.942 280.36 407.196 280.36C407.302 280.36 407.422 280.353 407.556 280.34C407.702 280.313 407.849 280.273 407.996 280.22V281.88C407.756 281.987 407.502 282.06 407.236 282.1C406.982 282.153 406.756 282.18 406.556 282.18ZM410.747 286.06L412.667 281.42L408.867 272.14H411.027L413.707 279.46L416.427 272.14H418.547L412.887 286.06H410.747ZM425.689 282V268.06H427.809L434.749 279.36H434.269V268.06H436.289V282H434.129L427.249 270.68H427.729V282H425.689ZM443.543 282.18C442.61 282.18 441.777 281.96 441.043 281.52C440.31 281.08 439.73 280.473 439.303 279.7C438.89 278.927 438.683 278.047 438.683 277.06C438.683 276.073 438.89 275.2 439.303 274.44C439.717 273.667 440.29 273.06 441.023 272.62C441.77 272.18 442.61 271.96 443.543 271.96C444.49 271.96 445.323 272.18 446.043 272.62C446.763 273.06 447.33 273.667 447.743 274.44C448.17 275.2 448.383 276.073 448.383 277.06C448.383 278.047 448.17 278.927 447.743 279.7C447.33 280.46 446.757 281.067 446.023 281.52C445.303 281.96 444.477 282.18 443.543 282.18ZM443.543 280.44C444.13 280.44 444.637 280.3 445.063 280.02C445.503 279.74 445.837 279.347 446.063 278.84C446.303 278.333 446.423 277.74 446.423 277.06C446.423 276.367 446.303 275.767 446.063 275.26C445.837 274.753 445.503 274.367 445.063 274.1C444.637 273.82 444.13 273.68 443.543 273.68C442.943 273.68 442.423 273.82 441.983 274.1C441.557 274.38 441.223 274.773 440.983 275.28C440.757 275.773 440.643 276.367 440.643 277.06C440.643 277.74 440.757 278.333 440.983 278.84C441.223 279.347 441.557 279.74 441.983 280.02C442.423 280.3 442.943 280.44 443.543 280.44ZM452.63 282L449.67 272.14H451.75L453.63 279.02L455.81 272.14H457.51L459.69 278.98L461.59 272.14H463.67L460.69 282H458.91L456.67 274.88L454.43 282H452.63ZM465.87 277.9L465.65 268.06H467.59L467.37 277.9H465.87ZM465.49 282V279.58H467.73V282H465.49Z" fill="white"/>
<rect x="317" width="202" height="36" rx="18" fill="#FFEBD9"/>
<path d="M351.309 23V13.939H353.259L355.95 20.907H355.716L358.407 13.939H360.344V23H359.018V15.473L359.135 15.499L356.47 22.22H355.183L352.518 15.499L352.635 15.473V23H351.309ZM366.385 23L366.281 21.817V18.97C366.281 18.5193 366.151 18.1727 365.891 17.93C365.631 17.6873 365.254 17.566 364.76 17.566C364.414 17.566 364.08 17.6353 363.759 17.774C363.447 17.9127 363.148 18.138 362.862 18.45L362.069 17.631C362.451 17.2323 362.871 16.942 363.33 16.76C363.798 16.5693 364.305 16.474 364.851 16.474C365.709 16.474 366.372 16.695 366.84 17.137C367.317 17.5703 367.555 18.1813 367.555 18.97V23H366.385ZM364.318 23.117C363.842 23.117 363.421 23.0303 363.057 22.857C362.693 22.6837 362.412 22.4453 362.212 22.142C362.013 21.83 361.913 21.4703 361.913 21.063C361.913 20.7077 361.987 20.4043 362.134 20.153C362.282 19.893 362.472 19.6937 362.706 19.555C362.923 19.4163 363.17 19.321 363.447 19.269C363.733 19.2083 364.037 19.178 364.357 19.178H366.398V20.14H364.539C364.366 20.14 364.184 20.1573 363.993 20.192C363.811 20.218 363.655 20.2787 363.525 20.374C363.421 20.452 363.339 20.5517 363.278 20.673C363.218 20.7857 363.187 20.92 363.187 21.076C363.187 21.3793 363.304 21.622 363.538 21.804C363.772 21.986 364.084 22.077 364.474 22.077C364.804 22.077 365.103 22.0033 365.371 21.856C365.649 21.7 365.87 21.492 366.034 21.232C366.199 20.9633 366.281 20.66 366.281 20.322L366.736 20.92C366.658 21.3707 366.507 21.765 366.281 22.103C366.056 22.4323 365.774 22.6837 365.436 22.857C365.107 23.0303 364.734 23.117 364.318 23.117ZM369.678 25.639L370.926 22.623L368.456 16.591H369.86L371.602 21.349L373.37 16.591H374.748L371.069 25.639H369.678ZM382.108 23V15.746L382.498 16.383H379.768V15.369H381.276C381.553 15.369 381.761 15.3127 381.9 15.2C382.039 15.0787 382.108 14.8707 382.108 14.576V13.939H383.395V23H382.108ZM389.382 23V15.746L389.772 16.383H387.042V15.369H388.55C388.828 15.369 389.036 15.3127 389.174 15.2C389.313 15.0787 389.382 14.8707 389.382 14.576V13.939H390.669V23H389.382ZM396.085 23.117C395.773 23.117 395.483 23.0563 395.214 22.935C394.954 22.8137 394.746 22.6187 394.59 22.35C394.443 22.0727 394.369 21.7173 394.369 21.284V14.953L395.656 14.238V20.946C395.656 21.3013 395.708 21.5787 395.812 21.778C395.925 21.9687 396.128 22.064 396.423 22.064C396.51 22.064 396.609 22.0553 396.722 22.038C396.843 22.012 396.973 21.9817 397.112 21.947V22.935C396.939 22.9957 396.765 23.039 396.592 23.065C396.419 23.0997 396.25 23.117 396.085 23.117ZM393.095 17.579V16.591H397.112V17.579H393.095ZM398.432 23V13.939H399.719V17.982L399.446 18.073C399.559 17.7177 399.723 17.423 399.94 17.189C400.165 16.955 400.421 16.7773 400.707 16.656C401.002 16.5347 401.314 16.474 401.643 16.474C402.354 16.474 402.908 16.682 403.307 17.098C403.714 17.5053 403.918 18.1033 403.918 18.892V23H402.644V19.36C402.644 18.7447 402.531 18.294 402.306 18.008C402.089 17.722 401.751 17.579 401.292 17.579C400.781 17.579 400.391 17.761 400.122 18.125C399.853 18.4803 399.719 19.0523 399.719 19.841V23H398.432ZM408.63 19.568V18.619H411.854V19.568H408.63ZM415.922 23L419.445 13.939H420.472L423.982 23H422.539L419.965 15.863L417.378 23H415.922ZM418.002 20.985L418.405 19.802H421.499L421.941 20.985H418.002ZM427.264 23.117C426.787 23.117 426.375 23.0217 426.029 22.831C425.691 22.6317 425.431 22.35 425.249 21.986C425.075 21.6133 424.989 21.1627 424.989 20.634V16.591H426.263V20.231C426.263 20.6123 426.31 20.9373 426.406 21.206C426.501 21.466 426.648 21.6653 426.848 21.804C427.056 21.934 427.316 21.999 427.628 21.999C427.992 21.999 428.286 21.908 428.512 21.726C428.746 21.544 428.919 21.2753 429.032 20.92C429.144 20.556 429.201 20.1053 429.201 19.568V16.591H430.462V23H429.201V21.622L429.461 21.674C429.27 22.1507 428.98 22.5103 428.59 22.753C428.2 22.9957 427.758 23.117 427.264 23.117ZM434.878 25.769C433.951 25.769 433.214 25.6 432.668 25.262C432.131 24.924 431.862 24.456 431.862 23.858C431.862 23.8147 431.862 23.7583 431.862 23.689C431.871 23.6197 431.884 23.5503 431.901 23.481L433.565 22.337L433.955 22.662L433.071 23.754C433.062 23.7887 433.058 23.8147 433.058 23.832C433.058 23.858 433.058 23.884 433.058 23.91C433.058 24.222 433.231 24.456 433.578 24.612C433.925 24.768 434.358 24.846 434.878 24.846C435.337 24.846 435.71 24.781 435.996 24.651C436.282 24.5297 436.425 24.3303 436.425 24.053C436.425 23.9057 436.382 23.7843 436.295 23.689C436.208 23.5937 436.078 23.5157 435.905 23.455C435.732 23.403 435.524 23.3553 435.281 23.312C435.047 23.2773 434.774 23.2383 434.462 23.195C434.063 23.1343 433.678 23.0477 433.305 22.935C432.932 22.8223 432.625 22.6577 432.382 22.441C432.139 22.2157 432.018 21.921 432.018 21.557C432.018 21.245 432.126 20.959 432.343 20.699C432.568 20.4303 432.859 20.2137 433.214 20.049L433.942 20.556C433.673 20.6167 433.478 20.7163 433.357 20.855C433.236 20.985 433.175 21.1453 433.175 21.336C433.175 21.492 433.231 21.6177 433.344 21.713C433.465 21.8083 433.634 21.882 433.851 21.934C434.068 21.986 434.328 22.0337 434.631 22.077C435.056 22.1377 435.45 22.2027 435.814 22.272C436.187 22.3413 436.512 22.441 436.789 22.571C437.075 22.6923 437.292 22.857 437.439 23.065C437.595 23.2817 437.673 23.559 437.673 23.897C437.673 24.5037 437.426 24.9673 436.932 25.288C436.447 25.6087 435.762 25.769 434.878 25.769ZM434.735 21.063C434.224 21.063 433.773 20.9677 433.383 20.777C433.002 20.5777 432.703 20.309 432.486 19.971C432.269 19.6243 432.161 19.23 432.161 18.788C432.161 18.3287 432.274 17.9257 432.499 17.579C432.724 17.2323 433.028 16.9637 433.409 16.773C433.799 16.5737 434.228 16.474 434.696 16.474C435.147 16.474 435.563 16.5737 435.944 16.773C436.334 16.9637 436.642 17.2367 436.867 17.592C437.101 17.9473 437.218 18.3633 437.218 18.84C437.218 19.2907 437.11 19.685 436.893 20.023C436.685 20.3523 436.395 20.608 436.022 20.79C435.649 20.972 435.22 21.063 434.735 21.063ZM434.709 20.049C435.108 20.049 435.415 19.9277 435.632 19.685C435.849 19.4337 435.957 19.1303 435.957 18.775C435.957 18.3937 435.84 18.0903 435.606 17.865C435.381 17.631 435.082 17.514 434.709 17.514C434.319 17.514 434.007 17.631 433.773 17.865C433.539 18.099 433.422 18.398 433.422 18.762C433.422 19.126 433.535 19.4337 433.76 19.685C433.985 19.9277 434.302 20.049 434.709 20.049ZM436.802 17.839L435.879 17.228L437.283 16.097L437.92 16.89L436.802 17.839ZM441.165 23.117C440.688 23.117 440.277 23.0217 439.93 22.831C439.592 22.6317 439.332 22.35 439.15 21.986C438.977 21.6133 438.89 21.1627 438.89 20.634V16.591H440.164V20.231C440.164 20.6123 440.212 20.9373 440.307 21.206C440.402 21.466 440.55 21.6653 440.749 21.804C440.957 21.934 441.217 21.999 441.529 21.999C441.893 21.999 442.188 21.908 442.413 21.726C442.647 21.544 442.82 21.2753 442.933 20.92C443.046 20.556 443.102 20.1053 443.102 19.568V16.591H444.363V23H443.102V21.622L443.362 21.674C443.171 22.1507 442.881 22.5103 442.491 22.753C442.101 22.9957 441.659 23.117 441.165 23.117ZM448.312 23.117C447.861 23.117 447.462 23.052 447.116 22.922C446.769 22.7833 446.47 22.61 446.219 22.402C445.976 22.1853 445.781 21.9643 445.634 21.739L446.505 20.985C446.669 21.2797 446.903 21.5353 447.207 21.752C447.519 21.96 447.891 22.064 448.325 22.064C448.706 22.064 449.005 21.986 449.222 21.83C449.447 21.6653 449.56 21.453 449.56 21.193C449.56 20.985 449.49 20.8203 449.352 20.699C449.213 20.569 449.031 20.465 448.806 20.387C448.58 20.3003 448.333 20.2267 448.065 20.166C447.822 20.0967 447.575 20.0187 447.324 19.932C447.072 19.8453 446.843 19.737 446.635 19.607C446.435 19.4683 446.271 19.295 446.141 19.087C446.019 18.8703 445.959 18.606 445.959 18.294C445.959 17.748 446.167 17.3103 446.583 16.981C447.007 16.643 447.566 16.474 448.26 16.474C448.754 16.474 449.204 16.578 449.612 16.786C450.019 16.9853 450.335 17.2843 450.561 17.683L449.768 18.294C449.594 18.008 449.369 17.8 449.092 17.67C448.823 17.54 448.528 17.475 448.208 17.475C447.904 17.475 447.649 17.54 447.441 17.67C447.241 17.7913 447.142 17.9603 447.142 18.177C447.142 18.333 447.185 18.463 447.272 18.567C447.367 18.6623 447.51 18.749 447.701 18.827C447.9 18.8963 448.143 18.9657 448.429 19.035C448.697 19.0957 448.97 19.1693 449.248 19.256C449.525 19.3427 449.781 19.4553 450.015 19.594C450.249 19.7327 450.439 19.919 450.587 20.153C450.734 20.387 450.808 20.6903 450.808 21.063C450.808 21.4703 450.704 21.83 450.496 22.142C450.288 22.4453 449.997 22.6837 449.625 22.857C449.252 23.0303 448.814 23.117 448.312 23.117ZM454.509 23.117C454.197 23.117 453.906 23.0563 453.638 22.935C453.378 22.8137 453.17 22.6187 453.014 22.35C452.866 22.0727 452.793 21.7173 452.793 21.284V14.953L454.08 14.238V20.946C454.08 21.3013 454.132 21.5787 454.236 21.778C454.348 21.9687 454.552 22.064 454.847 22.064C454.933 22.064 455.033 22.0553 455.146 22.038C455.267 22.012 455.397 21.9817 455.536 21.947V22.935C455.362 22.9957 455.189 23.039 455.016 23.065C454.842 23.0997 454.673 23.117 454.509 23.117ZM451.519 17.579V16.591H455.536V17.579H451.519ZM463.041 23V15.746L463.431 16.383H460.701V15.369H462.209C462.486 15.369 462.694 15.3127 462.833 15.2C462.971 15.0787 463.041 14.8707 463.041 14.576V13.939H464.328V23H463.041ZM470.315 23V15.746L470.705 16.383H467.975V15.369H469.483C469.76 15.369 469.968 15.3127 470.107 15.2C470.246 15.0787 470.315 14.8707 470.315 14.576V13.939H471.602V23H470.315ZM477.017 23.117C476.705 23.117 476.415 23.0563 476.146 22.935C475.886 22.8137 475.678 22.6187 475.522 22.35C475.375 22.0727 475.301 21.7173 475.301 21.284V14.953L476.588 14.238V20.946C476.588 21.3013 476.64 21.5787 476.744 21.778C476.857 21.9687 477.061 22.064 477.355 22.064C477.442 22.064 477.542 22.0553 477.654 22.038C477.776 22.012 477.906 21.9817 478.044 21.947V22.935C477.871 22.9957 477.698 23.039 477.524 23.065C477.351 23.0997 477.182 23.117 477.017 23.117ZM474.027 17.579V16.591H478.044V17.579H474.027ZM479.364 23V13.939H480.651V17.982L480.378 18.073C480.491 17.7177 480.656 17.423 480.872 17.189C481.098 16.955 481.353 16.7773 481.639 16.656C481.934 16.5347 482.246 16.474 482.575 16.474C483.286 16.474 483.841 16.682 484.239 17.098C484.647 17.5053 484.85 18.1033 484.85 18.892V23H483.576V19.36C483.576 18.7447 483.464 18.294 483.238 18.008C483.022 17.722 482.684 17.579 482.224 17.579C481.713 17.579 481.323 17.761 481.054 18.125C480.786 18.4803 480.651 19.0523 480.651 19.841V23H479.364Z" fill="#FF5D1A"/>
<path d="M228.585 130.17C224.085 130.17 220.065 129.54 216.525 128.28C212.985 126.96 209.985 125.04 207.525 122.52C205.065 119.94 203.175 116.76 201.855 112.98C200.535 109.2 199.875 104.88 199.875 100.02C199.875 94.98 200.535 90.51 201.855 86.61C203.235 82.71 205.155 79.41 207.615 76.71C210.075 73.95 213.015 71.88 216.435 70.5C219.855 69.12 223.665 68.43 227.865 68.43C231.105 68.43 234.105 68.85 236.865 69.69C239.625 70.53 241.995 71.79 243.975 73.47C246.015 75.09 247.605 77.07 248.745 79.41C249.885 81.69 250.485 84.3 250.545 87.24L239.925 90.03C239.985 87.33 239.415 85.08 238.215 83.28C237.015 81.48 235.455 80.13 233.535 79.23C231.675 78.33 229.665 77.88 227.505 77.88C225.585 77.88 223.665 78.27 221.745 79.05C219.885 79.83 218.205 81.06 216.705 82.74C215.205 84.42 214.005 86.64 213.105 89.4C212.205 92.1 211.755 95.43 211.755 99.39C211.755 104.43 212.475 108.51 213.915 111.63C215.415 114.75 217.455 117.06 220.035 118.56C222.675 120 225.645 120.72 228.945 120.72C232.305 120.72 234.975 120.06 236.955 118.74C238.935 117.36 240.375 115.56 241.275 113.34C242.175 111.06 242.685 108.6 242.805 105.96L252.795 107.67C252.735 110.79 252.255 113.73 251.355 116.49C250.455 119.25 249.045 121.65 247.125 123.69C245.265 125.73 242.805 127.32 239.745 128.46C236.685 129.6 232.965 130.17 228.585 130.17ZM280.407 130.17C275.787 130.17 271.707 129.24 268.167 127.38C264.627 125.46 261.837 122.67 259.797 119.01C257.817 115.29 256.827 110.73 256.827 105.33C256.827 99.81 257.847 95.25 259.887 91.65C261.987 87.99 264.807 85.26 268.347 83.46C271.887 81.66 275.877 80.76 280.317 80.76C284.937 80.76 289.017 81.69 292.557 83.55C296.097 85.41 298.887 88.2 300.927 91.92C302.967 95.58 303.987 100.14 303.987 105.6C303.987 111.12 302.967 115.71 300.927 119.37C298.887 123.03 296.067 125.76 292.467 127.56C288.927 129.3 284.907 130.17 280.407 130.17ZM280.857 121.53C283.377 121.53 285.507 120.96 287.247 119.82C288.987 118.62 290.307 116.85 291.207 114.51C292.167 112.17 292.647 109.38 292.647 106.14C292.647 102.72 292.137 99.81 291.117 97.41C290.157 94.95 288.747 93.06 286.887 91.74C285.087 90.42 282.807 89.76 280.047 89.76C277.647 89.76 275.547 90.36 273.747 91.56C271.947 92.7 270.567 94.41 269.607 96.69C268.707 98.97 268.257 101.79 268.257 105.15C268.257 110.43 269.367 114.48 271.587 117.3C273.867 120.12 276.957 121.53 280.857 121.53ZM311.495 129V99.75V65.1H322.925V79.77C322.925 81.03 322.865 82.32 322.745 83.64C322.685 84.96 322.565 86.31 322.385 87.69C322.205 89.07 321.995 90.45 321.755 91.83C321.575 93.21 321.365 94.59 321.125 95.97H323.015C323.855 92.73 324.935 90 326.255 87.78C327.575 85.5 329.255 83.76 331.295 82.56C333.395 81.36 335.945 80.76 338.945 80.76C344.405 80.76 348.485 82.68 351.185 86.52C353.885 90.3 355.235 96.06 355.235 103.8V129H343.805V105.42C343.805 100.26 343.025 96.45 341.465 93.99C339.965 91.53 337.685 90.3 334.625 90.3C332.105 90.3 330.005 91.08 328.325 92.64C326.645 94.14 325.355 96.15 324.455 98.67C323.555 101.19 323.015 104.04 322.835 107.22V129H311.495ZM385.398 130.17C380.778 130.17 376.698 129.24 373.158 127.38C369.618 125.46 366.828 122.67 364.788 119.01C362.808 115.29 361.818 110.73 361.818 105.33C361.818 99.81 362.838 95.25 364.878 91.65C366.978 87.99 369.798 85.26 373.338 83.46C376.878 81.66 380.868 80.76 385.308 80.76C389.928 80.76 394.008 81.69 397.548 83.55C401.088 85.41 403.878 88.2 405.918 91.92C407.958 95.58 408.978 100.14 408.978 105.6C408.978 111.12 407.958 115.71 405.918 119.37C403.878 123.03 401.058 125.76 397.458 127.56C393.918 129.3 389.898 130.17 385.398 130.17ZM385.848 121.53C388.368 121.53 390.498 120.96 392.238 119.82C393.978 118.62 395.298 116.85 396.198 114.51C397.158 112.17 397.638 109.38 397.638 106.14C397.638 102.72 397.128 99.81 396.108 97.41C395.148 94.95 393.738 93.06 391.878 91.74C390.078 90.42 387.798 89.76 385.038 89.76C382.638 89.76 380.538 90.36 378.738 91.56C376.938 92.7 375.558 94.41 374.598 96.69C373.698 98.97 373.248 101.79 373.248 105.15C373.248 110.43 374.358 114.48 376.578 117.3C378.858 120.12 381.948 121.53 385.848 121.53ZM416.486 129V105.42V81.93H426.026L425.846 98.13H427.466C428.006 94.29 428.846 91.11 429.986 88.59C431.126 86.01 432.716 84.09 434.756 82.83C436.796 81.51 439.316 80.85 442.316 80.85C442.916 80.85 443.546 80.88 444.206 80.94C444.926 81 445.706 81.15 446.546 81.39L446.096 93.36C445.136 93 444.146 92.76 443.126 92.64C442.166 92.46 441.266 92.37 440.426 92.37C438.086 92.37 436.046 92.97 434.306 94.17C432.626 95.37 431.246 97.08 430.166 99.3C429.146 101.46 428.366 104.04 427.826 107.04V129H416.486ZM470.158 130.08C465.178 130.08 461.518 128.76 459.178 126.12C456.838 123.42 455.668 119.25 455.668 113.61V91.02H448.738L448.918 82.02H453.508C455.248 82.02 456.538 81.75 457.378 81.21C458.218 80.67 458.728 79.71 458.908 78.33L459.988 71.49H466.558V81.93H478.978V91.38H466.558V113.16C466.558 115.38 467.068 117 468.088 118.02C469.168 119.04 470.758 119.55 472.858 119.55C473.998 119.55 475.108 119.43 476.188 119.19C477.328 118.89 478.378 118.41 479.338 117.75V128.55C477.478 129.15 475.768 129.54 474.208 129.72C472.708 129.96 471.358 130.08 470.158 130.08ZM502.374 129V116.94L524.784 101.46C525.924 100.62 527.094 99.72 528.294 98.76C529.494 97.74 530.604 96.6 531.624 95.34C532.644 94.08 533.484 92.73 534.144 91.29C534.804 89.79 535.134 88.2 535.134 86.52C535.134 84.72 534.714 83.19 533.874 81.93C533.094 80.67 531.924 79.68 530.364 78.96C528.864 78.24 527.004 77.88 524.784 77.88C522.804 77.88 521.094 78.18 519.654 78.78C518.274 79.38 517.104 80.28 516.144 81.48C515.244 82.62 514.584 84.06 514.164 85.8C513.744 87.54 513.534 89.55 513.534 91.83L502.644 89.67C502.524 85.29 503.304 81.51 504.984 78.33C506.724 75.09 509.274 72.6 512.634 70.86C515.994 69.06 520.104 68.16 524.964 68.16C529.224 68.16 532.944 68.85 536.124 70.23C539.364 71.61 541.884 73.59 543.684 76.17C545.484 78.75 546.384 81.93 546.384 85.71C546.384 88.65 545.874 91.32 544.854 93.72C543.894 96.06 542.634 98.19 541.074 100.11C539.514 102.03 537.804 103.74 535.944 105.24C534.084 106.68 532.284 107.97 530.544 109.11L515.424 119.28V120L547.464 119.55V129H502.374ZM560.008 130.08C557.548 130.08 555.688 129.54 554.428 128.46C553.168 127.38 552.538 125.7 552.538 123.42C552.538 121.08 553.168 119.37 554.428 118.29C555.688 117.21 557.548 116.67 560.008 116.67C562.588 116.67 564.508 117.21 565.768 118.29C567.088 119.37 567.748 121.08 567.748 123.42C567.748 127.86 565.168 130.08 560.008 130.08ZM595.659 130.26C591.939 130.26 588.549 129.57 585.489 128.19C582.429 126.75 579.789 124.74 577.569 122.16C575.409 119.52 573.729 116.31 572.529 112.53C571.389 108.69 570.819 104.37 570.819 99.57C570.819 92.85 571.899 87.18 574.059 82.56C576.279 77.94 579.279 74.43 583.059 72.03C586.839 69.63 591.159 68.43 596.019 68.43C601.059 68.43 605.409 69.66 609.069 72.12C612.789 74.58 615.639 78.12 617.619 82.74C619.659 87.36 620.679 92.91 620.679 99.39C620.679 104.25 620.079 108.6 618.879 112.44C617.739 116.22 616.059 119.46 613.839 122.16C611.619 124.8 608.979 126.81 605.919 128.19C602.859 129.57 599.439 130.26 595.659 130.26ZM595.929 121.08C597.669 121.08 599.349 120.69 600.969 119.91C602.589 119.07 604.029 117.81 605.289 116.13C606.549 114.39 607.539 112.17 608.259 109.47C608.979 106.71 609.339 103.41 609.339 99.57C609.339 94.95 608.769 90.99 607.629 87.69C606.489 84.39 604.899 81.87 602.859 80.13C600.879 78.39 598.539 77.52 595.839 77.52C593.619 77.52 591.459 78.24 589.359 79.68C587.319 81.06 585.609 83.34 584.229 86.52C582.909 89.7 582.249 93.96 582.249 99.3C582.249 103.08 582.609 106.35 583.329 109.11C584.049 111.81 585.009 114.06 586.209 115.86C587.469 117.6 588.909 118.92 590.529 119.82C592.209 120.66 594.009 121.08 595.929 121.08Z" fill="#FF5D1A"/>
<path d="M133.237 185.65C134.987 185.44 135.967 185.055 136.317 183.865L143.317 160.975H141.917C138.067 160.975 136.177 162.375 133.902 166.855H133.552L136.352 160.52H152.697L151.612 166.855H151.227C151.682 162.41 150.807 160.975 146.852 160.975H145.417L138.487 183.69C138.067 185.055 138.767 185.475 140.482 185.65L140.412 186H133.167L133.237 185.65ZM155.211 161.64C155.491 160.66 155.141 160.275 153.461 160.31L153.531 159.96L157.661 158.7L157.941 158.91L150.941 181.8C156.121 170.95 160.181 168.15 162.351 168.15C163.506 168.15 164.136 168.885 163.086 171.86L159.411 182.115C158.046 185.895 159.551 185.755 162.491 181.765L162.876 182.01C160.846 185.02 158.956 186.35 157.836 186.35C156.786 186.35 156.296 185.545 157.311 182.745L160.741 173.12C161.686 170.39 161.476 169.795 160.741 169.795C158.676 169.795 154.406 174.415 149.646 186H147.756L155.211 161.64ZM168.22 186.35C165.105 186.35 163.6 183.095 165.42 177.355C166.89 172.63 170.075 168.15 174.24 168.15C176.76 168.15 178.09 169.69 177.39 172.035C176.62 174.59 173.47 177.075 167.45 177.145C165.84 182.29 166.995 185.125 169.13 185.125C170.74 185.125 173.155 183.865 175.15 180.925L175.5 181.17C173.365 184.67 170.285 186.35 168.22 186.35ZM167.59 176.725C171.615 176.62 174.66 174.87 175.57 172.105C176.235 170.04 175.745 168.57 173.96 168.57C171.86 168.57 169.445 171.23 167.59 176.725ZM182.135 185.65C183.955 185.44 184.83 185.02 185.25 183.655L191.62 162.83C192.005 161.535 191.41 161.08 189.695 160.87L189.8 160.52H197.045L196.94 160.87C195.12 161.045 194.14 161.5 193.72 162.83L187.35 183.655C186.93 185.055 187.665 185.545 189.415 185.545H190.71C195.75 185.545 197.815 184.495 199.95 179.56H200.335L197.675 186H182.03L182.135 185.65ZM203.839 186.35C202.369 186.35 201.354 185.055 201.354 182.675C201.354 176.025 206.849 168.15 212.834 168.15C213.814 168.15 215.074 168.325 216.404 168.85L212.379 182.115C211.189 186.14 212.659 185.545 215.494 181.765L215.879 182.01C213.814 185.02 211.994 186.35 210.839 186.35C209.789 186.35 209.474 185.51 210.279 182.745L211.539 178.65C208.949 184.18 205.869 186.35 203.839 186.35ZM203.419 182.185C203.419 184.18 204.084 185.02 205.029 185.02C207.024 185.02 210.629 181.45 213.254 173.015L213.394 172.525L214.374 169.34C213.849 168.85 213.219 168.57 212.449 168.57C208.564 168.57 203.419 176.27 203.419 182.185ZM219.741 186.35C218.586 186.35 217.781 185.65 218.901 182.22L222.156 172.385C223.486 168.325 221.736 169.025 219.041 172.735L218.656 172.49C220.686 169.48 222.541 168.15 223.696 168.15C224.816 168.15 225.131 169.06 224.256 171.755L221.246 180.96C220.231 184.075 220.581 184.705 221.351 184.705C223.276 184.705 226.916 180.365 231.781 168.5H233.706L229.436 182.43C228.421 185.685 229.611 185.86 232.656 181.765L233.006 182.01C230.976 185.02 229.121 186.35 228.001 186.35C226.951 186.35 226.566 185.58 227.336 183.06L230.451 172.84C225.726 182.955 222.296 186.35 219.741 186.35ZM239.419 172.07C240.504 168.57 238.999 168.885 236.199 172.735L235.814 172.49C237.844 169.48 239.699 168.15 240.819 168.15C241.974 168.15 242.254 169.025 241.519 171.44L238.369 181.765C243.514 170.95 247.609 168.15 249.779 168.15C250.899 168.15 251.564 168.885 250.339 172.28L246.839 182.115C245.474 185.93 246.979 185.72 249.919 181.765L250.304 182.01C248.274 185.02 246.419 186.35 245.229 186.35C244.214 186.35 243.689 185.545 244.704 182.745L247.994 173.54C249.114 170.39 248.869 169.795 248.169 169.795C246.069 169.795 241.799 174.415 237.074 186H235.149L239.419 172.07ZM255.653 186.35C252.293 186.35 251.138 182.71 252.818 177.39C254.568 171.86 257.893 168.15 261.498 168.15C263.948 168.15 265.488 169.9 264.998 171.335C264.753 172.035 264.263 172.49 263.633 172.49C261.883 172.49 263.913 168.57 261.183 168.57C259.083 168.57 256.668 171.545 254.953 176.795C253.028 182.78 254.498 185.125 256.633 185.125C258.103 185.125 260.308 184.18 262.618 180.925L263.003 181.17C260.378 185.16 257.508 186.35 255.653 186.35ZM271.798 161.64C272.078 160.66 271.728 160.275 270.048 160.31L270.118 159.96L274.248 158.7L274.528 158.91L267.528 181.8C272.708 170.95 276.768 168.15 278.938 168.15C280.093 168.15 280.723 168.885 279.673 171.86L275.998 182.115C274.633 185.895 276.138 185.755 279.078 181.765L279.463 182.01C277.433 185.02 275.543 186.35 274.423 186.35C273.373 186.35 272.883 185.545 273.898 182.745L277.328 173.12C278.273 170.39 278.063 169.795 277.328 169.795C275.263 169.795 270.993 174.415 266.233 186H264.343L271.798 161.64ZM277.296 192.755C278.801 192.545 279.816 191.74 280.166 190.55L285.661 172.385C286.956 168.185 285.206 169.13 282.581 172.735L282.196 172.49C284.226 169.48 286.081 168.15 287.201 168.15C288.356 168.15 288.566 169.025 287.761 171.755L286.571 175.64C289.126 170.285 292.136 168.15 294.166 168.15C295.811 168.15 296.721 169.27 296.721 171.685C296.721 178.72 291.261 186.35 285.171 186.35C284.611 186.35 283.981 186.28 283.351 186.175L281.986 190.585C281.601 191.81 282.231 192.58 283.596 192.755L283.491 193.175H277.191L277.296 192.755ZM283.666 185.16C284.156 185.685 284.786 185.93 285.521 185.93C289.406 185.93 294.691 178.615 294.691 172.14C294.691 170.18 294.096 169.515 293.151 169.515C291.121 169.515 287.796 172.665 285.241 179.98L283.666 185.16ZM299.234 186.35C297.764 186.35 296.749 185.055 296.749 182.675C296.749 176.025 302.244 168.15 308.229 168.15C309.209 168.15 310.469 168.325 311.799 168.85L307.774 182.115C306.584 186.14 308.054 185.545 310.889 181.765L311.274 182.01C309.209 185.02 307.389 186.35 306.234 186.35C305.184 186.35 304.869 185.51 305.674 182.745L306.934 178.65C304.344 184.18 301.264 186.35 299.234 186.35ZM298.814 182.185C298.814 184.18 299.479 185.02 300.424 185.02C302.419 185.02 306.024 181.45 308.649 173.015L308.789 172.525L309.769 169.34C309.244 168.85 308.614 168.57 307.844 168.57C303.959 168.57 298.814 176.27 298.814 182.185ZM315.229 186.35C313.584 186.35 312.744 185.23 312.744 182.92C312.744 176.025 318.239 168.15 324.224 168.15C324.749 168.15 325.379 168.22 326.079 168.325L328.109 161.64C328.424 160.66 328.039 160.275 326.359 160.31L326.464 159.96L330.594 158.7L330.839 158.91L323.769 182.115C322.544 186.105 324.014 185.58 326.849 181.765L327.234 182.01C325.204 185.02 323.349 186.35 322.229 186.35C321.179 186.35 320.829 185.58 321.669 182.745L322.894 178.685C320.304 184.18 317.259 186.35 315.229 186.35ZM314.809 182.43C314.809 184.32 315.369 184.95 316.314 184.95C318.309 184.95 321.809 181.695 324.434 173.715L325.764 169.305C325.239 168.815 324.574 168.57 323.839 168.57C319.919 168.57 314.809 176.27 314.809 182.43ZM328.03 193.63C326.91 193.63 326.245 193.035 326.385 192.265C326.525 191.53 327.19 190.935 327.96 190.935C329.115 190.935 328.905 192.16 330.165 192.16C331.81 192.16 333.91 190.585 336.01 183.725L340.455 169.095H338.845L338.95 168.745L340.595 168.675L340.735 168.185C342.52 162.305 347.665 158.735 350.43 158.735C351.55 158.735 352.25 159.33 352.11 160.1C351.97 160.835 351.27 161.43 350.5 161.43C349.345 161.43 349.555 160.205 348.295 160.205C346.65 160.205 344.585 161.78 343.15 166.435L342.52 168.535C343.675 168.5 345.355 168.465 346.16 168.465L345.915 169.165C345.32 169.165 343.605 169.095 342.345 169.06L338.495 181.765C335.94 190.06 330.795 193.63 328.03 193.63ZM348.022 186.35C344.382 186.315 342.912 182.955 344.417 177.67C346.132 171.79 349.737 168.115 353.797 168.15C357.402 168.185 358.802 171.58 357.262 176.935C355.617 182.71 352.012 186.385 348.022 186.35ZM346.587 177.285C345.047 182.605 345.852 185.895 348.442 185.895C351.032 185.895 353.517 182.675 355.092 177.32C356.702 171.93 356.002 168.605 353.447 168.57C350.752 168.57 348.162 171.825 346.587 177.285ZM363.149 172.07C364.234 168.535 362.729 168.92 359.964 172.735L359.579 172.49C361.609 169.48 363.464 168.15 364.584 168.15C365.739 168.15 365.984 169.025 365.249 171.44L363.079 178.51C366.299 170.565 368.434 168.115 370.954 168.115C371.969 168.115 372.564 168.745 372.319 169.55C372.144 170.215 371.549 170.67 370.884 170.67C370.044 170.67 369.939 169.865 369.029 169.865C367.804 169.865 365.774 172 360.804 186H358.879L363.149 172.07ZM374.908 185.65C376.728 185.44 377.638 185.02 378.023 183.69L384.393 162.83C384.813 161.5 384.183 161.08 382.503 160.87L382.573 160.52H389.853L389.783 160.87C387.963 161.045 386.948 161.43 386.563 162.725L380.158 183.76C379.738 185.055 380.473 185.475 382.188 185.65L382.083 186H374.803L374.908 185.65ZM390.152 172.07C391.237 168.57 389.732 168.885 386.932 172.735L386.547 172.49C388.577 169.48 390.432 168.15 391.552 168.15C392.707 168.15 392.987 169.025 392.252 171.44L389.102 181.765C394.247 170.95 398.342 168.15 400.512 168.15C401.632 168.15 402.297 168.885 401.072 172.28L397.572 182.115C396.207 185.93 397.712 185.72 400.652 181.765L401.037 182.01C399.007 185.02 397.152 186.35 395.962 186.35C394.947 186.35 394.422 185.545 395.437 182.745L398.727 173.54C399.847 170.39 399.602 169.795 398.902 169.795C396.802 169.795 392.532 174.415 387.807 186H385.882L390.152 172.07ZM407.583 172.07C408.668 168.57 407.163 168.885 404.363 172.735L403.978 172.49C406.008 169.48 407.863 168.15 408.983 168.15C410.138 168.15 410.418 169.025 409.683 171.44L406.533 181.765C411.678 170.95 415.773 168.15 417.943 168.15C419.063 168.15 419.728 168.885 418.503 172.28L415.003 182.115C413.638 185.93 415.143 185.72 418.083 181.765L418.468 182.01C416.438 185.02 414.583 186.35 413.393 186.35C412.378 186.35 411.853 185.545 412.868 182.745L416.158 173.54C417.278 170.39 417.033 169.795 416.333 169.795C414.233 169.795 409.963 174.415 405.238 186H403.313L407.583 172.07ZM424.482 186.35C420.842 186.315 419.372 182.955 420.877 177.67C422.592 171.79 426.197 168.115 430.257 168.15C433.862 168.185 435.262 171.58 433.722 176.935C432.077 182.71 428.472 186.385 424.482 186.35ZM423.047 177.285C421.507 182.605 422.312 185.895 424.902 185.895C427.492 185.895 429.977 182.675 431.552 177.32C433.162 171.93 432.462 168.605 429.907 168.57C427.212 168.57 424.622 171.825 423.047 177.285ZM437.447 186.35C435.557 186.35 435.207 184.705 436.117 181.905L439.162 172.385C440.457 168.325 438.777 169.025 436.082 172.735L435.697 172.49C437.727 169.48 439.582 168.15 440.702 168.15C441.927 168.15 442.067 169.165 441.262 171.755L438.147 181.625C437.342 184.215 437.552 185.3 438.742 185.3C442.522 185.3 447.702 176.34 447.702 172.21C447.702 170.285 445.462 170.95 445.462 169.34C445.462 168.64 446.057 168.15 446.722 168.15C447.772 168.15 448.577 169.27 448.577 170.88C448.577 175.255 443.502 186.35 437.447 186.35ZM450.787 186.35C449.317 186.35 448.302 185.055 448.302 182.675C448.302 176.025 453.797 168.15 459.782 168.15C460.762 168.15 462.022 168.325 463.352 168.85L459.327 182.115C458.137 186.14 459.607 185.545 462.442 181.765L462.827 182.01C460.762 185.02 458.942 186.35 457.787 186.35C456.737 186.35 456.422 185.51 457.227 182.745L458.487 178.65C455.897 184.18 452.817 186.35 450.787 186.35ZM450.367 182.185C450.367 184.18 451.032 185.02 451.977 185.02C453.972 185.02 457.577 181.45 460.202 173.015L460.342 172.525L461.322 169.34C460.797 168.85 460.167 168.57 459.397 168.57C455.512 168.57 450.367 176.27 450.367 182.185ZM466.09 186.35C464.795 186.35 463.885 185.265 464.83 182.465L469.17 169.025H467.56L467.665 168.71C469.31 168.045 470.675 166.715 472.215 163.985L472.53 164.09L471.165 168.535C472.18 168.535 473.72 168.465 474.7 168.465L474.49 169.13C473.755 169.13 472.145 168.99 471.025 168.99L466.93 181.8C465.635 185.895 468.155 186.175 471.27 181.835L471.655 182.08C469.66 185.02 467.7 186.35 466.09 186.35ZM475.25 186.35C474.235 186.35 473.78 185.51 474.76 182.745L478.505 172.21C479.835 168.465 478.155 168.815 475.355 172.735L474.97 172.49C476.965 169.48 478.96 168.15 480.115 168.15C481.13 168.15 481.55 168.99 480.57 171.755L476.825 182.29C475.495 186 477.21 185.65 480.01 181.765L480.395 182.01C478.365 185.02 476.405 186.35 475.25 186.35ZM480.255 163.25C480.5 162.305 481.41 161.535 482.18 161.535C482.985 161.535 483.44 162.34 483.16 163.25C482.915 164.195 482.04 164.965 481.235 164.965C480.465 164.965 479.975 164.16 480.255 163.25ZM484.752 186.35C482.862 186.35 482.512 184.705 483.422 181.905L486.467 172.385C487.762 168.325 486.082 169.025 483.387 172.735L483.002 172.49C485.032 169.48 486.887 168.15 488.007 168.15C489.232 168.15 489.372 169.165 488.567 171.755L485.452 181.625C484.647 184.215 484.857 185.3 486.047 185.3C489.827 185.3 495.007 176.34 495.007 172.21C495.007 170.285 492.767 170.95 492.767 169.34C492.767 168.64 493.362 168.15 494.027 168.15C495.077 168.15 495.882 169.27 495.882 170.88C495.882 175.255 490.807 186.35 484.752 186.35ZM499.524 186.35C496.409 186.35 494.904 183.095 496.724 177.355C498.194 172.63 501.379 168.15 505.544 168.15C508.064 168.15 509.394 169.69 508.694 172.035C507.924 174.59 504.774 177.075 498.754 177.145C497.144 182.29 498.299 185.125 500.434 185.125C502.044 185.125 504.459 183.865 506.454 180.925L506.804 181.17C504.669 184.67 501.589 186.35 499.524 186.35ZM498.894 176.725C502.919 176.62 505.964 174.87 506.874 172.105C507.539 170.04 507.049 168.57 505.264 168.57C503.164 168.57 500.749 171.23 498.894 176.725ZM526.493 185.65C528.313 185.44 529.188 185.02 529.608 183.69L532.933 172.805H522.013L518.653 183.76C518.233 185.055 518.968 185.475 520.683 185.65L520.578 186H513.333L513.438 185.65C515.258 185.44 516.168 185.02 516.588 183.69L522.958 162.83C523.343 161.5 522.713 161.08 521.033 160.87L521.138 160.52H528.383L528.278 160.87C526.458 161.045 525.478 161.43 525.093 162.725L522.153 172.28H533.108L535.978 162.83C536.398 161.5 535.733 161.08 534.053 160.87L534.158 160.52H541.403L541.298 160.87C539.513 161.045 538.498 161.43 538.078 162.725L531.673 183.76C531.288 185.055 532.023 185.475 533.738 185.65L533.598 186H526.353L526.493 185.65ZM538.687 186.35C537.672 186.35 537.217 185.51 538.197 182.745L541.942 172.21C543.272 168.465 541.592 168.815 538.792 172.735L538.407 172.49C540.402 169.48 542.397 168.15 543.552 168.15C544.567 168.15 544.987 168.99 544.007 171.755L540.262 182.29C538.932 186 540.647 185.65 543.447 181.765L543.832 182.01C541.802 185.02 539.842 186.35 538.687 186.35ZM543.692 163.25C543.937 162.305 544.847 161.535 545.617 161.535C546.422 161.535 546.877 162.34 546.597 163.25C546.352 164.195 545.477 164.965 544.672 164.965C543.902 164.965 543.412 164.16 543.692 163.25ZM546.248 193.945C542.608 193.91 541.488 191.6 542.223 189.08C542.713 187.47 544.008 185.93 546.423 184.53L545.548 182.115C545.408 181.695 545.408 181.52 545.828 181.275C546.493 180.925 548.383 180.19 549.678 179.84C547.403 179.21 546.493 176.97 547.298 174.1C548.348 170.46 551.218 168.15 554.473 168.15C556.608 168.15 557.343 168.815 558.883 168.815C559.583 168.815 560.633 168.745 561.543 168.745L561.368 169.41C560.108 169.34 559.093 169.305 557.973 169.305C559.128 170.425 559.163 172.28 558.673 173.89C557.623 177.53 554.753 180.05 551.183 180.05H551.078C549.433 180.05 547.333 181.03 547.158 181.765C546.388 184.285 558.358 178.825 556.328 186.91C555.453 190.445 550.763 193.98 546.248 193.945ZM544.218 188.415C543.378 191.25 544.883 193 547.508 193.035C550.903 193.07 554.053 190.9 554.823 187.89C556.048 182.99 550.553 184.04 546.983 184.53C545.548 185.44 544.708 186.735 544.218 188.415ZM549.468 173.855C548.418 177.425 549.153 179.665 551.533 179.665C553.633 179.665 555.523 177.53 556.503 174.135C557.518 170.67 556.853 168.535 554.438 168.535C552.233 168.535 550.448 170.565 549.468 173.855ZM566.427 161.64C566.707 160.66 566.357 160.275 564.677 160.31L564.747 159.96L568.877 158.7L569.157 158.91L562.157 181.8C567.337 170.95 571.397 168.15 573.567 168.15C574.722 168.15 575.352 168.885 574.302 171.86L570.627 182.115C569.262 185.895 570.767 185.755 573.707 181.765L574.092 182.01C572.062 185.02 570.172 186.35 569.052 186.35C568.002 186.35 567.512 185.545 568.527 182.745L571.957 173.12C572.902 170.39 572.692 169.795 571.957 169.795C569.892 169.795 565.622 174.415 560.862 186H558.972L566.427 161.64ZM577.651 172.875L578.001 171.825H586.891L586.541 172.875H577.651ZM590.388 186.35C587.448 186.35 585.803 184.565 585.803 181.905C585.803 179.7 586.958 178.615 587.938 178.615C588.323 178.615 588.638 178.755 588.848 178.965L595.848 170.845C595.918 170.355 595.988 169.865 596.093 169.34L598.228 168.08L598.683 168.36C597.633 170.285 597.318 171.895 597.353 176.97C597.388 183.13 594.728 186.35 590.388 186.35ZM587.063 182.955C587.063 184.635 588.253 185.93 590.248 185.93C593.013 185.93 595.253 183.165 595.428 178.72C595.568 175.535 595.533 173.68 595.743 171.65L589.093 179.385C589.128 179.49 589.163 179.665 589.163 179.805C589.163 181.345 587.063 181.52 587.063 182.955ZM603.089 186.35C599.729 186.35 598.574 182.71 600.254 177.39C602.004 171.86 605.329 168.15 608.934 168.15C611.384 168.15 612.924 169.9 612.434 171.335C612.189 172.035 611.699 172.49 611.069 172.49C609.319 172.49 611.349 168.57 608.619 168.57C606.519 168.57 604.104 171.545 602.389 176.795C600.464 182.78 601.934 185.125 604.069 185.125C605.539 185.125 607.744 184.18 610.054 180.925L610.439 181.17C607.814 185.16 604.944 186.35 603.089 186.35ZM619.234 161.64C619.514 160.66 619.164 160.275 617.484 160.31L617.554 159.96L621.684 158.7L621.964 158.91L614.964 181.8C620.144 170.95 624.204 168.15 626.374 168.15C627.529 168.15 628.159 168.885 627.109 171.86L623.434 182.115C622.069 185.895 623.574 185.755 626.514 181.765L626.899 182.01C624.869 185.02 622.979 186.35 621.859 186.35C620.809 186.35 620.319 185.545 621.334 182.745L624.764 173.12C625.709 170.39 625.499 169.795 624.764 169.795C622.699 169.795 618.429 174.415 613.669 186H611.779L619.234 161.64ZM632.944 186.35C629.304 186.315 627.834 182.955 629.339 177.67C631.054 171.79 634.659 168.115 638.719 168.15C642.324 168.185 643.724 171.58 642.184 176.935C640.539 182.71 636.934 186.385 632.944 186.35ZM631.509 177.285C629.969 182.605 630.774 185.895 633.364 185.895C635.954 185.895 638.439 182.675 640.014 177.32C641.624 171.93 640.924 168.605 638.369 168.57C635.674 168.57 633.084 171.825 631.509 177.285ZM647.812 186.35C644.172 186.315 642.702 182.955 644.207 177.67C645.922 171.79 649.527 168.115 653.587 168.15C657.192 168.185 658.592 171.58 657.052 176.935C655.407 182.71 651.802 186.385 647.812 186.35ZM646.377 177.285C644.837 182.605 645.642 185.895 648.232 185.895C650.822 185.895 653.307 182.675 654.882 177.32C656.492 171.93 655.792 168.605 653.237 168.57C650.542 168.57 647.952 171.825 646.377 177.285ZM658.847 186.35C657.832 186.35 657.447 185.58 658.322 182.745L664.762 161.64C665.042 160.66 664.692 160.275 663.012 160.31L663.082 159.96L667.212 158.7L667.492 158.91L660.387 182.115C659.197 186.105 660.667 185.58 663.502 181.765L663.887 182.01C661.822 185.02 660.002 186.35 658.847 186.35ZM668.714 186.35C665.599 186.35 664.094 183.095 665.914 177.355C667.384 172.63 670.569 168.15 674.734 168.15C677.254 168.15 678.584 169.69 677.884 172.035C677.114 174.59 673.964 177.075 667.944 177.145C666.334 182.29 667.489 185.125 669.624 185.125C671.234 185.125 673.649 183.865 675.644 180.925L675.994 181.17C673.859 184.67 670.779 186.35 668.714 186.35ZM668.084 176.725C672.109 176.62 675.154 174.87 676.064 172.105C676.729 170.04 676.239 168.57 674.454 168.57C672.354 168.57 669.939 171.23 668.084 176.725ZM682.968 172.07C684.053 168.535 682.548 168.92 679.783 172.735L679.398 172.49C681.428 169.48 683.283 168.15 684.403 168.15C685.558 168.15 685.803 169.025 685.068 171.44L682.898 178.51C686.118 170.565 688.253 168.115 690.773 168.115C691.788 168.115 692.383 168.745 692.138 169.55C691.963 170.215 691.368 170.67 690.703 170.67C689.863 170.67 689.758 169.865 688.848 169.865C687.623 169.865 685.593 172 680.623 186H678.698L682.968 172.07ZM692.176 186.35C689.236 186.35 687.591 184.565 687.591 181.905C687.591 179.7 688.746 178.615 689.726 178.615C690.111 178.615 690.426 178.755 690.636 178.965L697.636 170.845C697.706 170.355 697.776 169.865 697.881 169.34L700.016 168.08L700.471 168.36C699.421 170.285 699.106 171.895 699.141 176.97C699.176 183.13 696.516 186.35 692.176 186.35ZM688.851 182.955C688.851 184.635 690.041 185.93 692.036 185.93C694.801 185.93 697.041 183.165 697.216 178.72C697.356 175.535 697.321 173.68 697.531 171.65L690.881 179.385C690.916 179.49 690.951 179.665 690.951 179.805C690.951 181.345 688.851 181.52 688.851 182.955ZM700.816 186.455C700.011 186.455 699.556 185.65 699.801 184.705C700.081 183.69 700.956 182.92 701.796 182.92C702.601 182.955 703.056 183.725 702.776 184.705C702.531 185.685 701.656 186.455 700.816 186.455Z" fill="black"/>
</svg>
