<svg width="676" height="244" viewBox="0 0 676 244" fill="none" xmlns="http://www.w3.org/2000/svg">
<circle cx="77.1623" cy="76.7488" r="10.4944" fill="#FF5D1A"/>
<circle cx="594.119" cy="154.748" r="10.4944" fill="#FF5D1A"/>
<rect x="230.754" y="198.247" width="213.524" height="44.9993" fill="#FF5D1A"/>
<path d="M295.703 227.507C294.383 227.507 293.303 227.107 292.463 226.307C291.636 225.507 291.176 224.407 291.083 223.007L293.083 222.787C293.149 223.774 293.409 224.494 293.863 224.947C294.316 225.4 294.929 225.627 295.703 225.627C296.596 225.627 297.236 225.334 297.623 224.747C298.023 224.147 298.223 223.307 298.223 222.227V215.127H292.803V213.307H300.263V222.347C300.263 223.414 300.076 224.334 299.703 225.107C299.343 225.88 298.823 226.474 298.143 226.887C297.463 227.3 296.649 227.507 295.703 227.507ZM307.378 227.427C306.444 227.427 305.611 227.207 304.878 226.767C304.144 226.327 303.564 225.72 303.138 224.947C302.724 224.174 302.518 223.294 302.518 222.307C302.518 221.32 302.724 220.447 303.138 219.687C303.551 218.914 304.124 218.307 304.858 217.867C305.604 217.427 306.444 217.207 307.378 217.207C308.324 217.207 309.158 217.427 309.878 217.867C310.598 218.307 311.164 218.914 311.578 219.687C312.004 220.447 312.218 221.32 312.218 222.307C312.218 223.294 312.004 224.174 311.578 224.947C311.164 225.707 310.591 226.314 309.858 226.767C309.138 227.207 308.311 227.427 307.378 227.427ZM307.378 225.687C307.964 225.687 308.471 225.547 308.898 225.267C309.338 224.987 309.671 224.594 309.898 224.087C310.138 223.58 310.258 222.987 310.258 222.307C310.258 221.614 310.138 221.014 309.898 220.507C309.671 220 309.338 219.614 308.898 219.347C308.471 219.067 307.964 218.927 307.378 218.927C306.778 218.927 306.258 219.067 305.818 219.347C305.391 219.627 305.058 220.02 304.818 220.527C304.591 221.02 304.478 221.614 304.478 222.307C304.478 222.987 304.591 223.58 304.818 224.087C305.058 224.594 305.391 224.987 305.818 225.267C306.258 225.547 306.778 225.687 307.378 225.687ZM314.461 227.247V217.387H316.421V227.247H314.461ZM314.321 215.687V213.307H316.541V215.687H314.321ZM319.13 227.247V217.387H321.11V219.527L320.71 219.647C320.883 219.1 321.13 218.654 321.45 218.307C321.783 217.947 322.17 217.674 322.61 217.487C323.063 217.3 323.55 217.207 324.07 217.207C325.163 217.207 326.017 217.527 326.63 218.167C327.257 218.794 327.57 219.714 327.57 220.927V227.247H325.61V221.647C325.61 220.7 325.437 220.007 325.09 219.567C324.757 219.127 324.237 218.907 323.53 218.907C322.997 218.907 322.55 219.027 322.19 219.267C321.843 219.507 321.577 219.887 321.39 220.407C321.203 220.927 321.11 221.587 321.11 222.387V227.247H319.13ZM338.82 227.427C338.34 227.427 337.893 227.334 337.48 227.147C337.08 226.96 336.76 226.66 336.52 226.247C336.293 225.82 336.18 225.274 336.18 224.607V214.867L338.16 213.767V224.087C338.16 224.634 338.24 225.06 338.4 225.367C338.573 225.66 338.887 225.807 339.34 225.807C339.473 225.807 339.627 225.794 339.8 225.767C339.987 225.727 340.187 225.68 340.4 225.627V227.147C340.133 227.24 339.867 227.307 339.6 227.347C339.333 227.4 339.073 227.427 338.82 227.427ZM334.22 218.907V217.387H340.4V218.907H334.22ZM342.431 227.247V213.307H344.411V219.527L343.991 219.667C344.164 219.12 344.417 218.667 344.751 218.307C345.097 217.947 345.491 217.674 345.931 217.487C346.384 217.3 346.864 217.207 347.371 217.207C348.464 217.207 349.317 217.527 349.931 218.167C350.557 218.794 350.871 219.714 350.871 220.927V227.247H348.911V221.647C348.911 220.7 348.737 220.007 348.391 219.567C348.057 219.127 347.537 218.907 346.831 218.907C346.044 218.907 345.444 219.187 345.031 219.747C344.617 220.294 344.411 221.174 344.411 222.387V227.247H342.431ZM357.725 227.427C356.925 227.427 356.232 227.294 355.645 227.027C355.059 226.76 354.572 226.394 354.185 225.927C353.799 225.447 353.505 224.907 353.305 224.307C353.119 223.694 353.025 223.054 353.025 222.387C353.025 221.72 353.119 221.08 353.305 220.467C353.492 219.84 353.772 219.287 354.145 218.807C354.519 218.314 354.985 217.927 355.545 217.647C356.119 217.354 356.792 217.207 357.565 217.207C358.339 217.207 359.005 217.34 359.565 217.607C360.125 217.86 360.585 218.22 360.945 218.687C361.305 219.14 361.572 219.654 361.745 220.227C361.932 220.8 362.025 221.407 362.025 222.047C362.025 222.114 362.019 222.24 362.005 222.427C362.005 222.6 361.992 222.767 361.965 222.927H354.985C355.025 223.807 355.292 224.487 355.785 224.967C356.292 225.434 356.959 225.667 357.785 225.667C358.345 225.667 358.845 225.58 359.285 225.407C359.725 225.22 360.132 224.934 360.505 224.547L361.705 225.787C361.319 226.174 360.919 226.487 360.505 226.727C360.105 226.967 359.679 227.14 359.225 227.247C358.785 227.367 358.285 227.427 357.725 227.427ZM360.085 221.947C360.112 221.84 360.125 221.734 360.125 221.627C360.139 221.52 360.145 221.414 360.145 221.307C360.145 221 360.092 220.7 359.985 220.407C359.879 220.114 359.719 219.854 359.505 219.627C359.292 219.387 359.025 219.2 358.705 219.067C358.399 218.92 358.039 218.847 357.625 218.847C357.079 218.847 356.612 218.974 356.225 219.227C355.839 219.467 355.539 219.787 355.325 220.187C355.125 220.587 355.005 221.02 354.965 221.487H360.725L360.085 221.947ZM364.286 227.247V217.387H366.266V219.927L365.846 220.067C365.966 219.547 366.133 219.107 366.346 218.747C366.559 218.387 366.806 218.094 367.086 217.867C367.379 217.64 367.693 217.474 368.026 217.367C368.359 217.26 368.699 217.207 369.046 217.207C369.619 217.207 370.133 217.32 370.586 217.547C371.053 217.76 371.439 218.1 371.746 218.567C372.066 219.02 372.279 219.62 372.386 220.367L371.266 220.587C371.466 219.814 371.726 219.18 372.046 218.687C372.379 218.194 372.779 217.827 373.246 217.587C373.726 217.334 374.273 217.207 374.886 217.207C375.713 217.207 376.373 217.394 376.866 217.767C377.373 218.14 377.739 218.627 377.966 219.227C378.206 219.814 378.326 220.46 378.326 221.167V227.247H376.386V221.647C376.386 221.074 376.319 220.587 376.186 220.187C376.053 219.774 375.846 219.46 375.566 219.247C375.286 219.02 374.913 218.907 374.446 218.907C373.993 218.907 373.606 219.027 373.286 219.267C372.966 219.494 372.719 219.84 372.546 220.307C372.386 220.774 372.306 221.354 372.306 222.047V227.247H370.346V221.527C370.346 220.647 370.179 219.994 369.846 219.567C369.526 219.127 369.059 218.907 368.446 218.907C367.993 218.907 367.599 219.027 367.266 219.267C366.946 219.494 366.699 219.84 366.526 220.307C366.353 220.774 366.266 221.354 366.266 222.047V227.247H364.286ZM381.286 223.147L381.066 213.307H383.006L382.786 223.147H381.286ZM380.906 227.247V224.827H383.146V227.247H380.906Z" fill="white"/>
<rect x="78.6641" y="86.4987" width="516.204" height="58.499" fill="#FF5D1A" fill-opacity="0.26"/>
<rect x="76.418" y="86.4987" width="2.24762" height="58.499" fill="#FF5D1A"/>
<rect x="592.617" y="86.4987" width="2.24762" height="58.499" fill="#FF5D1A"/>
<path d="M67.0931 22.28C67.0931 19.76 65.1131 19.16 62.8331 18.92L63.0131 18.32H78.6131L78.4331 18.92C72.1331 19.34 70.8131 20 70.8131 22.58L70.8731 56.18C77.2331 45.74 85.0931 33.08 89.8931 24.56C92.4131 20.06 91.9331 19.34 87.1331 18.92L87.3131 18.32H99.6131L99.3731 18.92C96.9731 19.22 94.5131 19.76 91.8131 23.96C84.5531 35.12 76.3931 49.22 68.2331 62.3H67.5731L67.2731 37.28L51.7331 62.3H51.1331L50.7131 22.28C50.7131 19.76 48.7931 19.16 46.5131 18.92L46.6931 18.32H59.8931L59.7131 18.92C55.8731 19.34 54.5531 20 54.5531 22.58L54.3131 56.42L67.2731 35.72L67.0931 22.28ZM102.667 20.24C103.147 18.56 102.547 17.9 99.6674 17.96L99.7874 17.36L106.867 15.2L107.347 15.56L95.3474 54.8C104.227 36.2 111.187 31.4 114.907 31.4C116.887 31.4 117.967 32.66 116.167 37.76L109.867 55.34C107.527 61.82 110.107 61.58 115.147 54.74L115.807 55.16C112.327 60.32 109.087 62.6 107.167 62.6C105.367 62.6 104.527 61.22 106.267 56.42L112.147 39.92C113.767 35.24 113.407 34.22 112.147 34.22C108.607 34.22 101.287 42.14 93.1274 62H89.8874L102.667 20.24ZM124.97 62.6C119.63 62.6 117.05 57.02 120.17 47.18C122.69 39.08 128.15 31.4 135.29 31.4C139.61 31.4 141.89 34.04 140.69 38.06C139.37 42.44 133.97 46.7 123.65 46.82C120.89 55.64 122.87 60.5 126.53 60.5C129.29 60.5 133.43 58.34 136.85 53.3L137.45 53.72C133.79 59.72 128.51 62.6 124.97 62.6ZM123.89 46.1C130.79 45.92 136.01 42.92 137.57 38.18C138.71 34.64 137.87 32.12 134.81 32.12C131.21 32.12 127.07 36.68 123.89 46.1ZM149.407 38.12C151.267 32.06 148.687 32.72 143.947 39.26L143.287 38.84C146.767 33.68 149.947 31.4 151.867 31.4C153.847 31.4 154.267 32.9 153.007 37.04L149.287 49.16C154.807 35.54 158.467 31.34 162.787 31.34C164.527 31.34 165.547 32.42 165.127 33.8C164.827 34.94 163.807 35.72 162.667 35.72C161.227 35.72 161.047 34.34 159.487 34.34C157.387 34.34 153.907 38 145.387 62H142.087L149.407 38.12ZM167.333 62.6C161.993 62.6 159.413 57.02 162.533 47.18C165.053 39.08 170.513 31.4 177.653 31.4C181.973 31.4 184.253 34.04 183.053 38.06C181.733 42.44 176.333 46.7 166.013 46.82C163.253 55.64 165.233 60.5 168.893 60.5C171.653 60.5 175.793 58.34 179.213 53.3L179.813 53.72C176.153 59.72 170.873 62.6 167.333 62.6ZM166.253 46.1C173.153 45.92 178.373 42.92 179.933 38.18C181.073 34.64 180.233 32.12 177.173 32.12C173.573 32.12 169.433 36.68 166.253 46.1ZM198.026 62.6C195.806 62.6 194.246 60.74 195.866 55.94L203.306 32.9H200.546L200.726 32.36C203.546 31.22 205.886 28.94 208.526 24.26L209.066 24.44L206.726 32.06C208.466 32.06 211.106 31.94 212.786 31.94L212.426 33.08C211.166 33.08 208.406 32.84 206.486 32.84L199.466 54.8C197.246 61.82 201.566 62.3 206.906 54.86L207.566 55.28C204.146 60.32 200.786 62.6 198.026 62.6ZM217.927 62.6C211.687 62.54 209.167 56.78 211.747 47.72C214.687 37.64 220.867 31.34 227.827 31.4C234.007 31.46 236.407 37.28 233.767 46.46C230.947 56.36 224.767 62.66 217.927 62.6ZM215.467 47.06C212.827 56.18 214.207 61.82 218.647 61.82C223.087 61.82 227.347 56.3 230.047 47.12C232.807 37.88 231.607 32.18 227.227 32.12C222.607 32.12 218.167 37.7 215.467 47.06ZM228.754 73.58C231.334 73.22 233.074 71.84 233.674 69.8L243.094 38.66C245.314 31.46 242.314 33.08 237.814 39.26L237.154 38.84C240.634 33.68 243.814 31.4 245.734 31.4C247.714 31.4 248.074 32.9 246.694 37.58L244.654 44.24C249.034 35.06 254.194 31.4 257.674 31.4C260.494 31.4 262.054 33.32 262.054 37.46C262.054 49.52 252.694 62.6 242.254 62.6C241.294 62.6 240.214 62.48 239.134 62.3L236.794 69.86C236.134 71.96 237.214 73.28 239.554 73.58L239.374 74.3H228.574L228.754 73.58ZM239.674 60.56C240.514 61.46 241.594 61.88 242.854 61.88C249.514 61.88 258.574 49.34 258.574 38.24C258.574 34.88 257.554 33.74 255.934 33.74C252.454 33.74 246.754 39.14 242.374 51.68L239.674 60.56ZM269.526 61.4C272.646 61.04 274.206 60.32 274.926 58.04L284.886 25.34C285.906 22.04 285.426 21.02 282.306 21.44L282.366 20.84C284.646 20.12 287.946 19.04 290.226 18.2L290.586 18.5L278.466 58.04C277.746 60.38 278.946 61.1 281.946 61.4L281.766 62H269.346L269.526 61.4ZM293.711 65.54L292.871 65.3L322.331 15.74L323.111 15.98L293.711 65.54ZM295.931 28.76C297.131 24.74 299.831 22.1 302.831 22.1C305.771 22.16 306.971 24.8 305.891 28.64C304.691 32.72 301.991 35.3 299.051 35.3C296.051 35.24 294.851 32.66 295.931 28.76ZM298.091 28.52C297.131 31.94 297.671 34.4 299.411 34.46C300.971 34.46 302.771 32.18 303.731 28.88C304.751 25.4 304.211 22.94 302.471 22.94C300.851 22.94 299.051 25.22 298.091 28.52ZM308.471 52.76C309.671 48.74 312.371 46.1 315.371 46.1C318.311 46.16 319.511 48.8 318.431 52.64C317.231 56.72 314.531 59.3 311.591 59.3C308.591 59.24 307.391 56.66 308.471 52.76ZM310.631 52.52C309.671 55.94 310.211 58.4 311.951 58.46C313.511 58.46 315.311 56.18 316.271 52.88C317.291 49.4 316.751 46.94 315.011 46.94C313.391 46.94 311.591 49.22 310.631 52.52ZM347.414 20.24C347.894 18.56 347.294 17.9 344.414 17.96L344.534 17.36L351.614 15.2L352.094 15.56L340.094 54.8C348.974 36.2 355.934 31.4 359.654 31.4C361.634 31.4 362.714 32.66 360.914 37.76L354.614 55.34C352.274 61.82 354.854 61.58 359.894 54.74L360.554 55.16C357.074 60.32 353.834 62.6 351.914 62.6C350.114 62.6 349.274 61.22 351.014 56.42L356.894 39.92C358.514 35.24 358.154 34.22 356.894 34.22C353.354 34.22 346.034 42.14 337.874 62H334.634L347.414 20.24ZM366.306 62.6C364.566 62.6 363.786 61.16 365.466 56.42L371.886 38.36C374.166 31.94 371.286 32.54 366.486 39.26L365.826 38.84C369.246 33.68 372.666 31.4 374.646 31.4C376.386 31.4 377.106 32.84 375.426 37.58L369.006 55.64C366.726 62 369.666 61.4 374.466 54.74L375.126 55.16C371.646 60.32 368.286 62.6 366.306 62.6ZM374.886 23C375.306 21.38 376.866 20.06 378.186 20.06C379.566 20.06 380.346 21.44 379.866 23C379.446 24.62 377.946 25.94 376.566 25.94C375.246 25.94 374.406 24.56 374.886 23ZM379.267 75.62C373.027 75.56 371.107 71.6 372.367 67.28C373.207 64.52 375.427 61.88 379.567 59.48L378.067 55.34C377.827 54.62 377.827 54.32 378.547 53.9C379.687 53.3 382.927 52.04 385.147 51.44C381.247 50.36 379.687 46.52 381.067 41.6C382.867 35.36 387.787 31.4 393.367 31.4C397.027 31.4 398.287 32.54 400.927 32.54C402.127 32.54 403.927 32.42 405.487 32.42L405.187 33.56C403.027 33.44 401.287 33.38 399.367 33.38C401.347 35.3 401.407 38.48 400.567 41.24C398.767 47.48 393.847 51.8 387.727 51.8H387.547C384.727 51.8 381.127 53.48 380.827 54.74C379.507 59.06 400.027 49.7 396.547 63.56C395.047 69.62 387.007 75.68 379.267 75.62ZM375.787 66.14C374.347 71 376.927 74 381.427 74.06C387.247 74.12 392.647 70.4 393.967 65.24C396.067 56.84 386.647 58.64 380.527 59.48C378.067 61.04 376.627 63.26 375.787 66.14ZM384.787 41.18C382.987 47.3 384.247 51.14 388.327 51.14C391.927 51.14 395.167 47.48 396.847 41.66C398.587 35.72 397.447 32.06 393.307 32.06C389.527 32.06 386.467 35.54 384.787 41.18ZM413.859 20.24C414.339 18.56 413.739 17.9 410.859 17.96L410.979 17.36L418.059 15.2L418.539 15.56L406.539 54.8C415.419 36.2 422.379 31.4 426.099 31.4C428.079 31.4 429.159 32.66 427.359 37.76L421.059 55.34C418.719 61.82 421.299 61.58 426.339 54.74L426.999 55.16C423.519 60.32 420.279 62.6 418.359 62.6C416.559 62.6 415.719 61.22 417.459 56.42L423.339 39.92C424.959 35.24 424.599 34.22 423.339 34.22C419.799 34.22 412.479 42.14 404.319 62H401.079L413.859 20.24ZM448.667 62.6C443.627 62.6 440.807 59.54 440.807 54.98C440.807 51.2 442.787 49.34 444.467 49.34C445.127 49.34 445.667 49.58 446.027 49.94L458.027 36.02C458.147 35.18 458.267 34.34 458.447 33.44L462.107 31.28L462.887 31.76C461.087 35.06 460.547 37.82 460.607 46.52C460.667 57.08 456.107 62.6 448.667 62.6ZM442.967 56.78C442.967 59.66 445.007 61.88 448.427 61.88C453.167 61.88 457.007 57.14 457.307 49.52C457.547 44.06 457.487 40.88 457.847 37.4L446.447 50.66C446.507 50.84 446.567 51.14 446.567 51.38C446.567 54.02 442.967 54.32 442.967 56.78ZM470.44 62.6C464.68 62.6 462.7 56.36 465.58 47.24C468.58 37.76 474.28 31.4 480.46 31.4C484.66 31.4 487.3 34.4 486.46 36.86C486.04 38.06 485.2 38.84 484.12 38.84C481.12 38.84 484.6 32.12 479.92 32.12C476.32 32.12 472.18 37.22 469.24 46.22C465.94 56.48 468.46 60.5 472.12 60.5C474.64 60.5 478.42 58.88 482.38 53.3L483.04 53.72C478.54 60.56 473.62 62.6 470.44 62.6ZM498.117 20.24C498.597 18.56 497.997 17.9 495.117 17.96L495.237 17.36L502.317 15.2L502.797 15.56L490.797 54.8C499.677 36.2 506.637 31.4 510.357 31.4C512.337 31.4 513.417 32.66 511.617 37.76L505.317 55.34C502.977 61.82 505.557 61.58 510.597 54.74L511.257 55.16C507.777 60.32 504.537 62.6 502.617 62.6C500.817 62.6 499.977 61.22 501.717 56.42L507.597 39.92C509.217 35.24 508.857 34.22 507.597 34.22C504.057 34.22 496.737 42.14 488.577 62H485.337L498.117 20.24ZM521.619 62.6C515.379 62.54 512.859 56.78 515.439 47.72C518.379 37.64 524.559 31.34 531.519 31.4C537.699 31.46 540.099 37.28 537.459 46.46C534.639 56.36 528.459 62.66 521.619 62.6ZM519.159 47.06C516.519 56.18 517.899 61.82 522.339 61.82C526.779 61.82 531.039 56.3 533.739 47.12C536.499 37.88 535.299 32.18 530.919 32.12C526.299 32.12 521.859 37.7 519.159 47.06ZM547.107 62.6C540.867 62.54 538.347 56.78 540.927 47.72C543.867 37.64 550.047 31.34 557.007 31.4C563.187 31.46 565.587 37.28 562.947 46.46C560.127 56.36 553.947 62.66 547.107 62.6ZM544.647 47.06C542.007 56.18 543.387 61.82 547.827 61.82C552.267 61.82 556.527 56.3 559.227 47.12C561.987 37.88 560.787 32.18 556.407 32.12C551.787 32.12 547.347 37.7 544.647 47.06ZM566.024 62.6C564.284 62.6 563.624 61.28 565.124 56.42L576.164 20.24C576.644 18.56 576.044 17.9 573.164 17.96L573.284 17.36L580.364 15.2L580.844 15.56L568.664 55.34C566.624 62.18 569.144 61.28 574.004 54.74L574.664 55.16C571.124 60.32 568.004 62.6 566.024 62.6ZM582.938 62.6C577.598 62.6 575.018 57.02 578.138 47.18C580.658 39.08 586.118 31.4 593.258 31.4C597.578 31.4 599.858 34.04 598.658 38.06C597.338 42.44 591.938 46.7 581.618 46.82C578.858 55.64 580.838 60.5 584.498 60.5C587.258 60.5 591.398 58.34 594.818 53.3L595.418 53.72C591.758 59.72 586.478 62.6 582.938 62.6ZM581.858 46.1C588.758 45.92 593.978 42.92 595.538 38.18C596.678 34.64 595.838 32.12 592.778 32.12C589.178 32.12 585.038 36.68 581.858 46.1ZM607.375 38.12C609.235 32.06 606.655 32.72 601.915 39.26L601.255 38.84C604.735 33.68 607.915 31.4 609.835 31.4C611.815 31.4 612.235 32.9 610.975 37.04L607.255 49.16C612.775 35.54 616.435 31.34 620.755 31.34C622.495 31.34 623.515 32.42 623.095 33.8C622.795 34.94 621.775 35.72 620.635 35.72C619.195 35.72 619.015 34.34 617.455 34.34C615.355 34.34 611.875 38 603.355 62H600.055L607.375 38.12ZM623.159 62.6C618.119 62.6 615.299 59.54 615.299 54.98C615.299 51.2 617.279 49.34 618.959 49.34C619.619 49.34 620.159 49.58 620.519 49.94L632.519 36.02C632.639 35.18 632.759 34.34 632.939 33.44L636.599 31.28L637.379 31.76C635.579 35.06 635.039 37.82 635.099 46.52C635.159 57.08 630.599 62.6 623.159 62.6ZM617.459 56.78C617.459 59.66 619.499 61.88 622.919 61.88C627.659 61.88 631.499 57.14 631.799 49.52C632.039 44.06 631.979 40.88 632.339 37.4L620.939 50.66C620.999 50.84 621.059 51.14 621.059 51.38C621.059 54.02 617.459 54.32 617.459 56.78ZM95.5153 134.44C94.0119 134.44 92.8019 134.018 91.8853 133.175C91.0053 132.332 90.5653 131.067 90.5653 129.38C90.5653 129.16 90.5653 128.922 90.5653 128.665C90.6019 128.408 90.6386 128.152 90.6753 127.895L95.1853 95.665H99.8053L95.4053 127.29C95.3686 127.437 95.3503 127.583 95.3503 127.73C95.3503 127.877 95.3503 128.042 95.3503 128.225C95.3503 128.922 95.4969 129.417 95.7903 129.71C96.1203 130.003 96.5786 130.15 97.1653 130.15C97.5686 130.15 97.9719 130.113 98.3753 130.04C98.7786 129.93 99.2186 129.802 99.6953 129.655L99.0903 133.835C98.4669 134.055 97.8436 134.202 97.2203 134.275C96.5969 134.385 96.0286 134.44 95.5153 134.44ZM113.331 134.44C110.801 134.44 108.693 133.945 107.006 132.955C105.356 131.928 104.128 130.553 103.321 128.83C102.515 127.107 102.111 125.182 102.111 123.055C102.111 121.002 102.423 119.003 103.046 117.06C103.67 115.08 104.586 113.302 105.796 111.725C107.043 110.112 108.546 108.828 110.306 107.875C112.066 106.922 114.065 106.445 116.301 106.445C118.795 106.445 120.811 106.94 122.351 107.93C123.891 108.92 125.028 110.24 125.761 111.89C126.495 113.503 126.861 115.282 126.861 117.225C126.861 117.922 126.806 118.728 126.696 119.645C126.586 120.562 126.44 121.35 126.256 122.01H106.731C106.695 122.267 106.676 122.505 106.676 122.725C106.676 122.945 106.676 123.165 106.676 123.385C106.676 125.548 107.263 127.235 108.436 128.445C109.61 129.618 111.278 130.205 113.441 130.205C115.091 130.205 116.54 129.93 117.786 129.38C119.07 128.83 120.298 127.987 121.471 126.85L124.496 129.93C122.773 131.507 121.013 132.662 119.216 133.395C117.456 134.092 115.495 134.44 113.331 134.44ZM122.461 119.37C122.535 118.747 122.59 118.252 122.626 117.885C122.663 117.518 122.681 117.042 122.681 116.455C122.681 115.428 122.461 114.457 122.021 113.54C121.581 112.587 120.903 111.817 119.986 111.23C119.07 110.643 117.86 110.35 116.356 110.35C114.743 110.35 113.295 110.735 112.011 111.505C110.765 112.238 109.72 113.228 108.876 114.475C108.07 115.685 107.501 117.023 107.171 118.49H123.891L122.461 119.37ZM140.447 134.44C138.247 134.44 136.341 133.945 134.727 132.955C133.114 131.928 131.867 130.535 130.987 128.775C130.144 127.015 129.722 124.998 129.722 122.725C129.722 120.598 130.052 118.563 130.712 116.62C131.409 114.677 132.381 112.935 133.627 111.395C134.911 109.855 136.414 108.645 138.137 107.765C139.861 106.885 141.767 106.445 143.857 106.445C145.617 106.445 147.139 106.775 148.422 107.435C149.742 108.058 150.806 108.92 151.612 110.02C152.419 111.12 152.914 112.385 153.097 113.815L151.612 114.97L152.767 106.885H157.332L153.537 134H148.917L150.017 125.915L151.392 127.125C150.696 128.702 149.816 130.04 148.752 131.14C147.689 132.203 146.461 133.028 145.067 133.615C143.674 134.165 142.134 134.44 140.447 134.44ZM141.327 130.15C142.867 130.15 144.261 129.82 145.507 129.16C146.754 128.463 147.817 127.547 148.697 126.41C149.577 125.273 150.237 124.008 150.677 122.615C151.154 121.222 151.392 119.792 151.392 118.325C151.392 116.785 151.117 115.447 150.567 114.31C150.017 113.173 149.229 112.293 148.202 111.67C147.176 111.01 145.947 110.68 144.517 110.68C142.977 110.68 141.566 111.028 140.282 111.725C139.036 112.385 137.972 113.283 137.092 114.42C136.212 115.52 135.534 116.785 135.057 118.215C134.581 119.608 134.342 121.038 134.342 122.505C134.342 124.045 134.617 125.402 135.167 126.575C135.754 127.712 136.561 128.592 137.587 129.215C138.651 129.838 139.897 130.15 141.327 130.15ZM159.198 134L163.048 106.885H167.723L166.678 114.145L165.303 114.035C165.779 112.422 166.586 111.047 167.723 109.91C168.896 108.773 170.179 107.912 171.573 107.325C173.003 106.738 174.341 106.445 175.588 106.445C176.394 106.445 177.164 106.555 177.898 106.775C178.631 106.958 179.383 107.288 180.153 107.765L177.458 111.78C177.054 111.56 176.559 111.395 175.973 111.285C175.423 111.138 174.891 111.065 174.378 111.065C172.471 111.065 170.913 111.542 169.703 112.495C168.529 113.412 167.631 114.658 167.008 116.235C166.384 117.812 165.926 119.553 165.633 121.46L163.873 134H159.198ZM179.396 134L183.246 106.885H187.866L187.041 112.66L185.886 112.55C186.583 111.157 187.445 110.02 188.471 109.14C189.498 108.223 190.653 107.545 191.936 107.105C193.22 106.665 194.576 106.445 196.006 106.445C198.683 106.445 200.755 107.142 202.221 108.535C203.688 109.928 204.421 111.963 204.421 114.64C204.421 115.043 204.403 115.428 204.366 115.795C204.366 116.162 204.33 116.547 204.256 116.95L201.891 134H197.216L199.416 118.38C199.49 117.94 199.526 117.537 199.526 117.17C199.563 116.803 199.581 116.382 199.581 115.905C199.581 114.035 199.16 112.66 198.316 111.78C197.51 110.9 196.3 110.46 194.686 110.46C192.34 110.46 190.415 111.285 188.911 112.935C187.445 114.585 186.455 117.152 185.941 120.635L184.071 134H179.396ZM203.424 142.47L210.849 125.915H216.129L206.614 142.47H203.424ZM243.904 134.44C242.144 134.44 240.604 134.147 239.284 133.56C238.001 132.937 236.956 132.057 236.149 130.92C235.343 129.783 234.811 128.427 234.554 126.85L236.094 125.915L234.994 134H230.374L235.764 95.665H240.384L237.744 114.97L236.534 113.595C237.121 112.165 237.928 110.918 238.954 109.855C240.018 108.792 241.246 107.967 242.639 107.38C244.069 106.757 245.628 106.445 247.314 106.445C249.404 106.445 251.256 106.922 252.869 107.875C254.483 108.792 255.748 110.13 256.664 111.89C257.618 113.613 258.094 115.667 258.094 118.05C258.094 120.067 257.764 122.047 257.104 123.99C256.444 125.933 255.491 127.693 254.244 129.27C252.998 130.847 251.494 132.112 249.734 133.065C248.011 133.982 246.068 134.44 243.904 134.44ZM243.244 130.15C244.784 130.15 246.178 129.82 247.424 129.16C248.671 128.5 249.734 127.602 250.614 126.465C251.531 125.328 252.228 124.063 252.704 122.67C253.181 121.277 253.419 119.847 253.419 118.38C253.419 116.84 253.126 115.502 252.539 114.365C251.989 113.192 251.201 112.293 250.174 111.67C249.148 111.01 247.919 110.68 246.489 110.68C244.949 110.68 243.556 111.01 242.309 111.67C241.063 112.33 239.999 113.228 239.119 114.365C238.239 115.502 237.561 116.767 237.084 118.16C236.608 119.553 236.369 121.002 236.369 122.505C236.369 124.008 236.644 125.347 237.194 126.52C237.744 127.657 238.533 128.555 239.559 129.215C240.623 129.838 241.851 130.15 243.244 130.15ZM269.805 134.44C267.128 134.44 265.056 133.743 263.59 132.35C262.123 130.957 261.39 128.922 261.39 126.245C261.39 125.842 261.408 125.457 261.445 125.09C261.481 124.723 261.518 124.338 261.555 123.935L263.92 106.885H268.595L266.395 122.505C266.358 122.945 266.321 123.348 266.285 123.715C266.248 124.045 266.23 124.448 266.23 124.925C266.23 126.832 266.633 128.225 267.44 129.105C268.283 129.948 269.511 130.37 271.125 130.37C272.701 130.37 274.076 130.022 275.25 129.325C276.423 128.592 277.395 127.473 278.165 125.97C278.971 124.467 279.54 122.56 279.87 120.25L281.74 106.885H286.415L282.565 134H277.945L278.77 128.225L279.925 128.335C278.898 130.388 277.486 131.928 275.69 132.955C273.93 133.945 271.968 134.44 269.805 134.44ZM288.278 134L292.073 106.885H296.748L292.898 134H288.278ZM292.348 101.99L293.228 95.665H298.728L297.848 101.99H292.348ZM304.15 134.44C302.647 134.44 301.437 134.018 300.52 133.175C299.64 132.332 299.2 131.067 299.2 129.38C299.2 129.16 299.2 128.922 299.2 128.665C299.237 128.408 299.273 128.152 299.31 127.895L303.82 95.665H308.44L304.04 127.29C304.003 127.437 303.985 127.583 303.985 127.73C303.985 127.877 303.985 128.042 303.985 128.225C303.985 128.922 304.132 129.417 304.425 129.71C304.755 130.003 305.213 130.15 305.8 130.15C306.203 130.15 306.607 130.113 307.01 130.04C307.413 129.93 307.853 129.802 308.33 129.655L307.725 133.835C307.102 134.055 306.478 134.202 305.855 134.275C305.232 134.385 304.663 134.44 304.15 134.44ZM321.526 134.44C319.326 134.44 317.419 133.945 315.806 132.955C314.193 131.928 312.946 130.535 312.066 128.775C311.223 127.015 310.801 124.998 310.801 122.725C310.801 120.598 311.131 118.563 311.791 116.62C312.488 114.677 313.459 112.935 314.706 111.395C315.989 109.855 317.493 108.645 319.216 107.765C320.939 106.885 322.846 106.445 324.936 106.445C326.696 106.445 328.218 106.775 329.501 107.435C330.821 108.058 331.884 108.92 332.691 110.02C333.498 111.12 333.993 112.385 334.176 113.815L332.691 114.97L335.386 95.665H340.006L334.616 134H329.996L331.096 125.915L332.471 127.125C331.774 128.702 330.894 130.04 329.831 131.14C328.768 132.203 327.539 133.028 326.146 133.615C324.753 134.165 323.213 134.44 321.526 134.44ZM322.406 130.15C323.946 130.15 325.339 129.82 326.586 129.16C327.833 128.463 328.896 127.547 329.776 126.41C330.656 125.273 331.316 124.008 331.756 122.615C332.233 121.222 332.471 119.792 332.471 118.325C332.471 116.785 332.196 115.447 331.646 114.31C331.096 113.173 330.308 112.293 329.281 111.67C328.254 111.01 327.026 110.68 325.596 110.68C324.056 110.68 322.644 111.028 321.361 111.725C320.114 112.385 319.051 113.283 318.171 114.42C317.291 115.52 316.613 116.785 316.136 118.215C315.659 119.608 315.421 121.038 315.421 122.505C315.421 124.045 315.696 125.402 316.246 126.575C316.833 127.712 317.639 128.592 318.666 129.215C319.729 129.838 320.976 130.15 322.406 130.15ZM336.481 142.47L343.906 125.915H349.186L339.671 142.47H336.481ZM374.706 134.44C372.506 134.44 370.6 133.945 368.986 132.955C367.373 131.928 366.126 130.535 365.246 128.775C364.403 127.015 363.981 124.998 363.981 122.725C363.981 120.598 364.311 118.563 364.971 116.62C365.668 114.677 366.64 112.935 367.886 111.395C369.17 109.855 370.673 108.645 372.396 107.765C374.12 106.885 376.026 106.445 378.116 106.445C379.876 106.445 381.398 106.775 382.681 107.435C384.001 108.058 385.065 108.92 385.871 110.02C386.678 111.12 387.173 112.385 387.356 113.815L385.871 114.97L387.026 106.885H391.591L387.796 134H383.176L384.276 125.915L385.651 127.125C384.955 128.702 384.075 130.04 383.011 131.14C381.948 132.203 380.72 133.028 379.326 133.615C377.933 134.165 376.393 134.44 374.706 134.44ZM375.586 130.15C377.126 130.15 378.52 129.82 379.766 129.16C381.013 128.463 382.076 127.547 382.956 126.41C383.836 125.273 384.496 124.008 384.936 122.615C385.413 121.222 385.651 119.792 385.651 118.325C385.651 116.785 385.376 115.447 384.826 114.31C384.276 113.173 383.488 112.293 382.461 111.67C381.435 111.01 380.206 110.68 378.776 110.68C377.236 110.68 375.825 111.028 374.541 111.725C373.295 112.385 372.231 113.283 371.351 114.42C370.471 115.52 369.793 116.785 369.316 118.215C368.84 119.608 368.601 121.038 368.601 122.505C368.601 124.045 368.876 125.402 369.426 126.575C370.013 127.712 370.82 128.592 371.846 129.215C372.91 129.838 374.156 130.15 375.586 130.15ZM393.512 134L397.362 106.885H401.982L401.157 112.66L400.002 112.55C400.698 111.157 401.56 110.02 402.587 109.14C403.613 108.223 404.768 107.545 406.052 107.105C407.335 106.665 408.692 106.445 410.122 106.445C412.798 106.445 414.87 107.142 416.337 108.535C417.803 109.928 418.537 111.963 418.537 114.64C418.537 115.043 418.518 115.428 418.482 115.795C418.482 116.162 418.445 116.547 418.372 116.95L416.007 134H411.332L413.532 118.38C413.605 117.94 413.642 117.537 413.642 117.17C413.678 116.803 413.697 116.382 413.697 115.905C413.697 114.035 413.275 112.66 412.432 111.78C411.625 110.9 410.415 110.46 408.802 110.46C406.455 110.46 404.53 111.285 403.027 112.935C401.56 114.585 400.57 117.152 400.057 120.635L398.187 134H393.512ZM432.665 134.44C430.465 134.44 428.558 133.945 426.945 132.955C425.331 131.928 424.085 130.535 423.205 128.775C422.361 127.015 421.94 124.998 421.94 122.725C421.94 120.598 422.27 118.563 422.93 116.62C423.626 114.677 424.598 112.935 425.845 111.395C427.128 109.855 428.631 108.645 430.355 107.765C432.078 106.885 433.985 106.445 436.075 106.445C437.835 106.445 439.356 106.775 440.64 107.435C441.96 108.058 443.023 108.92 443.83 110.02C444.636 111.12 445.131 112.385 445.315 113.815L443.83 114.97L446.525 95.665H451.145L445.755 134H441.135L442.235 125.915L443.61 127.125C442.913 128.702 442.033 130.04 440.97 131.14C439.906 132.203 438.678 133.028 437.285 133.615C435.891 134.165 434.351 134.44 432.665 134.44ZM433.545 130.15C435.085 130.15 436.478 129.82 437.725 129.16C438.971 128.463 440.035 127.547 440.915 126.41C441.795 125.273 442.455 124.008 442.895 122.615C443.371 121.222 443.61 119.792 443.61 118.325C443.61 116.785 443.335 115.447 442.785 114.31C442.235 113.173 441.446 112.293 440.42 111.67C439.393 111.01 438.165 110.68 436.735 110.68C435.195 110.68 433.783 111.028 432.5 111.725C431.253 112.385 430.19 113.283 429.31 114.42C428.43 115.52 427.751 116.785 427.275 118.215C426.798 119.608 426.56 121.038 426.56 122.505C426.56 124.045 426.835 125.402 427.385 126.575C427.971 127.712 428.778 128.592 429.805 129.215C430.868 129.838 432.115 130.15 433.545 130.15ZM473.017 134.44C471.111 134.44 469.442 134.165 468.012 133.615C466.619 133.028 465.446 132.277 464.492 131.36C463.576 130.407 462.879 129.417 462.402 128.39L465.922 125.915C466.436 127.308 467.297 128.427 468.507 129.27C469.717 130.113 471.239 130.535 473.072 130.535C474.282 130.535 475.382 130.352 476.372 129.985C477.362 129.582 478.151 129.013 478.737 128.28C479.361 127.547 479.672 126.703 479.672 125.75C479.672 124.98 479.434 124.357 478.957 123.88C478.517 123.367 477.857 122.945 476.977 122.615C476.097 122.248 474.997 121.9 473.677 121.57C472.724 121.313 471.771 121.02 470.817 120.69C469.901 120.36 469.057 119.957 468.287 119.48C467.517 118.967 466.894 118.343 466.417 117.61C465.977 116.84 465.757 115.905 465.757 114.805C465.757 113.155 466.197 111.707 467.077 110.46C467.957 109.213 469.167 108.242 470.707 107.545C472.284 106.812 474.081 106.445 476.097 106.445C478.187 106.445 480.039 106.903 481.652 107.82C483.266 108.7 484.439 110.002 485.172 111.725L482.037 113.705C481.487 112.422 480.681 111.523 479.617 111.01C478.554 110.46 477.326 110.185 475.932 110.185C474.356 110.185 472.981 110.552 471.807 111.285C470.671 111.982 470.102 112.953 470.102 114.2C470.102 115.08 470.506 115.758 471.312 116.235C472.119 116.712 473.421 117.17 475.217 117.61C476.647 117.94 478.059 118.362 479.452 118.875C480.846 119.352 482.001 120.067 482.917 121.02C483.834 121.937 484.292 123.257 484.292 124.98C484.292 126.887 483.797 128.555 482.807 129.985C481.854 131.378 480.534 132.478 478.847 133.285C477.161 134.055 475.217 134.44 473.017 134.44ZM499.506 134.44C497.196 134.44 495.161 133.945 493.401 132.955C491.677 131.928 490.321 130.535 489.331 128.775C488.377 126.978 487.901 124.907 487.901 122.56C487.901 120.433 488.267 118.417 489.001 116.51C489.734 114.567 490.761 112.843 492.081 111.34C493.437 109.837 495.032 108.645 496.866 107.765C498.699 106.885 500.734 106.445 502.971 106.445C505.317 106.445 507.352 106.94 509.076 107.93C510.799 108.92 512.137 110.295 513.091 112.055C514.044 113.815 514.521 115.868 514.521 118.215C514.521 120.378 514.154 122.45 513.421 124.43C512.687 126.373 511.642 128.097 510.286 129.6C508.929 131.103 507.334 132.295 505.501 133.175C503.704 134.018 501.706 134.44 499.506 134.44ZM499.616 130.315C501.266 130.315 502.714 129.967 503.961 129.27C505.244 128.573 506.326 127.657 507.206 126.52C508.122 125.347 508.801 124.045 509.241 122.615C509.717 121.148 509.956 119.645 509.956 118.105C509.956 115.758 509.332 113.907 508.086 112.55C506.839 111.193 505.097 110.515 502.861 110.515C501.174 110.515 499.671 110.882 498.351 111.615C497.067 112.312 495.986 113.265 495.106 114.475C494.226 115.648 493.566 116.95 493.126 118.38C492.686 119.81 492.466 121.258 492.466 122.725C492.466 125.072 493.089 126.923 494.336 128.28C495.619 129.637 497.379 130.315 499.616 130.315ZM522.56 134.44C521.057 134.44 519.847 134.018 518.93 133.175C518.05 132.332 517.61 131.067 517.61 129.38C517.61 129.16 517.61 128.922 517.61 128.665C517.647 128.408 517.683 128.152 517.72 127.895L522.23 95.665H526.85L522.45 127.29C522.413 127.437 522.395 127.583 522.395 127.73C522.395 127.877 522.395 128.042 522.395 128.225C522.395 128.922 522.542 129.417 522.835 129.71C523.165 130.003 523.623 130.15 524.21 130.15C524.613 130.15 525.017 130.113 525.42 130.04C525.823 129.93 526.263 129.802 526.74 129.655L526.135 133.835C525.512 134.055 524.888 134.202 524.265 134.275C523.642 134.385 523.073 134.44 522.56 134.44ZM536.594 134L529.279 106.885H534.339L539.234 128.005L550.234 106.885H555.349L540.499 134H536.594ZM565.569 134.44C563.039 134.44 560.931 133.945 559.244 132.955C557.594 131.928 556.366 130.553 555.559 128.83C554.752 127.107 554.349 125.182 554.349 123.055C554.349 121.002 554.661 119.003 555.284 117.06C555.907 115.08 556.824 113.302 558.034 111.725C559.281 110.112 560.784 108.828 562.544 107.875C564.304 106.922 566.302 106.445 568.539 106.445C571.032 106.445 573.049 106.94 574.589 107.93C576.129 108.92 577.266 110.24 577.999 111.89C578.732 113.503 579.099 115.282 579.099 117.225C579.099 117.922 579.044 118.728 578.934 119.645C578.824 120.562 578.677 121.35 578.494 122.01H558.969C558.932 122.267 558.914 122.505 558.914 122.725C558.914 122.945 558.914 123.165 558.914 123.385C558.914 125.548 559.501 127.235 560.674 128.445C561.847 129.618 563.516 130.205 565.679 130.205C567.329 130.205 568.777 129.93 570.024 129.38C571.307 128.83 572.536 127.987 573.709 126.85L576.734 129.93C575.011 131.507 573.251 132.662 571.454 133.395C569.694 134.092 567.732 134.44 565.569 134.44ZM574.699 119.37C574.772 118.747 574.827 118.252 574.864 117.885C574.901 117.518 574.919 117.042 574.919 116.455C574.919 115.428 574.699 114.457 574.259 113.54C573.819 112.587 573.141 111.817 572.224 111.23C571.307 110.643 570.097 110.35 568.594 110.35C566.981 110.35 565.532 110.735 564.249 111.505C563.002 112.238 561.957 113.228 561.114 114.475C560.307 115.685 559.739 117.023 559.409 118.49H576.129L574.699 119.37ZM579.045 134.715C577.78 134.715 577.065 133.45 577.45 131.965C577.89 130.37 579.265 129.16 580.585 129.16C581.85 129.215 582.565 130.425 582.125 131.965C581.74 133.505 580.365 134.715 579.045 134.715Z" fill="black"/>
</svg>
