<svg width="748" height="144" viewBox="0 0 748 144" fill="none" xmlns="http://www.w3.org/2000/svg">
<path d="M283 95.5C283 93.2457 282.21 91.0837 280.803 89.4896C279.397 87.8955 277.489 87 275.5 87C273.511 87 271.603 87.8955 270.197 89.4896C268.79 91.0837 268 93.2457 268 95.5L275.5 95.5H283Z" fill="#FF5D1A"/>
<path d="M502 95.5C502 93.2457 501.21 91.0837 499.803 89.4896C498.397 87.8955 496.489 87 494.5 87C492.511 87 490.603 87.8955 489.197 89.4896C487.79 91.0837 487 93.2457 487 95.5L494.5 95.5H502Z" fill="#FF5D1A"/>
<path d="M80.9482 96V56.271H94.0582C97.8962 56.271 100.898 57.145 103.064 58.893C105.268 60.641 106.37 63.092 106.37 66.246C106.37 68.146 105.952 69.837 105.116 71.319C104.28 72.763 103.102 73.884 101.582 74.682C103.862 75.366 105.572 76.563 106.712 78.273C107.852 79.945 108.422 82.073 108.422 84.657C108.422 88.229 107.301 91.022 105.059 93.036C102.817 95.012 99.6632 96 95.5972 96H80.9482ZM86.7622 90.642H95.1982C100.176 90.642 102.665 88.552 102.665 84.372C102.665 82.358 102.076 80.8 100.898 79.698C99.7582 78.596 98.1432 78.045 96.0532 78.045H86.7622V90.642ZM86.7622 72.858H94.7422C96.4902 72.858 97.8962 72.345 98.9602 71.319C100.062 70.293 100.613 68.887 100.613 67.101C100.613 65.353 100.043 64.004 98.9032 63.054C97.7632 62.104 96.1482 61.629 94.0582 61.629H86.7622V72.858ZM122.303 96.513C120.213 96.513 118.408 96.095 116.888 95.259C115.406 94.385 114.266 93.15 113.468 91.554C112.708 89.92 112.328 87.944 112.328 85.626V67.899H117.914V83.859C117.914 85.531 118.123 86.956 118.541 88.134C118.959 89.274 119.605 90.148 120.479 90.756C121.391 91.326 122.531 91.611 123.899 91.611C125.495 91.611 126.787 91.212 127.775 90.414C128.801 89.616 129.561 88.438 130.055 86.88C130.549 85.284 130.796 83.308 130.796 80.952V67.899H136.325V96H130.796V89.958L131.936 90.186C131.1 92.276 129.827 93.853 128.117 94.917C126.407 95.981 124.469 96.513 122.303 96.513ZM141.838 96V67.899H147.424V96H141.838ZM141.439 63.054V56.271H147.766V63.054H141.439ZM158.849 96.513C157.063 96.513 155.6 95.962 154.46 94.86C153.32 93.758 152.75 92.01 152.75 89.616V56.271H158.279V88.533C158.279 89.521 158.488 90.243 158.906 90.699C159.362 91.117 159.951 91.326 160.673 91.326C160.977 91.326 161.319 91.307 161.699 91.269C162.117 91.193 162.535 91.079 162.953 90.927V95.658C162.269 95.962 161.547 96.171 160.787 96.285C160.065 96.437 159.419 96.513 158.849 96.513ZM177.12 96.513C174.574 96.513 172.37 95.886 170.508 94.632C168.646 93.34 167.183 91.592 166.119 89.388C165.093 87.146 164.58 84.657 164.58 81.921C164.58 78.919 165.131 76.335 166.233 74.169C167.373 72.003 168.893 70.331 170.793 69.153C172.693 67.975 174.802 67.386 177.12 67.386C178.792 67.386 180.312 67.728 181.68 68.412C183.086 69.096 184.264 70.046 185.214 71.262C186.164 72.478 186.829 73.903 187.209 75.537L185.784 75.993V56.271H191.313V96H185.784V87.906L187.437 87.963C186.943 89.787 186.202 91.345 185.214 92.637C184.226 93.891 183.029 94.86 181.623 95.544C180.255 96.19 178.754 96.513 177.12 96.513ZM178.26 91.383C179.894 91.383 181.3 90.984 182.478 90.186C183.694 89.388 184.625 88.286 185.271 86.88C185.955 85.436 186.297 83.783 186.297 81.921C186.297 80.059 185.955 78.425 185.271 77.019C184.625 75.575 183.694 74.473 182.478 73.713C181.3 72.915 179.894 72.516 178.26 72.516C176.664 72.516 175.258 72.915 174.042 73.713C172.826 74.473 171.876 75.575 171.192 77.019C170.546 78.425 170.223 80.059 170.223 81.921C170.223 83.783 170.546 85.436 171.192 86.88C171.876 88.286 172.826 89.388 174.042 90.186C175.258 90.984 176.664 91.383 178.26 91.383ZM196.786 96V67.899H202.372V96H196.786ZM196.387 63.054V56.271H202.714V63.054H196.387ZM207.811 96V67.899H213.454V73.998L212.314 74.34C212.808 72.782 213.511 71.509 214.423 70.521C215.373 69.495 216.475 68.716 217.729 68.184C219.021 67.652 220.408 67.386 221.89 67.386C225.006 67.386 227.438 68.298 229.186 70.122C230.972 71.908 231.865 74.53 231.865 77.988V96H226.279V80.04C226.279 77.342 225.785 75.366 224.797 74.112C223.847 72.858 222.365 72.231 220.351 72.231C218.831 72.231 217.558 72.573 216.532 73.257C215.544 73.941 214.784 75.024 214.252 76.506C213.72 77.988 213.454 79.869 213.454 82.149V96H207.811ZM248.55 108.141C244.484 108.141 241.254 107.4 238.86 105.918C236.504 104.436 235.326 102.384 235.326 99.762C235.326 99.572 235.326 99.325 235.326 99.021C235.364 98.717 235.421 98.413 235.497 98.109L242.793 93.093L244.503 94.518L240.627 99.306C240.589 99.458 240.57 99.572 240.57 99.648C240.57 99.762 240.57 99.876 240.57 99.99C240.57 101.358 241.33 102.384 242.85 103.068C244.37 103.752 246.27 104.094 248.55 104.094C250.564 104.094 252.198 103.809 253.452 103.239C254.706 102.707 255.333 101.833 255.333 100.617C255.333 99.971 255.143 99.439 254.763 99.021C254.383 98.603 253.813 98.261 253.053 97.995C252.293 97.767 251.381 97.558 250.317 97.368C249.291 97.216 248.094 97.045 246.726 96.855C244.978 96.589 243.287 96.209 241.653 95.715C240.019 95.221 238.67 94.499 237.606 93.549C236.542 92.561 236.01 91.269 236.01 89.673C236.01 88.305 236.485 87.051 237.435 85.911C238.423 84.733 239.696 83.783 241.254 83.061L244.446 85.284C243.268 85.55 242.413 85.987 241.881 86.595C241.349 87.165 241.083 87.868 241.083 88.704C241.083 89.388 241.33 89.939 241.824 90.357C242.356 90.775 243.097 91.098 244.047 91.326C244.997 91.554 246.137 91.763 247.467 91.953C249.329 92.219 251.058 92.504 252.654 92.808C254.288 93.112 255.713 93.549 256.929 94.119C258.183 94.651 259.133 95.373 259.779 96.285C260.463 97.235 260.805 98.451 260.805 99.933C260.805 102.593 259.722 104.626 257.556 106.032C255.428 107.438 252.426 108.141 248.55 108.141ZM247.923 87.507C245.681 87.507 243.705 87.089 241.995 86.253C240.323 85.379 239.012 84.201 238.062 82.719C237.112 81.199 236.637 79.47 236.637 77.532C236.637 75.518 237.131 73.751 238.119 72.231C239.107 70.711 240.437 69.533 242.109 68.697C243.819 67.823 245.7 67.386 247.752 67.386C249.728 67.386 251.552 67.823 253.224 68.697C254.934 69.533 256.283 70.73 257.271 72.288C258.297 73.846 258.81 75.67 258.81 77.76C258.81 79.736 258.335 81.465 257.385 82.947C256.473 84.391 255.2 85.512 253.566 86.31C251.932 87.108 250.051 87.507 247.923 87.507ZM247.809 83.061C249.557 83.061 250.906 82.529 251.856 81.465C252.806 80.363 253.281 79.033 253.281 77.475C253.281 75.803 252.768 74.473 251.742 73.485C250.754 72.459 249.443 71.946 247.809 71.946C246.099 71.946 244.731 72.459 243.705 73.485C242.679 74.511 242.166 75.822 242.166 77.418C242.166 79.014 242.66 80.363 243.648 81.465C244.636 82.529 246.023 83.061 247.809 83.061ZM256.986 73.371L252.939 70.692L259.095 65.733L261.888 69.21L256.986 73.371Z" fill="black"/>
<path d="M302.59 96V56.271H308.404V90.813H325.903V96H302.59ZM339.938 96.513C337.658 96.513 335.682 96.133 334.01 95.373C332.338 94.613 330.951 93.568 329.849 92.238C328.747 90.87 327.911 89.331 327.341 87.621C326.809 85.873 326.543 84.049 326.543 82.149C326.543 80.249 326.809 78.425 327.341 76.677C327.873 74.891 328.671 73.314 329.735 71.946C330.799 70.54 332.129 69.438 333.725 68.64C335.359 67.804 337.278 67.386 339.482 67.386C341.686 67.386 343.586 67.766 345.182 68.526C346.778 69.248 348.089 70.274 349.115 71.604C350.141 72.896 350.901 74.359 351.395 75.993C351.927 77.627 352.193 79.356 352.193 81.18C352.193 81.37 352.174 81.731 352.136 82.263C352.136 82.757 352.098 83.232 352.022 83.688H332.129C332.243 86.196 333.003 88.134 334.409 89.502C335.853 90.832 337.753 91.497 340.109 91.497C341.705 91.497 343.13 91.25 344.384 90.756C345.638 90.224 346.797 89.407 347.861 88.305L351.281 91.839C350.179 92.941 349.039 93.834 347.861 94.518C346.721 95.202 345.505 95.696 344.213 96C342.959 96.342 341.534 96.513 339.938 96.513ZM346.664 80.895C346.74 80.591 346.778 80.287 346.778 79.983C346.816 79.679 346.835 79.375 346.835 79.071C346.835 78.197 346.683 77.342 346.379 76.506C346.075 75.67 345.619 74.929 345.011 74.283C344.403 73.599 343.643 73.067 342.731 72.687C341.857 72.269 340.831 72.06 339.653 72.06C338.095 72.06 336.765 72.421 335.663 73.143C334.561 73.827 333.706 74.739 333.098 75.879C332.528 77.019 332.186 78.254 332.072 79.584H348.488L346.664 80.895ZM374.71 96L374.254 90.813V78.33C374.254 76.354 373.684 74.834 372.544 73.77C371.404 72.706 369.751 72.174 367.585 72.174C366.065 72.174 364.602 72.478 363.196 73.086C361.828 73.694 360.517 74.682 359.263 76.05L355.786 72.459C357.458 70.711 359.301 69.438 361.315 68.64C363.367 67.804 365.59 67.386 367.984 67.386C371.746 67.386 374.653 68.355 376.705 70.293C378.795 72.193 379.84 74.872 379.84 78.33V96H374.71ZM365.647 96.513C363.557 96.513 361.714 96.133 360.118 95.373C358.522 94.613 357.287 93.568 356.413 92.238C355.539 90.87 355.102 89.293 355.102 87.507C355.102 85.949 355.425 84.619 356.071 83.517C356.717 82.377 357.553 81.503 358.579 80.895C359.529 80.287 360.612 79.869 361.828 79.641C363.082 79.375 364.412 79.242 365.818 79.242H374.767V83.46H366.616C365.856 83.46 365.058 83.536 364.222 83.688C363.424 83.802 362.74 84.068 362.17 84.486C361.714 84.828 361.353 85.265 361.087 85.797C360.821 86.291 360.688 86.88 360.688 87.564C360.688 88.894 361.201 89.958 362.227 90.756C363.253 91.554 364.621 91.953 366.331 91.953C367.775 91.953 369.086 91.63 370.264 90.984C371.48 90.3 372.449 89.388 373.171 88.248C373.893 87.07 374.254 85.74 374.254 84.258L376.249 86.88C375.907 88.856 375.242 90.585 374.254 92.067C373.266 93.511 372.031 94.613 370.549 95.373C369.105 96.133 367.471 96.513 365.647 96.513ZM396.199 96.513C393.653 96.513 391.449 95.886 389.587 94.632C387.725 93.34 386.262 91.592 385.198 89.388C384.172 87.146 383.659 84.657 383.659 81.921C383.659 78.919 384.21 76.335 385.312 74.169C386.452 72.003 387.972 70.331 389.872 69.153C391.772 67.975 393.881 67.386 396.199 67.386C397.871 67.386 399.391 67.728 400.759 68.412C402.165 69.096 403.343 70.046 404.293 71.262C405.243 72.478 405.908 73.903 406.288 75.537L404.863 75.993V56.271H410.392V96H404.863V87.906L406.516 87.963C406.022 89.787 405.281 91.345 404.293 92.637C403.305 93.891 402.108 94.86 400.702 95.544C399.334 96.19 397.833 96.513 396.199 96.513ZM397.339 91.383C398.973 91.383 400.379 90.984 401.557 90.186C402.773 89.388 403.704 88.286 404.35 86.88C405.034 85.436 405.376 83.783 405.376 81.921C405.376 80.059 405.034 78.425 404.35 77.019C403.704 75.575 402.773 74.473 401.557 73.713C400.379 72.915 398.973 72.516 397.339 72.516C395.743 72.516 394.337 72.915 393.121 73.713C391.905 74.473 390.955 75.575 390.271 77.019C389.625 78.425 389.302 80.059 389.302 81.921C389.302 83.783 389.625 85.436 390.271 86.88C390.955 88.286 391.905 89.388 393.121 90.186C394.337 90.984 395.743 91.383 397.339 91.383ZM415.864 96V67.899H421.45V96H415.864ZM415.465 63.054V56.271H421.792V63.054H415.465ZM426.889 96V67.899H432.532V73.998L431.392 74.34C431.886 72.782 432.589 71.509 433.501 70.521C434.451 69.495 435.553 68.716 436.807 68.184C438.099 67.652 439.486 67.386 440.968 67.386C444.084 67.386 446.516 68.298 448.264 70.122C450.05 71.908 450.943 74.53 450.943 77.988V96H445.357V80.04C445.357 77.342 444.863 75.366 443.875 74.112C442.925 72.858 441.443 72.231 439.429 72.231C437.909 72.231 436.636 72.573 435.61 73.257C434.622 73.941 433.862 75.024 433.33 76.506C432.798 77.988 432.532 79.869 432.532 82.149V96H426.889ZM467.629 108.141C463.563 108.141 460.333 107.4 457.939 105.918C455.583 104.436 454.405 102.384 454.405 99.762C454.405 99.572 454.405 99.325 454.405 99.021C454.443 98.717 454.5 98.413 454.576 98.109L461.872 93.093L463.582 94.518L459.706 99.306C459.668 99.458 459.649 99.572 459.649 99.648C459.649 99.762 459.649 99.876 459.649 99.99C459.649 101.358 460.409 102.384 461.929 103.068C463.449 103.752 465.349 104.094 467.629 104.094C469.643 104.094 471.277 103.809 472.531 103.239C473.785 102.707 474.412 101.833 474.412 100.617C474.412 99.971 474.222 99.439 473.842 99.021C473.462 98.603 472.892 98.261 472.132 97.995C471.372 97.767 470.46 97.558 469.396 97.368C468.37 97.216 467.173 97.045 465.805 96.855C464.057 96.589 462.366 96.209 460.732 95.715C459.098 95.221 457.749 94.499 456.685 93.549C455.621 92.561 455.089 91.269 455.089 89.673C455.089 88.305 455.564 87.051 456.514 85.911C457.502 84.733 458.775 83.783 460.333 83.061L463.525 85.284C462.347 85.55 461.492 85.987 460.96 86.595C460.428 87.165 460.162 87.868 460.162 88.704C460.162 89.388 460.409 89.939 460.903 90.357C461.435 90.775 462.176 91.098 463.126 91.326C464.076 91.554 465.216 91.763 466.546 91.953C468.408 92.219 470.137 92.504 471.733 92.808C473.367 93.112 474.792 93.549 476.008 94.119C477.262 94.651 478.212 95.373 478.858 96.285C479.542 97.235 479.884 98.451 479.884 99.933C479.884 102.593 478.801 104.626 476.635 106.032C474.507 107.438 471.505 108.141 467.629 108.141ZM467.002 87.507C464.76 87.507 462.784 87.089 461.074 86.253C459.402 85.379 458.091 84.201 457.141 82.719C456.191 81.199 455.716 79.47 455.716 77.532C455.716 75.518 456.21 73.751 457.198 72.231C458.186 70.711 459.516 69.533 461.188 68.697C462.898 67.823 464.779 67.386 466.831 67.386C468.807 67.386 470.631 67.823 472.303 68.697C474.013 69.533 475.362 70.73 476.35 72.288C477.376 73.846 477.889 75.67 477.889 77.76C477.889 79.736 477.414 81.465 476.464 82.947C475.552 84.391 474.279 85.512 472.645 86.31C471.011 87.108 469.13 87.507 467.002 87.507ZM466.888 83.061C468.636 83.061 469.985 82.529 470.935 81.465C471.885 80.363 472.36 79.033 472.36 77.475C472.36 75.803 471.847 74.473 470.821 73.485C469.833 72.459 468.522 71.946 466.888 71.946C465.178 71.946 463.81 72.459 462.784 73.485C461.758 74.511 461.245 75.822 461.245 77.418C461.245 79.014 461.739 80.363 462.727 81.465C463.715 82.529 465.102 83.061 466.888 83.061ZM476.065 73.371L472.018 70.692L478.174 65.733L480.967 69.21L476.065 73.371Z" fill="black"/>
<path d="M520.29 98.57C517.212 98.57 516.642 95.891 518.352 90.647L523.083 75.827C525.249 69.215 522.456 70.355 518.067 76.397L517.44 75.998C520.746 71.096 523.767 68.93 525.591 68.93C527.529 68.93 527.814 70.526 526.503 74.801L521.658 90.191C520.119 95.093 520.461 96.86 522.342 96.86C527.586 96.86 534.996 82.952 537.048 73.262C537.675 70.127 538.302 68.93 539.67 68.93C541.095 68.93 541.494 70.241 540.981 72.008C539.898 75.485 538.302 78.506 534.825 89.849C533.229 95.093 534.027 96.86 535.965 96.86C542.976 96.86 550.443 82.04 550.443 75.542C550.443 72.407 546.795 73.49 546.795 70.868C546.795 69.728 547.764 68.93 548.847 68.93C550.557 68.93 551.868 70.754 551.868 73.376C551.868 80.729 544.23 98.57 533.856 98.57C530.721 98.57 529.923 95.891 531.519 90.989L532.773 86.999C528.897 94.295 524.508 98.57 520.29 98.57ZM552.187 98.57C550.534 98.57 549.793 97.202 551.389 92.699L557.488 75.542C559.654 69.443 556.918 70.013 552.358 76.397L551.731 75.998C554.98 71.096 558.229 68.93 560.11 68.93C561.763 68.93 562.447 70.298 560.851 74.801L554.752 91.958C552.586 98 555.379 97.43 559.939 91.103L560.566 91.502C557.26 96.404 554.068 98.57 552.187 98.57ZM560.338 60.95C560.737 59.411 562.219 58.157 563.473 58.157C564.784 58.157 565.525 59.468 565.069 60.95C564.67 62.489 563.245 63.743 561.934 63.743C560.68 63.743 559.882 62.432 560.338 60.95ZM569.516 75.314C571.283 69.614 568.832 70.127 564.272 76.397L563.645 75.998C566.951 71.096 569.972 68.93 571.796 68.93C573.677 68.93 574.133 70.355 572.936 74.288L567.806 91.103C576.185 73.49 582.854 68.93 586.388 68.93C588.212 68.93 589.295 70.127 587.3 75.656L581.6 91.673C579.377 97.886 581.828 97.544 586.616 91.103L587.243 91.502C583.937 96.404 580.916 98.57 578.978 98.57C577.325 98.57 576.47 97.259 578.123 92.699L583.481 77.708C585.305 72.578 584.906 71.609 583.766 71.609C580.346 71.609 573.392 79.133 565.697 98H562.562L569.516 75.314ZM595.625 75.314C597.392 69.614 594.941 70.127 590.381 76.397L589.754 75.998C593.06 71.096 596.081 68.93 597.905 68.93C599.786 68.93 600.242 70.355 599.045 74.288L593.915 91.103C602.294 73.49 608.963 68.93 612.497 68.93C614.321 68.93 615.404 70.127 613.409 75.656L607.709 91.673C605.486 97.886 607.937 97.544 612.725 91.103L613.352 91.502C610.046 96.404 607.025 98.57 605.087 98.57C603.434 98.57 602.579 97.259 604.232 92.699L609.59 77.708C611.414 72.578 611.015 71.609 609.875 71.609C606.455 71.609 599.501 79.133 591.806 98H588.671L595.625 75.314ZM616.486 98.57C614.833 98.57 614.092 97.202 615.688 92.699L621.787 75.542C623.953 69.443 621.217 70.013 616.657 76.397L616.03 75.998C619.279 71.096 622.528 68.93 624.409 68.93C626.062 68.93 626.746 70.298 625.15 74.801L619.051 91.958C616.885 98 619.678 97.43 624.238 91.103L624.865 91.502C621.559 96.404 618.367 98.57 616.486 98.57ZM624.637 60.95C625.036 59.411 626.518 58.157 627.772 58.157C629.083 58.157 629.824 59.468 629.368 60.95C628.969 62.489 627.544 63.743 626.233 63.743C624.979 63.743 624.181 62.432 624.637 60.95ZM633.815 75.314C635.582 69.614 633.131 70.127 628.571 76.397L627.944 75.998C631.25 71.096 634.271 68.93 636.095 68.93C637.976 68.93 638.432 70.355 637.235 74.288L632.105 91.103C640.484 73.49 647.153 68.93 650.687 68.93C652.511 68.93 653.594 70.127 651.599 75.656L645.899 91.673C643.676 97.886 646.127 97.544 650.915 91.103L651.542 91.502C648.236 96.404 645.215 98.57 643.277 98.57C641.624 98.57 640.769 97.259 642.422 92.699L647.78 77.708C649.604 72.578 649.205 71.609 648.065 71.609C644.645 71.609 637.691 79.133 629.996 98H626.861L633.815 75.314ZM653.184 110.939C647.256 110.882 645.432 107.12 646.629 103.016C647.427 100.394 649.536 97.886 653.469 95.606L652.044 91.673C651.816 90.989 651.816 90.704 652.5 90.305C653.583 89.735 656.661 88.538 658.77 87.968C655.065 86.942 653.583 83.294 654.894 78.62C656.604 72.692 661.278 68.93 666.579 68.93C670.056 68.93 671.253 70.013 673.761 70.013C674.901 70.013 676.611 69.899 678.093 69.899L677.808 70.982C675.756 70.868 674.103 70.811 672.279 70.811C674.16 72.635 674.217 75.656 673.419 78.278C671.709 84.206 667.035 88.31 661.221 88.31H661.05C658.371 88.31 654.951 89.906 654.666 91.103C653.412 95.207 672.906 86.315 669.6 99.482C668.175 105.239 660.537 110.996 653.184 110.939ZM649.878 101.933C648.51 106.55 650.961 109.4 655.236 109.457C660.765 109.514 665.895 105.98 667.149 101.078C669.144 93.098 660.195 94.808 654.381 95.606C652.044 97.088 650.676 99.197 649.878 101.933ZM658.428 78.221C656.718 84.035 657.915 87.683 661.791 87.683C665.211 87.683 668.289 84.206 669.885 78.677C671.538 73.034 670.455 69.557 666.522 69.557C662.931 69.557 660.024 72.863 658.428 78.221Z" fill="black"/>
<path d="M458.5 5C468.717 5 477 13.2827 477 23.5C477 33.7172 468.717 42 458.5 42H315.5C305.283 42 297 33.7172 297 23.5C297 13.2827 305.283 5 315.5 5H458.5ZM385.723 17.1006C383.119 17.1008 380.823 18.9485 379.983 21.8604C379.339 24.1562 380.067 25.948 381.887 26.4521C380.851 26.7322 379.339 27.3206 378.807 27.6006C378.471 27.7964 378.471 27.9366 378.583 28.2725L379.283 30.2041C377.351 31.324 376.315 32.5559 375.923 33.8438C375.335 35.8598 376.232 37.7083 379.144 37.7363C382.755 37.7641 386.507 34.9362 387.207 32.1084C388.831 25.6404 379.255 30.0082 379.871 27.9922C380.011 27.4042 381.691 26.6202 383.007 26.6201H383.091C385.947 26.6201 388.243 24.6043 389.083 21.6924C389.475 20.4045 389.447 18.9204 388.523 18.0244C389.419 18.0244 390.231 18.0524 391.239 18.1084L391.379 17.5762C390.651 17.5762 389.811 17.6318 389.251 17.6318C388.019 17.6318 387.431 17.1006 385.723 17.1006ZM455.157 17.1006C453.533 17.1006 451.125 18.8081 449.081 23.0918L450.033 19.9844C450.677 17.8005 450.509 17.1007 449.585 17.1006C448.689 17.1006 447.205 18.1643 445.581 20.5723L445.889 20.7686C447.989 17.8846 449.389 17.1283 448.353 20.4883L443.957 35.0205C443.677 35.9723 442.865 36.6161 441.661 36.7842L441.577 37.1201H446.617L446.701 36.7842C445.609 36.6442 445.105 36.0279 445.413 35.0479L446.505 31.5205C447.009 31.6045 447.513 31.6602 447.961 31.6602C452.833 31.66 457.201 25.5565 457.201 19.9287C457.201 17.9969 456.473 17.1008 455.157 17.1006ZM379.731 30.2041C382.587 29.8121 386.983 28.9728 386.003 32.8926C385.387 35.3003 382.867 37.0357 380.151 37.0078C378.051 36.9798 376.848 35.5804 377.52 33.3125C377.912 31.9685 378.583 30.9321 379.731 30.2041ZM456.896 28.7764C456.336 28.7764 455.607 29.3085 455.355 30.2324C455.132 31.0723 455.44 31.6602 456 31.6602C456.196 31.6601 456.364 31.6318 456.56 31.5479C456.196 32.4719 455.159 33.788 454.151 34.46L454.208 34.7119C455.86 33.8438 457.288 32.0519 457.708 30.624C457.988 29.5602 457.679 28.8044 456.896 28.7764ZM325.458 17.1006C324.926 17.1006 324.45 17.492 324.45 18.0518C324.45 19.3398 326.242 18.8086 326.242 20.3486C326.242 23.5408 322.574 30.8203 319.13 30.8203C318.178 30.8202 317.786 29.9518 318.57 27.376C320.278 21.8044 321.062 20.3202 321.594 18.6123C321.846 17.7443 321.65 17.1006 320.95 17.1006C320.278 17.1006 319.97 17.6885 319.662 19.2285C318.654 23.9883 315.014 30.8197 312.438 30.8203C311.514 30.8203 311.347 29.9519 312.103 27.5439L314.482 19.9844C315.126 17.8844 314.986 17.1006 314.034 17.1006C313.138 17.1006 311.654 18.1643 310.03 20.5723L310.338 20.7686C312.494 17.8006 313.866 17.2403 312.802 20.4883L310.479 27.7686C309.639 30.3442 309.918 31.6599 311.43 31.6602C313.502 31.6602 315.659 29.5605 317.562 25.9766L316.946 27.9365C316.162 30.3442 316.554 31.66 318.094 31.6602C323.19 31.6602 326.942 22.8962 326.942 19.2842C326.942 17.9962 326.298 17.1006 325.458 17.1006ZM335.383 17.1006C330.595 17.1006 326.198 23.4007 326.198 28.7207C326.198 30.6244 327.011 31.6602 328.187 31.6602C329.811 31.66 332.275 29.9239 334.347 25.5L333.338 28.7764C332.694 30.988 332.946 31.66 333.786 31.6602C334.71 31.6602 336.166 30.5964 337.818 28.1885L337.511 27.9922C335.243 31.0161 334.067 31.4923 335.019 28.2725L338.238 17.6602C337.175 17.2403 336.167 17.1006 335.383 17.1006ZM343.815 17.1006C342.891 17.1006 341.295 18.1643 339.699 20.5723L340.007 20.7686C342.247 17.6326 343.591 17.3526 342.527 20.3486L339.531 28.7764C338.747 30.988 339.111 31.66 339.923 31.6602C340.847 31.6602 342.415 30.5963 344.039 28.1885L343.731 27.9922C341.491 31.1002 340.12 31.3801 341.184 28.4121L344.179 19.9844C344.963 17.7726 344.627 17.1007 343.815 17.1006ZM350.99 13.7686C349.758 15.9522 348.666 17.0158 347.351 17.5479L347.267 17.7998H348.555L345.082 28.5518C344.326 30.7918 345.055 31.6602 346.091 31.6602C347.379 31.6599 348.946 30.5958 350.542 28.2441L350.234 28.0479C347.742 31.5198 345.727 31.2963 346.763 28.0205L350.038 17.7725C350.934 17.7725 352.223 17.8838 352.811 17.8838L352.979 17.3525C352.195 17.3525 350.962 17.4082 350.15 17.4082L351.242 13.8525L350.99 13.7686ZM362.558 13.7686C361.326 15.9522 360.234 17.0159 358.918 17.5479L358.834 17.7998H360.122L356.649 28.5518C355.893 30.7918 356.622 31.6602 357.658 31.6602C358.946 31.66 360.514 30.596 362.11 28.2441L361.802 28.0479C359.31 31.5198 357.294 31.2963 358.33 28.0205L361.605 17.7725C362.501 17.7725 363.79 17.8838 364.378 17.8838L364.546 17.3525C363.762 17.3525 362.53 17.4082 361.718 17.4082L362.81 13.8525L362.558 13.7686ZM371.005 17.1006C367.757 17.0729 364.873 20.0122 363.501 24.7158C362.297 28.9438 363.474 31.6322 366.386 31.6602C369.578 31.6879 372.461 28.7477 373.777 24.1279C375.009 19.8441 373.889 17.1286 371.005 17.1006ZM406.445 17.1006C403.197 17.0726 400.313 20.0121 398.941 24.7158C397.737 28.9438 398.913 31.6322 401.825 31.6602C405.017 31.6881 407.901 28.7479 409.217 24.1279C410.449 19.8442 409.329 17.1288 406.445 17.1006ZM425.665 17.1006C425.133 17.1007 424.657 17.4921 424.657 18.0518C424.657 19.3398 426.449 18.8086 426.449 20.3486C426.449 23.5408 422.781 30.8203 419.337 30.8203C418.385 30.8201 417.993 29.9516 418.777 27.376C420.485 21.8042 421.27 20.3203 421.802 18.6123C422.054 17.7443 421.857 17.1006 421.157 17.1006C420.485 17.1006 420.177 17.6886 419.869 19.2285C418.861 23.9884 415.221 30.8199 412.646 30.8203C411.722 30.8203 411.554 29.9519 412.31 27.5439L414.689 19.9844C415.333 17.8844 415.193 17.1006 414.241 17.1006C413.345 17.1007 411.861 18.1643 410.237 20.5723L410.545 20.7686C412.701 17.8006 414.074 17.2404 413.01 20.4883L410.686 27.7686C409.846 30.3444 410.126 31.6602 411.638 31.6602C413.71 31.6599 415.866 29.5602 417.77 25.9766L417.153 27.9365C416.369 30.3444 416.762 31.6602 418.302 31.6602C423.398 31.6596 427.149 22.8961 427.149 19.2842C427.149 17.9962 426.505 17.1006 425.665 17.1006ZM436.638 17.1006C435.714 17.1006 434.229 18.1643 432.605 20.5723L432.914 20.7686C435.07 17.8006 436.469 17.2403 435.405 20.4883L432.802 28.3564C431.906 31.1003 432.55 31.6602 433.474 31.6602C435.518 31.6601 438.262 28.9444 442.042 20.8525L439.55 29.0283C438.934 31.0443 439.242 31.6602 440.082 31.6602C440.978 31.6598 442.462 30.5961 444.086 28.1885L443.806 27.9922C441.37 31.2681 440.418 31.1282 441.229 28.5244L444.646 17.3799H443.105C439.214 26.8716 436.302 30.3435 434.762 30.3438C434.146 30.3438 433.866 29.8404 434.678 27.3486L437.086 19.9844C437.786 17.8285 437.534 17.1006 436.638 17.1006ZM399.703 17.0723C397.687 17.0724 395.979 19.0329 393.403 25.3887L395.14 19.7324C395.728 17.8004 395.531 17.1006 394.607 17.1006C393.711 17.1006 392.228 18.1643 390.604 20.5723L390.911 20.7686C393.123 17.7166 394.327 17.4083 393.459 20.2363L390.043 31.3799H391.583C395.559 20.1812 397.183 18.473 398.163 18.4727C398.891 18.4727 398.975 19.1162 399.647 19.1162C400.179 19.1162 400.655 18.7524 400.795 18.2207C400.991 17.5767 400.515 17.0723 399.703 17.0723ZM454.345 18.1924C455.101 18.1924 455.577 18.7242 455.577 20.292C455.577 25.4717 451.349 31.3236 448.241 31.3242C447.653 31.3242 447.149 31.128 446.757 30.708L448.017 26.5645C450.061 20.7125 452.721 18.1924 454.345 18.1924ZM370.726 17.4365C372.769 17.4647 373.329 20.1247 372.041 24.4365C370.781 28.7201 368.794 31.2956 366.722 31.2959C364.65 31.2959 364.005 28.6642 365.237 24.4082C366.497 20.0402 368.57 17.4365 370.726 17.4365ZM406.165 17.4365C408.209 17.4645 408.769 20.1245 407.481 24.4365C406.221 28.7204 404.233 31.2958 402.161 31.2959C400.089 31.2959 399.445 28.6642 400.677 24.4082C401.937 20.0402 404.009 17.4365 406.165 17.4365ZM335.074 17.4365C335.69 17.4365 336.194 17.6599 336.614 18.0518L335.83 20.6006L335.719 20.9922C333.619 27.7398 330.735 30.5963 329.139 30.5967C328.383 30.5967 327.851 29.9241 327.851 28.3281C327.851 23.5962 331.966 17.4367 335.074 17.4365ZM385.695 17.4082C387.627 17.4083 388.159 19.1168 387.347 21.8887C386.563 24.6044 385.051 26.3125 383.371 26.3125C381.467 26.3125 380.879 24.5201 381.719 21.6641C382.503 19.0321 383.931 17.4082 385.695 17.4082ZM345.467 11.8086C344.851 11.8088 344.123 12.4248 343.927 13.1807C343.703 13.9084 344.095 14.5516 344.711 14.5518C345.355 14.5518 346.055 13.9365 346.251 13.1807C346.475 12.4527 346.111 11.8086 345.467 11.8086Z" fill="#1B45F8"/>
<path d="M141.864 31L135.744 10.09H138.504L143.334 27.01L148.104 11.23H150.744L155.514 27.01L160.314 10.09H163.074L156.954 31H154.344L149.214 14.38H149.634L144.504 31H141.864ZM164.725 31V10.09H167.275V19.36L166.645 19.6C166.925 18.84 167.315 18.19 167.815 17.65C168.315 17.11 168.905 16.7 169.585 16.42C170.265 16.12 171.005 15.97 171.805 15.97C173.425 15.97 174.695 16.45 175.615 17.41C176.535 18.35 176.995 19.75 176.995 21.61V31H174.445V22.54C174.445 21.04 174.165 19.94 173.605 19.24C173.065 18.52 172.235 18.16 171.115 18.16C169.895 18.16 168.945 18.6 168.265 19.48C167.605 20.34 167.275 21.72 167.275 23.62V31H164.725ZM179.901 31V16.21H182.421V31H179.901ZM179.661 13.54V10.09H182.661V13.54H179.661ZM188.469 31.24C187.569 31.24 186.839 30.96 186.279 30.4C185.719 29.84 185.439 28.95 185.439 27.73V10.09H187.959V27.25C187.959 27.83 188.079 28.25 188.319 28.51C188.559 28.77 188.879 28.9 189.279 28.9C189.459 28.9 189.659 28.88 189.879 28.84C190.099 28.8 190.329 28.74 190.569 28.66V30.82C190.229 30.96 189.869 31.06 189.489 31.12C189.109 31.2 188.769 31.24 188.469 31.24ZM198.478 31.24C197.318 31.24 196.298 31.05 195.418 30.67C194.558 30.27 193.838 29.72 193.258 29.02C192.698 28.32 192.268 27.52 191.968 26.62C191.688 25.7 191.548 24.73 191.548 23.71C191.548 22.69 191.688 21.72 191.968 20.8C192.248 19.86 192.658 19.03 193.198 18.31C193.758 17.59 194.458 17.02 195.298 16.6C196.138 16.18 197.118 15.97 198.238 15.97C199.378 15.97 200.358 16.17 201.178 16.57C202.018 16.95 202.698 17.48 203.218 18.16C203.758 18.84 204.158 19.6 204.418 20.44C204.678 21.28 204.808 22.15 204.808 23.05C204.808 23.13 204.798 23.32 204.778 23.62C204.778 23.9 204.758 24.15 204.718 24.37H194.068C194.128 25.81 194.548 26.93 195.328 27.73C196.108 28.53 197.168 28.93 198.508 28.93C199.368 28.93 200.118 28.79 200.758 28.51C201.398 28.23 201.998 27.78 202.558 27.16L204.328 28.72C203.788 29.3 203.218 29.78 202.618 30.16C202.018 30.52 201.378 30.79 200.698 30.97C200.038 31.15 199.298 31.24 198.478 31.24ZM202.288 23.08C202.328 22.92 202.348 22.76 202.348 22.6C202.368 22.44 202.378 22.28 202.378 22.12C202.378 21.64 202.288 21.16 202.108 20.68C201.948 20.2 201.698 19.77 201.358 19.39C201.038 18.99 200.618 18.68 200.098 18.46C199.598 18.22 198.998 18.1 198.298 18.1C197.438 18.1 196.698 18.3 196.078 18.7C195.458 19.1 194.978 19.63 194.638 20.29C194.298 20.95 194.098 21.68 194.038 22.48H203.128L202.288 23.08ZM220.342 31.24C218.962 31.24 217.722 30.92 216.622 30.28C215.542 29.62 214.692 28.71 214.072 27.55C213.452 26.39 213.142 25.07 213.142 23.59C213.142 22.11 213.442 20.8 214.042 19.66C214.662 18.5 215.512 17.6 216.592 16.96C217.692 16.3 218.942 15.97 220.342 15.97C221.742 15.97 222.972 16.3 224.032 16.96C225.112 17.6 225.962 18.5 226.582 19.66C227.202 20.8 227.512 22.11 227.512 23.59C227.512 25.07 227.202 26.39 226.582 27.55C225.962 28.69 225.112 29.59 224.032 30.25C222.952 30.91 221.722 31.24 220.342 31.24ZM220.342 28.99C221.282 28.99 222.092 28.77 222.772 28.33C223.472 27.87 224.012 27.24 224.392 26.44C224.772 25.62 224.962 24.67 224.962 23.59C224.962 22.49 224.772 21.54 224.392 20.74C224.012 19.92 223.472 19.29 222.772 18.85C222.092 18.41 221.282 18.19 220.342 18.19C219.382 18.19 218.552 18.42 217.852 18.88C217.152 19.32 216.612 19.94 216.232 20.74C215.852 21.54 215.662 22.49 215.662 23.59C215.662 24.67 215.852 25.62 216.232 26.44C216.612 27.24 217.152 27.87 217.852 28.33C218.552 28.77 219.382 28.99 220.342 28.99ZM234.545 31.24C233.845 31.24 233.205 31.11 232.625 30.85C232.065 30.57 231.625 30.13 231.305 29.53C230.985 28.93 230.825 28.16 230.825 27.22V12.25L233.405 10.81V26.56C233.405 27.38 233.535 28.02 233.795 28.48C234.055 28.92 234.525 29.14 235.205 29.14C235.405 29.14 235.645 29.12 235.925 29.08C236.205 29.02 236.505 28.95 236.825 28.87V30.85C236.445 30.99 236.055 31.09 235.655 31.15C235.275 31.21 234.905 31.24 234.545 31.24ZM227.765 18.19V16.21H236.825V18.19H227.765ZM238.796 31V10.09H241.346V19.36L240.716 19.6C240.996 18.84 241.386 18.19 241.886 17.65C242.386 17.11 242.976 16.7 243.656 16.42C244.336 16.12 245.076 15.97 245.876 15.97C247.496 15.97 248.766 16.45 249.686 17.41C250.606 18.35 251.066 19.75 251.066 21.61V31H248.516V22.54C248.516 21.04 248.236 19.94 247.676 19.24C247.136 18.52 246.306 18.16 245.186 18.16C243.966 18.16 243.016 18.6 242.336 19.48C241.676 20.34 241.346 21.72 241.346 23.62V31H238.796ZM260.242 31.24C259.082 31.24 258.062 31.05 257.182 30.67C256.322 30.27 255.602 29.72 255.022 29.02C254.462 28.32 254.032 27.52 253.732 26.62C253.452 25.7 253.312 24.73 253.312 23.71C253.312 22.69 253.452 21.72 253.732 20.8C254.012 19.86 254.422 19.03 254.962 18.31C255.522 17.59 256.222 17.02 257.062 16.6C257.902 16.18 258.882 15.97 260.002 15.97C261.142 15.97 262.122 16.17 262.942 16.57C263.782 16.95 264.462 17.48 264.982 18.16C265.522 18.84 265.922 19.6 266.182 20.44C266.442 21.28 266.572 22.15 266.572 23.05C266.572 23.13 266.562 23.32 266.542 23.62C266.542 23.9 266.522 24.15 266.482 24.37H255.832C255.892 25.81 256.312 26.93 257.092 27.73C257.872 28.53 258.932 28.93 260.272 28.93C261.132 28.93 261.882 28.79 262.522 28.51C263.162 28.23 263.762 27.78 264.322 27.16L266.092 28.72C265.552 29.3 264.982 29.78 264.382 30.16C263.782 30.52 263.142 30.79 262.462 30.97C261.802 31.15 261.062 31.24 260.242 31.24ZM264.052 23.08C264.092 22.92 264.112 22.76 264.112 22.6C264.132 22.44 264.142 22.28 264.142 22.12C264.142 21.64 264.052 21.16 263.872 20.68C263.712 20.2 263.462 19.77 263.122 19.39C262.802 18.99 262.382 18.68 261.862 18.46C261.362 18.22 260.762 18.1 260.062 18.1C259.202 18.1 258.462 18.3 257.842 18.7C257.222 19.1 256.742 19.63 256.402 20.29C256.062 20.95 255.862 21.68 255.802 22.48H264.892L264.052 23.08ZM269.003 31V16.21H271.553V20.17L270.893 20.32C271.033 19.44 271.363 18.68 271.883 18.04C272.423 17.38 273.043 16.87 273.743 16.51C274.463 16.15 275.163 15.97 275.843 15.97C276.303 15.97 276.743 16.02 277.163 16.12C277.583 16.22 278.013 16.39 278.453 16.63L277.193 18.91C276.953 18.79 276.663 18.69 276.323 18.61C276.003 18.53 275.693 18.49 275.393 18.49C274.913 18.49 274.433 18.58 273.953 18.76C273.493 18.94 273.073 19.22 272.693 19.6C272.313 19.98 272.023 20.49 271.823 21.13C271.743 21.41 271.673 21.78 271.613 22.24C271.573 22.68 271.553 23.29 271.553 24.07V31H269.003ZM284.471 31.24C283.471 31.24 282.571 31.09 281.771 30.79C280.971 30.49 280.281 30.09 279.701 29.59C279.141 29.09 278.691 28.56 278.351 28L280.121 26.5C280.501 27.26 281.061 27.89 281.801 28.39C282.561 28.87 283.461 29.11 284.501 29.11C285.441 29.11 286.191 28.91 286.751 28.51C287.311 28.11 287.591 27.57 287.591 26.89C287.591 26.33 287.421 25.89 287.081 25.57C286.741 25.25 286.291 24.99 285.731 24.79C285.171 24.59 284.561 24.41 283.901 24.25C283.341 24.11 282.771 23.94 282.191 23.74C281.631 23.54 281.121 23.29 280.661 22.99C280.201 22.69 279.831 22.3 279.551 21.82C279.271 21.34 279.131 20.75 279.131 20.05C279.131 18.83 279.601 17.85 280.541 17.11C281.501 16.35 282.751 15.97 284.291 15.97C285.411 15.97 286.431 16.21 287.351 16.69C288.291 17.15 289.021 17.85 289.541 18.79L287.921 19.99C287.521 19.29 286.991 18.79 286.331 18.49C285.691 18.17 284.981 18.01 284.201 18.01C283.421 18.01 282.771 18.17 282.251 18.49C281.731 18.81 281.471 19.25 281.471 19.81C281.471 20.23 281.591 20.57 281.831 20.83C282.071 21.09 282.421 21.31 282.881 21.49C283.361 21.67 283.941 21.84 284.621 22C285.241 22.14 285.871 22.31 286.511 22.51C287.151 22.71 287.741 22.97 288.281 23.29C288.821 23.61 289.251 24.04 289.571 24.58C289.911 25.1 290.081 25.78 290.081 26.62C290.081 27.54 289.851 28.35 289.391 29.05C288.931 29.75 288.281 30.29 287.441 30.67C286.601 31.05 285.611 31.24 284.471 31.24ZM485.138 37.09L487.958 30.28L482.198 16.21H484.988L489.308 27.73L493.658 16.21H496.418L487.898 37.09H485.138ZM504.213 31.24C502.833 31.24 501.593 30.92 500.493 30.28C499.413 29.62 498.563 28.71 497.943 27.55C497.323 26.39 497.013 25.07 497.013 23.59C497.013 22.11 497.313 20.8 497.913 19.66C498.533 18.5 499.383 17.6 500.463 16.96C501.563 16.3 502.813 15.97 504.213 15.97C505.613 15.97 506.843 16.3 507.903 16.96C508.983 17.6 509.833 18.5 510.453 19.66C511.073 20.8 511.383 22.11 511.383 23.59C511.383 25.07 511.073 26.39 510.453 27.55C509.833 28.69 508.983 29.59 507.903 30.25C506.823 30.91 505.593 31.24 504.213 31.24ZM504.213 28.99C505.153 28.99 505.963 28.77 506.643 28.33C507.343 27.87 507.883 27.24 508.263 26.44C508.643 25.62 508.833 24.67 508.833 23.59C508.833 22.49 508.643 21.54 508.263 20.74C507.883 19.92 507.343 19.29 506.643 18.85C505.963 18.41 505.153 18.19 504.213 18.19C503.253 18.19 502.423 18.42 501.723 18.88C501.023 19.32 500.483 19.94 500.103 20.74C499.723 21.54 499.533 22.49 499.533 23.59C499.533 24.67 499.723 25.62 500.103 26.44C500.483 27.24 501.023 27.87 501.723 28.33C502.423 28.77 503.253 28.99 504.213 28.99ZM518.797 31.24C517.737 31.24 516.817 31.03 516.037 30.61C515.257 30.17 514.657 29.53 514.237 28.69C513.837 27.85 513.637 26.81 513.637 25.57V16.21H516.157V24.67C516.157 25.65 516.277 26.47 516.517 27.13C516.777 27.77 517.157 28.25 517.657 28.57C518.157 28.87 518.777 29.02 519.517 29.02C520.337 29.02 521.027 28.83 521.587 28.45C522.167 28.05 522.607 27.45 522.907 26.65C523.207 25.85 523.357 24.82 523.357 23.56V16.21H525.877V31H523.357V27.85H523.987C523.567 28.95 522.897 29.79 521.977 30.37C521.057 30.95 519.997 31.24 518.797 31.24ZM538.676 31L534.296 16.21H536.996L539.996 27.16L543.536 16.21H545.786L549.326 27.1L552.356 16.21H555.056L550.646 31H548.306L544.676 19.75L541.046 31H538.676ZM556.828 31V16.21H559.348V31H556.828ZM556.588 13.54V10.09H559.588V13.54H556.588ZM565.395 31.24C564.495 31.24 563.765 30.96 563.205 30.4C562.645 29.84 562.365 28.95 562.365 27.73V10.09H564.885V27.25C564.885 27.83 565.005 28.25 565.245 28.51C565.485 28.77 565.805 28.9 566.205 28.9C566.385 28.9 566.585 28.88 566.805 28.84C567.025 28.8 567.255 28.74 567.495 28.66V30.82C567.155 30.96 566.795 31.06 566.415 31.12C566.035 31.2 565.695 31.24 565.395 31.24ZM572.135 31.24C571.235 31.24 570.505 30.96 569.945 30.4C569.385 29.84 569.105 28.95 569.105 27.73V10.09H571.625V27.25C571.625 27.83 571.745 28.25 571.985 28.51C572.225 28.77 572.545 28.9 572.945 28.9C573.125 28.9 573.325 28.88 573.545 28.84C573.765 28.8 573.995 28.74 574.235 28.66V30.82C573.895 30.96 573.535 31.06 573.155 31.12C572.775 31.2 572.435 31.24 572.135 31.24ZM589.757 31.24C588.817 31.24 587.967 31.06 587.207 30.7C586.467 30.32 585.837 29.8 585.317 29.14C584.817 28.48 584.437 27.72 584.177 26.86L585.017 26.59V31H582.497V10.09H585.017V20.62L584.297 20.2C584.517 19.42 584.877 18.71 585.377 18.07C585.877 17.43 586.497 16.92 587.237 16.54C587.977 16.16 588.817 15.97 589.757 15.97C590.997 15.97 592.127 16.28 593.147 16.9C594.167 17.52 594.977 18.4 595.577 19.54C596.177 20.68 596.477 22.03 596.477 23.59C596.477 25.03 596.197 26.33 595.637 27.49C595.077 28.65 594.287 29.57 593.267 30.25C592.267 30.91 591.097 31.24 589.757 31.24ZM589.337 28.9C590.237 28.9 591.027 28.68 591.707 28.24C592.407 27.78 592.947 27.15 593.327 26.35C593.727 25.55 593.927 24.63 593.927 23.59C593.927 22.55 593.727 21.63 593.327 20.83C592.947 20.03 592.407 19.41 591.707 18.97C591.027 18.51 590.237 18.28 589.337 18.28C588.437 18.28 587.647 18.51 586.967 18.97C586.287 19.41 585.757 20.03 585.377 20.83C584.997 21.63 584.807 22.55 584.807 23.59C584.807 24.63 584.997 25.55 585.377 26.35C585.757 27.15 586.287 27.78 586.967 28.24C587.647 28.68 588.437 28.9 589.337 28.9ZM605.145 31.24C603.985 31.24 602.965 31.05 602.085 30.67C601.225 30.27 600.505 29.72 599.925 29.02C599.365 28.32 598.935 27.52 598.635 26.62C598.355 25.7 598.215 24.73 598.215 23.71C598.215 22.69 598.355 21.72 598.635 20.8C598.915 19.86 599.325 19.03 599.865 18.31C600.425 17.59 601.125 17.02 601.965 16.6C602.805 16.18 603.785 15.97 604.905 15.97C606.045 15.97 607.025 16.17 607.845 16.57C608.685 16.95 609.365 17.48 609.885 18.16C610.425 18.84 610.825 19.6 611.085 20.44C611.345 21.28 611.475 22.15 611.475 23.05C611.475 23.13 611.465 23.32 611.445 23.62C611.445 23.9 611.425 24.15 611.385 24.37H600.735C600.795 25.81 601.215 26.93 601.995 27.73C602.775 28.53 603.835 28.93 605.175 28.93C606.035 28.93 606.785 28.79 607.425 28.51C608.065 28.23 608.665 27.78 609.225 27.16L610.995 28.72C610.455 29.3 609.885 29.78 609.285 30.16C608.685 30.52 608.045 30.79 607.365 30.97C606.705 31.15 605.965 31.24 605.145 31.24ZM608.955 23.08C608.995 22.92 609.015 22.76 609.015 22.6C609.035 22.44 609.045 22.28 609.045 22.12C609.045 21.64 608.955 21.16 608.775 20.68C608.615 20.2 608.365 19.77 608.025 19.39C607.705 18.99 607.285 18.68 606.765 18.46C606.265 18.22 605.665 18.1 604.965 18.1C604.105 18.1 603.365 18.3 602.745 18.7C602.125 19.1 601.645 19.63 601.305 20.29C600.965 20.95 600.765 21.68 600.705 22.48H609.795L608.955 23.08Z" fill="#6B6B6B"/>
</svg>
