<svg width="25" height="24" viewBox="0 0 25 24" fill="none" xmlns="http://www.w3.org/2000/svg">
<path d="M8.9952 5.34169C9.45279 11.1851 9.09007 16.8047 8.23088 16.7659C6.75008 16.7042 6.13636 14.5818 6.21957 9.37467C6.20071 6.4858 6.22074 3.41204 6.17759 2.47161C6.13444 1.53119 6.27358 0.640475 6.55006 0.471487C7.71124 -0.238261 8.72843 1.7987 8.9952 5.34169Z" fill="#1B45F8"/>
<path d="M24.2384 20.3117C23.9863 20.754 21.0019 21.6789 17.5126 22.4519C12.0829 23.6418 11.1256 23.6755 10.6116 22.9492C9.20907 21.1516 10.3834 20.4507 16.7705 19.227C23.7145 17.9744 25.5945 18.2003 24.2384 20.3117Z" fill="#1B45F8"/>
<path d="M17.6338 13.2378C11.8174 18.8612 9.82766 20.1172 9.25783 18.4001C9.02634 17.7026 10.8801 15.479 14.8014 11.6758C18.0969 8.49726 21.0168 5.86034 21.4337 5.72199C21.7672 5.61131 22.2966 6.09089 22.5281 6.78845C22.8486 7.75432 21.6206 9.35323 17.6338 13.2378Z" fill="#1B45F8"/>
</svg>
