<svg width="610" height="196" viewBox="0 0 610 196" fill="none" xmlns="http://www.w3.org/2000/svg">
<path d="M567.666 88.4285C567.218 87.7357 567.366 86.6507 568.791 81.0526C569.502 78.1925 570.403 74.465 570.787 72.7586C571.171 71.0523 571.601 69.4698 571.727 69.2487C571.967 68.825 572.649 68.5298 572.721 68.8143C572.743 68.8997 573.011 69.0033 573.329 69.0617C573.858 69.1182 573.915 69.2236 574.074 70.5076C574.188 71.2542 574.305 71.954 574.383 72.0226C574.45 72.1096 574.427 72.3155 574.322 72.4998C574.228 72.6656 574.181 72.9553 574.224 73.126C574.433 73.9512 574.249 76.0877 573.729 78.6915C573.504 79.8302 573.344 80.8114 573.366 80.8967C573.424 81.1244 575.686 78.2915 577.257 76.0167C581.992 69.1555 585.337 58.4847 584.987 51.3193C584.812 48.0044 583.397 44.1565 581.601 42.0902C578.596 38.6553 571.952 37.5153 565.826 39.3734C564.089 39.9222 563.432 40.2558 561.461 41.6704C560.177 42.5738 558.81 43.6246 558.407 44.0049C557.916 44.4574 557.488 44.677 557.076 44.6623C556.159 44.6295 556.136 44.2997 556.964 43.0886C557.854 41.7669 560.041 39.8901 561.874 38.8842C567.829 35.6383 578.069 35.92 583.315 39.4821C587.659 42.4103 590.181 48.5913 589.742 55.2116C589.549 58.1466 588.529 63.073 587.655 65.2317C587.509 65.6119 587.256 66.3454 587.101 66.8662C586.928 67.377 585.954 69.504 584.893 71.5809C583.319 74.6827 582.723 75.7329 581.49 77.3713C579.03 80.6764 575.678 84.523 575.007 84.7998C574.828 84.8686 574.698 85.0143 574.738 85.1097C574.778 85.3273 575.541 85.0539 580.837 82.9687C582.781 82.2205 584.4 81.5077 584.453 81.4156C584.505 81.3235 585.068 81.2778 585.727 81.3108C586.77 81.3669 586.905 81.4187 587.034 81.8087C587.109 82.0464 587.234 82.2389 587.318 82.2137C587.403 82.1885 587.326 82.3644 587.134 82.6207C586.411 83.6475 579.823 86.6076 575.076 88.0544C570.498 89.4509 568.388 89.5446 567.666 88.4285ZM573.808 69.6992C573.84 69.6439 573.821 69.5117 573.747 69.3962C573.69 69.2908 573.58 69.2774 573.528 69.3696C573.465 69.4801 573.501 69.6224 573.59 69.6726C573.696 69.7328 573.787 69.736 573.808 69.6992ZM586.101 50.2218C586.102 49.8083 585.988 49.0617 585.84 48.5394C585.559 47.5518 585.561 47.7963 585.856 49.9123C586.022 51.1025 586.107 51.1996 586.101 50.2218ZM589.353 51.4097C589.369 51.1753 589.269 50.4856 589.146 49.8796C588.892 48.6392 588.862 48.9389 589.066 50.6381C589.225 51.7999 589.332 52.1045 589.353 51.4097Z" fill="#1B45F8" fill-opacity="0.58"/>
<path d="M525.5 14C541.24 14 554 26.7599 554 42.5V45.5C554 61.2401 541.24 74 525.5 74H361.5C345.76 74 333 61.2401 333 45.5V42.5C333 26.7599 345.76 14 361.5 14H525.5ZM384.585 33.9824C381.561 33.9824 378.999 36.9224 375.135 46.4561L377.738 37.9727C378.62 35.0747 378.326 34.0244 376.94 34.0244C375.598 34.0245 373.376 35.6164 370.943 39.2188C370.961 38.9007 370.973 38.5832 370.973 38.2666C370.973 35.3686 369.88 34.0244 367.906 34.0244C365.47 34.0245 361.858 36.5868 358.792 43.0127L360.221 38.3506C361.187 35.0746 360.934 34.0244 359.548 34.0244C358.204 34.0248 355.978 35.6208 353.542 39.2324L354.004 39.5264C357.154 35.2004 359.254 34.0664 357.7 39.1064L351.106 60.9043C350.686 62.3323 349.468 63.2988 347.662 63.5508L347.536 64.0547H355.097L355.223 63.5508C353.585 63.3408 352.828 62.4163 353.29 60.9463L354.929 55.6543C355.685 55.7803 356.44 55.8643 357.112 55.8643C364.141 55.8643 370.469 47.3952 370.942 39.2373L371.396 39.5264C374.714 34.9484 376.521 34.4865 375.219 38.7285L370.095 55.4443H372.404C378.368 38.645 380.804 36.0822 382.274 36.082C383.366 36.082 383.493 37.0488 384.501 37.0488C385.299 37.0486 386.013 36.502 386.223 35.7041C386.516 34.7384 385.803 33.9826 384.585 33.9824ZM393.312 34.0244C388.314 34.0244 384.492 39.4004 382.728 45.0703C380.544 51.9582 382.349 55.8642 386.087 55.8643C388.565 55.8643 392.261 53.8484 394.823 49.6484L394.403 49.3545C392.009 52.8825 389.111 54.3945 387.179 54.3945C384.617 54.3942 383.231 50.9921 385.163 44.8184C392.387 44.7344 396.167 41.7525 397.091 38.6865C397.931 35.8727 396.335 34.0246 393.312 34.0244ZM414.396 34.0244C413.117 34.0246 410.981 35.3854 408.777 38.4346H398.23L397.81 39.6943H408.478L408.56 39.4463L408.685 39.5264C412.045 34.8224 414.061 34.4025 412.465 38.8965L407.971 51.5381C406.795 54.856 407.341 55.8642 408.559 55.8643C409.945 55.8643 412.296 54.2682 414.732 50.6562L414.271 50.3623C410.911 55.0243 408.852 55.4442 410.448 50.9922L414.942 38.3506C416.118 35.0326 415.614 34.0244 414.396 34.0244ZM433.76 34.0244C431.156 34.0244 426.241 37.3843 420.067 50.3623L423.848 37.9727C424.73 35.0747 424.394 34.0245 423.008 34.0244C421.664 34.0244 419.438 35.6205 417.002 39.2324L417.464 39.5264C420.824 34.9065 422.63 34.5286 421.328 38.7285L416.204 55.4443H418.514C424.184 41.5424 429.308 35.998 431.828 35.998C432.668 35.9983 432.962 36.7132 431.618 40.4922L427.67 51.5381C426.452 54.8981 427.082 55.8643 428.3 55.8643C429.728 55.8642 431.954 54.2682 434.39 50.6562L433.928 50.3623C430.4 55.1083 428.593 55.3602 430.231 50.7822L434.432 38.9805C435.902 34.9065 435.104 34.0244 433.76 34.0244ZM446.142 34.0244C441.816 34.0246 437.826 38.4765 435.726 45.1123C433.71 51.4963 435.096 55.8643 439.128 55.8643C441.354 55.8642 444.798 54.4364 447.948 49.6484L447.485 49.3545C444.713 53.2603 442.068 54.3945 440.304 54.3945C437.742 54.3945 435.978 51.5803 438.288 44.3984C440.346 38.0986 443.244 34.5285 445.764 34.5283C449.04 34.5283 446.604 39.2324 448.704 39.2324C449.46 39.2323 450.048 38.6865 450.342 37.8467C450.93 36.1247 449.082 34.0244 446.142 34.0244ZM455.988 34.0244C454.602 34.0246 452.376 35.6206 449.94 39.2324L450.402 39.5264C453.636 35.0744 455.737 34.2345 454.141 39.1064L450.234 50.9082C448.89 55.0239 449.856 55.8641 451.242 55.8643C454.308 55.8643 458.425 51.7903 464.095 39.6523L460.356 51.916C459.433 54.9398 459.894 55.8641 461.154 55.8643C462.498 55.8643 464.724 54.2682 467.16 50.6562L466.74 50.3623C463.086 55.2763 461.659 55.0661 462.877 51.1602L468.001 34.4443H465.69C459.853 48.6818 455.485 53.8902 453.175 53.8906C452.251 53.8906 451.831 53.1345 453.049 49.3965L456.66 38.3506C457.71 35.1166 457.332 34.0244 455.988 34.0244ZM473.142 24.1963L473.058 24.6162C474.821 24.5323 475.493 25.037 475.157 26.0869L466.421 54.9404C467.975 55.6544 469.487 55.8642 470.663 55.8643C477.971 55.8643 484.565 46.7086 484.565 38.2666C484.565 35.3686 483.431 34.0244 481.457 34.0244C479.021 34.0246 475.325 36.6288 472.217 43.3066L478.434 22.9365L478.098 22.7266L473.142 24.1963ZM496.605 34.0244C489.424 34.0244 482.829 43.4742 482.829 51.4541C482.829 54.3101 484.048 55.8643 485.812 55.8643C488.248 55.864 491.943 53.2597 495.051 46.624L493.539 51.5381C492.573 54.8559 492.951 55.8641 494.211 55.8643C495.597 55.8643 497.781 54.2682 500.259 50.6562L499.797 50.3623C496.395 54.8983 494.632 55.6122 496.06 50.7822L500.889 34.8643C499.293 34.2345 497.781 34.0245 496.605 34.0244ZM509.846 29.0264C507.998 32.3021 506.36 33.8982 504.386 34.6963L504.26 35.0742H506.191L500.983 51.2021C499.849 54.562 500.941 55.8642 502.495 55.8643C504.427 55.8643 506.779 54.2682 509.173 50.7402L508.711 50.4463C504.973 55.6542 501.949 55.3183 503.503 50.4043L508.417 35.0322C509.761 35.0322 511.693 35.2002 512.575 35.2002L512.827 34.4023C511.651 34.4024 509.803 34.4863 508.585 34.4863L510.224 29.1523L509.846 29.0264ZM521.677 34.0244C516.805 33.9824 512.479 38.3924 510.421 45.4482C508.615 51.79 510.378 55.822 514.746 55.8643C519.534 55.9063 523.861 51.4964 525.835 44.5664C527.683 38.1406 526.003 34.0666 521.677 34.0244ZM540.585 33.9824C537.561 33.9825 534.999 36.9223 531.135 46.4561L533.739 37.9727C534.621 35.0749 534.327 34.0246 532.941 34.0244C531.597 34.0244 529.371 35.6204 526.935 39.2324L527.397 39.5264C530.715 34.9486 532.521 34.4866 531.219 38.7285L526.095 55.4443H528.405C534.369 38.6445 536.805 36.082 538.275 36.082C539.367 36.0822 539.493 37.0488 540.501 37.0488C541.299 37.0488 542.013 36.5021 542.223 35.7041C542.516 34.7382 541.803 33.9824 540.585 33.9824ZM366.688 35.6621C367.822 35.6622 368.536 36.4606 368.536 38.8125C368.536 46.5825 362.194 55.3604 357.532 55.3604C356.65 55.3603 355.895 55.0664 355.307 54.4365L357.196 48.2207C360.262 39.4427 364.252 35.6621 366.688 35.6621ZM480.239 35.6621C481.373 35.6621 482.087 36.4605 482.087 38.8125C482.087 46.5825 475.745 55.3604 471.083 55.3604C470.243 55.3603 469.445 55.0244 468.815 54.3945L469.739 51.4121L470.159 49.9844C473.309 39.9464 477.719 35.6621 480.239 35.6621ZM521.257 34.5283C524.323 34.5706 525.162 38.5606 523.23 45.0283C521.341 51.454 518.359 55.318 515.251 55.3184C512.143 55.3184 511.176 51.3703 513.024 44.9863C514.914 38.4344 518.023 34.5283 521.257 34.5283ZM496.144 34.5283C497.067 34.5284 497.823 34.8643 498.453 35.4521L497.277 39.2744L497.109 39.8623C493.959 49.9841 489.633 54.2684 487.239 54.2686C486.105 54.2686 485.308 53.2602 485.308 50.8662C485.308 43.7682 491.482 34.5283 496.144 34.5283ZM392.975 34.5283C395.117 34.5283 395.705 36.2925 394.907 38.7705C393.815 42.0885 390.161 44.1885 385.331 44.3145C387.557 37.7208 390.455 34.5287 392.975 34.5283ZM416.875 26.0869C415.951 26.0869 414.858 27.0105 414.564 28.1445C414.229 29.2363 414.817 30.2018 415.74 30.2021C416.706 30.2021 417.757 29.2785 418.051 28.1445C418.387 27.0526 417.841 26.0871 416.875 26.0869Z" fill="#1B45F8"/>
<path d="M201 133C216.464 133 229 145.536 229 161C229 176.464 216.464 189 201 189H88C72.536 189 60 176.464 60 161C60 145.536 72.536 133 88 133H201ZM146.025 152.729C142.119 152.729 138.675 155.5 137.415 159.868C136.449 163.312 137.541 166 140.271 166.756C138.717 167.176 136.449 168.059 135.651 168.479C135.147 168.772 135.147 168.982 135.315 169.486L136.365 172.384C133.467 174.064 131.913 175.912 131.325 177.844C130.443 180.868 131.787 183.641 136.155 183.683C141.573 183.725 147.201 179.482 148.251 175.24C150.687 165.539 136.324 172.09 137.247 169.066C137.457 168.184 139.977 167.008 141.951 167.008H142.077C146.361 167.008 149.805 163.984 151.065 159.616C151.653 157.684 151.611 155.458 150.226 154.114C151.569 154.114 152.788 154.156 154.3 154.24L154.51 153.442C153.418 153.442 152.157 153.526 151.317 153.526C149.469 153.526 148.587 152.729 146.025 152.729ZM137.037 172.384C141.321 171.796 147.915 170.536 146.445 176.416C145.521 180.028 141.741 182.632 137.667 182.59C134.517 182.548 132.712 180.448 133.72 177.046C134.308 175.03 135.315 173.476 137.037 172.384ZM98.1582 142.9L98.0322 143.32C100.048 143.278 100.511 143.74 100.133 144.916L97.6963 152.938C96.8564 152.813 96.1006 152.729 95.4707 152.729C88.2887 152.729 81.6944 162.178 81.6943 170.452C81.6943 173.224 82.7028 174.568 84.6768 174.568C87.1127 174.568 90.7662 171.964 93.874 165.37L92.4043 170.242C91.3964 173.644 91.8164 174.568 93.0762 174.568C94.3985 174.568 96.572 173.021 98.9619 169.531C99.0969 172.795 100.737 174.568 103.256 174.568C105.697 174.568 109.319 172.61 111.876 168.535C111.854 168.757 111.841 168.99 111.841 169.234C111.841 172.426 113.816 174.568 117.344 174.568C122.551 174.568 125.743 170.704 125.701 163.312C125.659 157.223 126.037 155.29 127.297 152.98L126.751 152.645L124.189 154.156C124.063 154.786 123.979 155.374 123.896 155.962L115.495 165.706C115.243 165.454 114.865 165.286 114.403 165.286C113.376 165.286 112.189 166.279 111.904 168.292L111.571 168.059C109.177 171.586 106.28 173.099 104.348 173.099C101.786 173.099 100.399 169.696 102.331 163.522C109.555 163.438 113.336 160.457 114.26 157.391C115.1 154.577 113.503 152.729 110.479 152.729C105.482 152.729 101.66 158.104 99.8955 163.774C99.2206 165.903 98.9277 167.747 98.9541 169.278L98.6201 169.066C95.2183 173.644 93.4548 174.274 94.9248 169.486L103.408 141.641L103.114 141.389L98.1582 142.9ZM134.601 152.729C133.215 152.729 130.821 154.325 128.427 157.937L128.889 158.23C132.249 153.526 134.264 153.107 132.668 157.601L128.175 170.242C126.999 173.56 127.545 174.568 128.763 174.568C130.149 174.568 132.501 172.972 134.937 169.36L134.475 169.066C131.115 173.728 129.056 174.148 130.652 169.696L135.146 157.054C136.322 153.736 135.818 152.729 134.601 152.729ZM169.264 152.729C166.66 152.729 161.746 156.089 155.572 169.066L159.352 156.676C160.233 153.778 159.898 152.729 158.512 152.729C157.168 152.729 154.942 154.325 152.506 157.937L152.968 158.23C156.328 153.61 158.134 153.233 156.832 157.433L151.708 174.148H154.018C159.688 160.246 164.812 154.702 167.332 154.702C168.172 154.702 168.466 155.417 167.122 159.196L163.174 170.242C161.956 173.602 162.586 174.568 163.804 174.568C165.232 174.568 167.458 172.972 169.894 169.36L169.432 169.066C165.904 173.812 164.098 174.064 165.735 169.486L169.936 157.685C171.406 153.611 170.608 152.729 169.264 152.729ZM181.813 152.729C176.816 152.729 172.993 158.105 171.229 163.774C169.046 170.662 170.852 174.568 174.59 174.568C177.068 174.568 180.764 172.552 183.326 168.353L182.906 168.059C180.512 171.587 177.614 173.099 175.682 173.099C173.12 173.098 171.734 169.696 173.666 163.522C180.89 163.438 184.67 160.456 185.594 157.391C186.434 154.577 184.837 152.729 181.813 152.729ZM200.299 142.9L200.173 143.32C202.189 143.278 202.65 143.74 202.272 144.916L199.837 152.938C198.997 152.812 198.24 152.729 197.61 152.729C190.429 152.729 183.835 162.178 183.835 170.452C183.835 173.224 184.843 174.568 186.816 174.568C189.252 174.568 192.907 171.964 196.015 165.37L194.545 170.242C193.537 173.644 193.957 174.568 195.217 174.568C196.561 174.568 198.787 172.972 201.223 169.36L200.761 169.066C197.359 173.644 195.595 174.274 197.064 169.486L205.549 141.641L205.255 141.389L200.299 142.9ZM123.77 156.928C123.518 159.364 123.56 161.59 123.392 165.412C123.182 170.746 120.493 174.064 117.175 174.064C114.781 174.064 113.354 172.51 113.354 170.494C113.354 168.772 115.873 168.562 115.873 166.714C115.873 166.546 115.831 166.336 115.789 166.21L123.77 156.928ZM95.0088 153.232C95.8906 153.232 96.6884 153.526 97.3184 154.114L95.7227 159.406C92.5727 168.982 88.3725 172.889 85.9785 172.889C84.8445 172.889 84.1729 172.132 84.1729 169.864C84.1729 162.472 90.3048 153.232 95.0088 153.232ZM197.148 153.232C198.03 153.232 198.829 153.526 199.459 154.114L197.863 159.406C194.713 168.982 190.513 172.888 188.119 172.889C186.985 172.889 186.313 172.132 186.312 169.864C186.312 162.472 192.444 153.233 197.148 153.232ZM145.983 153.19C148.881 153.19 149.679 155.752 148.461 159.91C147.285 163.984 145.017 166.546 142.497 166.546C139.641 166.546 138.76 163.858 140.02 159.574C141.196 155.626 143.337 153.19 145.983 153.19ZM110.144 153.232C112.286 153.232 112.873 154.997 112.075 157.475C110.983 160.792 107.33 162.892 102.5 163.019C104.726 156.425 107.624 153.232 110.144 153.232ZM181.478 153.232C183.62 153.232 184.208 154.997 183.41 157.475C182.318 160.792 178.664 162.893 173.834 163.019C176.06 156.425 178.958 153.233 181.478 153.232ZM137.078 144.79C136.154 144.79 135.063 145.715 134.769 146.849C134.433 147.94 135.02 148.906 135.944 148.906C136.91 148.906 137.96 147.982 138.254 146.849C138.59 145.757 138.044 144.79 137.078 144.79Z" fill="#FF5D1A"/>
<path d="M59.7616 20.3114C60.0137 20.7538 62.9981 21.6786 66.4874 22.4516C71.9171 23.6416 72.8744 23.6753 73.3884 22.9489C74.7909 21.1514 73.6166 20.4504 67.2295 19.2268C60.2855 17.9741 58.4055 18.2001 59.7616 20.3114Z" fill="#FF8239"/>
<path d="M66.3662 13.2378C72.1826 18.8612 74.1723 20.1172 74.7422 18.4001C74.9737 17.7026 73.1199 15.479 69.1986 11.6758C65.9031 8.49726 62.9832 5.86034 62.5663 5.72199C62.2328 5.61131 61.7034 6.09089 61.4719 6.78845C61.1514 7.75432 62.3794 9.35323 66.3662 13.2378Z" fill="#FF8239"/>
<path d="M75.0048 5.34169C74.5472 11.1851 74.9099 16.8047 75.7691 16.7659C77.2499 16.7042 77.8636 14.5818 77.7804 9.37467C77.7993 6.4858 77.7793 3.41204 77.8224 2.47161C77.8656 1.53119 77.7264 0.640475 77.4499 0.471487C76.2888 -0.238261 75.2716 1.7987 75.0048 5.34169Z" fill="#FF8239"/>
<path d="M75.5939 59V19.271H81.4079V59H75.5939ZM87.2763 59V30.899H92.9193V36.998L91.7793 37.34C92.2733 35.782 92.9763 34.509 93.8883 33.521C94.8383 32.495 95.9403 31.716 97.1943 31.184C98.4863 30.652 99.8733 30.386 101.355 30.386C104.471 30.386 106.903 31.298 108.651 33.122C110.437 34.908 111.33 37.53 111.33 40.988V59H105.744V43.04C105.744 40.342 105.25 38.366 104.262 37.112C103.312 35.858 101.83 35.231 99.8163 35.231C98.2963 35.231 97.0233 35.573 95.9973 36.257C95.0093 36.941 94.2493 38.024 93.7173 39.506C93.1853 40.988 92.9193 42.869 92.9193 45.149V59H87.2763ZM127.731 59.513C125.185 59.513 122.981 58.886 121.119 57.632C119.257 56.34 117.794 54.592 116.73 52.388C115.704 50.146 115.191 47.657 115.191 44.921C115.191 41.919 115.742 39.335 116.844 37.169C117.984 35.003 119.504 33.331 121.404 32.153C123.304 30.975 125.413 30.386 127.731 30.386C129.403 30.386 130.923 30.728 132.291 31.412C133.697 32.096 134.875 33.046 135.825 34.262C136.775 35.478 137.44 36.903 137.82 38.537L136.395 38.993V19.271H141.924V59H136.395V50.906L138.048 50.963C137.554 52.787 136.813 54.345 135.825 55.637C134.837 56.891 133.64 57.86 132.234 58.544C130.866 59.19 129.365 59.513 127.731 59.513ZM128.871 54.383C130.505 54.383 131.911 53.984 133.089 53.186C134.305 52.388 135.236 51.286 135.882 49.88C136.566 48.436 136.908 46.783 136.908 44.921C136.908 43.059 136.566 41.425 135.882 40.019C135.236 38.575 134.305 37.473 133.089 36.713C131.911 35.915 130.505 35.516 128.871 35.516C127.275 35.516 125.869 35.915 124.653 36.713C123.437 37.473 122.487 38.575 121.803 40.019C121.157 41.425 120.834 43.059 120.834 44.921C120.834 46.783 121.157 48.436 121.803 49.88C122.487 51.286 123.437 52.388 124.653 53.186C125.869 53.984 127.275 54.383 128.871 54.383ZM147.397 59V30.899H152.983V59H147.397ZM146.998 26.054V19.271H153.325V26.054H146.998ZM176.776 59L176.32 53.813V41.33C176.32 39.354 175.75 37.834 174.61 36.77C173.47 35.706 171.817 35.174 169.651 35.174C168.131 35.174 166.668 35.478 165.262 36.086C163.894 36.694 162.583 37.682 161.329 39.05L157.852 35.459C159.524 33.711 161.367 32.438 163.381 31.64C165.433 30.804 167.656 30.386 170.05 30.386C173.812 30.386 176.719 31.355 178.771 33.293C180.861 35.193 181.906 37.872 181.906 41.33V59H176.776ZM167.713 59.513C165.623 59.513 163.78 59.133 162.184 58.373C160.588 57.613 159.353 56.568 158.479 55.238C157.605 53.87 157.168 52.293 157.168 50.507C157.168 48.949 157.491 47.619 158.137 46.517C158.783 45.377 159.619 44.503 160.645 43.895C161.595 43.287 162.678 42.869 163.894 42.641C165.148 42.375 166.478 42.242 167.884 42.242H176.833V46.46H168.682C167.922 46.46 167.124 46.536 166.288 46.688C165.49 46.802 164.806 47.068 164.236 47.486C163.78 47.828 163.419 48.265 163.153 48.797C162.887 49.291 162.754 49.88 162.754 50.564C162.754 51.894 163.267 52.958 164.293 53.756C165.319 54.554 166.687 54.953 168.397 54.953C169.841 54.953 171.152 54.63 172.33 53.984C173.546 53.3 174.515 52.388 175.237 51.248C175.959 50.07 176.32 48.74 176.32 47.258L178.315 49.88C177.973 51.856 177.308 53.585 176.32 55.067C175.332 56.511 174.097 57.613 172.615 58.373C171.171 59.133 169.537 59.513 167.713 59.513ZM185.268 35.288L189.942 19.271H196.383L189.03 35.288H185.268ZM209.302 59.513C207.326 59.513 205.578 59.228 204.058 58.658C202.538 58.05 201.227 57.29 200.125 56.378C199.061 55.428 198.206 54.459 197.56 53.471L201.379 50.165C202.101 51.457 203.127 52.578 204.457 53.528C205.825 54.44 207.459 54.896 209.359 54.896C211.031 54.896 212.342 54.554 213.292 53.87C214.28 53.148 214.774 52.217 214.774 51.077C214.774 50.165 214.47 49.443 213.862 48.911C213.254 48.341 212.456 47.885 211.468 47.543C210.48 47.163 209.397 46.84 208.219 46.574C207.155 46.27 206.072 45.928 204.97 45.548C203.868 45.168 202.861 44.693 201.949 44.123C201.075 43.515 200.353 42.755 199.783 41.843C199.251 40.893 198.985 39.734 198.985 38.366C198.985 35.972 199.897 34.053 201.721 32.609C203.583 31.127 206.034 30.386 209.074 30.386C211.24 30.386 213.216 30.842 215.002 31.754C216.788 32.628 218.175 33.939 219.163 35.687L215.686 38.366C214.926 37.112 213.938 36.2 212.722 35.63C211.544 35.06 210.252 34.775 208.846 34.775C207.516 34.775 206.395 35.06 205.483 35.63C204.609 36.162 204.172 36.903 204.172 37.853C204.172 38.537 204.362 39.107 204.742 39.563C205.16 39.981 205.787 40.361 206.623 40.703C207.497 41.007 208.561 41.311 209.815 41.615C210.993 41.881 212.19 42.204 213.406 42.584C214.622 42.964 215.743 43.458 216.769 44.066C217.795 44.674 218.631 45.491 219.277 46.517C219.923 47.543 220.246 48.873 220.246 50.507C220.246 52.293 219.79 53.87 218.878 55.238C217.966 56.568 216.693 57.613 215.059 58.373C213.425 59.133 211.506 59.513 209.302 59.513ZM238.456 59V35.231H233.611V30.899H238.456V28.733C238.456 26.567 238.969 24.743 239.995 23.261C241.021 21.779 242.37 20.658 244.042 19.898C245.752 19.138 247.576 18.758 249.514 18.758C251.642 18.758 253.485 19.005 255.043 19.499C256.639 19.955 258.102 20.639 259.432 21.551L256.81 25.484C255.86 24.762 254.796 24.23 253.618 23.888C252.44 23.508 251.167 23.318 249.799 23.318C247.861 23.318 246.398 23.812 245.41 24.8C244.46 25.75 243.985 27.232 243.985 29.246V30.899H255.841V35.231H243.985V59H238.456ZM253.846 59V30.899H259.375V59H253.846ZM264.528 59V30.899H270.171V38.48L268.974 38.708C269.164 37.036 269.734 35.592 270.684 34.376C271.672 33.122 272.831 32.153 274.161 31.469C275.491 30.747 276.802 30.386 278.094 30.386C279.006 30.386 279.861 30.5 280.659 30.728C281.495 30.918 282.331 31.26 283.167 31.754L280.431 36.77C280.013 36.542 279.481 36.352 278.835 36.2C278.189 36.048 277.581 35.972 277.011 35.972C276.137 35.972 275.282 36.124 274.446 36.428C273.61 36.732 272.85 37.226 272.166 37.91C271.52 38.594 271.026 39.487 270.684 40.589C270.532 41.121 270.399 41.824 270.285 42.698C270.209 43.534 270.171 44.693 270.171 46.175V59H264.528ZM294.421 59.513C292.445 59.513 290.697 59.228 289.177 58.658C287.657 58.05 286.346 57.29 285.244 56.378C284.18 55.428 283.325 54.459 282.679 53.471L286.498 50.165C287.22 51.457 288.246 52.578 289.576 53.528C290.944 54.44 292.578 54.896 294.478 54.896C296.15 54.896 297.461 54.554 298.411 53.87C299.399 53.148 299.893 52.217 299.893 51.077C299.893 50.165 299.589 49.443 298.981 48.911C298.373 48.341 297.575 47.885 296.587 47.543C295.599 47.163 294.516 46.84 293.338 46.574C292.274 46.27 291.191 45.928 290.089 45.548C288.987 45.168 287.98 44.693 287.068 44.123C286.194 43.515 285.472 42.755 284.902 41.843C284.37 40.893 284.104 39.734 284.104 38.366C284.104 35.972 285.016 34.053 286.84 32.609C288.702 31.127 291.153 30.386 294.193 30.386C296.359 30.386 298.335 30.842 300.121 31.754C301.907 32.628 303.294 33.939 304.282 35.687L300.805 38.366C300.045 37.112 299.057 36.2 297.841 35.63C296.663 35.06 295.371 34.775 293.965 34.775C292.635 34.775 291.514 35.06 290.602 35.63C289.728 36.162 289.291 36.903 289.291 37.853C289.291 38.537 289.481 39.107 289.861 39.563C290.279 39.981 290.906 40.361 291.742 40.703C292.616 41.007 293.68 41.311 294.934 41.615C296.112 41.881 297.309 42.204 298.525 42.584C299.741 42.964 300.862 43.458 301.888 44.066C302.914 44.674 303.75 45.491 304.396 46.517C305.042 47.543 305.365 48.873 305.365 50.507C305.365 52.293 304.909 53.87 303.997 55.238C303.085 56.568 301.812 57.613 300.178 58.373C298.544 59.133 296.625 59.513 294.421 59.513ZM319.313 59.513C317.945 59.513 316.672 59.247 315.494 58.715C314.354 58.183 313.442 57.328 312.758 56.15C312.112 54.934 311.789 53.376 311.789 51.476V23.717L317.432 20.582V49.994C317.432 51.552 317.66 52.768 318.116 53.642C318.61 54.478 319.503 54.896 320.795 54.896C321.175 54.896 321.612 54.858 322.106 54.782C322.638 54.668 323.208 54.535 323.816 54.383V58.715C323.056 58.981 322.296 59.171 321.536 59.285C320.776 59.437 320.035 59.513 319.313 59.513ZM306.203 35.231V30.899H323.816V35.231H306.203Z" fill="black"/>
<path d="M54.243 119.513C52.571 119.513 51.032 119.19 49.626 118.544C48.258 117.86 47.08 116.891 46.092 115.637C45.142 114.345 44.42 112.787 43.926 110.963L45.579 110.906V119H39.993V79.271H45.579V98.993L44.154 98.651C44.534 97.017 45.199 95.592 46.149 94.376C47.099 93.122 48.258 92.153 49.626 91.469C51.032 90.747 52.571 90.386 54.243 90.386C56.561 90.386 58.67 90.975 60.57 92.153C62.47 93.331 63.971 95.003 65.073 97.169C66.175 99.335 66.726 101.919 66.726 104.921C66.726 107.657 66.213 110.146 65.187 112.388C64.161 114.592 62.698 116.34 60.798 117.632C58.936 118.886 56.751 119.513 54.243 119.513ZM53.046 114.383C54.68 114.383 56.086 113.984 57.264 113.186C58.48 112.388 59.43 111.286 60.114 109.88C60.798 108.436 61.14 106.783 61.14 104.921C61.14 103.059 60.798 101.425 60.114 100.019C59.43 98.575 58.48 97.473 57.264 96.713C56.086 95.915 54.68 95.516 53.046 95.516C51.45 95.516 50.044 95.915 48.828 96.713C47.65 97.473 46.719 98.575 46.035 100.019C45.389 101.425 45.066 103.059 45.066 104.921C45.066 106.783 45.389 108.436 46.035 109.88C46.719 111.286 47.65 112.388 48.828 113.186C50.044 113.984 51.45 114.383 53.046 114.383ZM80.5774 119.513C78.4874 119.513 76.6824 119.095 75.1624 118.259C73.6804 117.385 72.5404 116.15 71.7424 114.554C70.9824 112.92 70.6024 110.944 70.6024 108.626V90.899H76.1884V106.859C76.1884 108.531 76.3974 109.956 76.8154 111.134C77.2334 112.274 77.8794 113.148 78.7534 113.756C79.6654 114.326 80.8054 114.611 82.1734 114.611C83.7694 114.611 85.0614 114.212 86.0494 113.414C87.0754 112.616 87.8354 111.438 88.3294 109.88C88.8234 108.284 89.0704 106.308 89.0704 103.952V90.899H94.5994V119H89.0704V112.958L90.2104 113.186C89.3744 115.276 88.1014 116.853 86.3914 117.917C84.6814 118.981 82.7434 119.513 80.5774 119.513ZM100.113 119V90.899H105.699V119H100.113ZM99.7143 86.054V79.271H106.041V86.054H99.7143ZM117.123 119.513C115.337 119.513 113.874 118.962 112.734 117.86C111.594 116.758 111.024 115.01 111.024 112.616V79.271H116.553V111.533C116.553 112.521 116.762 113.243 117.18 113.699C117.636 114.117 118.225 114.326 118.947 114.326C119.251 114.326 119.593 114.307 119.973 114.269C120.391 114.193 120.809 114.079 121.227 113.927V118.658C120.543 118.962 119.821 119.171 119.061 119.285C118.339 119.437 117.693 119.513 117.123 119.513ZM133.525 119.513C132.157 119.513 130.884 119.247 129.706 118.715C128.566 118.183 127.654 117.328 126.97 116.15C126.324 114.934 126.001 113.376 126.001 111.476V83.717L131.644 80.582V109.994C131.644 111.552 131.872 112.768 132.328 113.642C132.822 114.478 133.715 114.896 135.007 114.896C135.387 114.896 135.824 114.858 136.318 114.782C136.85 114.668 137.42 114.535 138.028 114.383V118.715C137.268 118.981 136.508 119.171 135.748 119.285C134.988 119.437 134.247 119.513 133.525 119.513ZM120.415 95.231V90.899H138.028V95.231H120.415ZM156.342 119V95.231H150.756V90.899H156.399V87.479C156.399 85.237 156.76 83.489 157.482 82.235C158.204 80.981 159.173 80.088 160.389 79.556C161.643 79.024 163.03 78.758 164.55 78.758C165.614 78.758 166.545 78.872 167.343 79.1C168.179 79.29 168.977 79.575 169.737 79.955L167.913 84.173C167.495 83.945 167.058 83.774 166.602 83.66C166.146 83.508 165.671 83.432 165.177 83.432C164.037 83.432 163.201 83.793 162.669 84.515C162.175 85.237 161.928 86.225 161.928 87.479V90.899H168.312V95.231H161.928V119H156.342ZM182.19 119.513C179.53 119.513 177.155 118.886 175.065 117.632C172.975 116.378 171.322 114.649 170.106 112.445C168.928 110.241 168.339 107.733 168.339 104.921C168.339 102.109 168.928 99.62 170.106 97.454C171.284 95.25 172.918 93.521 175.008 92.267C177.136 91.013 179.53 90.386 182.19 90.386C184.888 90.386 187.263 91.013 189.315 92.267C191.367 93.521 192.982 95.25 194.16 97.454C195.376 99.62 195.984 102.109 195.984 104.921C195.984 107.733 195.376 110.241 194.16 112.445C192.982 114.611 191.348 116.34 189.258 117.632C187.206 118.886 184.85 119.513 182.19 119.513ZM182.19 114.554C183.862 114.554 185.306 114.155 186.522 113.357C187.776 112.559 188.726 111.438 189.372 109.994C190.056 108.55 190.398 106.859 190.398 104.921C190.398 102.945 190.056 101.235 189.372 99.791C188.726 98.347 187.776 97.245 186.522 96.485C185.306 95.687 183.862 95.288 182.19 95.288C180.48 95.288 178.998 95.687 177.744 96.485C176.528 97.283 175.578 98.404 174.894 99.848C174.248 101.254 173.925 102.945 173.925 104.921C173.925 106.859 174.248 108.55 174.894 109.994C175.578 111.438 176.528 112.559 177.744 113.357C178.998 114.155 180.48 114.554 182.19 114.554ZM200.156 119V90.899H205.799V98.48L204.602 98.708C204.792 97.036 205.362 95.592 206.312 94.376C207.3 93.122 208.459 92.153 209.789 91.469C211.119 90.747 212.43 90.386 213.722 90.386C214.634 90.386 215.489 90.5 216.287 90.728C217.123 90.918 217.959 91.26 218.795 91.754L216.059 96.77C215.641 96.542 215.109 96.352 214.463 96.2C213.817 96.048 213.209 95.972 212.639 95.972C211.765 95.972 210.91 96.124 210.074 96.428C209.238 96.732 208.478 97.226 207.794 97.91C207.148 98.594 206.654 99.487 206.312 100.589C206.16 101.121 206.027 101.824 205.913 102.698C205.837 103.534 205.799 104.693 205.799 106.175V119H200.156ZM233.949 119V79.271H239.592V96.998L238.395 97.397C238.889 95.839 239.611 94.547 240.561 93.521C241.549 92.495 242.67 91.716 243.924 91.184C245.216 90.652 246.584 90.386 248.028 90.386C251.144 90.386 253.576 91.298 255.324 93.122C257.11 94.908 258.003 97.53 258.003 100.988V119H252.417V103.04C252.417 100.342 251.923 98.366 250.935 97.112C249.985 95.858 248.503 95.231 246.489 95.231C244.247 95.231 242.537 96.029 241.359 97.625C240.181 99.183 239.592 101.691 239.592 105.149V119H233.949ZM263.118 119V90.899H268.704V119H263.118ZM262.719 86.054V79.271H269.046V86.054H262.719ZM285.657 131.141C281.591 131.141 278.361 130.4 275.967 128.918C273.611 127.436 272.433 125.384 272.433 122.762C272.433 122.572 272.433 122.325 272.433 122.021C272.471 121.717 272.528 121.413 272.604 121.109L279.9 116.093L281.61 117.518L277.734 122.306C277.696 122.458 277.677 122.572 277.677 122.648C277.677 122.762 277.677 122.876 277.677 122.99C277.677 124.358 278.437 125.384 279.957 126.068C281.477 126.752 283.377 127.094 285.657 127.094C287.671 127.094 289.305 126.809 290.559 126.239C291.813 125.707 292.44 124.833 292.44 123.617C292.44 122.971 292.25 122.439 291.87 122.021C291.49 121.603 290.92 121.261 290.16 120.995C289.4 120.767 288.488 120.558 287.424 120.368C286.398 120.216 285.201 120.045 283.833 119.855C282.085 119.589 280.394 119.209 278.76 118.715C277.126 118.221 275.777 117.499 274.713 116.549C273.649 115.561 273.117 114.269 273.117 112.673C273.117 111.305 273.592 110.051 274.542 108.911C275.53 107.733 276.803 106.783 278.361 106.061L281.553 108.284C280.375 108.55 279.52 108.987 278.988 109.595C278.456 110.165 278.19 110.868 278.19 111.704C278.19 112.388 278.437 112.939 278.931 113.357C279.463 113.775 280.204 114.098 281.154 114.326C282.104 114.554 283.244 114.763 284.574 114.953C286.436 115.219 288.165 115.504 289.761 115.808C291.395 116.112 292.82 116.549 294.036 117.119C295.29 117.651 296.24 118.373 296.886 119.285C297.57 120.235 297.912 121.451 297.912 122.933C297.912 125.593 296.829 127.626 294.663 129.032C292.535 130.438 289.533 131.141 285.657 131.141ZM285.03 110.507C282.788 110.507 280.812 110.089 279.102 109.253C277.43 108.379 276.119 107.201 275.169 105.719C274.219 104.199 273.744 102.47 273.744 100.532C273.744 98.518 274.238 96.751 275.226 95.231C276.214 93.711 277.544 92.533 279.216 91.697C280.926 90.823 282.807 90.386 284.859 90.386C286.835 90.386 288.659 90.823 290.331 91.697C292.041 92.533 293.39 93.73 294.378 95.288C295.404 96.846 295.917 98.67 295.917 100.76C295.917 102.736 295.442 104.465 294.492 105.947C293.58 107.391 292.307 108.512 290.673 109.31C289.039 110.108 287.158 110.507 285.03 110.507ZM284.916 106.061C286.664 106.061 288.013 105.529 288.963 104.465C289.913 103.363 290.388 102.033 290.388 100.475C290.388 98.803 289.875 97.473 288.849 96.485C287.861 95.459 286.55 94.946 284.916 94.946C283.206 94.946 281.838 95.459 280.812 96.485C279.786 97.511 279.273 98.822 279.273 100.418C279.273 102.014 279.767 103.363 280.755 104.465C281.743 105.529 283.13 106.061 284.916 106.061ZM294.093 96.371L290.046 93.692L296.202 88.733L298.995 92.21L294.093 96.371ZM301.309 119V79.271H306.952V96.998L305.755 97.397C306.249 95.839 306.971 94.547 307.921 93.521C308.909 92.495 310.03 91.716 311.284 91.184C312.576 90.652 313.944 90.386 315.388 90.386C318.504 90.386 320.936 91.298 322.684 93.122C324.47 94.908 325.363 97.53 325.363 100.988V119H319.777V103.04C319.777 100.342 319.283 98.366 318.295 97.112C317.345 95.858 315.863 95.231 313.849 95.231C311.607 95.231 309.897 96.029 308.719 97.625C307.541 99.183 306.952 101.691 306.952 105.149V119H301.309ZM328.939 103.952V99.791H343.075V103.952H328.939ZM356.364 119.513C354.388 119.513 352.64 119.228 351.12 118.658C349.6 118.05 348.289 117.29 347.187 116.378C346.123 115.428 345.268 114.459 344.622 113.471L348.441 110.165C349.163 111.457 350.189 112.578 351.519 113.528C352.887 114.44 354.521 114.896 356.421 114.896C358.093 114.896 359.404 114.554 360.354 113.87C361.342 113.148 361.836 112.217 361.836 111.077C361.836 110.165 361.532 109.443 360.924 108.911C360.316 108.341 359.518 107.885 358.53 107.543C357.542 107.163 356.459 106.84 355.281 106.574C354.217 106.27 353.134 105.928 352.032 105.548C350.93 105.168 349.923 104.693 349.011 104.123C348.137 103.515 347.415 102.755 346.845 101.843C346.313 100.893 346.047 99.734 346.047 98.366C346.047 95.972 346.959 94.053 348.783 92.609C350.645 91.127 353.096 90.386 356.136 90.386C358.302 90.386 360.278 90.842 362.064 91.754C363.85 92.628 365.237 93.939 366.225 95.687L362.748 98.366C361.988 97.112 361 96.2 359.784 95.63C358.606 95.06 357.314 94.775 355.908 94.775C354.578 94.775 353.457 95.06 352.545 95.63C351.671 96.162 351.234 96.903 351.234 97.853C351.234 98.537 351.424 99.107 351.804 99.563C352.222 99.981 352.849 100.361 353.685 100.703C354.559 101.007 355.623 101.311 356.877 101.615C358.055 101.881 359.252 102.204 360.468 102.584C361.684 102.964 362.805 103.458 363.831 104.066C364.857 104.674 365.693 105.491 366.339 106.517C366.985 107.543 367.308 108.873 367.308 110.507C367.308 112.293 366.852 113.87 365.94 115.238C365.028 116.568 363.755 117.613 362.121 118.373C360.487 119.133 358.568 119.513 356.364 119.513ZM383.365 119.513C381.237 119.513 379.337 119.133 377.665 118.373C376.031 117.575 374.644 116.492 373.504 115.124C372.402 113.756 371.566 112.198 370.996 110.45C370.426 108.702 370.141 106.859 370.141 104.921C370.141 103.021 370.426 101.197 370.996 99.449C371.566 97.701 372.402 96.143 373.504 94.775C374.644 93.407 376.031 92.343 377.665 91.583C379.337 90.785 381.237 90.386 383.365 90.386C386.101 90.386 388.476 91.051 390.49 92.381C392.542 93.711 394.043 95.725 394.993 98.423L390.091 100.304C389.597 98.822 388.799 97.606 387.697 96.656C386.595 95.706 385.151 95.231 383.365 95.231C381.617 95.231 380.173 95.706 379.033 96.656C377.893 97.568 377.057 98.765 376.525 100.247C375.993 101.691 375.727 103.249 375.727 104.921C375.727 106.593 375.993 108.17 376.525 109.652C377.057 111.134 377.893 112.331 379.033 113.243C380.173 114.155 381.617 114.611 383.365 114.611C385.151 114.611 386.595 114.155 387.697 113.243C388.799 112.293 389.597 111.058 390.091 109.538L394.993 111.419C394.043 114.155 392.542 116.188 390.49 117.518C388.476 118.848 386.101 119.513 383.365 119.513ZM398.73 119V79.271H404.373V96.998L403.176 97.397C403.67 95.839 404.392 94.547 405.342 93.521C406.33 92.495 407.451 91.716 408.705 91.184C409.997 90.652 411.365 90.386 412.809 90.386C415.925 90.386 418.357 91.298 420.105 93.122C421.891 94.908 422.784 97.53 422.784 100.988V119H417.198V103.04C417.198 100.342 416.704 98.366 415.716 97.112C414.766 95.858 413.284 95.231 411.27 95.231C409.028 95.231 407.318 96.029 406.14 97.625C404.962 99.183 404.373 101.691 404.373 105.149V119H398.73ZM440.496 119.513C437.836 119.513 435.461 118.886 433.371 117.632C431.281 116.378 429.628 114.649 428.412 112.445C427.234 110.241 426.645 107.733 426.645 104.921C426.645 102.109 427.234 99.62 428.412 97.454C429.59 95.25 431.224 93.521 433.314 92.267C435.442 91.013 437.836 90.386 440.496 90.386C443.194 90.386 445.569 91.013 447.621 92.267C449.673 93.521 451.288 95.25 452.466 97.454C453.682 99.62 454.29 102.109 454.29 104.921C454.29 107.733 453.682 110.241 452.466 112.445C451.288 114.611 449.654 116.34 447.564 117.632C445.512 118.886 443.156 119.513 440.496 119.513ZM440.496 114.554C442.168 114.554 443.612 114.155 444.828 113.357C446.082 112.559 447.032 111.438 447.678 109.994C448.362 108.55 448.704 106.859 448.704 104.921C448.704 102.945 448.362 101.235 447.678 99.791C447.032 98.347 446.082 97.245 444.828 96.485C443.612 95.687 442.168 95.288 440.496 95.288C438.786 95.288 437.304 95.687 436.05 96.485C434.834 97.283 433.884 98.404 433.2 99.848C432.554 101.254 432.231 102.945 432.231 104.921C432.231 106.859 432.554 108.55 433.2 109.994C433.884 111.438 434.834 112.559 436.05 113.357C437.304 114.155 438.786 114.554 440.496 114.554ZM471.002 119.513C468.342 119.513 465.967 118.886 463.877 117.632C461.787 116.378 460.134 114.649 458.918 112.445C457.74 110.241 457.151 107.733 457.151 104.921C457.151 102.109 457.74 99.62 458.918 97.454C460.096 95.25 461.73 93.521 463.82 92.267C465.948 91.013 468.342 90.386 471.002 90.386C473.7 90.386 476.075 91.013 478.127 92.267C480.179 93.521 481.794 95.25 482.972 97.454C484.188 99.62 484.796 102.109 484.796 104.921C484.796 107.733 484.188 110.241 482.972 112.445C481.794 114.611 480.16 116.34 478.07 117.632C476.018 118.886 473.662 119.513 471.002 119.513ZM471.002 114.554C472.674 114.554 474.118 114.155 475.334 113.357C476.588 112.559 477.538 111.438 478.184 109.994C478.868 108.55 479.21 106.859 479.21 104.921C479.21 102.945 478.868 101.235 478.184 99.791C477.538 98.347 476.588 97.245 475.334 96.485C474.118 95.687 472.674 95.288 471.002 95.288C469.292 95.288 467.81 95.687 466.556 96.485C465.34 97.283 464.39 98.404 463.706 99.848C463.06 101.254 462.737 102.945 462.737 104.921C462.737 106.859 463.06 108.55 463.706 109.994C464.39 111.438 465.34 112.559 466.556 113.357C467.81 114.155 469.292 114.554 471.002 114.554ZM494.953 119.513C493.167 119.513 491.704 118.962 490.564 117.86C489.424 116.758 488.854 115.01 488.854 112.616V79.271H494.383V111.533C494.383 112.521 494.592 113.243 495.01 113.699C495.466 114.117 496.055 114.326 496.777 114.326C497.081 114.326 497.423 114.307 497.803 114.269C498.221 114.193 498.639 114.079 499.057 113.927V118.658C498.373 118.962 497.651 119.171 496.891 119.285C496.169 119.437 495.523 119.513 494.953 119.513ZM514.08 119.513C511.8 119.513 509.824 119.133 508.152 118.373C506.48 117.613 505.093 116.568 503.991 115.238C502.889 113.87 502.053 112.331 501.483 110.621C500.951 108.873 500.685 107.049 500.685 105.149C500.685 103.249 500.951 101.425 501.483 99.677C502.015 97.891 502.813 96.314 503.877 94.946C504.941 93.54 506.271 92.438 507.867 91.64C509.501 90.804 511.42 90.386 513.624 90.386C515.828 90.386 517.728 90.766 519.324 91.526C520.92 92.248 522.231 93.274 523.257 94.604C524.283 95.896 525.043 97.359 525.537 98.993C526.069 100.627 526.335 102.356 526.335 104.18C526.335 104.37 526.316 104.731 526.278 105.263C526.278 105.757 526.24 106.232 526.164 106.688H506.271C506.385 109.196 507.145 111.134 508.551 112.502C509.995 113.832 511.895 114.497 514.251 114.497C515.847 114.497 517.272 114.25 518.526 113.756C519.78 113.224 520.939 112.407 522.003 111.305L525.423 114.839C524.321 115.941 523.181 116.834 522.003 117.518C520.863 118.202 519.647 118.696 518.355 119C517.101 119.342 515.676 119.513 514.08 119.513ZM520.806 103.895C520.882 103.591 520.92 103.287 520.92 102.983C520.958 102.679 520.977 102.375 520.977 102.071C520.977 101.197 520.825 100.342 520.521 99.506C520.217 98.67 519.761 97.929 519.153 97.283C518.545 96.599 517.785 96.067 516.873 95.687C515.999 95.269 514.973 95.06 513.795 95.06C512.237 95.06 510.907 95.421 509.805 96.143C508.703 96.827 507.848 97.739 507.24 98.879C506.67 100.019 506.328 101.254 506.214 102.584H522.63L520.806 103.895ZM530.498 119V90.899H536.141V98.48L534.944 98.708C535.134 97.036 535.704 95.592 536.654 94.376C537.642 93.122 538.801 92.153 540.131 91.469C541.461 90.747 542.772 90.386 544.064 90.386C544.976 90.386 545.831 90.5 546.629 90.728C547.465 90.918 548.301 91.26 549.137 91.754L546.401 96.77C545.983 96.542 545.451 96.352 544.805 96.2C544.159 96.048 543.551 95.972 542.981 95.972C542.107 95.972 541.252 96.124 540.416 96.428C539.58 96.732 538.82 97.226 538.136 97.91C537.49 98.594 536.996 99.487 536.654 100.589C536.502 101.121 536.369 101.824 536.255 102.698C536.179 103.534 536.141 104.693 536.141 106.175V119H530.498ZM560.391 119.513C558.415 119.513 556.667 119.228 555.147 118.658C553.627 118.05 552.316 117.29 551.214 116.378C550.15 115.428 549.295 114.459 548.649 113.471L552.468 110.165C553.19 111.457 554.216 112.578 555.546 113.528C556.914 114.44 558.548 114.896 560.448 114.896C562.12 114.896 563.431 114.554 564.381 113.87C565.369 113.148 565.863 112.217 565.863 111.077C565.863 110.165 565.559 109.443 564.951 108.911C564.343 108.341 563.545 107.885 562.557 107.543C561.569 107.163 560.486 106.84 559.308 106.574C558.244 106.27 557.161 105.928 556.059 105.548C554.957 105.168 553.95 104.693 553.038 104.123C552.164 103.515 551.442 102.755 550.872 101.843C550.34 100.893 550.074 99.734 550.074 98.366C550.074 95.972 550.986 94.053 552.81 92.609C554.672 91.127 557.123 90.386 560.163 90.386C562.329 90.386 564.305 90.842 566.091 91.754C567.877 92.628 569.264 93.939 570.252 95.687L566.775 98.366C566.015 97.112 565.027 96.2 563.811 95.63C562.633 95.06 561.341 94.775 559.935 94.775C558.605 94.775 557.484 95.06 556.572 95.63C555.698 96.162 555.261 96.903 555.261 97.853C555.261 98.537 555.451 99.107 555.831 99.563C556.249 99.981 556.876 100.361 557.712 100.703C558.586 101.007 559.65 101.311 560.904 101.615C562.082 101.881 563.279 102.204 564.495 102.584C565.711 102.964 566.832 103.458 567.858 104.066C568.884 104.674 569.72 105.491 570.366 106.517C571.012 107.543 571.335 108.873 571.335 110.507C571.335 112.293 570.879 113.87 569.967 115.238C569.055 116.568 567.782 117.613 566.148 118.373C564.514 119.133 562.595 119.513 560.391 119.513ZM248.902 179.513C247.23 179.513 245.691 179.19 244.285 178.544C242.917 177.86 241.739 176.891 240.751 175.637C239.801 174.345 239.079 172.787 238.585 170.963L240.238 170.906V179H234.652V139.271H240.238V158.993L238.813 158.651C239.193 157.017 239.858 155.592 240.808 154.376C241.758 153.122 242.917 152.153 244.285 151.469C245.691 150.747 247.23 150.386 248.902 150.386C251.22 150.386 253.329 150.975 255.229 152.153C257.129 153.331 258.63 155.003 259.732 157.169C260.834 159.335 261.385 161.919 261.385 164.921C261.385 167.657 260.872 170.146 259.846 172.388C258.82 174.592 257.357 176.34 255.457 177.632C253.595 178.886 251.41 179.513 248.902 179.513ZM247.705 174.383C249.339 174.383 250.745 173.984 251.923 173.186C253.139 172.388 254.089 171.286 254.773 169.88C255.457 168.436 255.799 166.783 255.799 164.921C255.799 163.059 255.457 161.425 254.773 160.019C254.089 158.575 253.139 157.473 251.923 156.713C250.745 155.915 249.339 155.516 247.705 155.516C246.109 155.516 244.703 155.915 243.487 156.713C242.309 157.473 241.378 158.575 240.694 160.019C240.048 161.425 239.725 163.059 239.725 164.921C239.725 166.783 240.048 168.436 240.694 169.88C241.378 171.286 242.309 172.388 243.487 173.186C244.703 173.984 246.109 174.383 247.705 174.383ZM267.391 190.571L272.863 177.347L262.033 150.899H268.189L275.827 171.761L283.579 150.899H289.621L273.49 190.571H267.391ZM298.064 178.43C301.028 178.088 302.51 177.404 303.137 175.238L313.511 141.266C314.195 139.1 313.169 138.416 310.433 138.074L310.547 137.504H322.403L322.289 138.074C319.325 138.359 317.672 138.986 317.045 141.095L306.614 175.352C305.93 177.461 307.127 178.145 309.92 178.43L309.749 179H297.893L298.064 178.43ZM309.867 178.43C312.831 178.088 314.313 177.404 314.94 175.238L325.314 141.266C325.998 139.1 324.972 138.416 322.236 138.074L322.35 137.504H334.206L334.092 138.074C331.128 138.359 329.475 138.986 328.848 141.095L318.417 175.352C317.733 177.461 318.93 178.145 321.723 178.43L321.552 179H309.696L309.867 178.43ZM322.297 178.43C324.463 178.145 326.914 177.404 328.168 173.984C331.702 164.75 335.293 152.552 339.226 141.038C339.853 139.1 337.801 138.359 336.376 138.074L336.547 137.504H343.102L344.983 170.336L366.472 137.504H373.426L373.255 138.074C371.032 138.359 369.208 139.1 368.638 141.038L358.321 175.694C357.808 177.404 359.119 178.145 361.684 178.43L361.513 179H350.056L350.227 178.43C353.134 178.031 354.388 177.347 354.844 175.694L365.446 140.411L342.475 175.58H341.905L339.796 141.893C335.977 153.122 332.272 164.636 329.536 173.984C328.567 177.347 329.707 178.031 333.298 178.43L333.127 179H322.183L322.297 178.43ZM382.114 179.57C377.326 179.57 374.647 176.663 374.647 172.331C374.647 168.74 376.528 166.973 378.124 166.973C378.751 166.973 379.264 167.201 379.606 167.543L391.006 154.319C391.12 153.521 391.234 152.723 391.405 151.868L394.882 149.816L395.623 150.272C393.913 153.407 393.4 156.029 393.457 164.294C393.514 174.326 389.182 179.57 382.114 179.57ZM376.699 174.041C376.699 176.777 378.637 178.886 381.886 178.886C386.389 178.886 390.037 174.383 390.322 167.144C390.55 161.957 390.493 158.936 390.835 155.63L380.005 168.227C380.062 168.398 380.119 168.683 380.119 168.911C380.119 171.419 376.699 171.704 376.699 174.041ZM398.808 179.57C396.699 179.57 395.217 177.803 396.756 173.243L403.824 151.355H401.202L401.373 150.842C404.052 149.759 406.275 147.593 408.783 143.147L409.296 143.318L407.073 150.557C408.726 150.557 411.234 150.443 412.83 150.443L412.488 151.526C411.291 151.526 408.669 151.298 406.845 151.298L400.176 172.16C398.067 178.829 402.171 179.285 407.244 172.217L407.871 172.616C404.622 177.404 401.43 179.57 398.808 179.57ZM413.339 179.57C411.458 179.57 410.147 178.43 411.971 172.844L417.272 156.827C419.438 150.215 416.588 151.355 412.199 157.397L411.572 156.998C414.878 152.096 417.899 149.93 419.78 149.93C421.604 149.93 422.117 151.412 420.692 155.801L415.79 170.792C414.137 175.865 414.707 176.891 415.961 176.891C419.096 176.891 425.024 169.823 432.947 150.5H436.082L429.128 173.186C427.475 178.487 429.413 178.772 434.372 172.103L434.942 172.502C431.636 177.404 428.615 179.57 426.791 179.57C425.081 179.57 424.454 178.316 425.708 174.212L430.781 157.568C423.086 174.041 417.5 179.57 413.339 179.57ZM439.626 179.57C436.947 179.57 435.579 177.746 435.579 173.984C435.579 162.755 444.528 149.93 454.275 149.93C455.13 149.93 456.156 150.044 457.296 150.215L460.602 139.328C461.115 137.732 460.488 137.105 457.752 137.162L457.923 136.592L464.649 134.54L465.048 134.882L453.534 172.673C451.539 179.171 453.933 178.316 458.55 172.103L459.177 172.502C455.871 177.404 452.85 179.57 451.026 179.57C449.316 179.57 448.746 178.316 450.114 173.699L452.109 167.087C447.891 176.036 442.932 179.57 439.626 179.57ZM438.942 173.186C438.942 176.264 439.854 177.29 441.393 177.29C444.642 177.29 450.342 171.989 454.617 158.993L456.783 151.811C455.928 151.013 454.845 150.614 453.648 150.614C447.264 150.614 438.942 163.154 438.942 173.186ZM465.98 179.57C460.907 179.57 458.456 174.269 461.42 164.921C463.814 157.226 469.001 149.93 475.784 149.93C479.888 149.93 482.054 152.438 480.914 156.257C479.66 160.418 474.53 164.465 464.726 164.579C462.104 172.958 463.985 177.575 467.462 177.575C470.084 177.575 474.017 175.523 477.266 170.735L477.836 171.134C474.359 176.834 469.343 179.57 465.98 179.57ZM464.954 163.895C471.509 163.724 476.468 160.874 477.95 156.371C479.033 153.008 478.235 150.614 475.328 150.614C471.908 150.614 467.975 154.946 464.954 163.895ZM488.112 156.314C489.879 150.614 487.428 151.127 482.868 157.397L482.241 156.998C485.547 152.096 488.568 149.93 490.392 149.93C492.273 149.93 492.729 151.355 491.532 155.288L486.402 172.103C494.781 154.49 501.45 149.93 504.984 149.93C506.808 149.93 507.891 151.127 505.896 156.656L500.196 172.673C497.973 178.886 500.424 178.544 505.212 172.103L505.839 172.502C502.533 177.404 499.512 179.57 497.574 179.57C495.921 179.57 495.066 178.259 496.719 173.699L502.077 158.708C503.901 153.578 503.502 152.609 502.362 152.609C498.942 152.609 491.988 160.133 484.293 179H481.158L488.112 156.314ZM510.003 179.57C507.894 179.57 506.412 177.803 507.951 173.243L515.019 151.355H512.397L512.568 150.842C515.247 149.759 517.47 147.593 519.978 143.147L520.491 143.318L518.268 150.557C519.921 150.557 522.429 150.443 524.025 150.443L523.683 151.526C522.486 151.526 519.864 151.298 518.04 151.298L511.371 172.16C509.262 178.829 513.366 179.285 518.439 172.217L519.066 172.616C515.817 177.404 512.625 179.57 510.003 179.57ZM527.656 179.57C522.868 179.57 520.189 176.663 520.189 172.331C520.189 168.74 522.07 166.973 523.666 166.973C524.293 166.973 524.806 167.201 525.148 167.543L536.548 154.319C536.662 153.521 536.776 152.723 536.947 151.868L540.424 149.816L541.165 150.272C539.455 153.407 538.942 156.029 538.999 164.294C539.056 174.326 534.724 179.57 527.656 179.57ZM522.241 174.041C522.241 176.777 524.179 178.886 527.428 178.886C531.931 178.886 535.579 174.383 535.864 167.144C536.092 161.957 536.035 158.936 536.377 155.63L525.547 168.227C525.604 168.398 525.661 168.683 525.661 168.911C525.661 171.419 522.241 171.704 522.241 174.041Z" fill="#020202"/>
</svg>
