<svg width="439" height="45" viewBox="0 0 439 45" fill="none" xmlns="http://www.w3.org/2000/svg">
<path d="M8.87953 43.6801V19.9201H-0.000468746V15.8001H22.3995V19.9201H13.5595V43.6801H8.87953ZM23.918 43.6801V15.8001H28.358V28.3201L27.558 28.5201C27.9046 27.3734 28.4113 26.4401 29.078 25.7201C29.7713 25.0001 30.558 24.4667 31.438 24.1201C32.318 23.7734 33.2513 23.6001 34.238 23.6001C36.4513 23.6001 38.1713 24.2401 39.398 25.5201C40.6513 26.7734 41.278 28.5734 41.278 30.9201V43.6801H36.838V32.5601C36.838 30.8001 36.518 29.5067 35.878 28.6801C35.238 27.8534 34.2513 27.4401 32.918 27.4401C31.4246 27.4401 30.2913 27.9734 29.518 29.0401C28.7446 30.1067 28.358 31.7867 28.358 34.0801V43.6801H23.918ZM53.3017 44.0401C51.6484 44.0401 50.2084 43.7734 48.9817 43.2401C47.7817 42.7067 46.7951 41.9601 46.0217 41.0001C45.2484 40.0401 44.6751 38.9601 44.3017 37.7601C43.9284 36.5334 43.7417 35.2667 43.7417 33.9601C43.7417 32.6534 43.9151 31.3867 44.2617 30.1601C44.6351 28.9067 45.1951 27.7867 45.9417 26.8001C46.6884 25.8134 47.6484 25.0401 48.8217 24.4801C49.9951 23.8934 51.3817 23.6001 52.9817 23.6001C54.5017 23.6001 55.8217 23.8667 56.9417 24.4001C58.0884 24.9067 59.0351 25.6267 59.7817 26.5601C60.5284 27.4667 61.0751 28.5067 61.4217 29.6801C61.7951 30.8534 61.9817 32.1067 61.9817 33.4401C61.9817 33.6267 61.9684 33.8934 61.9417 34.2401C61.9417 34.5867 61.9151 34.9334 61.8617 35.2801H48.1817C48.2884 36.8534 48.8217 38.0534 49.7817 38.8801C50.7417 39.7067 51.9684 40.1201 53.4617 40.1201C54.5551 40.1201 55.5551 39.9467 56.4617 39.6001C57.3684 39.2534 58.1951 38.7067 58.9417 37.9601L61.3817 40.9201C60.5551 41.6667 59.7284 42.2667 58.9017 42.7201C58.0751 43.1734 57.2084 43.5067 56.3017 43.7201C55.4217 43.9334 54.4217 44.0401 53.3017 44.0401ZM57.6217 33.0401C57.6751 32.8267 57.7017 32.6134 57.7017 32.4001C57.7284 32.1867 57.7417 31.9734 57.7417 31.7601C57.7417 31.1734 57.6351 30.6134 57.4217 30.0801C57.2351 29.5467 56.9417 29.0801 56.5417 28.6801C56.1417 28.2534 55.6484 27.9201 55.0617 27.6801C54.4751 27.4134 53.8084 27.2801 53.0617 27.2801C52.0217 27.2801 51.1417 27.5067 50.4217 27.9601C49.7284 28.4134 49.1817 29.0001 48.7817 29.7201C48.4084 30.4134 48.1817 31.1734 48.1017 32.0001H59.0617L57.6217 33.0401ZM84.013 44.2401C80.573 44.2401 77.9463 43.3467 76.133 41.5601C74.3463 39.7734 73.453 37.1201 73.453 33.6001V15.8001H78.093V33.0801C78.093 34.6001 78.2663 35.8801 78.613 36.9201C78.9863 37.9334 79.5996 38.7067 80.453 39.2401C81.333 39.7467 82.5196 40.0001 84.013 40.0001C85.5063 40.0001 86.6796 39.7334 87.533 39.2001C88.413 38.6667 89.0396 37.8934 89.413 36.8801C89.7863 35.8667 89.973 34.6001 89.973 33.0801V15.8001H94.573V33.4001C94.573 37.0001 93.6796 39.7067 91.893 41.5201C90.1063 43.3334 87.4796 44.2401 84.013 44.2401ZM98.182 43.6801V23.9601H102.622V28.3201L101.822 28.5201C102.169 27.3734 102.675 26.4401 103.342 25.7201C104.009 25.0001 104.782 24.4667 105.662 24.1201C106.569 23.7734 107.515 23.6001 108.502 23.6001C110.715 23.6001 112.435 24.2401 113.662 25.5201C114.915 26.7734 115.542 28.5734 115.542 30.9201V43.6801H111.102V32.5601C111.102 30.8001 110.782 29.5067 110.142 28.6801C109.502 27.8534 108.515 27.4401 107.182 27.4401C106.195 27.4401 105.355 27.6801 104.662 28.1601C103.995 28.6134 103.489 29.3334 103.142 30.3201C102.795 31.3067 102.622 32.5601 102.622 34.0801V43.6801H98.182ZM118.886 43.6801V23.9601H123.326V43.6801H118.886ZM118.686 20.7201V15.8001H123.526V20.7201H118.686ZM133.056 43.6801L125.016 23.9601H129.896L134.896 37.9201L139.976 23.9601H144.776L136.736 43.6801H133.056ZM154.522 44.0401C152.869 44.0401 151.429 43.7734 150.202 43.2401C149.002 42.7067 148.015 41.9601 147.242 41.0001C146.469 40.0401 145.895 38.9601 145.522 37.7601C145.149 36.5334 144.962 35.2667 144.962 33.9601C144.962 32.6534 145.135 31.3867 145.482 30.1601C145.855 28.9067 146.415 27.7867 147.162 26.8001C147.909 25.8134 148.869 25.0401 150.042 24.4801C151.215 23.8934 152.602 23.6001 154.202 23.6001C155.722 23.6001 157.042 23.8667 158.162 24.4001C159.309 24.9067 160.255 25.6267 161.002 26.5601C161.749 27.4667 162.295 28.5067 162.642 29.6801C163.015 30.8534 163.202 32.1067 163.202 33.4401C163.202 33.6267 163.189 33.8934 163.162 34.2401C163.162 34.5867 163.135 34.9334 163.082 35.2801H149.402C149.509 36.8534 150.042 38.0534 151.002 38.8801C151.962 39.7067 153.189 40.1201 154.682 40.1201C155.775 40.1201 156.775 39.9467 157.682 39.6001C158.589 39.2534 159.415 38.7067 160.162 37.9601L162.602 40.9201C161.775 41.6667 160.949 42.2667 160.122 42.7201C159.295 43.1734 158.429 43.5067 157.522 43.7201C156.642 43.9334 155.642 44.0401 154.522 44.0401ZM158.842 33.0401C158.895 32.8267 158.922 32.6134 158.922 32.4001C158.949 32.1867 158.962 31.9734 158.962 31.7601C158.962 31.1734 158.855 30.6134 158.642 30.0801C158.455 29.5467 158.162 29.0801 157.762 28.6801C157.362 28.2534 156.869 27.9201 156.282 27.6801C155.695 27.4134 155.029 27.2801 154.282 27.2801C153.242 27.2801 152.362 27.5067 151.642 27.9601C150.949 28.4134 150.402 29.0001 150.002 29.7201C149.629 30.4134 149.402 31.1734 149.322 32.0001H160.282L158.842 33.0401ZM165.923 43.6801V23.9601H170.403V29.2801L169.563 29.4001C169.696 28.2534 170.083 27.2534 170.723 26.4001C171.363 25.5201 172.136 24.8401 173.043 24.3601C173.976 23.8534 174.896 23.6001 175.803 23.6001C176.443 23.6001 177.056 23.6801 177.643 23.8401C178.229 24.0001 178.843 24.2667 179.483 24.6401L177.323 28.6401C177.029 28.4534 176.643 28.3067 176.163 28.2001C175.709 28.0667 175.269 28.0001 174.843 28.0001C174.283 28.0001 173.723 28.1067 173.163 28.3201C172.629 28.5334 172.149 28.8667 171.723 29.3201C171.296 29.7467 170.976 30.3067 170.763 31.0001C170.629 31.3734 170.523 31.8667 170.443 32.4801C170.389 33.0667 170.363 33.8934 170.363 34.9601V43.6801H165.923ZM187.254 44.0401C185.84 44.0401 184.587 43.8401 183.494 43.4401C182.4 43.0134 181.48 42.4801 180.734 41.8401C179.987 41.2001 179.374 40.5601 178.894 39.9201L181.934 37.2801C182.44 38.1067 183.134 38.8401 184.014 39.4801C184.92 40.1201 186.014 40.4401 187.294 40.4401C188.36 40.4401 189.2 40.2134 189.814 39.7601C190.454 39.3067 190.774 38.7467 190.774 38.0801C190.774 37.4934 190.574 37.0401 190.174 36.7201C189.774 36.3734 189.254 36.0801 188.614 35.8401C187.974 35.6001 187.267 35.3867 186.494 35.2001C185.747 35.0134 184.987 34.7867 184.214 34.5201C183.44 34.2267 182.72 33.8667 182.054 33.4401C181.414 33.0134 180.894 32.4667 180.494 31.8001C180.094 31.1334 179.894 30.3067 179.894 29.3201C179.894 27.5867 180.56 26.2001 181.894 25.1601C183.227 24.1201 184.974 23.6001 187.134 23.6001C188.68 23.6001 190.094 23.9067 191.374 24.5201C192.654 25.1334 193.654 26.0534 194.374 27.2801L191.614 29.4001C191.08 28.6001 190.414 28.0001 189.614 27.6001C188.814 27.2001 187.947 27.0001 187.014 27.0001C186.16 27.0001 185.44 27.1734 184.854 27.5201C184.294 27.8667 184.014 28.3201 184.014 28.8801C184.014 29.3067 184.147 29.6534 184.414 29.9201C184.68 30.1867 185.094 30.4267 185.654 30.6401C186.214 30.8534 186.92 31.0667 187.774 31.2801C188.574 31.4667 189.4 31.6934 190.254 31.9601C191.107 32.2267 191.894 32.5867 192.614 33.0401C193.36 33.4667 193.96 34.0534 194.414 34.8001C194.894 35.5201 195.134 36.4534 195.134 37.6001C195.134 38.8801 194.8 40.0134 194.134 41.0001C193.494 41.9601 192.574 42.7067 191.374 43.2401C190.2 43.7734 188.827 44.0401 187.254 44.0401ZM206.402 44.0401C204.748 44.0401 203.308 43.7734 202.082 43.2401C200.882 42.7067 199.895 41.9601 199.122 41.0001C198.348 40.0401 197.775 38.9601 197.402 37.7601C197.028 36.5334 196.842 35.2667 196.842 33.9601C196.842 32.6534 197.015 31.3867 197.362 30.1601C197.735 28.9067 198.295 27.7867 199.042 26.8001C199.788 25.8134 200.748 25.0401 201.922 24.4801C203.095 23.8934 204.482 23.6001 206.082 23.6001C207.602 23.6001 208.922 23.8667 210.042 24.4001C211.188 24.9067 212.135 25.6267 212.882 26.5601C213.628 27.4667 214.175 28.5067 214.522 29.6801C214.895 30.8534 215.082 32.1067 215.082 33.4401C215.082 33.6267 215.068 33.8934 215.042 34.2401C215.042 34.5867 215.015 34.9334 214.962 35.2801H201.282C201.388 36.8534 201.922 38.0534 202.882 38.8801C203.842 39.7067 205.068 40.1201 206.562 40.1201C207.655 40.1201 208.655 39.9467 209.562 39.6001C210.468 39.2534 211.295 38.7067 212.042 37.9601L214.482 40.9201C213.655 41.6667 212.828 42.2667 212.002 42.7201C211.175 43.1734 210.308 43.5067 209.402 43.7201C208.522 43.9334 207.522 44.0401 206.402 44.0401ZM210.722 33.0401C210.775 32.8267 210.802 32.6134 210.802 32.4001C210.828 32.1867 210.842 31.9734 210.842 31.7601C210.842 31.1734 210.735 30.6134 210.522 30.0801C210.335 29.5467 210.042 29.0801 209.642 28.6801C209.242 28.2534 208.748 27.9201 208.162 27.6801C207.575 27.4134 206.908 27.2801 206.162 27.2801C205.122 27.2801 204.242 27.5067 203.522 27.9601C202.828 28.4134 202.282 29.0001 201.882 29.7201C201.508 30.4134 201.282 31.1734 201.202 32.0001H212.162L210.722 33.0401ZM235.473 44.0401C233.606 44.0401 231.926 43.6001 230.433 42.7201C228.94 41.8401 227.766 40.6267 226.913 39.0801C226.086 37.5334 225.673 35.7734 225.673 33.8001C225.673 31.8267 226.086 30.0667 226.913 28.5201C227.766 26.9734 228.926 25.7734 230.393 24.9201C231.886 24.0401 233.58 23.6001 235.473 23.6001C237.393 23.6001 239.073 24.0401 240.513 24.9201C241.98 25.7734 243.14 26.9734 243.993 28.5201C244.846 30.0667 245.273 31.8267 245.273 33.8001C245.273 35.7734 244.846 37.5334 243.993 39.0801C243.166 40.6267 242.006 41.8401 240.513 42.7201C239.046 43.6001 237.366 44.0401 235.473 44.0401ZM235.513 40.1201C236.606 40.1201 237.553 39.8667 238.353 39.3601C239.153 38.8534 239.766 38.1201 240.193 37.1601C240.62 36.2001 240.833 35.0801 240.833 33.8001C240.833 32.4934 240.62 31.3734 240.193 30.4401C239.766 29.4801 239.153 28.7467 238.353 28.2401C237.553 27.7334 236.606 27.4801 235.513 27.4801C234.366 27.4801 233.393 27.7467 232.593 28.2801C231.793 28.7867 231.18 29.5067 230.753 30.4401C230.326 31.3734 230.113 32.4934 230.113 33.8001C230.113 35.0801 230.326 36.2001 230.753 37.1601C231.18 38.1201 231.793 38.8534 232.593 39.3601C233.393 39.8667 234.366 40.1201 235.513 40.1201ZM249.287 43.6801V27.4001H245.527V23.9601H249.327V21.7201C249.327 20.0934 249.594 18.8267 250.127 17.9201C250.661 16.9867 251.367 16.3467 252.247 16.0001C253.154 15.6267 254.154 15.4401 255.247 15.4401C256.021 15.4401 256.701 15.5201 257.287 15.6801C257.901 15.8134 258.474 16.0134 259.007 16.2801L257.567 19.6401C257.301 19.4801 257.007 19.3601 256.687 19.2801C256.394 19.1734 256.074 19.1201 255.727 19.1201C255.007 19.1201 254.487 19.3601 254.167 19.8401C253.874 20.2934 253.727 20.9201 253.727 21.7201V23.9601H258.047V27.4001H253.727V43.6801H249.287Z" fill="white"/>
<path d="M262.288 43.0801C264.568 42.7801 267.148 42.0001 268.468 38.4001C272.188 28.6801 275.968 15.8401 280.108 3.72005C280.768 1.68005 278.608 0.90005 277.108 0.60005L277.288 5.10216e-05H284.188L286.168 34.5601L308.788 5.10216e-05H316.108L315.928 0.60005C313.588 0.90005 311.668 1.68005 311.068 3.72005L300.208 40.2001C299.668 42.0001 301.048 42.7801 303.748 43.0801L303.568 43.6801H291.508L291.688 43.0801C294.748 42.6601 296.068 41.9401 296.548 40.2001L307.708 3.06005L283.528 40.0801H282.928L280.708 4.62005C276.688 16.4401 272.788 28.5601 269.908 38.4001C268.888 41.9401 270.088 42.6601 273.868 43.0801L273.688 43.6801H262.168L262.288 43.0801ZM313.975 44.2801C308.635 44.2801 306.055 38.7001 309.175 28.8601C311.695 20.7601 317.155 13.0801 324.295 13.0801C328.615 13.0801 330.895 15.7201 329.695 19.7401C328.375 24.1201 322.975 28.3801 312.655 28.5001C309.895 37.3201 311.875 42.1801 315.535 42.1801C318.295 42.1801 322.435 40.0201 325.855 34.9801L326.455 35.4001C322.795 41.4001 317.515 44.2801 313.975 44.2801ZM312.895 27.7801C319.795 27.6001 325.015 24.6001 326.575 19.8601C327.715 16.3201 326.875 13.8001 323.815 13.8001C320.215 13.8001 316.075 18.3601 312.895 27.7801ZM338.472 19.8001C340.332 13.8001 337.752 14.3401 332.952 20.9401L332.292 20.5201C335.772 15.3601 338.952 13.0801 340.872 13.0801C342.852 13.0801 343.332 14.5801 342.072 18.7201L336.672 36.4201C345.492 17.8801 352.512 13.0801 356.232 13.0801C358.152 13.0801 359.292 14.3401 357.192 20.1601L351.192 37.0201C348.852 43.5601 351.432 43.2001 356.472 36.4201L357.132 36.8401C353.652 42.0001 350.472 44.2801 348.432 44.2801C346.692 44.2801 345.792 42.9001 347.532 38.1001L353.172 22.3201C355.092 16.9201 354.672 15.9001 353.472 15.9001C349.872 15.9001 342.552 23.8201 334.452 43.6801H331.152L338.472 19.8001ZM362.715 44.2801C360.495 44.2801 358.935 42.4201 360.555 37.6201L367.995 14.5801H365.235L365.415 14.0401C368.235 12.9001 370.575 10.6201 373.215 5.94005L373.755 6.12005L371.415 13.7401C373.155 13.7401 375.795 13.6201 377.475 13.6201L377.115 14.7601C375.855 14.7601 373.095 14.5201 371.175 14.5201L364.155 36.4801C361.935 43.5001 366.255 43.9801 371.595 36.5401L372.255 36.9601C368.835 42.0001 365.475 44.2801 362.715 44.2801ZM382.617 44.2801C376.377 44.2201 373.857 38.4601 376.437 29.4001C379.377 19.3201 385.557 13.0201 392.517 13.0801C398.697 13.1401 401.097 18.9601 398.457 28.1401C395.637 38.0401 389.457 44.3401 382.617 44.2801ZM380.157 28.7401C377.517 37.8601 378.897 43.5001 383.337 43.5001C387.777 43.5001 392.037 37.9801 394.737 28.8001C397.497 19.5601 396.297 13.8601 391.917 13.8001C387.297 13.8001 382.857 19.3801 380.157 28.7401ZM408.549 19.8001C410.409 13.7401 407.829 14.4001 403.089 20.9401L402.429 20.5201C405.909 15.3601 409.089 13.0801 411.009 13.0801C412.989 13.0801 413.409 14.5801 412.149 18.7201L408.429 30.8401C413.949 17.2201 417.609 13.0201 421.929 13.0201C423.669 13.0201 424.689 14.1001 424.269 15.4801C423.969 16.6201 422.949 17.4001 421.809 17.4001C420.369 17.4001 420.189 16.0201 418.629 16.0201C416.529 16.0201 413.049 19.6801 404.529 43.6801H401.229L408.549 19.8001ZM424.332 44.2801C419.292 44.2801 416.472 41.2201 416.472 36.6601C416.472 32.8801 418.452 31.0201 420.132 31.0201C420.792 31.0201 421.332 31.2601 421.692 31.6201L433.692 17.7001C433.812 16.8601 433.932 16.0201 434.112 15.1201L437.772 12.9601L438.552 13.4401C436.752 16.7401 436.212 19.5001 436.272 28.2001C436.332 38.7601 431.772 44.2801 424.332 44.2801ZM418.632 38.4601C418.632 41.3401 420.672 43.5601 424.092 43.5601C428.832 43.5601 432.672 38.8201 432.972 31.2001C433.212 25.7401 433.152 22.5601 433.512 19.0801L422.112 32.3401C422.172 32.5201 422.232 32.8201 422.232 33.0601C422.232 35.7001 418.632 36.0001 418.632 38.4601Z" fill="#FF5D1A"/>
</svg>
