<svg width="74" height="53" viewBox="0 0 74 53" fill="none" xmlns="http://www.w3.org/2000/svg">
<path d="M1 48.209C14.0983 54.204 19.5901 52.2018 31.0485 45.4939C32.9534 43.4392 35.4372 39.9977 37.6339 36.1051M37.6339 36.1051C40.4627 31.0926 42.8155 25.3319 42.8437 20.8207C42.9347 6.23614 27.1656 20.3175 31.2994 29.4774C32.9564 33.1491 35.1461 35.2354 37.6339 36.1051ZM37.6339 36.1051C46.5241 39.2128 59.2224 26.7844 65.0313 15.6442C65.4478 14.8455 65.8734 14.0242 66.3024 13.1876M66.3024 13.1876C66.6033 12.6008 66.9058 12.0066 67.208 11.4074M66.3024 13.1876C64.5562 11.6224 63.0175 8.75138 61.1389 7.38487C60.3775 6.8311 66.9113 3.7312 68.1652 2.99659C69.9148 1.97151 71.0136 1.67014 71.6645 1.91037M66.3024 13.1876C66.5624 13.4207 66.8271 13.6249 67.0981 13.7908C69.9607 15.5429 71.0138 17.8741 68.1825 12.9527C67.8677 12.4055 67.5406 11.898 67.208 11.4074M67.208 11.4074C67.328 11.1694 67.4479 10.9307 67.5676 10.6914M67.208 11.4074C66.5645 10.4583 65.9006 9.57248 65.2657 8.58526C64.3874 7.21941 64.789 7.414 65.3456 7.93067M67.5676 10.6914C67.606 10.6147 67.6444 10.538 67.6827 10.4612M67.5676 10.6914C67.2693 10.5499 66.6207 9.8275 66.4048 9.15988C66.3448 8.97414 65.7947 8.34756 65.3456 7.93067M67.5676 10.6914C67.7039 10.756 67.7671 10.6995 67.6827 10.4612M67.6827 10.4612C67.7884 10.2494 67.8939 10.0372 67.9991 9.82461M67.6827 10.4612C67.6174 10.277 67.464 9.98423 67.188 9.55493C66.938 9.16624 66.031 8.15461 65.6947 7.66286M67.9991 9.82461C68.2767 9.26417 68.5523 8.70146 68.8246 8.13851M67.9991 9.82461C67.4318 9.01524 66.7151 8.03475 65.9113 7.53746M67.9991 9.82461C68.8006 10.968 69.3039 11.7699 69.3333 10.3853C69.3557 9.32707 69.1802 8.63433 68.8246 8.13851M68.8246 8.13851C69.7635 6.19716 70.6618 4.25294 71.4542 2.38927C71.5302 2.21051 71.6002 2.0513 71.6645 1.91037M68.8246 8.13851C68.4894 7.67123 67.9942 7.37886 67.3539 7.12031C67.13 7.0299 66.4481 7.24902 65.9113 7.53746M71.6645 1.91037C72.4161 0.264674 72.3996 1.11028 72.2162 2.39546M71.6645 1.91037C71.9072 1.99993 72.0876 2.16477 72.2162 2.39546M72.2162 2.39546C72.0852 3.31383 71.8688 4.45667 71.7866 5.07529C71.5563 6.80756 71.5446 8.43023 71.491 10.0608M72.2162 2.39546C72.8885 3.60107 72.1469 6.60514 71.491 10.0608M71.491 10.0608C71.4553 11.1479 71.401 12.2385 71.2509 13.3674C70.5943 18.3058 70.8655 13.6146 71.2555 11.355C71.3309 10.9184 71.4103 10.4862 71.491 10.0608ZM65.3456 7.93067C65.4326 7.84234 65.5539 7.7511 65.6947 7.66286M65.3456 7.93067C65.1739 8.10502 65.1361 8.26801 65.3464 8.37412M65.6947 7.66286C65.5408 7.43776 65.5064 7.3216 65.7094 7.424C65.7773 7.45825 65.8446 7.49619 65.9113 7.53746M65.6947 7.66286C65.7629 7.62014 65.8357 7.57811 65.9113 7.53746" stroke="#1C1C1C" stroke-opacity="0.33" stroke-width="2" stroke-linecap="round"/>
</svg>
