<svg width="106" height="81" viewBox="0 0 106 81" fill="none" xmlns="http://www.w3.org/2000/svg">
<path d="M104.363 79.7751C104.492 63.4676 104.003 50.9098 83.7211 38.9309C81.3726 37.5438 78.9254 36.4244 76.4338 35.5878M76.4338 35.5878C68.6552 32.9758 60.4441 33.1194 53.4522 36.4739C36.6533 44.5334 68.7352 58.2428 75.0465 47.4373C77.4575 43.3094 77.7296 39.3266 76.4338 35.5878ZM76.4338 35.5878C71.5112 21.3845 43.9606 10.7028 25.0782 8.9707C23.742 8.84813 22.3706 8.72571 20.9784 8.60726M20.9784 8.60726C20.0018 8.52417 19.015 8.44303 18.0229 8.36515M20.9784 8.60726C20.9517 11.8788 19.2194 15.5986 19.5544 18.9401C19.6902 20.2942 9.52983 13.0793 7.41999 11.7731C4.4759 9.95056 3.01907 8.61368 2.63584 7.58682M20.9784 8.60726C20.9823 8.12007 20.9485 7.64283 20.8643 7.17825C19.9757 2.27191 21.581 -0.479536 18.8074 6.16233C18.499 6.90084 18.2485 7.63399 18.0229 8.36515M18.0229 8.36515C17.629 8.33422 17.2343 8.30382 16.839 8.27401M18.0229 8.36515C17.5866 9.7796 17.2436 11.1866 16.7549 12.6107C16.0788 14.5809 15.8955 13.9213 15.9243 12.8685M16.839 8.27401C16.7124 8.26446 16.5856 8.25496 16.4589 8.24553M16.839 8.27401C16.9787 8.76229 16.8072 10.0566 16.2609 10.7271C16.1089 10.9136 15.9475 12.0191 15.9243 12.8685M16.839 8.27401C16.7752 8.051 16.6465 7.99612 16.4589 8.24553M16.4589 8.24553C16.1094 8.21953 15.7595 8.19402 15.4096 8.16906M16.4589 8.24553C16.3139 8.43831 16.1337 8.81288 15.9212 9.43212C15.7288 9.99279 15.4874 11.8035 15.2643 12.5404M15.4096 8.16906C14.4869 8.10323 13.5634 8.04118 12.6431 7.98395M15.4096 8.16906C15.0563 9.40074 14.6581 10.9332 14.9016 12.3139M15.4096 8.16906C15.9087 6.429 16.3181 5.28925 14.7023 6.02599C13.4674 6.58907 12.8513 7.2183 12.6431 7.98395M12.6431 7.98395C9.46946 7.78658 6.33363 7.6465 3.39723 7.60638C3.11557 7.60253 2.86239 7.59595 2.63584 7.58682M12.6431 7.98395C12.4469 8.70551 12.6129 9.54824 12.9644 10.5709C13.0874 10.9285 14.0282 11.7401 14.9016 12.3139M2.63584 7.58682C-0.00959248 7.48031 0.975719 7.02833 2.63345 6.55851M2.63584 7.58682C2.49297 7.204 2.49931 6.86425 2.63345 6.55851M2.63345 6.55851C3.81805 6.22278 5.34601 5.87794 6.13785 5.64352C8.35524 4.9871 10.2259 4.09252 12.1479 3.25089M2.63345 6.55851C3.33447 4.96063 7.52587 4.29117 12.1479 3.25089M12.1479 3.25089C13.4292 2.68979 14.7334 2.15222 16.1784 1.72444C22.4997 -0.146914 16.8515 2.11393 13.8686 2.84745C13.2923 2.98916 12.7169 3.12283 12.1479 3.25089ZM15.9243 12.8685C15.7351 12.7989 15.5079 12.6838 15.2643 12.5404M15.9243 12.8685C16.2977 13.006 16.5226 12.9664 16.4314 12.6186M15.2643 12.5404C15.1622 12.8777 15.0639 12.9899 14.9759 12.6543C14.9464 12.542 14.9218 12.4285 14.9016 12.3139M15.2643 12.5404C15.1464 12.4709 15.0247 12.3947 14.9016 12.3139" stroke="#1C1C1C" stroke-opacity="0.4" stroke-width="2" stroke-linecap="round"/>
</svg>
