<svg width="158" height="29" viewBox="0 0 158 29" fill="none" xmlns="http://www.w3.org/2000/svg">
<path d="M7.38047 21.6602V13.5602L0.000468766 0.750155H3.48047L8.82047 10.5002L14.2805 0.750155H17.7305L10.4405 13.5602V21.6602H7.38047ZM22.6908 21.9302C21.2908 21.9302 20.0408 21.6002 18.9408 20.9402C17.8408 20.2802 16.9708 19.3702 16.3308 18.2102C15.7108 17.0502 15.4008 15.7302 15.4008 14.2502C15.4008 12.7702 15.7108 11.4602 16.3308 10.3202C16.9508 9.16016 17.8108 8.25016 18.9108 7.59016C20.0308 6.93016 21.2908 6.60016 22.6908 6.60016C24.1108 6.60016 25.3608 6.93016 26.4408 7.59016C27.5208 8.25016 28.3708 9.16016 28.9908 10.3202C29.6308 11.4602 29.9508 12.7702 29.9508 14.2502C29.9508 15.7302 29.6308 17.0502 28.9908 18.2102C28.3708 19.3502 27.5108 20.2602 26.4108 20.9402C25.3308 21.6002 24.0908 21.9302 22.6908 21.9302ZM22.6908 19.3202C23.5708 19.3202 24.3308 19.1102 24.9708 18.6902C25.6308 18.2702 26.1308 17.6802 26.4708 16.9202C26.8308 16.1602 27.0108 15.2702 27.0108 14.2502C27.0108 13.2102 26.8308 12.3102 26.4708 11.5502C26.1308 10.7902 25.6308 10.2102 24.9708 9.81016C24.3308 9.39016 23.5708 9.18016 22.6908 9.18016C21.7908 9.18016 21.0108 9.39016 20.3508 9.81016C19.7108 10.2302 19.2108 10.8202 18.8508 11.5802C18.5108 12.3202 18.3408 13.2102 18.3408 14.2502C18.3408 15.2702 18.5108 16.1602 18.8508 16.9202C19.2108 17.6802 19.7108 18.2702 20.3508 18.6902C21.0108 19.1102 21.7908 19.3202 22.6908 19.3202ZM36.9166 21.9302C35.8166 21.9302 34.8666 21.7102 34.0666 21.2702C33.2866 20.8102 32.6866 20.1602 32.2666 19.3202C31.8666 18.4602 31.6666 17.4202 31.6666 16.2002V6.87016H34.6066V15.2702C34.6066 16.1502 34.7166 16.9002 34.9366 17.5202C35.1566 18.1202 35.4966 18.5802 35.9566 18.9002C36.4366 19.2002 37.0366 19.3502 37.7566 19.3502C38.5966 19.3502 39.2766 19.1402 39.7966 18.7202C40.3366 18.3002 40.7366 17.6802 40.9966 16.8602C41.2566 16.0202 41.3866 14.9802 41.3866 13.7402V6.87016H44.2966V21.6602H41.3866V18.4802L41.9866 18.6002C41.5466 19.7002 40.8766 20.5302 39.9766 21.0902C39.0766 21.6502 38.0566 21.9302 36.9166 21.9302ZM46.9287 21.6602V6.87016H49.8987V10.0802L49.2987 10.2602C49.5587 9.44016 49.9287 8.77016 50.4087 8.25016C50.9087 7.71016 51.4887 7.30016 52.1487 7.02016C52.8287 6.74016 53.5587 6.60016 54.3387 6.60016C55.9787 6.60016 57.2587 7.08016 58.1787 8.04016C59.1187 8.98016 59.5887 10.3602 59.5887 12.1802V21.6602H56.6487V13.2602C56.6487 11.8402 56.3887 10.8002 55.8687 10.1402C55.3687 9.48016 54.5887 9.15016 53.5287 9.15016C52.7287 9.15016 52.0587 9.33016 51.5187 9.69016C50.9987 10.0502 50.5987 10.6202 50.3187 11.4002C50.0387 12.1802 49.8987 13.1702 49.8987 14.3702V21.6602H46.9287ZM68.0707 28.0502C65.9307 28.0502 64.2307 27.6602 62.9707 26.8802C61.7307 26.1002 61.1107 25.0202 61.1107 23.6402C61.1107 23.5402 61.1107 23.4102 61.1107 23.2502C61.1307 23.0902 61.1607 22.9302 61.2007 22.7702L65.0407 20.1302L65.9407 20.8802L63.9007 23.4002C63.8807 23.4802 63.8707 23.5402 63.8707 23.5802C63.8707 23.6402 63.8707 23.7002 63.8707 23.7602C63.8707 24.4802 64.2707 25.0202 65.0707 25.3802C65.8707 25.7402 66.8707 25.9202 68.0707 25.9202C69.1307 25.9202 69.9907 25.7702 70.6507 25.4702C71.3107 25.1902 71.6407 24.7302 71.6407 24.0902C71.6407 23.7502 71.5407 23.4702 71.3407 23.2502C71.1407 23.0302 70.8407 22.8502 70.4407 22.7102C70.0407 22.5902 69.5607 22.4802 69.0007 22.3802C68.4607 22.3002 67.8307 22.2102 67.1107 22.1102C66.1907 21.9702 65.3007 21.7702 64.4407 21.5102C63.5807 21.2502 62.8707 20.8702 62.3107 20.3702C61.7507 19.8502 61.4707 19.1702 61.4707 18.3302C61.4707 17.6102 61.7207 16.9502 62.2207 16.3502C62.7407 15.7302 63.4107 15.2302 64.2307 14.8502L65.9107 16.0202C65.2907 16.1602 64.8407 16.3902 64.5607 16.7102C64.2807 17.0102 64.1407 17.3802 64.1407 17.8202C64.1407 18.1802 64.2707 18.4702 64.5307 18.6902C64.8107 18.9102 65.2007 19.0802 65.7007 19.2002C66.2007 19.3202 66.8007 19.4302 67.5007 19.5302C68.4807 19.6702 69.3907 19.8202 70.2307 19.9802C71.0907 20.1402 71.8407 20.3702 72.4807 20.6702C73.1407 20.9502 73.6407 21.3302 73.9807 21.8102C74.3407 22.3102 74.5207 22.9502 74.5207 23.7302C74.5207 25.1302 73.9507 26.2002 72.8107 26.9402C71.6907 27.6802 70.1107 28.0502 68.0707 28.0502ZM67.7407 17.1902C66.5607 17.1902 65.5207 16.9702 64.6207 16.5302C63.7407 16.0702 63.0507 15.4502 62.5507 14.6702C62.0507 13.8702 61.8007 12.9602 61.8007 11.9402C61.8007 10.8802 62.0607 9.95016 62.5807 9.15016C63.1007 8.35016 63.8007 7.73016 64.6807 7.29016C65.5807 6.83016 66.5707 6.60016 67.6507 6.60016C68.6907 6.60016 69.6507 6.83016 70.5307 7.29016C71.4307 7.73016 72.1407 8.36016 72.6607 9.18016C73.2007 10.0002 73.4707 10.9602 73.4707 12.0602C73.4707 13.1002 73.2207 14.0102 72.7207 14.7902C72.2407 15.5502 71.5707 16.1402 70.7107 16.5602C69.8507 16.9802 68.8607 17.1902 67.7407 17.1902ZM67.6807 14.8502C68.6007 14.8502 69.3107 14.5702 69.8107 14.0102C70.3107 13.4302 70.5607 12.7302 70.5607 11.9102C70.5607 11.0302 70.2907 10.3302 69.7507 9.81016C69.2307 9.27016 68.5407 9.00016 67.6807 9.00016C66.7807 9.00016 66.0607 9.27016 65.5207 9.81016C64.9807 10.3502 64.7107 11.0402 64.7107 11.8802C64.7107 12.7202 64.9707 13.4302 65.4907 14.0102C66.0107 14.5702 66.7407 14.8502 67.6807 14.8502ZM72.5107 9.75016L70.3807 8.34016L73.6207 5.73016L75.0907 7.56016L72.5107 9.75016ZM101.622 0.420156C101.322 1.20016 101.012 2.15016 100.692 3.27016C100.372 4.37016 100.042 5.72016 99.7017 7.32016H99.0417C99.2017 6.28016 99.2517 5.41016 99.1917 4.71016C99.1517 3.99016 99.0017 3.38016 98.7417 2.88015C98.3617 2.12016 97.8117 1.54016 97.0917 1.14016C96.3917 0.740155 95.6317 0.540155 94.8117 0.540155C93.7717 0.540155 92.7617 0.850155 91.7817 1.47016C90.8017 2.07016 89.8917 2.89016 89.0517 3.93016C88.2117 4.97016 87.4717 6.15016 86.8317 7.47016C86.1917 8.77016 85.6917 10.1302 85.3317 11.5502C84.9717 12.9502 84.7917 14.3202 84.7917 15.6602C84.7917 17.6202 85.1717 19.0902 85.9317 20.0702C86.7117 21.0502 87.7617 21.5402 89.0817 21.5402C89.9217 21.5402 90.8317 21.3402 91.8117 20.9402C92.8117 20.5402 93.6817 19.9602 94.4217 19.2002C94.9617 18.6602 95.4217 18.0302 95.8017 17.3102C96.2017 16.5702 96.6417 15.6202 97.1217 14.4602H97.7817C97.2817 16.2802 96.8917 17.7502 96.6117 18.8702C96.3517 19.9702 96.1517 20.9002 96.0117 21.6602H95.3517C95.4117 21.2402 95.4417 20.9002 95.4417 20.6402C95.4417 20.1802 95.3617 19.9302 95.2017 19.8902C95.0417 19.8302 94.7917 19.9102 94.4517 20.1302C93.9117 20.4902 93.3717 20.8202 92.8317 21.1202C92.2917 21.4002 91.7017 21.6302 91.0617 21.8102C90.4217 21.9902 89.6617 22.0802 88.7817 22.0802C86.5817 22.0802 84.8617 21.4902 83.6217 20.3102C82.4017 19.1102 81.7917 17.3502 81.7917 15.0302C81.7917 13.6702 82.0017 12.2902 82.4217 10.8902C82.8417 9.47016 83.4417 8.11016 84.2217 6.81016C85.0017 5.51016 85.9317 4.35016 87.0117 3.33016C88.0917 2.31016 89.2917 1.50015 90.6117 0.900155C91.9317 0.300155 93.3517 0.000154376 94.8717 0.000154376C95.7317 0.000154376 96.4317 0.100155 96.9717 0.300156C97.5117 0.480156 97.9617 0.720156 98.3217 1.02016C98.7017 1.30016 99.0417 1.61016 99.3417 1.95016C99.6217 2.23016 99.8817 2.27016 100.122 2.07015C100.382 1.85015 100.672 1.30016 100.992 0.420156H101.622ZM107.979 6.42016C107.339 6.42016 106.719 6.68016 106.119 7.20016C105.539 7.70016 104.999 8.39016 104.499 9.27016C104.019 10.1302 103.589 11.1002 103.209 12.1802C102.849 13.2602 102.569 14.3802 102.369 15.5402C102.169 16.7002 102.069 17.8102 102.069 18.8702C102.069 19.7702 102.209 20.4302 102.489 20.8502C102.789 21.2702 103.219 21.4802 103.779 21.4802C104.419 21.4802 105.029 21.2302 105.609 20.7302C106.209 20.2102 106.759 19.5202 107.259 18.6602C107.759 17.7802 108.189 16.8002 108.549 15.7202C108.909 14.6402 109.189 13.5302 109.389 12.3902C109.589 11.2302 109.689 10.1102 109.689 9.03016C109.689 8.11016 109.549 7.45016 109.269 7.05016C108.989 6.63016 108.559 6.42016 107.979 6.42016ZM99.4894 17.3702C99.4894 16.4902 99.6094 15.5302 99.8494 14.4902C100.089 13.4502 100.449 12.4202 100.929 11.4002C101.409 10.3802 101.989 9.45016 102.669 8.61016C103.369 7.77016 104.179 7.10016 105.099 6.60016C106.019 6.08016 107.039 5.82016 108.159 5.82016C109.399 5.82016 110.389 6.21016 111.129 6.99016C111.889 7.75016 112.269 8.93016 112.269 10.5302C112.269 11.4102 112.149 12.3702 111.909 13.4102C111.669 14.4502 111.309 15.4802 110.829 16.5002C110.349 17.5202 109.759 18.4502 109.059 19.2902C108.379 20.1302 107.579 20.8102 106.659 21.3302C105.739 21.8302 104.719 22.0802 103.599 22.0802C102.359 22.0802 101.359 21.6902 100.599 20.9102C99.8594 20.1302 99.4894 18.9502 99.4894 17.3702ZM115.638 21.6602H113.028L116.628 8.79016C116.688 8.61016 116.738 8.38016 116.778 8.10016C116.838 7.80016 116.838 7.53016 116.778 7.29016C116.718 7.05016 116.528 6.93016 116.208 6.93016C115.768 6.93016 115.368 7.16016 115.008 7.62016C114.648 8.08016 114.268 8.87016 113.868 9.99016L113.478 11.1002H112.908L113.658 8.91016C113.958 8.07016 114.308 7.43016 114.708 6.99016C115.128 6.55016 115.558 6.25015 115.998 6.09015C116.458 5.91016 116.888 5.82016 117.288 5.82016C117.888 5.82016 118.318 5.96016 118.578 6.24016C118.838 6.50016 118.978 6.85015 118.998 7.29016C119.038 7.71016 119.008 8.16016 118.908 8.64016C118.808 9.12016 118.698 9.58016 118.578 10.0202L115.638 21.6602ZM124.128 9.30016C124.268 8.88016 124.358 8.48016 124.398 8.10016C124.458 7.72016 124.428 7.41016 124.308 7.17016C124.208 6.91016 123.968 6.78016 123.588 6.78016C123.028 6.78016 122.408 7.13016 121.728 7.83016C121.068 8.51016 120.388 9.47016 119.688 10.7102C119.008 11.9302 118.348 13.3602 117.708 15.0002C117.068 16.6202 116.498 18.3602 115.998 20.2202L116.988 15.4202C117.908 13.0202 118.768 11.1202 119.568 9.72016C120.368 8.32016 121.168 7.32016 121.968 6.72016C122.788 6.12016 123.658 5.82016 124.578 5.82016C125.218 5.82016 125.678 5.97016 125.958 6.27016C126.258 6.55016 126.438 6.92016 126.498 7.38016C126.558 7.84016 126.538 8.33016 126.438 8.85016C126.358 9.37016 126.258 9.87016 126.138 10.3502L123.078 21.6602H120.378L124.128 9.30016ZM131.628 9.30016C131.828 8.68016 131.928 8.11016 131.928 7.59016C131.928 7.05016 131.708 6.78016 131.268 6.78016C130.668 6.78016 130.038 7.13016 129.378 7.83016C128.718 8.53016 128.038 9.53016 127.338 10.8302C126.638 12.1102 125.938 13.6202 125.238 15.3602C124.558 17.0802 123.898 18.9802 123.258 21.0602L123.948 17.2202C124.728 15.1402 125.448 13.3802 126.108 11.9402C126.768 10.4802 127.418 9.30016 128.058 8.40016C128.698 7.50016 129.358 6.85016 130.038 6.45016C130.718 6.03016 131.458 5.82016 132.258 5.82016C133.098 5.82016 133.668 6.06016 133.968 6.54016C134.268 7.02016 134.388 7.61016 134.328 8.31016C134.288 8.99016 134.158 9.67016 133.938 10.3502L131.028 19.1102C130.828 19.7302 130.758 20.2002 130.818 20.5202C130.878 20.8202 131.108 20.9702 131.508 20.9702C131.888 20.9702 132.258 20.7602 132.618 20.3402C132.998 19.9202 133.398 19.1102 133.818 17.9102L134.208 16.8002H134.778L134.028 18.9902C133.748 19.8302 133.398 20.4702 132.978 20.9102C132.578 21.3502 132.148 21.6502 131.688 21.8102C131.248 21.9902 130.818 22.0802 130.398 22.0802C129.898 22.0802 129.498 22.0002 129.198 21.8402C128.918 21.7002 128.698 21.5102 128.538 21.2702C128.298 20.8902 128.218 20.4202 128.298 19.8602C128.378 19.2802 128.538 18.6202 128.778 17.8802L131.628 9.30016ZM137.286 14.8502C138.406 14.4702 139.416 14.1002 140.316 13.7402C141.236 13.3602 141.966 12.9602 142.506 12.5402C143.226 11.9602 143.796 11.2602 144.216 10.4402C144.636 9.62016 144.846 8.72016 144.846 7.74016C144.846 7.16016 144.806 6.79016 144.726 6.63015C144.646 6.47016 144.526 6.39016 144.366 6.39016C143.866 6.39016 143.326 6.61016 142.746 7.05016C142.166 7.49016 141.596 8.10016 141.036 8.88016C140.476 9.64016 139.956 10.5102 139.476 11.4902C139.016 12.4702 138.646 13.5202 138.366 14.6402C138.086 15.7402 137.946 16.8402 137.946 17.9402C137.946 18.9602 138.136 19.7002 138.516 20.1602C138.896 20.6002 139.396 20.8202 140.016 20.8202C140.736 20.8202 141.496 20.6002 142.296 20.1602C143.096 19.7202 143.876 18.9402 144.636 17.8202L145.116 18.0602C144.736 18.7202 144.236 19.3602 143.616 19.9802C142.996 20.6002 142.296 21.1102 141.516 21.5102C140.756 21.8902 139.946 22.0802 139.086 22.0802C138.286 22.0802 137.586 21.9202 136.986 21.6002C136.386 21.2802 135.926 20.8102 135.606 20.1902C135.286 19.5502 135.126 18.7702 135.126 17.8502C135.126 16.9902 135.286 16.0302 135.606 14.9702C135.926 13.8902 136.376 12.8202 136.956 11.7602C137.556 10.6802 138.266 9.69016 139.086 8.79016C139.906 7.89016 140.816 7.17016 141.816 6.63015C142.816 6.09016 143.886 5.82016 145.026 5.82016C145.646 5.82016 146.166 5.99016 146.586 6.33016C147.026 6.65016 147.246 7.14016 147.246 7.80016C147.246 8.60016 147.006 9.35016 146.526 10.0502C146.066 10.7302 145.446 11.3602 144.666 11.9402C143.906 12.5002 143.076 13.0002 142.176 13.4402C141.276 13.8802 140.396 14.2602 139.536 14.5802C138.676 14.9002 137.916 15.1602 137.256 15.3602L137.286 14.8502ZM157.377 6.24016L157.287 6.84016H147.957L148.107 6.24016H157.377ZM149.757 19.1102C149.577 19.7702 149.617 20.2502 149.877 20.5502C150.157 20.8302 150.517 20.9702 150.957 20.9702C151.397 20.9702 151.837 20.7802 152.277 20.4002C152.737 20.0202 153.187 19.2102 153.627 17.9702L154.047 16.8002H154.617L153.987 18.6902C153.547 19.9902 152.977 20.8802 152.277 21.3602C151.597 21.8402 150.797 22.0802 149.877 22.0802C149.057 22.0802 148.427 21.9102 147.987 21.5702C147.567 21.2102 147.317 20.7102 147.237 20.0702C147.157 19.4302 147.237 18.7002 147.477 17.8802L152.127 1.68016C152.607 1.66016 153.077 1.62015 153.537 1.56016C154.017 1.50016 154.447 1.40016 154.827 1.26016L149.757 19.1102Z" fill="black" fill-opacity="0.68"/>
</svg>
